<?xml version="1.0" encoding="utf-8"?>
<!DOCTYPE svg>
<svg version="1.1" id="Layer_1" xmlns="http://www.w3.org/2000/svg" xmlns:xlink="http://www.w3.org/1999/xlink" x="0px" y="0px"
	 width="758.578px" height="453.266px" viewBox="0 0 758.578 453.266" enable-background="new 0 0 758.578 453.266"
	 xml:space="preserve">
<g id="Group_2151" transform="translate(19515 5451)">
	<g id="Rectangle_148" transform="translate(-19818.711 -5633.248)">
		<g id="Path_2698">
			<path fill="#FFFFFF" d="M331.114,182.248h703.771c15.133,0,27.4,12.268,27.4,27.4l0,0v398.46
				c0.001,15.134-12.267,27.403-27.4,27.405H331.114c-15.134-0.003-27.4-12.272-27.4-27.405V209.652
				C303.714,194.519,315.981,182.251,331.114,182.248z"/>
		</g>
	</g>
	<g id="Group_2077" transform="translate(-19776.934 -5612.19)">
		<g id="Path_2731">
			<path d="M323.6,198.545c-1.023,0.498-2.152,0.738-3.289,0.7c-1.529,0.067-3.013-0.53-4.069-1.637
				c-1.051-1.176-1.6-2.717-1.529-4.293c-0.074-1.708,0.546-3.374,1.72-4.618c1.142-1.173,2.724-1.812,4.36-1.761
				c0.959-0.03,1.915,0.136,2.807,0.49v1.487c-0.864-0.479-1.837-0.725-2.824-0.714c-1.254-0.046-2.468,0.454-3.326,1.37
				c-0.885,1.009-1.343,2.323-1.275,3.663c-0.065,1.267,0.362,2.509,1.191,3.468c0.804,0.866,1.946,1.337,3.127,1.292
				c1.089,0.027,2.165-0.25,3.106-0.8L323.6,198.545L323.6,198.545z"/>
		</g>
		<g id="Path_2732">
			<path d="M329.393,199.243c-1.128,0.052-2.224-0.383-3.01-1.193c-0.776-0.864-1.18-2-1.125-3.16
				c-0.072-1.228,0.349-2.433,1.171-3.347c0.84-0.825,1.988-1.26,3.165-1.2c1.114-0.063,2.198,0.365,2.969,1.171
				c0.755,0.908,1.137,2.069,1.067,3.248c0.058,1.195-0.355,2.365-1.15,3.26C331.673,198.853,330.549,199.297,329.393,199.243z
				 M329.493,191.485c-0.792-0.035-1.558,0.293-2.077,0.893c-0.544,0.702-0.815,1.576-0.764,2.462
				c-0.049,0.864,0.227,1.714,0.772,2.385c0.524,0.585,1.283,0.905,2.068,0.872c0.773,0.046,1.523-0.271,2.03-0.856
				c0.515-0.702,0.766-1.563,0.71-2.433c0.057-0.877-0.195-1.747-0.71-2.459C331.018,191.759,330.267,191.439,329.493,191.485z"/>
		</g>
		<g id="Path_2733">
			<path d="M347.882,199.044h-1.362v-4.884c0.055-0.709-0.097-1.418-0.437-2.043c-0.348-0.448-0.901-0.686-1.466-0.631
				c-0.596,0.008-1.15,0.307-1.483,0.8c-0.413,0.55-0.628,1.223-0.61,1.911v4.851h-1.362v-5.05c0-1.672-0.645-2.508-1.935-2.509
				c-0.586-0.005-1.138,0.275-1.479,0.751c-0.409,0.568-0.614,1.258-0.582,1.957v4.851H335.8v-8.508h1.362v1.345h0.033
				c0.514-0.977,1.539-1.576,2.642-1.544c1.108-0.023,2.095,0.698,2.409,1.76c0.507-1.097,1.616-1.788,2.824-1.76
				c1.872,0,2.808,1.154,2.808,3.463L347.882,199.044z"/>
		</g>
		<g id="Path_2734">
			<path d="M351.852,197.814h-0.034v5.141h-1.362v-12.416h1.362v1.494h0.034c0.579-1.077,1.717-1.733,2.939-1.694
				c0.989-0.048,1.941,0.376,2.567,1.143c0.653,0.882,0.979,1.964,0.922,3.06c0.062,1.225-0.305,2.434-1.038,3.418
				c-0.69,0.854-1.744,1.33-2.841,1.283C353.353,199.273,352.373,198.724,351.852,197.814z M351.818,194.383v1.188
				c-0.015,0.664,0.231,1.307,0.686,1.79c0.943,0.965,2.49,0.982,3.455,0.039c0.081-0.079,0.156-0.163,0.225-0.252
				c0.51-0.78,0.755-1.703,0.7-2.633c0.047-0.795-0.185-1.583-0.656-2.225c-0.432-0.535-1.091-0.833-1.777-0.806
				c-0.729-0.027-1.432,0.276-1.911,0.827C352.049,192.888,351.792,193.626,351.818,194.383z"/>
		</g>
		<g id="Path_2735">
			<path d="M366.543,199.044h-1.362v-1.329h-0.033c-0.507,0.969-1.524,1.563-2.617,1.528c-0.726,0.042-1.439-0.199-1.989-0.673
				c-0.485-0.463-0.747-1.114-0.718-1.785c0-1.589,0.936-2.514,2.807-2.774l2.55-0.356c0-1.446-0.584-2.168-1.752-2.168
				c-1.021,0-2.007,0.372-2.773,1.046v-1.4c0.865-0.542,1.87-0.819,2.89-0.8c2,0,3,1.058,3,3.173v5.531L366.543,199.044z
				 M365.181,194.744l-2.051,0.282c-0.506,0.045-0.995,0.206-1.429,0.469c-0.351,0.291-0.532,0.738-0.482,1.191
				c-0.012,0.389,0.152,0.762,0.445,1.018c0.33,0.277,0.752,0.42,1.183,0.4c0.634,0.018,1.245-0.242,1.673-0.71
				c0.447-0.491,0.684-1.137,0.66-1.8v-0.847L365.181,194.744z"/>
		</g>
		<g id="Path_2736">
			<path d="M376.17,199.044h-1.362v-4.851c0-1.805-0.659-2.707-1.977-2.708c-0.651-0.014-1.273,0.269-1.69,0.769
				c-0.457,0.541-0.695,1.232-0.669,1.939v4.851h-1.362v-8.505h1.362v1.412h0.033c0.551-1.021,1.63-1.645,2.79-1.611
				c0.813-0.051,1.604,0.282,2.135,0.9c0.54,0.755,0.801,1.674,0.74,2.6V199.044z"/>
		</g>
		<g id="Path_2737">
			<path d="M385.505,190.539l-3.912,9.867c-0.696,1.762-1.676,2.642-2.939,2.641c-0.3,0.007-0.6-0.029-0.89-0.108v-1.221
				c0.259,0.093,0.531,0.144,0.806,0.149c0.728-0.029,1.354-0.526,1.545-1.229l0.682-1.611l-3.323-8.488h1.512l2.3,6.544
				c0.027,0.083,0.085,0.299,0.174,0.648h0.05c0.027-0.133,0.083-0.344,0.167-0.631l2.417-6.561H385.505L385.505,190.539z"/>
		</g>
		<g id="Path_2738">
			<path d="M401.028,199.044h-1.545l-1.262-3.339h-5.05l-1.187,3.339h-1.553l4.569-11.91h1.444L401.028,199.044z M397.764,194.45
				l-1.868-5.074c-0.084-0.261-0.146-0.528-0.183-0.8h-0.034c-0.039,0.272-0.103,0.54-0.19,0.8l-1.852,5.074H397.764z"/>
		</g>
		<g id="Path_2739">
			<path d="M408.395,198.653c-0.706,0.407-1.511,0.611-2.326,0.59c-1.103,0.044-2.172-0.387-2.936-1.184
				c-0.762-0.836-1.164-1.939-1.117-3.069c-0.06-1.239,0.371-2.452,1.2-3.376c0.84-0.865,2.011-1.329,3.215-1.275
				c0.682-0.014,1.358,0.128,1.977,0.416v1.4c-0.589-0.429-1.299-0.661-2.027-0.664c-0.816-0.023-1.601,0.32-2.138,0.935
				c-0.579,0.684-0.877,1.561-0.835,2.455c-0.048,0.857,0.232,1.701,0.785,2.358c0.54,0.584,1.311,0.9,2.105,0.864
				c0.761-0.006,1.498-0.267,2.093-0.74v1.3L408.395,198.653z"/>
		</g>
		<g id="Path_2740">
			<path d="M416.253,198.653c-0.706,0.407-1.511,0.611-2.326,0.59c-1.103,0.044-2.172-0.387-2.936-1.184
				c-0.763-0.836-1.164-1.939-1.117-3.069c-0.06-1.239,0.371-2.452,1.2-3.376c0.84-0.865,2.01-1.329,3.215-1.275
				c0.682-0.014,1.358,0.128,1.977,0.416v1.4c-0.589-0.428-1.298-0.661-2.026-0.664c-0.817-0.023-1.602,0.32-2.139,0.935
				c-0.578,0.684-0.876,1.561-0.834,2.455c-0.048,0.857,0.232,1.701,0.785,2.358c0.541,0.584,1.311,0.9,2.105,0.864
				c0.76-0.007,1.497-0.267,2.093-0.74v1.3L416.253,198.653z"/>
		</g>
		<g id="Path_2741">
			<path d="M421.867,199.243c-1.128,0.052-2.224-0.383-3.01-1.193c-0.776-0.864-1.181-2-1.125-3.16
				c-0.073-1.228,0.349-2.433,1.171-3.347c0.841-0.825,1.989-1.26,3.165-1.2c1.113-0.063,2.198,0.365,2.969,1.171
				c0.755,0.908,1.137,2.069,1.067,3.248c0.058,1.195-0.355,2.365-1.15,3.26C424.147,198.853,423.023,199.297,421.867,199.243z
				 M421.967,191.485c-0.792-0.035-1.558,0.293-2.077,0.893c-0.544,0.702-0.815,1.576-0.764,2.462
				c-0.049,0.864,0.227,1.714,0.772,2.385c0.524,0.585,1.283,0.905,2.068,0.872c0.773,0.046,1.523-0.271,2.03-0.856
				c0.515-0.702,0.766-1.563,0.71-2.433c0.056-0.877-0.195-1.747-0.71-2.459C423.492,191.759,422.741,191.439,421.967,191.485z"/>
		</g>
		<g id="Path_2742">
			<path d="M435.157,199.044H433.8V197.7h-0.033c-0.494,0.987-1.522,1.592-2.625,1.545c-2.027,0-3.041-1.207-3.04-3.621v-5.083
				h1.353v4.867c0,1.793,0.687,2.69,2.061,2.691c0.629,0.016,1.232-0.255,1.64-0.735c0.446-0.538,0.676-1.224,0.644-1.923v-4.9
				h1.362v8.5L435.157,199.044z"/>
		</g>
		<g id="Path_2743">
			<path d="M444.965,199.044H443.6v-4.851c0-1.805-0.659-2.707-1.976-2.708c-0.651-0.014-1.273,0.269-1.69,0.769
				c-0.457,0.541-0.695,1.232-0.669,1.939v4.851H437.9v-8.505h1.362v1.412h0.034c0.551-1.021,1.63-1.645,2.79-1.611
				c0.813-0.051,1.604,0.282,2.135,0.9c0.54,0.755,0.8,1.674,0.739,2.6L444.965,199.044z"/>
		</g>
		<g id="Path_2744">
			<path d="M451.476,198.96c-0.395,0.193-0.832,0.284-1.271,0.265c-1.489,0-2.234-0.831-2.234-2.491V191.7h-1.461v-1.162h1.461
				v-2.077l1.362-0.44v2.517h2.143v1.162h-2.143v4.793c-0.038,0.428,0.064,0.856,0.291,1.221c0.247,0.266,0.603,0.401,0.964,0.365
				c0.319,0.008,0.632-0.092,0.888-0.282V198.96L451.476,198.96z"/>
		</g>
	</g>
	<g id="Group_1286" transform="translate(-19776.934 -5531.531)">
		<g id="Rectangle_1044" transform="translate(0.222 0.496)">
			<g id="Group_2079">
				<g id="Rectangle_1008">
					<rect x="301.4" y="176.626" fill="#FFFFFF" width="12.284" height="11.34"/>
				</g>
			</g>
			<g id="Group_2080">
				<g id="Path_2757">
					<path fill="#707070" d="M313.975,188.256h-12.866v-11.92h12.866V188.256z M302.635,186.731h9.814v-8.87h-9.814V186.731z"/>
				</g>
			</g>
		</g>
		<g id="Rectangle_1045">
			<g id="Path_2758">
				<path fill="#DFDFDF" d="M326.192,177.122H418.8c3.131,0,5.668,2.538,5.669,5.669l0,0c0,3.131-2.538,5.669-5.669,5.67h-92.608
					c-3.131,0-5.669-2.539-5.67-5.67l0,0c0-3.13,2.537-5.668,5.667-5.669C326.19,177.122,326.191,177.122,326.192,177.122z"/>
			</g>
		</g>
	</g>
	<g id="Group_1286-2" transform="translate(-19583.891 -5531.531)">
		<g id="Rectangle_1044-2" transform="translate(0.179 0.496)">
			<g id="Group_2081">
				<g id="Rectangle_1009">
					<rect x="290.783" y="176.626" fill="#FFFFFF" width="12.285" height="11.34"/>
				</g>
			</g>
			<g id="Group_2082">
				<g id="Path_2759">
					<path fill="#707070" d="M303.358,188.256h-12.865v-11.92h12.865V188.256z M292.018,186.731h9.815v-8.87h-9.815V186.731z"/>
				</g>
			</g>
		</g>
		<g id="Rectangle_1045-2">
			<g id="Path_2760">
				<path fill="#DFDFDF" d="M315.532,177.122h92.607c3.131-0.001,5.67,2.536,5.671,5.667c0,0,0,0.001,0,0.002l0,0
					c0,3.131-2.539,5.67-5.67,5.67c0,0-0.001,0-0.001,0h-92.607c-3.132,0-5.67-2.539-5.671-5.67l0,0
					c0-3.131,2.538-5.669,5.669-5.669C315.531,177.122,315.531,177.122,315.532,177.122z"/>
			</g>
		</g>
	</g>
	<g id="Group_1286-3" transform="translate(-19390.848 -5531.531)">
		<g id="Rectangle_1044-3" transform="translate(0.136 0.496)">
			<g id="Group_2083">
				<g id="Rectangle_1010">
					<rect x="280.166" y="176.626" fill="#FFFFFF" width="12.283" height="11.34"/>
				</g>
			</g>
			<g id="Group_2084">
				<g id="Path_2761">
					<path fill="#707070" d="M292.742,188.256h-12.868v-11.92h12.868V188.256z M281.4,186.731h9.815v-8.87H281.4V186.731z"/>
				</g>
			</g>
		</g>
		<g id="Rectangle_1045-3">
			<g id="Path_2762">
				<path fill="#DFDFDF" d="M304.871,177.122h92.607c3.132,0,5.67,2.538,5.671,5.669l0,0c-0.001,3.131-2.539,5.669-5.671,5.67
					h-92.607c-3.131,0-5.67-2.539-5.67-5.67l0,0C299.201,179.66,301.74,177.122,304.871,177.122z"/>
			</g>
		</g>
	</g>
	<g id="Group_1286-4" transform="translate(-19197.803 -5531.531)">
		<g id="Rectangle_1044-4" transform="translate(0.093 0.496)">
			<g id="Group_2085">
				<g id="Rectangle_1011">
					<rect x="269.549" y="176.626" fill="#FFFFFF" width="12.285" height="11.34"/>
				</g>
			</g>
			<g id="Group_2086">
				<g id="Path_2763">
					<path fill="#707070" d="M282.123,188.256h-12.864v-11.92h12.864V188.256z M270.784,186.731h9.816v-8.87h-9.814L270.784,186.731
						z"/>
				</g>
			</g>
		</g>
		<g id="Rectangle_1045-4">
			<g id="Path_2764">
				<path fill="#DFDFDF" d="M294.211,177.122h92.61c3.131,0,5.669,2.537,5.67,5.668c0,0,0,0,0,0.001l0,0
					c0,3.131-2.539,5.67-5.67,5.67l0,0h-92.61c-3.131,0-5.67-2.539-5.67-5.67l0,0C288.541,179.66,291.079,177.122,294.211,177.122
					L294.211,177.122z"/>
			</g>
		</g>
	</g>
	<g id="Group_1286-5" transform="translate(-19776.934 -5504.159)">
		<g id="Rectangle_1044-5" transform="translate(0.222 0.124)">
			<g id="Group_2087">
				<g id="Rectangle_1012">
					<rect x="301.4" y="175.141" fill="#FFFFFF" width="12.284" height="12.285"/>
				</g>
			</g>
			<g id="Group_2088">
				<g id="Path_2765">
					<path fill="#707070" d="M313.975,187.716h-12.866V174.85h12.866V187.716z M302.635,186.19h9.814v-9.815h-9.814V186.19z"/>
				</g>
			</g>
		</g>
		<g id="Rectangle_1045-5">
			<g id="Path_2766">
				<path fill="#DFDFDF" d="M326.663,175.265h91.664c3.393,0,6.143,2.75,6.143,6.143l0,0l0,0c0,3.392-2.75,6.142-6.142,6.142
					c0,0-0.001,0-0.001,0h-91.664c-3.392,0-6.142-2.75-6.142-6.142l0,0C320.521,178.016,323.271,175.266,326.663,175.265z"/>
			</g>
		</g>
	</g>
	<g id="Group_1286-6" transform="translate(-19583.891 -5504.159)">
		<g id="Rectangle_1044-6" transform="translate(0.179 0.124)">
			<g id="Group_2089">
				<g id="Rectangle_1013">
					<rect x="290.783" y="175.141" fill="#FFFFFF" width="12.285" height="12.285"/>
				</g>
			</g>
			<g id="Group_2090">
				<g id="Path_2767">
					<path fill="#707070" d="M303.358,187.716h-12.865V174.85h12.865V187.716z M292.018,186.19h9.815v-9.815h-9.815V186.19z"/>
				</g>
			</g>
		</g>
		<g id="Rectangle_1045-6">
			<g id="Path_2768">
				<path fill="#DFDFDF" d="M316,175.265h91.663c3.392-0.001,6.143,2.748,6.144,6.14c0,0.001,0,0.002,0,0.003l0,0
					c0,3.392-2.75,6.142-6.142,6.142c-0.001,0-0.001,0-0.002,0H316c-3.393,0-6.143-2.75-6.143-6.142l0,0
					C309.857,178.015,312.607,175.265,316,175.265L316,175.265z"/>
			</g>
		</g>
	</g>
	<g id="Group_1286-7" transform="translate(-19390.848 -5504.159)">
		<g id="Rectangle_1044-7" transform="translate(0.136 0.124)">
			<g id="Group_2091">
				<g id="Rectangle_1014">
					<rect x="280.166" y="175.141" fill="#FFFFFF" width="12.283" height="12.285"/>
				</g>
			</g>
			<g id="Group_2092">
				<g id="Path_2769">
					<path fill="#707070" d="M292.742,187.716h-12.868V174.85h12.868V187.716z M281.4,186.19h9.815v-9.815H281.4V186.19z"/>
				</g>
			</g>
		</g>
		<g id="Rectangle_1045-7">
			<g id="Path_2770">
				<path fill="#DFDFDF" d="M305.342,175.265h91.664c3.393,0,6.144,2.749,6.145,6.142c0,0,0,0,0,0.001l0,0
					c-0.001,3.393-2.752,6.143-6.145,6.142l0,0h-91.664c-3.392,0-6.141-2.75-6.141-6.142l0,0
					C299.2,178.016,301.95,175.266,305.342,175.265z"/>
			</g>
		</g>
	</g>
	<g id="Group_1286-8" transform="translate(-19197.803 -5504.159)">
		<g id="Rectangle_1044-8" transform="translate(0.093 0.124)">
			<g id="Group_2093">
				<g id="Rectangle_1015">
					<rect x="269.549" y="175.141" fill="#FFFFFF" width="12.285" height="12.285"/>
				</g>
			</g>
			<g id="Group_2094">
				<g id="Path_2771">
					<path fill="#707070" d="M282.123,187.716h-12.864V174.85h12.864V187.716z M270.784,186.19h9.816v-9.815h-9.814L270.784,186.19z
						"/>
				</g>
			</g>
		</g>
		<g id="Rectangle_1045-8">
			<g id="Path_2772">
				<path fill="#DFDFDF" d="M294.685,175.265h91.664c3.394,0,6.144,2.75,6.144,6.143l0,0l0,0c0,3.392-2.75,6.142-6.143,6.142
					c0,0,0,0-0.001,0h-91.664c-3.393,0.001-6.144-2.749-6.144-6.142l0,0l0,0C288.541,178.015,291.291,175.265,294.685,175.265
					C294.685,175.265,294.685,175.265,294.685,175.265z"/>
			</g>
		</g>
	</g>
	<g id="Group_1286-9" transform="translate(-19776.934 -5476.787)">
		<g id="Rectangle_1044-9" transform="translate(0.222 -0.248)">
			<g id="Group_2095">
				<g id="Rectangle_1016">
					<rect x="301.4" y="173.655" fill="#FFFFFF" width="12.284" height="12.284"/>
				</g>
			</g>
			<g id="Group_2096">
				<g id="Path_2773">
					<path fill="#707070" d="M313.975,186.23h-12.866v-12.865h12.866V186.23z M302.635,184.704h9.814v-9.814h-9.814V184.704z"/>
				</g>
			</g>
		</g>
		<g id="Rectangle_1045-9">
			<g id="Path_2774">
				<path fill="#DFDFDF" d="M326.663,173.407h91.664c3.393,0,6.143,2.75,6.143,6.143l0,0l0,0c0,3.393-2.75,6.142-6.142,6.142
					c0,0-0.001,0-0.001,0h-91.664c-3.392,0-6.142-2.75-6.142-6.142l0,0C320.521,176.158,323.271,173.408,326.663,173.407z"/>
			</g>
		</g>
	</g>
	<g id="Group_1286-10" transform="translate(-19583.891 -5476.787)">
		<g id="Rectangle_1044-10" transform="translate(0.179 -0.248)">
			<g id="Group_2097">
				<g id="Rectangle_1017">
					<rect x="290.783" y="173.655" fill="#FFFFFF" width="12.285" height="12.284"/>
				</g>
			</g>
			<g id="Group_2098">
				<g id="Path_2775">
					<path fill="#707070" d="M303.358,186.23h-12.865v-12.865h12.865V186.23z M292.018,184.704h9.815v-9.814h-9.815V184.704z"/>
				</g>
			</g>
		</g>
		<g id="Rectangle_1045-10">
			<g id="Path_2776">
				<path fill="#DFDFDF" d="M316,173.407h91.663c3.392-0.001,6.143,2.748,6.144,6.14c0,0.001,0,0.002,0,0.003l0,0
					c0,3.392-2.749,6.142-6.14,6.142c-0.001,0-0.003,0-0.004,0H316c-3.392,0-6.143-2.749-6.143-6.141c0,0,0,0,0-0.001l0,0
					C309.857,176.158,312.607,173.408,316,173.407z"/>
			</g>
		</g>
	</g>
	<g id="Group_1286-11" transform="translate(-19390.848 -5476.787)">
		<g id="Rectangle_1044-11" transform="translate(0.136 -0.248)">
			<g id="Group_2099">
				<g id="Rectangle_1018">
					<rect x="280.166" y="173.655" fill="#FFFFFF" width="12.283" height="12.284"/>
				</g>
			</g>
			<g id="Group_2100">
				<g id="Path_2777">
					<path fill="#707070" d="M292.742,186.23h-12.868v-12.865h12.868V186.23z M281.4,184.7h9.815v-9.81H281.4V184.7z"/>
				</g>
			</g>
		</g>
		<g id="Rectangle_1045-11">
			<g id="Path_2778">
				<path fill="#DFDFDF" d="M305.342,173.407h91.664c3.393-0.001,6.144,2.749,6.145,6.142c0,0,0,0.001,0,0.001l0,0
					c0,3.393-2.75,6.142-6.143,6.142c0,0-0.001,0-0.002,0h-91.664c-3.392,0-6.141-2.75-6.141-6.141c0,0,0,0,0-0.001l0,0
					C299.201,176.158,301.95,173.408,305.342,173.407z"/>
			</g>
		</g>
	</g>
	<g id="Group_1286-12" transform="translate(-19197.803 -5476.787)">
		<g id="Rectangle_1044-12" transform="translate(0.093 -0.248)">
			<g id="Group_2101">
				<g id="Rectangle_1019">
					<rect x="269.549" y="173.655" fill="#FFFFFF" width="12.285" height="12.284"/>
				</g>
			</g>
			<g id="Group_2102">
				<g id="Path_2779">
					<path fill="#707070" d="M282.123,186.23h-12.864v-12.865h12.864V186.23z M270.784,184.7h9.816v-9.81h-9.814L270.784,184.7z"/>
				</g>
			</g>
		</g>
		<g id="Rectangle_1045-12">
			<g id="Path_2780">
				<path fill="#DFDFDF" d="M294.685,173.407h91.664c3.394,0,6.144,2.75,6.144,6.143l0,0l0,0c0,3.393-2.75,6.142-6.143,6.142
					c0,0,0,0-0.001,0h-91.664c-3.392,0.001-6.143-2.748-6.144-6.14c0,0,0-0.001,0-0.002l0,0
					C288.541,176.157,291.291,173.407,294.685,173.407C294.685,173.407,294.685,173.407,294.685,173.407z"/>
			</g>
		</g>
	</g>
	<g id="Group_1286-13" transform="translate(-19776.934 -5392.511)">
		<g id="Rectangle_1044-13" transform="translate(0.222 0.476)">
			<g id="Group_2103">
				<g id="Rectangle_1020">
					<rect x="301.4" y="168.977" fill="#FFFFFF" width="12.284" height="11.342"/>
				</g>
			</g>
			<g id="Group_2104">
				<g id="Path_2781">
					<path fill="#707070" d="M313.975,180.607h-12.866v-11.92h12.866V180.607z M302.635,179.083h9.814v-8.869h-9.814V179.083z"/>
				</g>
			</g>
		</g>
		<g id="Rectangle_1045-13">
			<g id="Path_2782">
				<path fill="#DFDFDF" d="M326.192,169.453H418.8c3.132,0.001,5.67,2.54,5.669,5.672l0,0l0,0c0,3.131-2.538,5.67-5.669,5.67
					h-92.608c-3.131,0-5.67-2.538-5.67-5.67l0,0l0,0c-0.001-3.131,2.537-5.67,5.668-5.672
					C326.19,169.453,326.191,169.453,326.192,169.453z"/>
			</g>
		</g>
	</g>
	<g id="Group_1286-14" transform="translate(-19583.891 -5392.511)">
		<g id="Rectangle_1044-14" transform="translate(0.179 0.476)">
			<g id="Group_2105">
				<g id="Rectangle_1021">
					<rect x="290.783" y="168.977" fill="#FFFFFF" width="12.285" height="11.342"/>
				</g>
			</g>
			<g id="Group_2106">
				<g id="Path_2783">
					<path fill="#707070" d="M303.358,180.607h-12.865v-11.92h12.865V180.607z M292.018,179.083h9.815v-8.869h-9.815V179.083z"/>
				</g>
			</g>
		</g>
		<g id="Rectangle_1045-14">
			<g id="Path_2784">
				<path fill="#DFDFDF" d="M315.532,169.453h92.607c3.131-0.001,5.67,2.537,5.671,5.668c0,0.001,0,0.003,0,0.004l0,0
					c0,3.132-2.539,5.67-5.67,5.67c0,0-0.001,0-0.001,0h-92.607c-3.132,0-5.671-2.538-5.671-5.67l0,0
					C309.86,171.994,312.399,169.454,315.532,169.453C315.531,169.453,315.532,169.453,315.532,169.453z"/>
			</g>
		</g>
	</g>
	<g id="Group_1286-15" transform="translate(-19390.848 -5392.511)">
		<g id="Rectangle_1044-15" transform="translate(0.136 0.476)">
			<g id="Group_2107">
				<g id="Rectangle_1022">
					<rect x="280.166" y="168.977" fill="#FFFFFF" width="12.283" height="11.342"/>
				</g>
			</g>
			<g id="Group_2108">
				<g id="Path_2785">
					<path fill="#707070" d="M292.742,180.607h-12.868v-11.92h12.868V180.607z M281.4,179.083h9.815v-8.869H281.4V179.083z"/>
				</g>
			</g>
		</g>
		<g id="Rectangle_1045-15">
			<g id="Path_2786">
				<path fill="#DFDFDF" d="M304.871,169.453h92.607c3.132,0,5.671,2.539,5.671,5.67c0,0.001,0,0.002,0,0.002l0,0
					c0,3.132-2.539,5.67-5.671,5.67l0,0h-92.607c-3.132,0-5.67-2.538-5.67-5.67l0,0l0,0
					C299.201,171.994,301.739,169.455,304.871,169.453z"/>
			</g>
		</g>
	</g>
	<g id="Group_1286-16" transform="translate(-19197.803 -5392.511)">
		<g id="Rectangle_1044-16" transform="translate(0.093 0.476)">
			<g id="Group_2109">
				<g id="Rectangle_1023">
					<rect x="269.549" y="168.977" fill="#FFFFFF" width="12.285" height="11.342"/>
				</g>
			</g>
			<g id="Group_2110">
				<g id="Path_2787">
					<path fill="#707070" d="M282.123,180.607h-12.864v-11.92h12.864V180.607z M270.784,179.083h9.816v-8.869h-9.814
						L270.784,179.083z"/>
				</g>
			</g>
		</g>
		<g id="Rectangle_1045-16">
			<g id="Path_2788">
				<path fill="#DFDFDF" d="M294.211,169.453h92.61c3.131,0,5.67,2.539,5.67,5.67c0,0.001,0,0.002,0,0.002l0,0
					c0,3.131-2.537,5.67-5.668,5.67c-0.001,0-0.002,0-0.002,0h-92.61c-3.132,0-5.67-2.538-5.67-5.67l0,0l0,0
					C288.54,171.994,291.079,169.454,294.211,169.453L294.211,169.453z"/>
			</g>
		</g>
	</g>
	<g id="Group_1286-17" transform="translate(-19776.934 -5365.139)">
		<g id="Rectangle_1044-17" transform="translate(0.222 0.104)">
			<g id="Group_2111">
				<g id="Rectangle_1024">
					<rect x="301.4" y="167.494" fill="#FFFFFF" width="12.284" height="12.283"/>
				</g>
			</g>
			<g id="Group_2112">
				<g id="Path_2789">
					<path fill="#707070" d="M313.975,180.068h-12.866V167.2h12.866V180.068z M302.635,178.544h9.814v-9.815h-9.814V178.544z"/>
				</g>
			</g>
		</g>
		<g id="Rectangle_1045-17">
			<g id="Path_2790">
				<path fill="#DFDFDF" d="M326.663,167.6h91.664c3.393,0,6.143,2.75,6.143,6.143c0,0,0,0.001,0,0.002l0,0
					c-0.001,3.392-2.751,6.141-6.143,6.141l0,0h-91.664c-3.392,0-6.142-2.75-6.142-6.141l0,0
					C320.521,170.352,323.271,167.601,326.663,167.6z"/>
			</g>
		</g>
	</g>
	<g id="Group_1286-18" transform="translate(-19583.891 -5365.139)">
		<g id="Rectangle_1044-18" transform="translate(0.179 0.104)">
			<g id="Group_2113">
				<g id="Rectangle_1025">
					<rect x="290.783" y="167.494" fill="#FFFFFF" width="12.285" height="12.283"/>
				</g>
			</g>
			<g id="Group_2114">
				<g id="Path_2791">
					<path fill="#707070" d="M303.358,180.068h-12.865V167.2h12.865V180.068z M292.018,178.544h9.815v-9.815h-9.815V178.544z"/>
				</g>
			</g>
		</g>
		<g id="Rectangle_1045-18">
			<g id="Path_2792">
				<path fill="#DFDFDF" d="M316,167.6h91.663c3.392-0.001,6.143,2.748,6.144,6.14c0,0.001,0,0.003,0,0.005l0,0
					c0,3.392-2.751,6.141-6.143,6.141c0,0-0.001,0-0.001,0H316c-3.392,0-6.142-2.75-6.143-6.141l0,0
					C309.856,170.351,312.606,167.6,316,167.6C316,167.6,316,167.6,316,167.6z"/>
			</g>
		</g>
	</g>
	<g id="Group_1286-19" transform="translate(-19390.848 -5365.139)">
		<g id="Rectangle_1044-19" transform="translate(0.136 0.104)">
			<g id="Group_2115">
				<g id="Rectangle_1026">
					<rect x="280.166" y="167.494" fill="#FFFFFF" width="12.283" height="12.283"/>
				</g>
			</g>
			<g id="Group_2116">
				<g id="Path_2793">
					<path fill="#707070" d="M292.742,180.068h-12.868V167.2h12.868V180.068z M281.4,178.544h9.815v-9.815H281.4V178.544z"/>
				</g>
			</g>
		</g>
		<g id="Rectangle_1045-19">
			<g id="Path_2794">
				<path fill="#DFDFDF" d="M305.342,167.6h91.664c3.393,0,6.144,2.749,6.145,6.143c0,0,0,0,0,0.002l0,0
					c-0.001,3.392-2.751,6.141-6.144,6.141h-0.001h-91.664c-3.391-0.001-6.141-2.75-6.141-6.141l0,0
					C299.2,170.352,301.949,167.601,305.342,167.6C305.342,167.6,305.342,167.6,305.342,167.6z"/>
			</g>
		</g>
	</g>
	<g id="Group_1286-20" transform="translate(-19197.803 -5365.139)">
		<g id="Rectangle_1044-20" transform="translate(0.093 0.104)">
			<g id="Group_2117">
				<g id="Rectangle_1027">
					<rect x="269.549" y="167.494" fill="#FFFFFF" width="12.285" height="12.283"/>
				</g>
			</g>
			<g id="Group_2118">
				<g id="Path_2795">
					<path fill="#707070" d="M282.123,180.068h-12.864V167.2h12.864V180.068z M270.784,178.544h9.816v-9.815h-9.814L270.784,178.544
						z"/>
				</g>
			</g>
		</g>
		<g id="Rectangle_1045-20">
			<g id="Path_2796">
				<path fill="#DFDFDF" d="M294.685,167.6h91.664c3.394,0,6.144,2.75,6.144,6.143c0,0,0,0.001,0,0.002l0,0
					c-0.001,3.392-2.751,6.141-6.144,6.141l0,0h-91.664c-3.392,0.001-6.143-2.748-6.144-6.141l0,0l0,0
					c-0.001-3.394,2.749-6.145,6.142-6.145C294.684,167.6,294.685,167.6,294.685,167.6z"/>
			</g>
		</g>
	</g>
	<g id="Group_1286-21" transform="translate(-19776.934 -5337.767)">
		<g id="Rectangle_1044-21" transform="translate(0.222 -0.268)">
			<g id="Group_2119">
				<g id="Rectangle_1028">
					<rect x="301.4" y="166.01" fill="#FFFFFF" width="12.284" height="12.284"/>
				</g>
			</g>
			<g id="Group_2120">
				<g id="Path_2797">
					<path fill="#707070" d="M313.975,178.583h-12.866v-12.862h12.866V178.583z M302.635,177.059h9.814v-9.814h-9.814V177.059z"/>
				</g>
			</g>
		</g>
		<g id="Rectangle_1045-21">
			<g id="Path_2798">
				<path fill="#DFDFDF" d="M326.663,165.742h91.664c3.392-0.002,6.142,2.748,6.143,6.141c0,0,0,0.002,0,0.003l0,0
					c0,3.392-2.75,6.142-6.142,6.142c0,0-0.001,0-0.001,0h-91.664c-3.392,0-6.142-2.75-6.142-6.142l0,0
					C320.521,168.492,323.271,165.742,326.663,165.742z"/>
			</g>
		</g>
	</g>
	<g id="Group_1286-22" transform="translate(-19583.891 -5337.767)">
		<g id="Rectangle_1044-22" transform="translate(0.179 -0.268)">
			<g id="Group_2121">
				<g id="Rectangle_1029">
					<rect x="290.783" y="166.01" fill="#FFFFFF" width="12.285" height="12.284"/>
				</g>
			</g>
			<g id="Group_2122">
				<g id="Path_2799">
					<path fill="#707070" d="M303.358,178.583h-12.865v-12.862h12.865V178.583z M292.018,177.059h9.815v-9.814h-9.815V177.059z"/>
				</g>
			</g>
		</g>
		<g id="Rectangle_1045-22">
			<g id="Path_2800">
				<path fill="#DFDFDF" d="M316,165.742h91.663c3.392-0.002,6.143,2.747,6.144,6.139c0,0.002,0,0.004,0,0.005l0,0
					c0,3.392-2.749,6.142-6.14,6.142c-0.001,0-0.003,0-0.004,0H316c-3.392,0-6.143-2.748-6.143-6.141v-0.001l0,0
					C309.856,168.492,312.606,165.742,316,165.742C316,165.742,316,165.742,316,165.742z"/>
			</g>
		</g>
	</g>
	<g id="Group_1286-23" transform="translate(-19390.848 -5337.767)">
		<g id="Rectangle_1044-23" transform="translate(0.136 -0.268)">
			<g id="Group_2123">
				<g id="Rectangle_1030">
					<rect x="280.166" y="166.01" fill="#FFFFFF" width="12.283" height="12.284"/>
				</g>
			</g>
			<g id="Group_2124">
				<g id="Path_2801">
					<path fill="#707070" d="M292.742,178.583h-12.868v-12.862h12.868V178.583z M281.4,177.059h9.815v-9.814H281.4V177.059z"/>
				</g>
			</g>
		</g>
		<g id="Rectangle_1045-23">
			<g id="Path_2802">
				<path fill="#DFDFDF" d="M305.342,165.742h91.664c3.393-0.002,6.143,2.747,6.145,6.139c0,0.002,0,0.004,0,0.005l0,0
					c0,3.392-2.75,6.142-6.143,6.142c0,0-0.001,0-0.002,0h-91.664c-3.392,0-6.141-2.75-6.141-6.141v-0.001l0,0
					C299.2,168.493,301.949,165.742,305.342,165.742C305.342,165.742,305.342,165.742,305.342,165.742z"/>
			</g>
		</g>
	</g>
	<g id="Group_1286-24" transform="translate(-19197.803 -5337.767)">
		<g id="Rectangle_1044-24" transform="translate(0.093 -0.268)">
			<g id="Group_2125">
				<g id="Rectangle_1031">
					<rect x="269.549" y="166.01" fill="#FFFFFF" width="12.285" height="12.284"/>
				</g>
			</g>
			<g id="Group_2126">
				<g id="Path_2803">
					<path fill="#707070" d="M282.123,178.583h-12.864v-12.862h12.864V178.583z M270.784,177.059h9.816v-9.814h-9.814
						L270.784,177.059z"/>
				</g>
			</g>
		</g>
		<g id="Rectangle_1045-24">
			<g id="Path_2804">
				<path fill="#DFDFDF" d="M294.685,165.742h91.664c3.393-0.002,6.143,2.748,6.144,6.141c0,0,0,0.002,0,0.003l0,0
					c0,3.392-2.75,6.142-6.143,6.142c0,0,0,0-0.001,0h-91.664c-3.392,0.002-6.143-2.748-6.144-6.14c0-0.001,0-0.001,0-0.002l0,0
					c-0.001-3.393,2.748-6.144,6.14-6.144C294.683,165.742,294.684,165.742,294.685,165.742z"/>
			</g>
		</g>
	</g>
	<g id="Group_1286-25" transform="translate(-19776.934 -5253.491)">
		<g id="Rectangle_1044-25" transform="translate(0.222 0.456)">
			<g id="Group_2127">
				<g id="Rectangle_1032">
					<rect x="301.4" y="161.333" fill="#FFFFFF" width="12.284" height="12.284"/>
				</g>
			</g>
			<g id="Group_2128">
				<g id="Path_2805">
					<path fill="#707070" d="M313.975,173.908h-12.866v-12.864h12.866V173.908z M302.635,172.384h9.814v-9.813h-9.814V172.384z"/>
				</g>
			</g>
		</g>
		<g id="Rectangle_1045-25">
			<g id="Path_2806">
				<path fill="#DFDFDF" d="M326.663,161.789h91.664c3.393,0,6.143,2.75,6.143,6.143c0,0.001,0,0.001,0,0.001l0,0
					c-0.001,3.393-2.751,6.142-6.143,6.142l0,0h-91.664c-3.392,0-6.142-2.749-6.142-6.142l0,0
					C320.521,164.54,323.271,161.79,326.663,161.789z"/>
			</g>
		</g>
	</g>
	<g id="Group_1286-26" transform="translate(-19583.891 -5253.491)">
		<g id="Rectangle_1044-26" transform="translate(0.179 0.456)">
			<g id="Group_2129">
				<g id="Rectangle_1033">
					<rect x="290.783" y="161.333" fill="#FFFFFF" width="12.285" height="12.284"/>
				</g>
			</g>
			<g id="Group_2130">
				<g id="Path_2807">
					<path fill="#707070" d="M303.358,173.908h-12.865v-12.864h12.865V173.908z M292.018,172.384h9.815v-9.813h-9.815V172.384z"/>
				</g>
			</g>
		</g>
		<g id="Rectangle_1045-26">
			<g id="Path_2808">
				<path fill="#DFDFDF" d="M316,161.789h91.663c3.392-0.001,6.143,2.748,6.144,6.14c0,0.002,0,0.003,0,0.004l0,0
					c0,3.393-2.751,6.142-6.143,6.142c0,0-0.001,0-0.001,0H316c-3.392,0-6.142-2.749-6.143-6.142l0,0
					C309.856,164.54,312.606,161.79,316,161.789C316,161.789,316,161.789,316,161.789z"/>
			</g>
		</g>
	</g>
	<g id="Group_1286-27" transform="translate(-19390.848 -5253.491)">
		<g id="Rectangle_1044-27" transform="translate(0.136 0.456)">
			<g id="Group_2131">
				<g id="Rectangle_1034">
					<rect x="280.166" y="161.333" fill="#FFFFFF" width="12.283" height="12.284"/>
				</g>
			</g>
			<g id="Group_2132">
				<g id="Path_2809">
					<path fill="#707070" d="M292.742,173.908h-12.868v-12.864h12.868V173.908z M281.4,172.384h9.815v-9.813H281.4V172.384z"/>
				</g>
			</g>
		</g>
		<g id="Rectangle_1045-27">
			<g id="Path_2810">
				<path fill="#DFDFDF" d="M305.342,161.789h91.664c3.393-0.001,6.144,2.749,6.145,6.142c0,0.001,0,0.002,0,0.002l0,0
					c-0.001,3.393-2.751,6.142-6.144,6.142h-0.001h-91.664c-3.391-0.001-6.141-2.75-6.141-6.142l0,0
					C299.2,164.541,301.949,161.79,305.342,161.789C305.342,161.789,305.342,161.789,305.342,161.789z"/>
			</g>
		</g>
	</g>
	<g id="Group_1286-28" transform="translate(-19197.803 -5253.491)">
		<g id="Rectangle_1044-28" transform="translate(0.093 0.456)">
			<g id="Group_2133">
				<g id="Rectangle_1035">
					<rect x="269.549" y="161.333" fill="#FFFFFF" width="12.285" height="12.284"/>
				</g>
			</g>
			<g id="Group_2134">
				<g id="Path_2811">
					<path fill="#707070" d="M282.123,173.908h-12.864v-12.864h12.864V173.908z M270.784,172.384h9.816v-9.813h-9.814
						L270.784,172.384z"/>
				</g>
			</g>
		</g>
		<g id="Rectangle_1045-28">
			<g id="Path_2812">
				<path fill="#DFDFDF" d="M294.685,161.789h91.664c3.394,0,6.144,2.75,6.144,6.143c0,0.001,0,0.001,0,0.001l0,0
					c-0.001,3.393-2.751,6.142-6.144,6.142l0,0h-91.664c-3.392,0.001-6.143-2.748-6.144-6.141c0,0,0,0,0-0.001l0,0
					c-0.001-3.393,2.749-6.143,6.142-6.144C294.684,161.789,294.685,161.789,294.685,161.789z"/>
			</g>
		</g>
	</g>
	<g id="Group_1286-29" transform="translate(-19776.934 -5226.119)">
		<g id="Rectangle_1044-29" transform="translate(0.222 0.084)">
			<g id="Group_2135">
				<g id="Rectangle_1036">
					<rect x="301.4" y="159.848" fill="#FFFFFF" width="12.284" height="12.286"/>
				</g>
			</g>
			<g id="Group_2136">
				<g id="Path_2813">
					<path fill="#707070" d="M313.975,172.423h-12.866v-12.864h12.866V172.423z M302.635,170.897h9.814v-9.814h-9.814V170.897z"/>
				</g>
			</g>
		</g>
		<g id="Rectangle_1045-29">
			<g id="Path_2814">
				<path fill="#DFDFDF" d="M326.663,159.932h91.664c3.393,0,6.143,2.751,6.143,6.144v0.001l0,0c0,3.393-2.75,6.143-6.143,6.143l0,0
					h-91.664c-3.392,0-6.142-2.75-6.142-6.142c0-0.001,0-0.001,0-0.001l0,0C320.521,162.684,323.271,159.934,326.663,159.932z"/>
			</g>
		</g>
	</g>
	<g id="Group_1286-30" transform="translate(-19583.891 -5226.119)">
		<g id="Rectangle_1044-30" transform="translate(0.179 0.084)">
			<g id="Group_2137">
				<g id="Rectangle_1037">
					<rect x="290.783" y="159.848" fill="#FFFFFF" width="12.285" height="12.286"/>
				</g>
			</g>
			<g id="Group_2138">
				<g id="Path_2815">
					<path fill="#707070" d="M303.358,172.423h-12.865v-12.864h12.865V172.423z M292.018,170.897h9.815v-9.814h-9.815V170.897z"/>
				</g>
			</g>
		</g>
		<g id="Rectangle_1045-30">
			<g id="Path_2816">
				<path fill="#DFDFDF" d="M316,159.932h91.663c3.392-0.001,6.143,2.748,6.144,6.141c0,0.001,0,0.002,0,0.004l0,0
					c0,3.392-2.749,6.143-6.141,6.143c-0.001,0-0.002,0-0.003,0H316c-3.393,0-6.143-2.75-6.143-6.143l0,0l0,0
					C309.856,162.684,312.606,159.933,316,159.932C316,159.932,316,159.932,316,159.932z"/>
			</g>
		</g>
	</g>
	<g id="Group_1286-31" transform="translate(-19390.848 -5226.119)">
		<g id="Rectangle_1044-31" transform="translate(0.136 0.084)">
			<g id="Group_2139">
				<g id="Rectangle_1038">
					<rect x="280.166" y="159.848" fill="#FFFFFF" width="12.283" height="12.286"/>
				</g>
			</g>
			<g id="Group_2140">
				<g id="Path_2817">
					<path fill="#707070" d="M292.742,172.423h-12.868v-12.864h12.868V172.423z M281.4,170.9h9.815v-9.814H281.4V170.9z"/>
				</g>
			</g>
		</g>
		<g id="Rectangle_1045-31">
			<g id="Path_2818">
				<path fill="#DFDFDF" d="M305.342,159.932h91.664c3.393,0,6.144,2.75,6.145,6.143c0,0,0,0.001,0,0.002l0,0
					c0,3.393-2.751,6.143-6.144,6.143h-0.001h-91.664c-3.392,0-6.142-2.751-6.141-6.143l0,0
					C299.2,162.684,301.949,159.934,305.342,159.932C305.342,159.932,305.342,159.932,305.342,159.932z"/>
			</g>
		</g>
	</g>
	<g id="Group_1286-32" transform="translate(-19197.803 -5226.119)">
		<g id="Rectangle_1044-32" transform="translate(0.093 0.084)">
			<g id="Group_2141">
				<g id="Rectangle_1039">
					<rect x="269.549" y="159.848" fill="#FFFFFF" width="12.285" height="12.286"/>
				</g>
			</g>
			<g id="Group_2142">
				<g id="Path_2819">
					<path fill="#707070" d="M282.123,172.423h-12.864v-12.864h12.864V172.423z M270.784,170.9h9.816v-9.814h-9.814L270.784,170.9z"
						/>
				</g>
			</g>
		</g>
		<g id="Rectangle_1045-32">
			<g id="Path_2820">
				<path fill="#DFDFDF" d="M294.685,159.932h91.664c3.394,0,6.144,2.751,6.144,6.144v0.001l0,0c0,3.393-2.75,6.143-6.144,6.143l0,0
					h-91.664c-3.393,0.001-6.144-2.749-6.144-6.142c0-0.001,0-0.001,0-0.001l0,0c-0.001-3.393,2.749-6.144,6.142-6.145
					C294.684,159.932,294.685,159.932,294.685,159.932z"/>
			</g>
		</g>
	</g>
	<g id="Group_1286-33" transform="translate(-19776.934 -5198.747)">
		<g id="Rectangle_1044-33" transform="translate(0.222 -0.287)">
			<g id="Group_2143">
				<g id="Rectangle_1040">
					<rect x="301.4" y="158.364" fill="#FFFFFF" width="12.284" height="12.282"/>
				</g>
			</g>
			<g id="Group_2144">
				<g id="Path_2821">
					<path fill="#707070" d="M313.975,170.937h-12.866v-12.866h12.866V170.937z M302.635,169.413h9.814V159.6h-9.814V169.413z"/>
				</g>
			</g>
		</g>
		<g id="Rectangle_1045-33">
			<g id="Path_2822">
				<path fill="#DFDFDF" d="M326.663,158.077h91.664c3.391-0.002,6.141,2.746,6.143,6.137c0,0.001,0,0.002,0,0.002l0,0
					c0,3.393-2.75,6.144-6.142,6.145c0,0-0.001,0-0.001,0h-91.664c-3.393-0.001-6.143-2.752-6.142-6.145l0,0
					C320.522,160.825,323.272,158.077,326.663,158.077z"/>
			</g>
		</g>
	</g>
	<g id="Group_1286-34" transform="translate(-19583.891 -5198.747)">
		<g id="Rectangle_1044-34" transform="translate(0.179 -0.287)">
			<g id="Group_2145">
				<g id="Rectangle_1041">
					<rect x="290.783" y="158.364" fill="#FFFFFF" width="12.285" height="12.282"/>
				</g>
			</g>
			<g id="Group_2146">
				<g id="Path_2823">
					<path fill="#707070" d="M303.358,170.937h-12.865v-12.866h12.865V170.937z M292.018,169.413h9.815V159.6h-9.815V169.413z"/>
				</g>
			</g>
		</g>
		<g id="Rectangle_1045-34">
			<g id="Path_2824">
				<path fill="#DFDFDF" d="M316,158.077h91.663c3.391-0.002,6.142,2.745,6.144,6.136c0,0.001,0,0.002,0,0.003l0,0
					c0.001,3.393-2.748,6.143-6.14,6.145c-0.001,0-0.003,0-0.004,0H316c-3.393,0-6.143-2.751-6.143-6.144c0,0,0,0,0-0.001l0,0
					C309.858,160.824,312.608,158.076,316,158.077L316,158.077z"/>
			</g>
		</g>
	</g>
	<g id="Group_1286-35" transform="translate(-19390.848 -5198.747)">
		<g id="Rectangle_1044-35" transform="translate(0.136 -0.287)">
			<g id="Group_2147">
				<g id="Rectangle_1042">
					<rect x="280.166" y="158.364" fill="#FFFFFF" width="12.283" height="12.282"/>
				</g>
			</g>
			<g id="Group_2148">
				<g id="Path_2825">
					<path fill="#707070" d="M292.742,170.937h-12.868v-12.866h12.868V170.937z M281.4,169.413h9.815V159.6H281.4V169.413z"/>
				</g>
			</g>
		</g>
		<g id="Rectangle_1045-35">
			<g id="Path_2826">
				<path fill="#DFDFDF" d="M305.342,158.077h91.664c3.392-0.002,6.143,2.746,6.145,6.138c0,0.001,0,0.001,0,0.001l0,0
					c0,3.393-2.75,6.144-6.143,6.145c0,0-0.001,0-0.002,0h-91.664c-3.392-0.001-6.142-2.751-6.141-6.144c0,0,0,0,0-0.001l0,0
					C299.201,160.825,301.951,158.076,305.342,158.077z"/>
			</g>
		</g>
	</g>
	<g id="Group_1286-36" transform="translate(-19197.803 -5198.747)">
		<g id="Rectangle_1044-36" transform="translate(0.093 -0.287)">
			<g id="Group_2149">
				<g id="Rectangle_1043">
					<rect x="269.549" y="158.364" fill="#FFFFFF" width="12.285" height="12.282"/>
				</g>
			</g>
			<g id="Group_2150">
				<g id="Path_2827">
					<path fill="#707070" d="M282.123,170.937h-12.864v-12.866h12.864V170.937z M270.784,169.413h9.816V159.6h-9.814
						L270.784,169.413z"/>
				</g>
			</g>
		</g>
		<g id="Rectangle_1045-36">
			<g id="Path_2828">
				<path fill="#DFDFDF" d="M294.685,158.077h91.664c3.392-0.002,6.142,2.746,6.144,6.137c0,0.001,0,0.002,0,0.002l0,0
					c0,3.393-2.75,6.144-6.143,6.145c0,0,0,0-0.001,0h-91.664c-3.393,0-6.144-2.75-6.144-6.143c0,0,0-0.001,0-0.002l0,0
					C288.542,160.824,291.292,158.076,294.685,158.077C294.685,158.077,294.685,158.077,294.685,158.077z"/>
			</g>
		</g>
	</g>
	<g enable-background="new    ">
		<path d="M-19184.996-5377.481v-1.644c0.188,0.166,0.414,0.315,0.676,0.448c0.264,0.133,0.541,0.245,0.832,0.336
			c0.289,0.092,0.582,0.162,0.875,0.212s0.564,0.074,0.813,0.074c0.859,0,1.5-0.158,1.922-0.477
			c0.424-0.318,0.637-0.776,0.637-1.374c0-0.321-0.07-0.601-0.213-0.839c-0.141-0.237-0.336-0.455-0.584-0.651
			c-0.25-0.196-0.545-0.385-0.885-0.564c-0.342-0.18-0.707-0.369-1.1-0.568c-0.416-0.21-0.803-0.423-1.162-0.64
			c-0.361-0.215-0.674-0.453-0.939-0.713c-0.266-0.261-0.473-0.556-0.625-0.885s-0.229-0.715-0.229-1.158
			c0-0.542,0.119-1.014,0.357-1.415c0.236-0.401,0.551-0.731,0.938-0.991c0.387-0.261,0.828-0.454,1.324-0.582
			c0.494-0.127,1-0.19,1.514-0.19c1.174,0,2.029,0.142,2.564,0.423v1.569c-0.701-0.487-1.604-0.73-2.705-0.73
			c-0.305,0-0.609,0.032-0.912,0.096c-0.305,0.063-0.576,0.167-0.814,0.312c-0.238,0.144-0.432,0.329-0.58,0.556
			c-0.15,0.227-0.225,0.504-0.225,0.83c0,0.305,0.057,0.567,0.17,0.788c0.113,0.222,0.281,0.424,0.502,0.606s0.49,0.359,0.811,0.531
			c0.316,0.172,0.684,0.359,1.098,0.564c0.428,0.21,0.832,0.432,1.213,0.664s0.717,0.489,1.004,0.772
			c0.287,0.281,0.518,0.595,0.686,0.938s0.254,0.736,0.254,1.179c0,0.587-0.115,1.083-0.346,1.49
			c-0.229,0.406-0.539,0.737-0.93,0.991c-0.389,0.255-0.84,0.439-1.35,0.553c-0.508,0.113-1.045,0.17-1.609,0.17
			c-0.188,0-0.42-0.016-0.697-0.046s-0.559-0.074-0.846-0.133c-0.289-0.058-0.563-0.13-0.818-0.216
			C-19184.635-5377.281-19184.84-5377.376-19184.996-5377.481z"/>
		<path d="M-19172.195-5377.083c-0.32,0.177-0.744,0.266-1.27,0.266c-1.49,0-2.234-0.83-2.234-2.49v-5.03h-1.461v-1.162h1.461
			v-2.075l1.361-0.44v2.516h2.143v1.162h-2.143v4.789c0,0.57,0.098,0.978,0.291,1.221s0.516,0.365,0.963,0.365
			c0.344,0,0.639-0.094,0.889-0.282V-5377.083z"/>
		<path d="M-19164.293-5377h-1.361v-1.328h-0.033c-0.594,1.019-1.465,1.527-2.615,1.527c-0.846,0-1.51-0.225-1.988-0.672
			c-0.479-0.449-0.717-1.044-0.717-1.785c0-1.588,0.934-2.513,2.805-2.772l2.549-0.356c0-1.445-0.584-2.167-1.752-2.167
			c-1.023,0-1.947,0.349-2.773,1.046v-1.395c0.836-0.531,1.799-0.797,2.891-0.797c1.996,0,2.996,1.057,2.996,3.171V-5377z
			 M-19165.654-5381.3l-2.051,0.282c-0.631,0.089-1.107,0.245-1.428,0.469c-0.32,0.225-0.48,0.621-0.48,1.191
			c0,0.415,0.146,0.754,0.443,1.017c0.295,0.263,0.689,0.395,1.182,0.395c0.676,0,1.234-0.236,1.674-0.71
			c0.439-0.473,0.66-1.072,0.66-1.797V-5381.3z"/>
		<path d="M-19157.297-5384.122c-0.236-0.183-0.58-0.274-1.027-0.274c-0.582,0-1.066,0.274-1.457,0.822s-0.586,1.295-0.586,2.241
			v4.333h-1.361v-8.5h1.361v1.752h0.033c0.193-0.598,0.49-1.064,0.889-1.399s0.844-0.502,1.336-0.502
			c0.354,0,0.625,0.039,0.813,0.116V-5384.122z"/>
		<path d="M-19151.875-5377.083c-0.32,0.177-0.744,0.266-1.27,0.266c-1.49,0-2.234-0.83-2.234-2.49v-5.03h-1.461v-1.162h1.461
			v-2.075l1.361-0.44v2.516h2.143v1.162h-2.143v4.789c0,0.57,0.098,0.978,0.291,1.221s0.516,0.365,0.963,0.365
			c0.344,0,0.639-0.094,0.889-0.282V-5377.083z"/>
		<path d="M-19145.219-5377v-11.903h3.387c1.029,0,1.846,0.252,2.449,0.755c0.604,0.504,0.904,1.16,0.904,1.968
			c0,0.675-0.182,1.262-0.547,1.76s-0.869,0.853-1.512,1.063v0.033c0.803,0.094,1.445,0.397,1.926,0.909
			c0.482,0.512,0.723,1.177,0.723,1.996c0,1.019-0.365,1.843-1.096,2.474s-1.652,0.946-2.764,0.946H-19145.219z
			 M-19143.824-5387.642v3.843h1.428c0.764,0,1.365-0.184,1.803-0.552c0.436-0.368,0.654-0.887,0.654-1.556
			c0-1.157-0.76-1.735-2.283-1.735H-19143.824z M-19143.824-5382.545v4.283h1.893c0.818,0,1.455-0.193,1.906-0.581
			s0.676-0.919,0.676-1.594c0-1.405-0.957-2.108-2.873-2.108H-19143.824z"/>
		<path d="M-19128.783-5377h-1.361v-1.345h-0.033c-0.564,1.029-1.439,1.544-2.623,1.544c-2.025,0-3.037-1.206-3.037-3.619v-5.08
			h1.354v4.864c0,1.793,0.686,2.689,2.059,2.689c0.664,0,1.209-0.245,1.639-0.734c0.428-0.49,0.643-1.131,0.643-1.922v-4.897h1.361
			V-5377z"/>
		<path d="M-19125.338-5387.658c-0.244,0-0.451-0.083-0.623-0.249s-0.258-0.376-0.258-0.631s0.086-0.466,0.258-0.635
			s0.379-0.253,0.623-0.253c0.248,0,0.461,0.084,0.635,0.253c0.176,0.169,0.262,0.38,0.262,0.635c0,0.243-0.086,0.451-0.262,0.622
			C-19124.877-5387.744-19125.09-5387.658-19125.338-5387.658z M-19124.674-5377h-1.361v-8.5h1.361V-5377z"/>
		<path d="M-19120.557-5377h-1.361v-12.584h1.361V-5377z"/>
		<path d="M-19110.547-5377h-1.359v-1.444h-0.035c-0.629,1.096-1.604,1.644-2.922,1.644c-1.066,0-1.922-0.381-2.559-1.142
			c-0.641-0.761-0.961-1.797-0.961-3.108c0-1.405,0.355-2.531,1.063-3.379c0.709-0.846,1.652-1.27,2.832-1.27
			c1.168,0,2.016,0.459,2.547,1.378h0.035v-5.263h1.359V-5377z M-19111.906-5380.844v-1.253c0-0.687-0.229-1.268-0.682-1.743
			s-1.029-0.714-1.727-0.714c-0.83,0-1.482,0.305-1.959,0.913s-0.715,1.45-0.715,2.523c0,0.979,0.23,1.753,0.686,2.32
			c0.457,0.567,1.07,0.851,1.838,0.851c0.76,0,1.375-0.274,1.848-0.821C-19112.145-5379.316-19111.906-5380.008-19111.906-5380.844z
			"/>
		<path d="M-19107.094-5387.658c-0.242,0-0.449-0.083-0.621-0.249s-0.258-0.376-0.258-0.631s0.086-0.466,0.258-0.635
			s0.379-0.253,0.621-0.253c0.25,0,0.461,0.084,0.637,0.253c0.174,0.169,0.262,0.38,0.262,0.635c0,0.243-0.088,0.451-0.262,0.622
			C-19106.633-5387.744-19106.844-5387.658-19107.094-5387.658z M-19106.43-5377h-1.359v-8.5h1.359V-5377z"/>
		<path d="M-19096.617-5377h-1.361v-4.848c0-1.804-0.658-2.706-1.975-2.706c-0.682,0-1.244,0.256-1.691,0.768
			c-0.445,0.512-0.668,1.158-0.668,1.938v4.848h-1.359v-8.5h1.359v1.411h0.035c0.641-1.073,1.57-1.61,2.789-1.61
			c0.93,0,1.641,0.3,2.133,0.9s0.738,1.468,0.738,2.603V-5377z"/>
		<path d="M-19086.797-5377.681c0,3.121-1.494,4.682-4.482,4.682c-1.053,0-1.971-0.199-2.756-0.598v-1.361
			c0.957,0.531,1.871,0.797,2.738,0.797c2.092,0,3.139-1.112,3.139-3.337v-0.93h-0.033c-0.648,1.085-1.621,1.627-2.922,1.627
			c-1.059,0-1.908-0.378-2.553-1.133c-0.645-0.756-0.967-1.77-0.967-3.043c0-1.443,0.348-2.592,1.041-3.444
			c0.695-0.853,1.645-1.278,2.852-1.278c1.146,0,1.994,0.459,2.549,1.378h0.033v-1.179h1.361V-5377.681z M-19088.158-5380.844
			v-1.253c0-0.675-0.229-1.253-0.686-1.735c-0.457-0.48-1.025-0.722-1.705-0.722c-0.842,0-1.5,0.306-1.977,0.917
			c-0.475,0.611-0.713,1.468-0.713,2.569c0,0.946,0.229,1.703,0.684,2.271c0.457,0.567,1.063,0.851,1.814,0.851
			c0.764,0,1.385-0.271,1.863-0.813S-19088.158-5379.996-19088.158-5380.844z"/>
	</g>
	<g enable-background="new    ">
		<path d="M-19199.305-5246h-1.385v-7.985c0-0.631,0.037-1.403,0.115-2.315h-0.033c-0.133,0.536-0.252,0.921-0.357,1.153
			l-4.066,9.147h-0.68l-4.061-9.081c-0.115-0.266-0.234-0.673-0.357-1.22h-0.031c0.043,0.476,0.066,1.253,0.066,2.332v7.969h-1.346
			v-11.903h1.842l3.652,8.301c0.283,0.637,0.465,1.112,0.549,1.428h0.049c0.238-0.653,0.43-1.14,0.574-1.461l3.727-8.268h1.742
			V-5246z"/>
		<path d="M-19190.273-5246h-1.359v-1.328h-0.035c-0.592,1.019-1.463,1.527-2.613,1.527c-0.848,0-1.51-0.225-1.988-0.672
			c-0.479-0.449-0.719-1.044-0.719-1.785c0-1.588,0.936-2.513,2.807-2.772l2.549-0.356c0-1.445-0.586-2.167-1.752-2.167
			c-1.025,0-1.947,0.349-2.773,1.046v-1.395c0.836-0.531,1.799-0.797,2.889-0.797c1.998,0,2.996,1.057,2.996,3.171V-5246z
			 M-19191.633-5250.3l-2.051,0.282c-0.631,0.089-1.107,0.245-1.428,0.469c-0.322,0.225-0.482,0.621-0.482,1.191
			c0,0.415,0.148,0.754,0.445,1.017c0.295,0.263,0.689,0.395,1.182,0.395c0.676,0,1.232-0.236,1.674-0.71
			c0.439-0.473,0.66-1.072,0.66-1.797V-5250.3z"/>
		<path d="M-19180.652-5246h-1.908l-3.752-4.084h-0.033v4.084h-1.361v-12.584h1.361v7.977h0.033l3.568-3.893h1.785l-3.943,4.101
			L-19180.652-5246z"/>
		<path d="M-19172.426-5249.91h-6.002c0.021,0.947,0.277,1.678,0.764,2.191c0.488,0.516,1.156,0.772,2.01,0.772
			c0.957,0,1.838-0.315,2.639-0.946v1.278c-0.746,0.542-1.734,0.813-2.963,0.813c-1.201,0-2.145-0.386-2.83-1.158
			c-0.688-0.771-1.029-1.857-1.029-3.258c0-1.322,0.375-2.4,1.125-3.233c0.748-0.833,1.68-1.249,2.793-1.249
			c1.111,0,1.973,0.359,2.58,1.079c0.609,0.72,0.914,1.718,0.914,2.997V-5249.91z M-19173.82-5251.063
			c-0.006-0.786-0.195-1.397-0.568-1.835c-0.373-0.437-0.893-0.655-1.557-0.655c-0.643,0-1.188,0.229-1.635,0.688
			c-0.449,0.46-0.725,1.061-0.83,1.802H-19173.82z"/>
		<path d="M-19164.133-5246h-1.395v-11.903h1.395V-5246z"/>
		<path d="M-19149.117-5246h-1.361v-4.881c0-0.94-0.146-1.621-0.436-2.042c-0.291-0.421-0.779-0.631-1.465-0.631
			c-0.582,0-1.074,0.266-1.482,0.797c-0.406,0.531-0.609,1.168-0.609,1.909v4.848h-1.361v-5.047c0-1.671-0.645-2.507-1.934-2.507
			c-0.598,0-1.092,0.25-1.479,0.751s-0.58,1.152-0.58,1.955v4.848h-1.363v-8.5h1.363v1.345h0.031
			c0.604-1.029,1.484-1.544,2.641-1.544c0.582,0,1.088,0.162,1.52,0.485c0.432,0.324,0.727,0.749,0.887,1.274
			c0.633-1.173,1.572-1.76,2.824-1.76c1.869,0,2.805,1.154,2.805,3.461V-5246z"/>
		<path d="M-19145.148-5247.229h-0.035v5.139h-1.359v-12.41h1.359v1.494h0.035c0.668-1.129,1.648-1.693,2.938-1.693
			c1.096,0,1.951,0.381,2.564,1.142c0.615,0.761,0.922,1.78,0.922,3.059c0,1.422-0.346,2.561-1.037,3.416
			c-0.691,0.854-1.639,1.282-2.84,1.282C-19143.703-5245.801-19144.551-5246.276-19145.148-5247.229z M-19145.184-5250.656v1.187
			c0,0.703,0.23,1.299,0.686,1.789c0.457,0.489,1.037,0.734,1.74,0.734c0.824,0,1.469-0.315,1.938-0.946
			c0.467-0.631,0.701-1.508,0.701-2.631c0-0.947-0.219-1.688-0.656-2.225c-0.436-0.537-1.029-0.806-1.775-0.806
			c-0.793,0-1.428,0.275-1.91,0.826C-19144.941-5252.177-19145.184-5251.486-19145.184-5250.656z"/>
		<path d="M-19132.117-5253.122c-0.238-0.183-0.582-0.274-1.029-0.274c-0.58,0-1.066,0.274-1.457,0.822
			c-0.389,0.548-0.584,1.295-0.584,2.241v4.333h-1.363v-8.5h1.363v1.752h0.031c0.195-0.598,0.49-1.064,0.889-1.399
			s0.844-0.502,1.338-0.502c0.354,0,0.625,0.039,0.813,0.116V-5253.122z"/>
		<path d="M-19127.086-5245.801c-1.258,0-2.26-0.397-3.01-1.191s-1.125-1.847-1.125-3.158c0-1.428,0.391-2.543,1.17-3.346
			c0.781-0.802,1.836-1.203,3.164-1.203c1.266,0,2.256,0.391,2.967,1.17c0.711,0.781,1.066,1.862,1.066,3.246
			c0,1.355-0.383,2.441-1.15,3.258C-19124.77-5246.209-19125.797-5245.801-19127.086-5245.801z M-19126.988-5253.554
			c-0.873,0-1.564,0.298-2.074,0.893s-0.764,1.415-0.764,2.461c0,1.007,0.258,1.802,0.771,2.382
			c0.516,0.582,1.203,0.872,2.066,0.872c0.881,0,1.559-0.285,2.031-0.854c0.473-0.57,0.709-1.381,0.709-2.433
			c0-1.063-0.236-1.882-0.709-2.457S-19126.107-5253.554-19126.988-5253.554z"/>
		<path d="M-19113.996-5254.5l-3.387,8.5h-1.336l-3.223-8.5h1.496l2.156,6.176c0.162,0.454,0.262,0.85,0.301,1.188h0.031
			c0.057-0.427,0.145-0.812,0.266-1.154l2.258-6.209H-19113.996z"/>
		<path d="M-19105.703-5249.91h-6.002c0.021,0.947,0.275,1.678,0.764,2.191c0.486,0.516,1.156,0.772,2.008,0.772
			c0.957,0,1.838-0.315,2.641-0.946v1.278c-0.748,0.542-1.734,0.813-2.965,0.813c-1.199,0-2.145-0.386-2.83-1.158
			c-0.686-0.771-1.029-1.857-1.029-3.258c0-1.322,0.375-2.4,1.125-3.233s1.682-1.249,2.793-1.249c1.113,0,1.973,0.359,2.582,1.079
			s0.914,1.718,0.914,2.997V-5249.91z M-19107.098-5251.063c-0.006-0.786-0.195-1.397-0.57-1.835
			c-0.373-0.437-0.891-0.655-1.555-0.655c-0.643,0-1.188,0.229-1.637,0.688c-0.447,0.46-0.725,1.061-0.83,1.802H-19107.098z"/>
		<path d="M-19091.576-5246h-1.361v-4.881c0-0.94-0.145-1.621-0.436-2.042s-0.779-0.631-1.465-0.631
			c-0.582,0-1.076,0.266-1.482,0.797s-0.609,1.168-0.609,1.909v4.848h-1.361v-5.047c0-1.671-0.645-2.507-1.936-2.507
			c-0.598,0-1.09,0.25-1.477,0.751s-0.582,1.152-0.582,1.955v4.848h-1.359v-8.5h1.359v1.345h0.035
			c0.602-1.029,1.482-1.544,2.639-1.544c0.58,0,1.088,0.162,1.52,0.485c0.432,0.324,0.727,0.749,0.889,1.274
			c0.629-1.173,1.57-1.76,2.82-1.76c1.871,0,2.807,1.154,2.807,3.461V-5246z"/>
		<path d="M-19082.172-5249.91h-6c0.021,0.947,0.275,1.678,0.762,2.191c0.488,0.516,1.158,0.772,2.01,0.772
			c0.957,0,1.838-0.315,2.639-0.946v1.278c-0.746,0.542-1.734,0.813-2.963,0.813c-1.201,0-2.145-0.386-2.83-1.158
			c-0.686-0.771-1.029-1.857-1.029-3.258c0-1.322,0.375-2.4,1.125-3.233s1.682-1.249,2.793-1.249s1.973,0.359,2.582,1.079
			c0.607,0.72,0.912,1.718,0.912,2.997V-5249.91z M-19083.566-5251.063c-0.004-0.786-0.195-1.397-0.568-1.835
			c-0.373-0.437-0.893-0.655-1.557-0.655c-0.641,0-1.188,0.229-1.635,0.688c-0.447,0.46-0.725,1.061-0.83,1.802H-19083.566z"/>
		<path d="M-19073.057-5246h-1.361v-4.848c0-1.804-0.66-2.706-1.977-2.706c-0.68,0-1.242,0.256-1.689,0.768
			c-0.445,0.512-0.668,1.158-0.668,1.938v4.848h-1.361v-8.5h1.361v1.411h0.033c0.643-1.073,1.572-1.61,2.789-1.61
			c0.93,0,1.641,0.3,2.133,0.9c0.494,0.601,0.74,1.468,0.74,2.603V-5246z"/>
		<path d="M-19066.549-5246.083c-0.322,0.177-0.744,0.266-1.271,0.266c-1.488,0-2.232-0.83-2.232-2.49v-5.03h-1.461v-1.162h1.461
			v-2.075l1.361-0.44v2.516h2.143v1.162h-2.143v4.789c0,0.57,0.098,0.978,0.291,1.221s0.514,0.365,0.963,0.365
			c0.344,0,0.639-0.094,0.889-0.282V-5246.083z"/>
		<path d="M-19065.246-5246.307v-1.461c0.742,0.547,1.559,0.821,2.449,0.821c1.195,0,1.793-0.398,1.793-1.195
			c0-0.227-0.051-0.419-0.154-0.577c-0.102-0.157-0.24-0.297-0.416-0.419c-0.172-0.122-0.379-0.231-0.613-0.328
			s-0.488-0.197-0.76-0.303c-0.377-0.149-0.707-0.3-0.99-0.452c-0.285-0.152-0.523-0.324-0.715-0.515
			c-0.191-0.191-0.336-0.408-0.432-0.651c-0.098-0.244-0.146-0.529-0.146-0.855c0-0.398,0.092-0.751,0.275-1.059
			c0.182-0.307,0.426-0.564,0.73-0.771c0.303-0.208,0.65-0.364,1.041-0.469c0.391-0.105,0.793-0.158,1.207-0.158
			c0.736,0,1.395,0.127,1.977,0.382v1.378c-0.625-0.409-1.344-0.614-2.158-0.614c-0.254,0-0.484,0.029-0.689,0.087
			c-0.203,0.059-0.379,0.14-0.527,0.245c-0.146,0.105-0.26,0.231-0.34,0.378s-0.121,0.309-0.121,0.485
			c0,0.222,0.041,0.407,0.121,0.556c0.08,0.15,0.199,0.283,0.354,0.398c0.154,0.117,0.342,0.222,0.564,0.316
			c0.221,0.094,0.473,0.196,0.754,0.307c0.377,0.144,0.715,0.292,1.014,0.444s0.553,0.323,0.764,0.515
			c0.211,0.19,0.371,0.41,0.484,0.66c0.115,0.248,0.172,0.545,0.172,0.888c0,0.421-0.094,0.786-0.277,1.096
			c-0.188,0.31-0.434,0.567-0.744,0.772c-0.311,0.204-0.666,0.356-1.07,0.456s-0.828,0.149-1.271,0.149
			C-19063.846-5245.801-19064.604-5245.97-19065.246-5246.307z"/>
	</g>
	<g enable-background="new    ">
		<path d="M-19192.156-5115h-1.941l-4.598-5.445c-0.172-0.205-0.277-0.343-0.316-0.415h-0.033v5.86h-1.395v-11.903h1.395v5.595
			h0.033c0.078-0.122,0.184-0.258,0.316-0.406l4.449-5.188h1.734l-5.105,5.711L-19192.156-5115z"/>
		<path d="M-19184.152-5118.91h-6.002c0.021,0.947,0.275,1.678,0.764,2.191c0.486,0.516,1.156,0.772,2.008,0.772
			c0.957,0,1.838-0.315,2.641-0.946v1.278c-0.748,0.542-1.734,0.813-2.965,0.813c-1.199,0-2.145-0.386-2.83-1.158
			c-0.686-0.771-1.029-1.857-1.029-3.258c0-1.322,0.375-2.4,1.125-3.233s1.682-1.249,2.793-1.249c1.113,0,1.973,0.359,2.582,1.079
			s0.914,1.718,0.914,2.997V-5118.91z M-19185.547-5120.063c-0.006-0.786-0.195-1.397-0.57-1.835
			c-0.373-0.437-0.891-0.655-1.555-0.655c-0.643,0-1.188,0.229-1.637,0.688c-0.447,0.46-0.725,1.061-0.83,1.802H-19185.547z"/>
		<path d="M-19175.264-5118.91h-6.002c0.023,0.947,0.277,1.678,0.766,2.191c0.486,0.516,1.156,0.772,2.008,0.772
			c0.957,0,1.838-0.315,2.641-0.946v1.278c-0.748,0.542-1.736,0.813-2.965,0.813c-1.199,0-2.145-0.386-2.83-1.158
			c-0.686-0.771-1.029-1.857-1.029-3.258c0-1.322,0.375-2.4,1.125-3.233s1.68-1.249,2.793-1.249s1.973,0.359,2.582,1.079
			s0.912,1.718,0.912,2.997V-5118.91z M-19176.658-5120.063c-0.006-0.786-0.193-1.397-0.568-1.835
			c-0.373-0.437-0.893-0.655-1.557-0.655c-0.643,0-1.186,0.229-1.635,0.688c-0.449,0.46-0.725,1.061-0.83,1.802H-19176.658z"/>
		<path d="M-19171.811-5116.229h-0.033v5.139h-1.361v-12.41h1.361v1.494h0.033c0.67-1.129,1.65-1.693,2.939-1.693
			c1.096,0,1.949,0.381,2.564,1.142s0.922,1.78,0.922,3.059c0,1.422-0.346,2.561-1.037,3.416c-0.693,0.854-1.639,1.282-2.84,1.282
			C-19170.363-5114.801-19171.213-5115.276-19171.811-5116.229z M-19171.844-5119.656v1.187c0,0.703,0.229,1.299,0.686,1.789
			c0.457,0.489,1.037,0.734,1.738,0.734c0.826,0,1.471-0.315,1.939-0.946c0.467-0.631,0.701-1.508,0.701-2.631
			c0-0.947-0.219-1.688-0.656-2.225c-0.438-0.537-1.029-0.806-1.775-0.806c-0.793,0-1.43,0.275-1.91,0.826
			S-19171.844-5120.486-19171.844-5119.656z"/>
		<path d="M-19146.234-5115h-1.387v-7.985c0-0.631,0.039-1.403,0.115-2.315h-0.033c-0.133,0.536-0.252,0.921-0.355,1.153
			l-4.068,9.147h-0.682l-4.059-9.081c-0.115-0.266-0.234-0.673-0.355-1.22h-0.035c0.045,0.476,0.066,1.253,0.066,2.332v7.969h-1.344
			v-11.903h1.844l3.652,8.301c0.281,0.637,0.465,1.112,0.547,1.428h0.051c0.236-0.653,0.428-1.14,0.572-1.461l3.727-8.268h1.744
			V-5115z"/>
		<path d="M-19137.203-5115h-1.363v-1.328h-0.031c-0.594,1.019-1.465,1.527-2.615,1.527c-0.848,0-1.51-0.225-1.988-0.672
			c-0.479-0.449-0.719-1.044-0.719-1.785c0-1.588,0.936-2.513,2.807-2.772l2.547-0.356c0-1.445-0.582-2.167-1.75-2.167
			c-1.023,0-1.949,0.349-2.773,1.046v-1.395c0.836-0.531,1.799-0.797,2.889-0.797c1.998,0,2.998,1.057,2.998,3.171V-5115z
			 M-19138.566-5119.3l-2.049,0.282c-0.631,0.089-1.107,0.245-1.428,0.469c-0.32,0.225-0.482,0.621-0.482,1.191
			c0,0.415,0.148,0.754,0.445,1.017c0.295,0.263,0.689,0.395,1.182,0.395c0.676,0,1.232-0.236,1.674-0.71
			c0.439-0.473,0.658-1.072,0.658-1.797V-5119.3z"/>
		<path d="M-19133.941-5125.658c-0.244,0-0.451-0.083-0.623-0.249s-0.258-0.376-0.258-0.631s0.086-0.466,0.258-0.635
			s0.379-0.253,0.623-0.253c0.248,0,0.461,0.084,0.635,0.253s0.262,0.38,0.262,0.635c0,0.243-0.088,0.451-0.262,0.622
			C-19133.48-5125.744-19133.693-5125.658-19133.941-5125.658z M-19133.277-5115h-1.361v-8.5h1.361V-5115z"/>
		<path d="M-19123.467-5115h-1.361v-4.848c0-1.804-0.658-2.706-1.975-2.706c-0.682,0-1.244,0.256-1.689,0.768
			s-0.668,1.158-0.668,1.938v4.848h-1.361v-8.5h1.361v1.411h0.033c0.643-1.073,1.572-1.61,2.789-1.61c0.93,0,1.641,0.3,2.133,0.9
			s0.738,1.468,0.738,2.603V-5115z"/>
		<path d="M-19116.959-5115.083c-0.32,0.177-0.744,0.266-1.27,0.266c-1.488,0-2.232-0.83-2.232-2.49v-5.03h-1.461v-1.162h1.461
			v-2.075l1.361-0.44v2.516h2.141v1.162h-2.141v4.789c0,0.57,0.096,0.978,0.291,1.221c0.193,0.243,0.514,0.365,0.961,0.365
			c0.344,0,0.641-0.094,0.889-0.282V-5115.083z"/>
		<path d="M-19109.057-5115h-1.361v-1.328h-0.033c-0.592,1.019-1.463,1.527-2.615,1.527c-0.846,0-1.508-0.225-1.988-0.672
			c-0.477-0.449-0.717-1.044-0.717-1.785c0-1.588,0.936-2.513,2.807-2.772l2.547-0.356c0-1.445-0.584-2.167-1.75-2.167
			c-1.025,0-1.949,0.349-2.773,1.046v-1.395c0.836-0.531,1.799-0.797,2.889-0.797c1.998,0,2.996,1.057,2.996,3.171V-5115z
			 M-19110.418-5119.3l-2.051,0.282c-0.629,0.089-1.105,0.245-1.426,0.469c-0.322,0.225-0.482,0.621-0.482,1.191
			c0,0.415,0.148,0.754,0.443,1.017c0.297,0.263,0.691,0.395,1.184,0.395c0.676,0,1.232-0.236,1.672-0.71
			c0.441-0.473,0.66-1.072,0.66-1.797V-5119.3z"/>
		<path d="M-19105.793-5125.658c-0.244,0-0.453-0.083-0.623-0.249c-0.172-0.166-0.258-0.376-0.258-0.631s0.086-0.466,0.258-0.635
			c0.17-0.169,0.379-0.253,0.623-0.253c0.248,0,0.461,0.084,0.633,0.253c0.176,0.169,0.262,0.38,0.262,0.635
			c0,0.243-0.086,0.451-0.262,0.622C-19105.332-5125.744-19105.545-5125.658-19105.793-5125.658z M-19105.129-5115h-1.363v-8.5
			h1.363V-5115z"/>
		<path d="M-19095.318-5115h-1.361v-4.848c0-1.804-0.658-2.706-1.977-2.706c-0.68,0-1.242,0.256-1.688,0.768
			s-0.668,1.158-0.668,1.938v4.848h-1.363v-8.5h1.363v1.411h0.031c0.643-1.073,1.572-1.61,2.789-1.61c0.93,0,1.641,0.3,2.135,0.9
			c0.492,0.601,0.738,1.468,0.738,2.603V-5115z"/>
		<path d="M-19092.057-5125.658c-0.244,0-0.451-0.083-0.623-0.249c-0.17-0.166-0.256-0.376-0.256-0.631s0.086-0.466,0.256-0.635
			c0.172-0.169,0.379-0.253,0.623-0.253c0.25,0,0.461,0.084,0.635,0.253c0.176,0.169,0.262,0.38,0.262,0.635
			c0,0.243-0.086,0.451-0.262,0.622C-19091.596-5125.744-19091.807-5125.658-19092.057-5125.658z M-19091.393-5115h-1.361v-8.5
			h1.361V-5115z"/>
		<path d="M-19081.58-5115h-1.361v-4.848c0-1.804-0.66-2.706-1.977-2.706c-0.68,0-1.242,0.256-1.689,0.768
			c-0.445,0.512-0.668,1.158-0.668,1.938v4.848h-1.361v-8.5h1.361v1.411h0.033c0.643-1.073,1.572-1.61,2.789-1.61
			c0.93,0,1.641,0.3,2.133,0.9c0.494,0.601,0.74,1.468,0.74,2.603V-5115z"/>
		<path d="M-19071.762-5115.681c0,3.121-1.492,4.682-4.48,4.682c-1.053,0-1.971-0.199-2.758-0.598v-1.361
			c0.959,0.531,1.871,0.797,2.74,0.797c2.092,0,3.139-1.112,3.139-3.337v-0.93h-0.035c-0.646,1.085-1.621,1.627-2.922,1.627
			c-1.057,0-1.906-0.378-2.551-1.133c-0.645-0.756-0.969-1.77-0.969-3.043c0-1.443,0.348-2.592,1.043-3.444s1.645-1.278,2.852-1.278
			c1.145,0,1.994,0.459,2.547,1.378h0.035v-1.179h1.359V-5115.681z M-19073.121-5118.844v-1.253c0-0.675-0.23-1.253-0.686-1.735
			c-0.457-0.48-1.025-0.722-1.705-0.722c-0.842,0-1.5,0.306-1.977,0.917s-0.715,1.468-0.715,2.569c0,0.946,0.23,1.703,0.686,2.271
			c0.457,0.567,1.061,0.851,1.814,0.851c0.764,0,1.385-0.271,1.863-0.813S-19073.121-5117.996-19073.121-5118.844z"/>
	</g>
</g>
</svg>
