<svg width="760" height="766" viewBox="0 0 760 766" fill="none" xmlns="http://www.w3.org/2000/svg">
<path d="M28.9712 0.125H731.016C746.67 0.125 759.363 12.816 759.363 28.472V737.131C759.363 752.786 746.671 765.477 731.016 765.477H28.9712C13.3152 765.477 0.624023 752.787 0.624023 737.131V28.472C0.624023 12.816 13.3152 0.125 28.9712 0.125Z" fill="white"/>
<path d="M59.207 283.589H416.372C420.547 283.589 423.931 286.974 423.931 291.148V292.093C423.931 296.267 420.547 299.652 416.372 299.652H59.207C55.032 299.652 51.6479 296.268 51.6479 292.093V291.148C51.6469 286.974 55.032 283.589 59.207 283.589Z" fill="#C2C2C2"/>
<path d="M59.207 308.155H216.057C220.232 308.155 223.617 311.54 223.617 315.715V319.494C223.617 323.669 220.233 327.054 216.057 327.054H59.207C55.032 327.054 51.6479 323.669 51.6479 319.494V315.715C51.6469 311.54 55.032 308.155 59.207 308.155Z" fill="#C2C2C2"/>
<path d="M73.379 26.582H338.891C352.458 26.582 363.457 37.581 363.457 51.149V189.101C363.457 202.669 352.458 213.668 338.891 213.668H73.379C59.812 213.668 48.812 202.669 48.812 189.101V51.148C48.812 37.581 59.812 26.582 73.379 26.582Z" fill="#D9D9D9"/>
<path d="M86.136 244.848C100.487 244.848 112.12 233.003 112.12 218.392C112.12 203.781 100.487 191.936 86.136 191.936C71.7854 191.936 60.152 203.781 60.152 218.392C60.152 233.003 71.7854 244.848 86.136 244.848Z" fill="#F1F1F1"/>
<path d="M86.136 244.932C71.762 244.932 60.069 233.026 60.069 218.392C60.069 203.759 71.762 191.853 86.136 191.853C100.51 191.853 112.203 203.758 112.203 218.392C112.202 233.026 100.509 244.932 86.136 244.932ZM86.136 194.853C73.417 194.853 63.069 205.413 63.069 218.392C63.069 231.372 73.417 241.932 86.136 241.932C98.855 241.932 109.203 231.372 109.203 218.392C109.202 205.413 98.855 194.853 86.136 194.853Z" fill="#A4A4A4"/>
<path d="M124.403 222.171H232.119C235.772 222.171 238.733 225.132 238.733 228.786C238.733 232.438 235.772 235.4 232.119 235.4H124.403C120.751 235.4 117.789 232.439 117.789 228.786C117.789 225.133 120.751 222.171 124.403 222.171Z" fill="#DEDEDE"/>
<path d="M124.403 239.18H302.985C306.638 239.18 309.599 242.141 309.599 245.794C309.599 249.447 306.638 252.408 302.985 252.408H124.403C120.751 252.408 117.789 249.447 117.789 245.794C117.789 242.141 120.751 239.18 124.403 239.18Z" fill="#DEDEDE"/>
<path d="M124.403 254.298H211.332C214.985 254.298 217.946 257.258 217.946 260.912C217.946 264.565 214.985 267.526 211.332 267.526H124.403C120.751 267.526 117.789 264.565 117.789 260.912C117.789 257.258 120.751 254.298 124.403 254.298Z" fill="#DEDEDE"/>
<path d="M421.096 26.582H689.442C703.01 26.582 714.008 37.581 714.008 51.149V189.101C714.008 202.669 703.01 213.668 689.442 213.668H421.096C407.528 213.668 396.529 202.669 396.529 189.101V51.148C396.528 37.581 407.527 26.582 421.096 26.582Z" fill="#D9D9D9"/>
<path d="M432.906 244.848C447.779 244.848 459.835 233.003 459.835 218.392C459.835 203.781 447.779 191.936 432.906 191.936C418.034 191.936 405.977 203.781 405.977 218.392C405.977 233.003 418.034 244.848 432.906 244.848Z" fill="#F1F1F1"/>
<path d="M432.906 244.932C418.011 244.932 405.893 233.026 405.893 218.392C405.893 203.759 418.011 191.853 432.906 191.853C447.8 191.853 459.917 203.758 459.917 218.392C459.917 233.026 447.8 244.932 432.906 244.932ZM432.906 194.853C419.666 194.853 408.893 205.413 408.893 218.392C408.893 231.372 419.665 241.932 432.906 241.932C446.145 241.932 456.917 231.372 456.917 218.392C456.917 205.413 446.145 194.853 432.906 194.853Z" fill="#A4A4A4"/>
<path d="M471.174 222.171H578.89C582.543 222.171 585.504 225.132 585.504 228.786C585.504 232.438 582.543 235.4 578.89 235.4H471.174C467.521 235.4 464.561 232.439 464.561 228.786C464.56 225.133 467.52 222.171 471.174 222.171Z" fill="#DEDEDE"/>
<path d="M471.174 239.18H651.646C655.299 239.18 658.26 242.141 658.26 245.794C658.26 249.447 655.299 252.408 651.646 252.408H471.174C467.521 252.408 464.561 249.447 464.561 245.794C464.56 242.141 467.52 239.18 471.174 239.18Z" fill="#DEDEDE"/>
<path d="M471.174 254.298H559.048C562.7 254.298 565.662 257.258 565.662 260.912C565.662 264.565 562.7 267.526 559.048 267.526H471.174C467.521 267.526 464.561 264.565 464.561 260.912C464.56 257.258 467.52 254.298 471.174 254.298Z" fill="#DEDEDE"/>
<path d="M52.5922 344.061H705.503C719.071 344.061 730.07 355.06 730.07 368.628V511.304C730.07 524.872 719.071 535.871 705.503 535.871H52.5922C39.0242 535.871 28.0252 524.872 28.0252 511.304V368.628C28.0252 355.06 39.0242 344.061 52.5922 344.061Z" fill="#F6F6F6"/>
<path d="M705.503 535.927H52.5922C39.0162 535.927 27.9702 524.881 27.9702 511.304V368.628C27.9702 355.051 39.0152 344.006 52.5922 344.006H705.503C719.08 344.006 730.126 355.051 730.126 368.628V511.304C730.126 524.881 719.08 535.927 705.503 535.927ZM52.5922 346.006C40.1182 346.006 29.9702 356.154 29.9702 368.628V511.304C29.9702 523.779 40.1182 533.927 52.5922 533.927H705.503C717.978 533.927 728.126 523.779 728.126 511.304V368.628C728.126 356.154 717.978 346.006 705.503 346.006H52.5922Z" fill="#A4A4A4"/>
<path d="M346.605 355.83C358.654 355.83 368.42 365.598 368.42 377.645C368.42 389.692 358.653 399.46 346.605 399.46C334.557 399.46 324.79 389.692 324.79 377.645C324.79 365.598 334.558 355.83 346.605 355.83Z" fill="#C2C2C2"/>
<path d="M387.552 367.683H549.126C553.562 367.683 557.158 371.279 557.158 375.714C557.158 380.15 553.561 383.746 549.126 383.746H387.552C383.116 383.746 379.52 380.15 379.52 375.714C379.52 371.279 383.116 367.683 387.552 367.683Z" fill="#C2C2C2"/>
<path d="M606.292 477.289H690.386C695.604 477.289 699.834 481.519 699.834 486.738V491.463C699.834 496.681 695.604 500.911 690.386 500.911H606.292C601.073 500.911 596.844 496.681 596.844 491.463V486.738C596.844 481.52 601.073 477.289 606.292 477.289Z" fill="#C2C2C2"/>
<path d="M386.135 413.037H666.763C670.417 413.037 673.378 415.998 673.378 419.651V422.485C673.378 426.139 670.417 429.1 666.763 429.1H386.135C382.482 429.1 379.52 426.139 379.52 422.485V419.651C379.52 415.998 382.481 413.037 386.135 413.037Z" fill="#D9D9D9"/>
<path d="M386.135 440.438H555.269C558.922 440.438 561.883 443.4 561.883 447.053V448.942C561.883 452.595 558.922 455.556 555.269 455.556H386.135C382.482 455.556 379.52 452.595 379.52 448.942V447.053C379.52 443.4 382.481 440.438 386.135 440.438Z" fill="#D9D9D9"/>
<path d="M52.5922 543.431H705.503C719.071 543.431 730.07 554.429 730.07 567.997V712.563C730.07 726.131 719.071 737.13 705.503 737.13H52.5922C39.0242 737.13 28.0252 726.131 28.0252 712.563V567.997C28.0252 554.429 39.0242 543.431 52.5922 543.431Z" fill="#F6F6F6"/>
<path d="M705.503 737.185H52.5922C39.0162 737.185 27.9702 726.14 27.9702 712.564V567.997C27.9702 554.421 39.0152 543.376 52.5922 543.376H705.503C719.08 543.376 730.126 554.421 730.126 567.997V712.563C730.126 726.14 719.08 737.185 705.503 737.185ZM52.5922 545.376C40.1182 545.376 29.9702 555.523 29.9702 567.997V712.563C29.9702 725.037 40.1182 735.184 52.5922 735.184H705.503C717.978 735.184 728.126 725.037 728.126 712.563V567.997C728.126 555.523 717.978 545.376 705.503 545.376H52.5922Z" fill="#A4A4A4"/>
<path d="M346.605 555.28C358.654 555.28 368.42 565.047 368.42 577.094C368.42 589.143 358.653 598.909 346.605 598.909C334.557 598.909 324.79 589.142 324.79 577.094C324.79 565.047 334.558 555.28 346.605 555.28Z" fill="#C2C2C2"/>
<path d="M387.08 567.997H549.599C553.774 567.997 557.159 571.381 557.159 575.557C557.159 579.731 553.774 583.115 549.599 583.115H387.08C382.905 583.115 379.52 579.731 379.52 575.557C379.52 571.381 382.905 567.997 387.08 567.997Z" fill="#C2C2C2"/>
<path d="M606.292 676.659H690.386C695.604 676.659 699.834 680.889 699.834 686.107V691.775C699.834 696.994 695.604 701.224 690.386 701.224H606.292C601.073 701.224 596.844 696.994 596.844 691.775V686.107C596.844 680.89 601.073 676.659 606.292 676.659Z" fill="#C2C2C2"/>
<path d="M386.135 613.352H666.763C670.417 613.352 673.378 616.313 673.378 619.966V622.801C673.378 626.453 670.417 629.414 666.763 629.414H386.135C382.482 629.414 379.52 626.453 379.52 622.801V619.966C379.52 616.313 382.481 613.352 386.135 613.352Z" fill="#D9D9D9"/>
<path d="M386.135 640.753H555.269C558.922 640.753 561.883 643.714 561.883 647.367V649.256C561.883 652.909 558.922 655.871 555.269 655.871H386.135C382.482 655.871 379.52 652.909 379.52 649.256V647.367C379.52 643.714 382.481 640.753 386.135 640.753Z" fill="#D9D9D9"/>
<path d="M59.2071 557.604H282.198C292.636 557.604 301.096 566.065 301.096 576.501V704.06C301.096 714.497 292.636 722.957 282.198 722.957H59.2071C48.7701 722.957 40.3091 714.496 40.3091 704.06V576.501C40.3091 566.064 48.7701 557.604 59.2071 557.604Z" fill="white"/>
<path d="M282.198 725.875H59.2071C47.1781 725.875 37.3921 716.089 37.3921 704.06V576.501C37.3921 564.472 47.1781 554.686 59.2071 554.686H282.198C294.227 554.686 304.013 564.472 304.013 576.501V704.06C304.013 716.089 294.227 725.875 282.198 725.875ZM59.2071 557.686C48.8321 557.686 40.3921 566.126 40.3921 576.501V704.06C40.3921 714.435 48.8321 722.875 59.2071 722.875H282.198C292.573 722.875 301.013 714.435 301.013 704.06V576.501C301.013 566.126 292.573 557.686 282.198 557.686H59.2071Z" fill="#919191"/>
<path d="M194.311 669.707L236.888 664.975L257.763 647.893L192.833 596.034L137.736 629.792L194.311 669.707Z" fill="#F2F2F2"/>
<path d="M217.655 685.517H300.965V639.601L285.998 625.792L217.655 685.517Z" fill="#CCCCCC"/>
<path d="M41.147 687.346H212.965L78.792 591.715L41.147 642.78V687.346Z" fill="#E0E0E0"/>
<path d="M59.207 722.957C50.037 722.961 42.1888 716.379 40.5928 707.349C40.5928 706.432 40.5928 705.33 40.5928 703.975V681.722C74.0318 662.865 119.671 651.241 169.987 651.241C221.144 651.241 267.466 663.247 301.042 682.671V703.976C301.042 704.497 301.042 704.997 301.042 705.477C300.301 715.337 292.085 722.957 282.199 722.958H59.207V722.957Z" fill="#AAAAAA"/>
<path d="M83.4941 655.108H79.998V664.564H83.4941V655.108Z" fill="#C6C6C6"/>
<path d="M81.9341 633.241L77.5352 658.95L86.71 658.901L81.9341 633.241Z" fill="#AAAAAA"/>
<path d="M95.0908 652.668H91.5962V662.124H95.0908V652.668Z" fill="#C6C6C6"/>
<path d="M93.5308 630.8L89.1309 656.51L98.3062 656.46L93.5308 630.8Z" fill="#AAAAAA"/>
<path d="M105.915 651.041H102.419V660.497H105.915V651.041Z" fill="#C6C6C6"/>
<path d="M104.354 629.174L99.9541 654.882L109.128 654.833L104.354 629.174Z" fill="#AAAAAA"/>
<path d="M210.116 618.565L228.736 635.891L226.788 638.204L210.039 622.639L193.306 638.186L191.322 635.955V635.785C191.483 635.692 191.637 635.588 191.782 635.472C197.842 629.839 203.899 624.204 209.955 618.567H210.116V618.565Z" fill="#AAAAAA"/>
<path d="M210.064 625.289C212.072 627.147 214.077 629.006 216.079 630.865C218.265 632.893 220.462 634.913 222.618 636.977C222.934 637.302 223.122 637.732 223.149 638.186C223.185 643.584 223.173 648.983 223.17 654.382C223.17 655.533 222.982 655.736 221.908 655.736C219.372 655.736 216.837 655.736 214.184 655.736V653.496C214.184 651.817 214.19 650.143 214.184 648.467C214.18 647.513 213.934 647.248 213.037 647.244C211.038 647.237 209.04 647.237 207.042 647.244C206.133 647.244 205.889 647.503 205.886 648.457C205.878 650.84 205.886 653.222 205.886 655.733H204.815C202.574 655.733 200.333 655.733 198.091 655.733C197.131 655.733 196.902 655.499 196.902 654.474C196.896 649.018 196.9 643.562 196.914 638.106C196.912 637.755 197.037 637.415 197.265 637.148C201.418 633.256 205.585 629.38 209.765 625.521C209.861 625.439 209.961 625.362 210.064 625.289Z" fill="#CCCCCC"/>
<path d="M196.947 621.135H201.56C201.56 622.014 201.566 622.882 201.553 623.751C201.552 623.892 201.502 624.024 201.411 624.13C199.967 625.517 198.512 626.895 196.95 628.382C196.947 625.861 196.947 623.521 196.947 621.135Z" fill="#AAAAAA"/>
<path d="M208.282 652.502C208.282 652.502 101.099 669.49 143.079 682.871C169.237 691.21 174.457 714.801 168.464 722.325L265.236 722.19C265.236 722.19 244.813 698.531 166.402 678.804C134.637 671.483 212.662 653.314 212.662 653.314L208.282 652.502Z" fill="#E2E2E2"/>
<path d="M255.322 598.418C261.727 598.418 266.919 592.954 266.919 586.214C266.919 579.474 261.727 574.01 255.322 574.01C248.917 574.01 243.725 579.474 243.725 586.214C243.725 592.954 248.917 598.418 255.322 598.418Z" fill="#F2F2F2"/>
<path d="M59.2071 357.289H282.198C292.636 357.289 301.096 365.749 301.096 376.187V503.745C301.096 514.182 292.636 522.643 282.198 522.643H59.2071C48.7701 522.643 40.3091 514.181 40.3091 503.745V376.187C40.3091 365.75 48.7701 357.289 59.2071 357.289Z" fill="white"/>
<path d="M282.198 525.56H59.2071C47.1781 525.56 37.3921 515.774 37.3921 503.746V376.187C37.3921 364.158 47.1781 354.372 59.2071 354.372H282.198C294.227 354.372 304.013 364.158 304.013 376.187V503.745C304.013 515.773 294.227 525.56 282.198 525.56ZM59.2071 357.372C48.8321 357.372 40.3921 365.812 40.3921 376.187V503.745C40.3921 514.119 48.8321 522.559 59.2071 522.559H282.198C292.573 522.559 301.013 514.119 301.013 503.745V376.187C301.013 365.812 292.573 357.372 282.198 357.372H59.2071V357.372Z" fill="#919191"/>
<path d="M194.311 469.393L236.888 464.662L257.763 447.58L192.833 395.721L137.736 429.478L194.311 469.393Z" fill="#F2F2F2"/>
<path d="M217.655 485.203H300.965V439.287L285.998 425.477L217.655 485.203Z" fill="#CCCCCC"/>
<path d="M41.147 487.032H212.965L78.792 391.4L41.147 442.464V487.032Z" fill="#E0E0E0"/>
<path d="M59.207 522.644C50.037 522.646 42.1888 516.066 40.5928 507.036C40.5928 506.119 40.5928 505.017 40.5928 503.661V481.407C74.0318 462.55 119.671 450.928 169.987 450.928C221.144 450.928 267.466 462.935 301.042 482.356V503.662C301.042 504.183 301.042 504.682 301.042 505.164C300.301 515.023 292.085 522.644 282.199 522.645H59.207V522.644Z" fill="#AAAAAA"/>
<path d="M83.4941 454.794H79.998V464.25H83.4941V454.794Z" fill="#C6C6C6"/>
<path d="M81.9341 432.928L77.5352 458.636L86.71 458.587L81.9341 432.928Z" fill="#AAAAAA"/>
<path d="M95.0908 452.354H91.5962V461.809H95.0908V452.354Z" fill="#C6C6C6"/>
<path d="M93.5308 430.485L89.1309 456.195L98.3062 456.146L93.5308 430.485Z" fill="#AAAAAA"/>
<path d="M105.915 450.728H102.419V460.184H105.915V450.728Z" fill="#C6C6C6"/>
<path d="M104.354 428.858L99.9541 454.569L109.128 454.517L104.354 428.858Z" fill="#AAAAAA"/>
<path d="M210.116 418.251L228.736 435.577L226.788 437.89L210.039 422.324L193.306 437.872L191.322 435.641V435.471C191.483 435.377 191.637 435.272 191.782 435.156C197.842 429.524 203.899 423.889 209.955 418.252H210.116V418.251Z" fill="#AAAAAA"/>
<path d="M210.064 424.975C212.072 426.834 214.077 428.693 216.079 430.551C218.265 432.579 220.462 434.599 222.618 436.664C222.934 436.989 223.122 437.419 223.149 437.873C223.185 443.269 223.173 448.669 223.17 454.069C223.17 455.219 222.982 455.421 221.908 455.422C219.372 455.422 216.837 455.422 214.184 455.422V453.182C214.184 451.503 214.19 449.828 214.184 448.153C214.18 447.199 213.934 446.935 213.037 446.93C211.038 446.922 209.04 446.922 207.042 446.93C206.133 446.93 205.889 447.189 205.886 448.144C205.878 450.525 205.886 452.909 205.886 455.42H204.815C202.574 455.42 200.333 455.42 198.091 455.42C197.131 455.42 196.902 455.186 196.902 454.159C196.896 448.703 196.9 443.248 196.914 437.793C196.912 437.441 197.037 437.102 197.265 436.833C201.418 432.943 205.585 429.067 209.765 425.207C209.861 425.125 209.961 425.048 210.064 424.975Z" fill="#CCCCCC"/>
<path d="M196.947 420.82H201.56C201.56 421.7 201.566 422.567 201.553 423.437C201.552 423.576 201.502 423.71 201.411 423.815C199.967 425.203 198.512 426.581 196.95 428.067C196.947 425.549 196.947 423.208 196.947 420.82Z" fill="#AAAAAA"/>
<path d="M208.282 452.187C208.282 452.187 101.099 469.177 143.079 482.558C169.237 490.897 174.457 514.488 168.464 522.012L265.236 521.876C265.236 521.876 244.813 498.218 166.402 478.49C134.637 471.169 212.662 453.001 212.662 453.001L208.282 452.187Z" fill="#E2E2E2"/>
<path d="M255.322 398.104C261.727 398.104 266.919 392.641 266.919 385.901C266.919 379.161 261.727 373.698 255.322 373.698C248.917 373.698 243.725 379.161 243.725 385.901C243.725 392.641 248.917 398.104 255.322 398.104Z" fill="#F2F2F2"/>
</svg>
