<svg width="760" height="454" viewBox="0 0 760 454" fill="none" xmlns="http://www.w3.org/2000/svg">
<path d="M28.114 0.248047H731.886C747.021 0.248047 759.289 12.519 759.289 27.653V426.108C759.289 441.243 747.02 453.514 731.886 453.514H28.114C12.98 453.514 0.709961 441.243 0.709961 426.108V27.652C0.709961 12.518 12.98 0.248047 28.114 0.248047Z" fill="white"/>
<path d="M319.651 205.695H318.255V200.264H312.092V205.695H310.696V193.785H312.092V199.009H318.255V193.785H319.651V205.695Z" fill="black"/>
<path d="M326.146 205.894C324.89 205.894 323.885 205.497 323.135 204.702C322.385 203.909 322.01 202.854 322.01 201.542C322.01 200.114 322.4 198.998 323.18 198.194C323.96 197.391 325.015 196.991 326.344 196.991C327.613 196.991 328.602 197.381 329.313 198.162C330.024 198.941 330.381 200.025 330.381 201.409C330.381 202.765 329.997 203.852 329.23 204.67C328.464 205.486 327.436 205.894 326.146 205.894ZM326.245 198.137C325.37 198.137 324.679 198.435 324.169 199.03C323.66 199.625 323.405 200.446 323.405 201.492C323.405 202.501 323.662 203.294 324.177 203.876C324.692 204.458 325.382 204.749 326.244 204.749C327.124 204.749 327.802 204.464 328.275 203.893C328.748 203.323 328.985 202.511 328.985 201.46C328.985 200.395 328.748 199.576 328.275 199.001C327.803 198.424 327.126 198.137 326.245 198.137Z" fill="black"/>
<path d="M344.634 205.695H343.272V200.812C343.272 199.87 343.126 199.189 342.835 198.769C342.545 198.348 342.055 198.137 341.369 198.137C340.788 198.137 340.294 198.403 339.887 198.935C339.48 199.466 339.277 200.103 339.277 200.846V205.696H337.915V200.646C337.915 198.974 337.269 198.138 335.98 198.138C335.381 198.138 334.888 198.389 334.501 198.889C334.112 199.391 333.919 200.044 333.919 200.847V205.697H332.557V197.193H333.919V198.538H333.952C334.556 197.509 335.436 196.994 336.593 196.994C337.175 196.994 337.681 197.156 338.113 197.479C338.546 197.804 338.842 198.228 339.003 198.754C339.633 197.58 340.575 196.994 341.826 196.994C343.698 196.994 344.634 198.148 344.634 200.457V205.695Z" fill="black"/>
<path d="M354.044 201.783H348.04C348.062 202.729 348.317 203.46 348.804 203.976C349.291 204.49 349.962 204.748 350.814 204.748C351.772 204.748 352.652 204.432 353.456 203.8V205.079C352.707 205.621 351.719 205.893 350.491 205.893C349.289 205.893 348.345 205.507 347.658 204.735C346.971 203.962 346.628 202.875 346.628 201.474C346.628 200.15 347.003 199.073 347.754 198.24C348.504 197.407 349.436 196.99 350.548 196.99C351.66 196.99 352.521 197.35 353.131 198.069C353.74 198.788 354.044 199.788 354.044 201.068V201.783ZM352.648 200.629C352.643 199.842 352.453 199.231 352.079 198.794C351.706 198.356 351.186 198.137 350.522 198.137C349.879 198.137 349.334 198.367 348.886 198.827C348.437 199.286 348.161 199.887 348.055 200.629H352.648V200.629Z" fill="black"/>
<path d="M362.341 205.695H360.945V193.785H362.341V205.695Z" fill="black"/>
<path d="M377.366 205.695H376.005V200.812C376.005 199.87 375.859 199.189 375.568 198.769C375.278 198.348 374.79 198.137 374.102 198.137C373.521 198.137 373.027 198.403 372.618 198.935C372.214 199.466 372.01 200.103 372.01 200.846V205.696H370.647V200.646C370.647 198.974 370.003 198.138 368.713 198.138C368.114 198.138 367.621 198.389 367.234 198.889C366.846 199.391 366.651 200.044 366.651 200.847V205.697H365.29V197.193H366.651V198.538H366.685C367.289 197.509 368.169 196.994 369.326 196.994C369.908 196.994 370.414 197.156 370.846 197.479C371.279 197.804 371.575 198.228 371.736 198.754C372.365 197.58 373.307 196.994 374.558 196.994C376.43 196.994 377.366 198.148 377.366 200.457V205.695V205.695Z" fill="black"/>
<path d="M381.338 204.466H381.303V209.608H379.943V197.191H381.303V198.686H381.338C382.006 197.556 382.986 196.992 384.277 196.992C385.372 196.992 386.229 197.373 386.842 198.134C387.458 198.895 387.764 199.915 387.764 201.194C387.764 202.618 387.418 203.756 386.727 204.612C386.034 205.467 385.087 205.895 383.885 205.895C382.786 205.894 381.936 205.418 381.338 204.466ZM381.303 201.036V202.224C381.303 202.927 381.533 203.523 381.99 204.014C382.447 204.505 383.026 204.749 383.729 204.749C384.554 204.749 385.201 204.433 385.667 203.801C386.136 203.17 386.369 202.292 386.369 201.169C386.369 200.222 386.151 199.48 385.714 198.942C385.276 198.406 384.686 198.137 383.937 198.137C383.145 198.137 382.508 198.412 382.027 198.963C381.544 199.515 381.303 200.205 381.303 201.036Z" fill="black"/>
<path d="M394.376 198.568C394.138 198.386 393.795 198.294 393.346 198.294C392.766 198.294 392.28 198.568 391.888 199.117C391.498 199.665 391.303 200.412 391.303 201.359V205.695H389.943V197.191H391.303V198.942H391.337C391.531 198.345 391.828 197.879 392.225 197.543C392.625 197.208 393.07 197.04 393.563 197.04C393.918 197.04 394.189 197.08 394.376 197.157V198.568Z" fill="black"/>
<path d="M399.409 205.894C398.151 205.894 397.149 205.497 396.398 204.702C395.647 203.909 395.273 202.854 395.273 201.542C395.273 200.114 395.665 198.998 396.445 198.194C397.226 197.391 398.281 196.991 399.608 196.991C400.876 196.991 401.867 197.381 402.577 198.162C403.289 198.941 403.645 200.025 403.645 201.409C403.645 202.765 403.26 203.852 402.496 204.67C401.73 205.486 400.699 205.894 399.409 205.894ZM399.509 198.137C398.635 198.137 397.942 198.435 397.433 199.03C396.924 199.625 396.668 200.446 396.668 201.492C396.668 202.501 396.926 203.294 397.441 203.876C397.955 204.458 398.644 204.749 399.508 204.749C400.389 204.749 401.068 204.464 401.539 203.893C402.013 203.323 402.25 202.511 402.25 201.46C402.25 200.395 402.013 199.576 401.539 199.001C401.068 198.424 400.39 198.137 399.509 198.137Z" fill="black"/>
<path d="M412.508 197.19L409.119 205.694H407.783L404.559 197.19H406.054L408.213 203.37C408.373 203.823 408.473 204.22 408.511 204.557H408.545C408.601 204.132 408.69 203.745 408.811 203.403L411.071 197.191H412.508V197.19Z" fill="black"/>
<path d="M420.805 201.783H414.8C414.822 202.729 415.077 203.46 415.564 203.976C416.052 204.49 416.722 204.748 417.574 204.748C418.532 204.748 419.412 204.432 420.215 203.8V205.079C419.468 205.621 418.481 205.893 417.251 205.893C416.049 205.893 415.105 205.507 414.419 204.735C413.731 203.962 413.389 202.875 413.389 201.474C413.389 200.15 413.765 199.073 414.515 198.24C415.265 197.407 416.197 196.99 417.309 196.99C418.422 196.99 419.284 197.35 419.892 198.069C420.502 198.788 420.806 199.788 420.806 201.068V201.783H420.805ZM419.409 200.629C419.404 199.842 419.214 199.231 418.84 198.794C418.468 198.356 417.947 198.137 417.283 198.137C416.64 198.137 416.095 198.367 415.647 198.827C415.199 199.286 414.921 199.887 414.816 200.629H419.409V200.629Z" fill="black"/>
<path d="M434.941 205.695H433.579V200.812C433.579 199.87 433.433 199.189 433.142 198.769C432.852 198.348 432.364 198.137 431.676 198.137C431.094 198.137 430.601 198.403 430.193 198.935C429.786 199.466 429.585 200.103 429.585 200.846V205.696H428.222V200.646C428.222 198.974 427.576 198.138 426.286 198.138C425.688 198.138 425.195 198.389 424.808 198.889C424.419 199.391 424.225 200.044 424.225 200.847V205.697H422.865V197.193H424.225V198.538H424.259C424.863 197.509 425.743 196.994 426.9 196.994C427.482 196.994 427.989 197.156 428.42 197.479C428.854 197.804 429.149 198.228 429.311 198.754C429.94 197.58 430.882 196.994 432.133 196.994C434.006 196.994 434.942 198.148 434.942 200.457V205.695H434.941Z" fill="black"/>
<path d="M444.351 201.783H438.348C438.369 202.729 438.624 203.46 439.11 203.976C439.6 204.49 440.27 204.748 441.122 204.748C442.079 204.748 442.96 204.432 443.764 203.8V205.079C443.017 205.621 442.029 205.893 440.798 205.893C439.597 205.893 438.652 205.507 437.965 204.735C437.279 203.962 436.937 202.875 436.937 201.474C436.937 200.15 437.31 199.073 438.061 198.24C438.813 197.407 439.744 196.99 440.857 196.99C441.968 196.99 442.831 197.35 443.44 198.069C444.048 198.788 444.352 199.788 444.352 201.068V201.783H444.351ZM442.957 200.629C442.95 199.842 442.763 199.231 442.388 198.794C442.015 198.356 441.494 198.137 440.83 198.137C440.188 198.137 439.643 198.367 439.193 198.827C438.747 199.286 438.469 199.887 438.363 200.629H442.957V200.629Z" fill="black"/>
<path d="M453.472 205.695H452.11V200.845C452.11 199.039 451.451 198.137 450.131 198.137C449.451 198.137 448.889 198.393 448.443 198.906C447.998 199.417 447.774 200.064 447.774 200.846V205.696H446.413V197.192H447.774V198.604H447.807C448.449 197.528 449.379 196.993 450.599 196.993C451.529 196.993 452.24 197.293 452.733 197.894C453.225 198.495 453.472 199.362 453.472 200.498V205.695V205.695Z" fill="black"/>
<path d="M459.982 205.611C459.66 205.788 459.237 205.877 458.712 205.877C457.222 205.877 456.477 205.047 456.477 203.386V198.353H455.015V197.19H456.477V195.113L457.84 194.673V197.19H459.982V198.353H457.84V203.145C457.84 203.715 457.935 204.122 458.13 204.366C458.323 204.609 458.644 204.731 459.093 204.731C459.437 204.731 459.734 204.637 459.982 204.448V205.611Z" fill="black"/>
<path d="M310.697 74.015V62.105H313.986C318.184 62.105 320.282 64.04 320.282 67.911C320.282 69.749 319.7 71.226 318.533 72.342C317.368 73.458 315.807 74.016 313.854 74.016H310.697V74.015ZM312.093 63.3671V72.752H313.87C315.432 72.752 316.647 72.334 317.516 71.498C318.385 70.662 318.821 69.477 318.821 67.943C318.821 64.892 317.198 63.3671 313.954 63.3671H312.093Z" fill="black"/>
<path d="M329.277 70.103H323.272C323.294 71.049 323.55 71.78 324.037 72.295C324.524 72.81 325.194 73.068 326.047 73.068C327.005 73.068 327.885 72.752 328.688 72.121V73.4C327.94 73.942 326.952 74.2141 325.723 74.2141C324.522 74.2141 323.577 73.828 322.89 73.055C322.204 72.283 321.861 71.196 321.861 69.795C321.861 68.472 322.236 67.394 322.987 66.56C323.737 65.727 324.669 65.31 325.781 65.31C326.893 65.31 327.754 65.671 328.364 66.39C328.973 67.109 329.278 68.109 329.278 69.389V70.103H329.277ZM327.882 68.948C327.877 68.162 327.686 67.551 327.313 67.112C326.939 66.675 326.42 66.456 325.756 66.456C325.113 66.456 324.568 66.6861 324.12 67.1451C323.671 67.6041 323.395 68.2051 323.289 68.9471H327.882V68.948Z" fill="black"/>
<path d="M330.822 73.707V72.246C331.565 72.794 332.381 73.069 333.272 73.069C334.468 73.069 335.065 72.669 335.065 71.873C335.065 71.645 335.014 71.4541 334.912 71.2961C334.81 71.1381 334.671 70.998 334.496 70.877C334.323 70.755 334.117 70.645 333.882 70.548C333.646 70.451 333.393 70.35 333.122 70.245C332.745 70.096 332.414 69.945 332.129 69.792C331.844 69.64 331.607 69.469 331.415 69.277C331.225 69.087 331.08 68.869 330.983 68.626C330.886 68.383 330.838 68.097 330.838 67.771C330.838 67.373 330.929 67.0191 331.111 66.7121C331.294 66.4051 331.538 66.147 331.842 65.939C332.146 65.731 332.494 65.575 332.884 65.47C333.274 65.365 333.677 65.312 334.092 65.312C334.828 65.312 335.488 65.439 336.068 65.694V67.0721C335.443 66.6621 334.723 66.458 333.909 66.458C333.655 66.458 333.425 66.487 333.221 66.545C333.016 66.603 332.84 66.684 332.693 66.79C332.547 66.895 332.433 67.021 332.352 67.168C332.272 67.314 332.231 67.476 332.231 67.654C332.231 67.875 332.272 68.06 332.352 68.21C332.433 68.359 332.551 68.492 332.706 68.608C332.861 68.725 333.049 68.83 333.27 68.924C333.491 69.019 333.743 69.121 334.026 69.231C334.402 69.375 334.74 69.523 335.039 69.675C335.338 69.828 335.592 69.999 335.804 70.191C336.014 70.382 336.177 70.603 336.29 70.851C336.403 71.101 336.461 71.397 336.461 71.741C336.461 72.162 336.367 72.527 336.182 72.836C335.996 73.147 335.748 73.405 335.438 73.609C335.128 73.814 334.771 73.966 334.366 74.066C333.963 74.166 333.539 74.215 333.096 74.215C332.224 74.214 331.464 74.045 330.822 73.707Z" fill="black"/>
<path d="M339.252 63.351C339.009 63.351 338.801 63.268 338.629 63.101C338.457 62.935 338.372 62.725 338.372 62.47C338.372 62.216 338.456 62.003 338.629 61.834C338.801 61.666 339.009 61.581 339.252 61.581C339.501 61.581 339.713 61.666 339.888 61.834C340.063 62.003 340.149 62.216 340.149 62.47C340.149 62.714 340.063 62.922 339.888 63.093C339.713 63.265 339.501 63.351 339.252 63.351ZM339.916 74.015H338.554V65.51H339.916V74.015Z" fill="black"/>
<path d="M349.933 73.333C349.933 76.457 348.438 78.017 345.448 78.017C344.396 78.017 343.476 77.818 342.689 77.419V76.058C343.648 76.589 344.562 76.856 345.431 76.856C347.524 76.856 348.571 75.743 348.571 73.517V72.5871H348.538C347.89 73.6711 346.915 74.2141 345.615 74.2141C344.558 74.2141 343.706 73.836 343.061 73.08C342.416 72.325 342.094 71.31 342.094 70.036C342.094 68.591 342.441 67.443 343.136 66.59C343.83 65.737 344.782 65.31 345.989 65.31C347.135 65.31 347.986 65.77 348.539 66.689H348.572V65.51H349.934V73.333H349.933ZM348.571 70.169V68.915C348.571 68.24 348.342 67.661 347.886 67.179C347.428 66.698 346.859 66.457 346.178 66.457C345.337 66.457 344.677 66.763 344.201 67.374C343.725 67.986 343.487 68.843 343.487 69.945C343.487 70.892 343.716 71.65 344.173 72.217C344.629 72.784 345.234 73.069 345.987 73.069C346.751 73.069 347.373 72.798 347.851 72.254C348.331 71.711 348.571 71.016 348.571 70.169Z" fill="black"/>
<path d="M359.751 74.015H358.389V69.164C358.389 67.359 357.729 66.456 356.412 66.456C355.731 66.456 355.166 66.7121 354.722 67.2251C354.276 67.7371 354.053 68.383 354.053 69.164V74.015H352.691V65.51H354.053V66.922H354.086C354.729 65.847 355.658 65.31 356.877 65.31C357.807 65.31 358.52 65.611 359.011 66.211C359.504 66.812 359.751 67.68 359.751 68.815V74.015V74.015Z" fill="black"/>
<path d="M377.599 74.205C377.284 74.205 377.004 74.163 376.763 74.078C376.524 73.991 376.3 73.8701 376.096 73.7121C375.891 73.5541 375.694 73.361 375.502 73.134C375.312 72.907 375.109 72.65 374.899 72.362C374.677 72.601 374.42 72.83 374.13 73.051C373.84 73.273 373.518 73.47 373.164 73.641C372.809 73.812 372.421 73.95 371.999 74.052C371.577 74.155 371.123 74.205 370.629 74.205C370.031 74.205 369.483 74.131 368.984 73.981C368.485 73.832 368.058 73.611 367.704 73.321C367.35 73.03 367.076 72.672 366.879 72.245C366.682 71.818 366.584 71.328 366.584 70.775C366.584 69.927 366.824 69.204 367.305 68.603C367.788 68.002 368.469 67.5111 369.349 67.1281C369.182 67.0061 369.017 66.864 368.851 66.7C368.684 66.537 368.535 66.351 368.407 66.144C368.276 65.936 368.173 65.707 368.091 65.454C368.011 65.203 367.969 64.927 367.969 64.629C367.969 64.191 368.049 63.803 368.207 63.466C368.365 63.128 368.582 62.842 368.859 62.61C369.136 62.378 369.462 62.202 369.838 62.083C370.215 61.964 370.623 61.904 371.06 61.904C371.492 61.904 371.886 61.964 372.244 62.083C372.6 62.202 372.909 62.373 373.165 62.594C373.423 62.816 373.624 63.082 373.768 63.391C373.912 63.702 373.985 64.047 373.985 64.429C373.985 65.094 373.794 65.646 373.417 66.086C373.037 66.526 372.468 66.902 371.709 67.211C372.09 67.36 372.436 67.543 372.745 67.759C373.057 67.975 373.342 68.216 373.607 68.482C373.869 68.748 374.115 69.033 374.341 69.338C374.57 69.643 374.792 69.958 375.014 70.285C375.462 69.659 375.799 68.97 376.028 68.216C376.256 67.463 376.368 66.6741 376.368 65.8501C376.368 65.6401 376.357 65.442 376.331 65.256C376.306 65.07 376.27 64.886 376.227 64.703H377.548C377.591 64.886 377.618 65.059 377.625 65.222C377.634 65.386 377.643 65.581 377.655 65.808C377.655 66.312 377.6 66.819 377.497 67.328C377.393 67.838 377.249 68.3321 377.074 68.8111C376.895 69.2901 376.689 69.745 376.454 70.177C376.219 70.609 375.972 71.0061 375.711 71.3651C375.906 71.6311 376.082 71.862 376.242 72.058C376.403 72.255 376.564 72.42 376.727 72.552C376.892 72.685 377.062 72.784 377.234 72.847C377.41 72.911 377.606 72.942 377.829 72.942C377.994 72.942 378.164 72.921 378.336 72.876C378.507 72.832 378.686 72.776 378.867 72.71V73.973C378.668 74.05 378.459 74.108 378.24 74.147C378.023 74.186 377.81 74.205 377.599 74.205ZM370.631 73.026C371.053 73.026 371.44 72.981 371.794 72.889C372.148 72.798 372.473 72.676 372.773 72.523C373.072 72.371 373.342 72.1931 373.587 71.9921C373.83 71.7901 374.052 71.578 374.25 71.357C373.912 70.83 373.602 70.38 373.314 70.006C373.031 69.633 372.743 69.31 372.453 69.039C372.161 68.768 371.852 68.536 371.521 68.342C371.193 68.148 370.813 67.968 370.38 67.802C370.032 67.941 369.71 68.094 369.416 68.263C369.124 68.431 368.87 68.631 368.655 68.861C368.444 69.091 368.275 69.358 368.155 69.662C368.033 69.967 367.97 70.324 367.97 70.733C367.97 71.11 368.04 71.442 368.178 71.73C368.317 72.019 368.506 72.2571 368.747 72.4491C368.989 72.6391 369.268 72.784 369.59 72.881C369.914 72.978 370.26 73.026 370.631 73.026ZM372.707 64.5461C372.707 64.2701 372.654 64.035 372.554 63.84C372.45 63.646 372.322 63.486 372.163 63.359C372.006 63.232 371.83 63.139 371.636 63.081C371.443 63.023 371.251 62.994 371.063 62.994C370.52 62.994 370.087 63.1401 369.762 63.4341C369.439 63.7271 369.274 64.1251 369.268 64.6301C369.268 64.8571 369.304 65.07 369.372 65.269C369.439 65.468 369.538 65.654 369.663 65.826C369.788 65.997 369.931 66.15 370.099 66.282C370.266 66.415 370.442 66.529 370.631 66.623C371.328 66.379 371.848 66.096 372.191 65.771C372.535 65.447 372.707 65.0391 372.707 64.5461Z" fill="black"/>
<path d="M393.97 74.015H392.309L390.316 70.676C390.133 70.366 389.956 70.102 389.784 69.883C389.613 69.664 389.437 69.486 389.257 69.347C389.077 69.209 388.883 69.107 388.677 69.044C388.468 68.98 388.235 68.948 387.975 68.948H386.829V74.014H385.433V62.104H388.988C389.509 62.104 389.989 62.169 390.429 62.299C390.869 62.429 391.25 62.627 391.575 62.892C391.899 63.158 392.152 63.489 392.335 63.885C392.519 64.281 392.609 64.745 392.609 65.277C392.609 65.692 392.546 66.072 392.421 66.419C392.297 66.766 392.12 67.074 391.892 67.345C391.661 67.617 391.383 67.848 391.06 68.04C390.737 68.23 390.372 68.378 389.968 68.483V68.516C390.168 68.605 390.34 68.705 390.487 68.819C390.634 68.933 390.775 69.068 390.908 69.222C391.039 69.377 391.171 69.553 391.303 69.749C391.432 69.946 391.578 70.173 391.738 70.435L393.97 74.015ZM386.827 63.3671V67.6861H388.72C389.071 67.6861 389.393 67.633 389.689 67.528C389.986 67.424 390.241 67.272 390.458 67.076C390.675 66.879 390.842 66.639 390.965 66.353C391.086 66.068 391.148 65.749 391.148 65.394C391.148 64.757 390.941 64.261 390.529 63.903C390.116 63.547 389.519 63.368 388.74 63.368H386.827V63.3671Z" fill="black"/>
<path d="M401.76 70.103H395.756C395.778 71.049 396.032 71.78 396.52 72.295C397.008 72.81 397.678 73.068 398.53 73.068C399.488 73.068 400.368 72.752 401.171 72.121V73.4C400.424 73.942 399.437 74.2141 398.207 74.2141C397.005 74.2141 396.061 73.828 395.373 73.055C394.687 72.283 394.344 71.196 394.344 69.795C394.344 68.472 394.719 67.394 395.471 66.56C396.22 65.727 397.153 65.31 398.265 65.31C399.377 65.31 400.24 65.671 400.848 66.39C401.457 67.109 401.761 68.109 401.761 69.389V70.103H401.76ZM400.364 68.948C400.359 68.162 400.169 67.551 399.796 67.112C399.423 66.675 398.903 66.456 398.239 66.456C397.595 66.456 397.051 66.6861 396.602 67.1451C396.154 67.6041 395.876 68.2051 395.771 68.9471H400.364V68.948Z" fill="black"/>
<path d="M415.897 74.015H414.535V69.131C414.535 68.19 414.389 67.509 414.098 67.088C413.808 66.668 413.319 66.457 412.633 66.457C412.05 66.457 411.557 66.7231 411.149 67.2551C410.743 67.7851 410.541 68.422 410.541 69.165V74.016H409.177V68.966C409.177 67.294 408.531 66.458 407.242 66.458C406.644 66.458 406.151 66.709 405.763 67.209C405.375 67.711 405.181 68.363 405.181 69.166V74.017H403.82V65.512H405.181V66.857H405.215C405.819 65.828 406.698 65.312 407.856 65.312C408.438 65.312 408.944 65.474 409.376 65.798C409.809 66.122 410.105 66.5471 410.266 67.0721C410.896 65.8981 411.837 65.3111 413.089 65.3111C414.961 65.3111 415.897 66.465 415.897 68.774V74.015V74.015Z" fill="black"/>
<path d="M422.026 74.2141C420.768 74.2141 419.764 73.817 419.015 73.022C418.264 72.228 417.889 71.174 417.889 69.862C417.889 68.434 418.279 67.317 419.059 66.514C419.84 65.711 420.895 65.31 422.225 65.31C423.493 65.31 424.482 65.701 425.194 66.482C425.905 67.262 426.26 68.344 426.26 69.729C426.26 71.085 425.877 72.172 425.111 72.989C424.344 73.805 423.316 74.2141 422.026 74.2141ZM422.126 66.457C421.249 66.457 420.559 66.7541 420.05 67.3501C419.539 67.9451 419.285 68.766 419.285 69.812C419.285 70.821 419.543 71.615 420.056 72.196C420.572 72.777 421.261 73.069 422.125 73.069C423.005 73.069 423.682 72.783 424.154 72.213C424.629 71.643 424.865 70.831 424.865 69.779C424.865 68.716 424.629 67.896 424.154 67.321C423.683 66.745 423.006 66.457 422.126 66.457Z" fill="black"/>
<path d="M435.697 74.015H434.335V72.57H434.302C433.67 73.666 432.697 74.2141 431.378 74.2141C430.31 74.2141 429.454 73.8341 428.815 73.0721C428.176 72.3111 427.856 71.2741 427.856 69.9621C427.856 68.5561 428.21 67.429 428.919 66.581C429.627 65.734 430.571 65.31 431.751 65.31C432.919 65.31 433.769 65.77 434.301 66.689H434.334V61.423H435.696V74.015H435.697ZM434.335 70.169V68.915C434.335 68.228 434.107 67.6471 433.654 67.1711C433.199 66.6951 432.622 66.457 431.925 66.457C431.095 66.457 430.442 66.761 429.965 67.371C429.489 67.98 429.251 68.8221 429.251 69.8951C429.251 70.8751 429.48 71.649 429.937 72.217C430.393 72.784 431.006 73.069 431.776 73.069C432.535 73.069 433.152 72.795 433.624 72.246C434.098 71.697 434.335 71.006 434.335 70.169Z" fill="black"/>
<path d="M445.289 70.103H439.286C439.307 71.049 439.563 71.78 440.049 72.295C440.537 72.81 441.207 73.068 442.06 73.068C443.016 73.068 443.899 72.752 444.703 72.121V73.4C443.956 73.942 442.966 74.2141 441.735 74.2141C440.536 74.2141 439.59 73.828 438.905 73.055C438.217 72.283 437.875 71.196 437.875 69.795C437.875 68.472 438.249 67.394 439.001 66.56C439.749 65.727 440.681 65.31 441.796 65.31C442.907 65.31 443.768 65.671 444.379 66.39C444.986 67.109 445.29 68.109 445.29 69.389V70.103H445.289ZM443.895 68.948C443.889 68.162 443.702 67.551 443.326 67.112C442.954 66.675 442.432 66.456 441.768 66.456C441.127 66.456 440.581 66.6861 440.132 67.1451C439.686 67.6041 439.408 68.2051 439.301 68.9471H443.895V68.948Z" fill="black"/>
<path d="M448.713 74.015H447.351V61.423H448.713V74.015Z" fill="black"/>
<path d="M452.166 63.351C451.923 63.351 451.715 63.268 451.544 63.101C451.37 62.935 451.286 62.725 451.286 62.47C451.286 62.216 451.37 62.003 451.544 61.834C451.715 61.666 451.923 61.581 452.166 61.581C452.415 61.581 452.627 61.666 452.802 61.834C452.978 62.003 453.064 62.216 453.064 62.47C453.064 62.714 452.978 62.922 452.802 63.093C452.627 63.265 452.415 63.351 452.166 63.351ZM452.831 74.015H451.469V65.51H452.831V74.015Z" fill="black"/>
<path d="M462.648 74.015H461.287V69.164C461.287 67.359 460.628 66.456 459.308 66.456C458.628 66.456 458.065 66.7121 457.619 67.2251C457.175 67.7371 456.951 68.383 456.951 69.164V74.015H455.59V65.51H456.951V66.922H456.984C457.626 65.847 458.557 65.31 459.775 65.31C460.705 65.31 461.417 65.611 461.91 66.211C462.401 66.812 462.648 67.68 462.648 68.815V74.015V74.015Z" fill="black"/>
<path d="M472.474 73.333C472.474 76.457 470.98 78.017 467.99 78.017C466.937 78.017 466.018 77.818 465.232 77.419V76.058C466.19 76.589 467.103 76.856 467.972 76.856C470.066 76.856 471.111 75.743 471.111 73.517V72.5871H471.08C470.432 73.6711 469.457 74.2141 468.155 74.2141C467.097 74.2141 466.247 73.836 465.601 73.08C464.956 72.325 464.633 71.31 464.633 70.036C464.633 68.591 464.98 67.443 465.676 66.59C466.37 65.737 467.322 65.31 468.528 65.31C469.675 65.31 470.525 65.77 471.08 66.689H471.111V65.51H472.474V73.333V73.333ZM471.11 70.169V68.915C471.11 68.24 470.882 67.661 470.425 67.179C469.969 66.698 469.4 66.457 468.72 66.457C467.876 66.457 467.218 66.763 466.743 67.374C466.265 67.986 466.027 68.843 466.027 69.945C466.027 70.892 466.256 71.65 466.714 72.217C467.171 72.784 467.775 73.069 468.527 73.069C469.292 73.069 469.913 72.798 470.392 72.254C470.873 71.711 471.11 71.016 471.11 70.169Z" fill="black"/>
<path d="M62.373 37.603C61.493 38.068 60.396 38.301 59.084 38.301C57.39 38.301 56.033 37.755 55.015 36.664C53.996 35.573 53.486 34.143 53.486 32.371C53.486 30.466 54.06 28.9261 55.206 27.7531C56.351 26.5791 57.805 25.9921 59.566 25.9921C60.696 25.9921 61.631 26.157 62.373 26.482V27.969C61.52 27.493 60.58 27.2551 59.549 27.2551C58.181 27.2551 57.073 27.713 56.223 28.625C55.372 29.539 54.948 30.76 54.948 32.288C54.948 33.739 55.345 34.895 56.139 35.756C56.934 36.617 57.975 37.048 59.266 37.048C60.462 37.048 61.497 36.781 62.372 36.25V37.603H62.373Z" fill="black"/>
<path d="M68.17 38.301C66.913 38.301 65.91 37.903 65.16 37.108C64.41 36.315 64.035 35.26 64.035 33.948C64.035 32.52 64.425 31.404 65.206 30.601C65.987 29.798 67.041 29.397 68.371 29.397C69.639 29.397 70.629 29.787 71.34 30.568C72.051 31.349 72.407 32.431 72.407 33.816C72.407 35.172 72.023 36.259 71.257 37.076C70.488 37.892 69.46 38.301 68.17 38.301ZM68.27 30.543C67.395 30.543 66.703 30.8411 66.193 31.4361C65.684 32.0321 65.429 32.853 65.429 33.898C65.429 34.907 65.686 35.7011 66.201 36.2831C66.715 36.8641 67.405 37.155 68.269 37.155C69.149 37.155 69.826 36.869 70.299 36.299C70.772 35.729 71.009 34.918 71.009 33.866C71.009 32.803 70.772 31.983 70.299 31.407C69.827 30.832 69.15 30.543 68.27 30.543Z" fill="black"/>
<path d="M86.659 38.1021H85.297V33.218C85.297 32.276 85.151 31.596 84.86 31.175C84.569 30.755 84.081 30.544 83.394 30.544C82.812 30.544 82.318 30.81 81.911 31.341C81.504 31.872 81.301 32.509 81.301 33.252V38.103H79.939V33.053C79.939 31.381 79.294 30.544 78.004 30.544C77.406 30.544 76.913 30.795 76.525 31.295C76.137 31.796 75.943 32.449 75.943 33.252V38.103H74.581V29.598H75.943V30.943H75.976C76.58 29.914 77.46 29.399 78.618 29.399C79.199 29.399 79.706 29.561 80.138 29.885C80.569 30.209 80.866 30.634 81.027 31.159C81.658 29.986 82.599 29.399 83.851 29.399C85.723 29.399 86.659 30.553 86.659 32.862V38.1021V38.1021Z" fill="black"/>
<path d="M90.629 36.872H90.595V42.013H89.233V29.597H90.595V31.091H90.629C91.298 29.963 92.279 29.397 93.568 29.397C94.665 29.397 95.52 29.778 96.135 30.54C96.749 31.301 97.057 32.3211 97.057 33.6001C97.057 35.0231 96.71 36.1621 96.019 37.0181C95.326 37.8731 94.379 38.301 93.178 38.301C92.076 38.301 91.226 37.824 90.629 36.872ZM90.595 33.441V34.629C90.595 35.332 90.824 35.928 91.281 36.419C91.738 36.909 92.318 37.154 93.021 37.154C93.846 37.154 94.493 36.838 94.96 36.206C95.428 35.575 95.661 34.698 95.661 33.573C95.661 32.626 95.443 31.885 95.005 31.348C94.567 30.811 93.975 30.542 93.228 30.542C92.436 30.542 91.799 30.817 91.317 31.369C90.836 31.921 90.595 32.611 90.595 33.441Z" fill="black"/>
<path d="M105.32 38.1021H103.958V36.773H103.925C103.332 37.792 102.46 38.301 101.308 38.301C100.461 38.301 99.798 38.0771 99.319 37.6281C98.84 37.1801 98.601 36.585 98.601 35.843C98.601 34.254 99.537 33.329 101.408 33.069L103.958 32.713C103.958 31.267 103.374 30.545 102.206 30.545C101.182 30.545 100.257 30.895 99.433 31.591V30.196C100.268 29.663 101.232 29.398 102.323 29.398C104.322 29.398 105.321 30.455 105.321 32.571V38.1021H105.32ZM103.958 33.799L101.907 34.081C101.276 34.169 100.799 34.326 100.478 34.55C100.157 34.774 99.996 35.171 99.996 35.741C99.996 36.157 100.144 36.496 100.441 36.759C100.736 37.022 101.131 37.154 101.624 37.154C102.3 37.154 102.857 36.917 103.297 36.444C103.737 35.97 103.957 35.371 103.957 34.646V33.799H103.958Z" fill="black"/>
<path d="M114.947 38.1021H113.585V33.251C113.585 31.446 112.925 30.543 111.608 30.543C110.927 30.543 110.363 30.799 109.918 31.312C109.472 31.824 109.249 32.47 109.249 33.251V38.1021H107.887V29.597H109.249V31.009H109.282C109.925 29.935 110.854 29.398 112.072 29.398C113.002 29.398 113.715 29.698 114.207 30.299C114.7 30.9 114.947 31.768 114.947 32.903V38.1021V38.1021Z" fill="black"/>
<path d="M124.282 29.597L120.37 39.4641C119.673 41.2251 118.692 42.105 117.431 42.105C117.076 42.105 116.78 42.069 116.541 41.997V40.776C116.834 40.876 117.104 40.925 117.347 40.925C118.034 40.925 118.548 40.515 118.892 39.696L119.574 38.085L116.251 29.597H117.763L120.064 36.141C120.091 36.224 120.149 36.44 120.238 36.789H120.288C120.315 36.656 120.371 36.4451 120.455 36.1581L122.872 29.597H124.282V29.597Z" fill="black"/>
<path d="M139.805 38.1021H138.26L136.998 34.763H131.948L130.761 38.1021H129.208L133.776 26.192H135.22L139.805 38.1021ZM136.541 33.508L134.673 28.4341C134.611 28.2681 134.55 28.002 134.49 27.637H134.456C134.401 27.975 134.337 28.2411 134.266 28.4341L132.414 33.508H136.541Z" fill="black"/>
<path d="M147.172 37.711C146.519 38.104 145.743 38.301 144.846 38.301C143.634 38.301 142.655 37.9061 141.91 37.1171C141.165 36.3281 140.793 35.305 140.793 34.048C140.793 32.647 141.193 31.522 141.996 30.672C142.8 29.822 143.871 29.397 145.211 29.397C145.959 29.397 146.617 29.535 147.188 29.813V31.208C146.557 30.766 145.881 30.544 145.161 30.544C144.292 30.544 143.579 30.855 143.023 31.479C142.466 32.102 142.188 32.9201 142.188 33.9341C142.188 34.9301 142.449 35.716 142.973 36.292C143.495 36.868 144.198 37.1561 145.078 37.1561C145.82 37.1561 146.518 36.909 147.171 36.416V37.711H147.172Z" fill="black"/>
<path d="M155.03 37.711C154.377 38.104 153.602 38.301 152.704 38.301C151.491 38.301 150.513 37.9061 149.768 37.1171C149.023 36.3281 148.651 35.305 148.651 34.048C148.651 32.647 149.052 31.522 149.855 30.672C150.658 29.822 151.73 29.397 153.07 29.397C153.818 29.397 154.476 29.535 155.047 29.813V31.208C154.416 30.766 153.74 30.544 153.021 30.544C152.152 30.544 151.438 30.855 150.882 31.479C150.326 32.102 150.048 32.9201 150.048 33.9341C150.048 34.9301 150.309 35.716 150.833 36.292C151.356 36.868 152.058 37.1561 152.938 37.1561C153.68 37.1561 154.377 36.909 155.031 36.416V37.711H155.03Z" fill="black"/>
<path d="M160.644 38.301C159.387 38.301 158.384 37.903 157.634 37.108C156.884 36.315 156.509 35.26 156.509 33.948C156.509 32.52 156.899 31.404 157.68 30.601C158.461 29.798 159.515 29.397 160.845 29.397C162.113 29.397 163.103 29.787 163.814 30.568C164.525 31.349 164.881 32.431 164.881 33.816C164.881 35.172 164.497 36.259 163.731 37.076C162.962 37.892 161.934 38.301 160.644 38.301ZM160.744 30.543C159.869 30.543 159.177 30.8411 158.667 31.4361C158.158 32.0321 157.903 32.853 157.903 33.898C157.903 34.907 158.16 35.7011 158.675 36.2831C159.19 36.8641 159.879 37.155 160.743 37.155C161.623 37.155 162.3 36.869 162.773 36.299C163.246 35.729 163.483 34.918 163.483 33.866C163.483 32.803 163.246 31.983 162.773 31.407C162.301 30.832 161.625 30.543 160.744 30.543Z" fill="black"/>
<path d="M173.934 38.1021H172.572V36.756H172.539C171.974 37.786 171.1 38.301 169.914 38.301C167.887 38.301 166.874 37.093 166.874 34.68V29.597H168.227V34.4641C168.227 36.2571 168.915 37.155 170.288 37.155C170.953 37.155 171.499 36.91 171.928 36.42C172.358 35.93 172.572 35.289 172.572 34.497V29.598H173.934V38.1021V38.1021Z" fill="black"/>
<path d="M183.742 38.1021H182.379V33.251C182.379 31.446 181.72 30.543 180.403 30.543C179.722 30.543 179.158 30.799 178.713 31.312C178.267 31.824 178.044 32.47 178.044 33.251V38.1021H176.682V29.597H178.044V31.009H178.078C178.72 29.935 179.651 29.398 180.868 29.398C181.798 29.398 182.51 29.698 183.003 30.299C183.496 30.9 183.742 31.768 183.742 32.903V38.1021Z" fill="black"/>
<path d="M190.253 38.0181C189.932 38.1951 189.508 38.2831 188.982 38.2831C187.493 38.2831 186.748 37.453 186.748 35.792V30.759H185.287V29.597H186.748V27.5201L188.11 27.08V29.597H190.253V30.759H188.11V35.552C188.11 36.122 188.207 36.53 188.401 36.773C188.595 37.017 188.916 37.138 189.365 37.138C189.708 37.138 190.005 37.044 190.253 36.856V38.0181Z" fill="black"/>
<path d="M342.271 333.477H340.875V328.044H334.712V333.477H333.317V321.567H334.712V326.793H340.875V321.567H342.271V333.477Z" fill="black"/>
<path d="M348.765 333.676C347.509 333.676 346.505 333.28 345.754 332.485C345.004 331.69 344.629 330.636 344.629 329.325C344.629 327.896 345.019 326.78 345.799 325.977C346.579 325.174 347.634 324.774 348.965 324.774C350.233 324.774 351.222 325.165 351.933 325.945C352.645 326.726 353.001 327.807 353.001 329.192C353.001 330.549 352.618 331.634 351.85 332.451C351.084 333.268 350.056 333.676 348.765 333.676ZM348.865 325.919C347.991 325.919 347.299 326.216 346.788 326.812C346.279 327.407 346.025 328.228 346.025 329.276C346.025 330.283 346.282 331.078 346.797 331.659C347.312 332.24 348.002 332.53 348.865 332.53C349.745 332.53 350.423 332.246 350.896 331.676C351.37 331.106 351.607 330.295 351.607 329.241C351.607 328.179 351.37 327.36 350.896 326.784C350.422 326.206 349.745 325.919 348.865 325.919Z" fill="black"/>
<path d="M367.254 333.477H365.892V328.593C365.892 327.653 365.747 326.971 365.455 326.551C365.165 326.129 364.677 325.919 363.99 325.919C363.408 325.919 362.914 326.186 362.508 326.716C362.101 327.248 361.898 327.886 361.898 328.627V333.477H360.536V328.427C360.536 326.755 359.89 325.919 358.601 325.919C358.002 325.919 357.509 326.17 357.122 326.671C356.734 327.172 356.54 327.824 356.54 328.627V333.477H355.178V324.971H356.54V326.319H356.573C357.177 325.288 358.057 324.774 359.214 324.774C359.795 324.774 360.303 324.934 360.733 325.259C361.166 325.582 361.462 326.009 361.623 326.533C362.254 325.36 363.195 324.773 364.447 324.773C366.318 324.773 367.254 325.927 367.254 328.236V333.477Z" fill="black"/>
<path d="M376.665 329.565H370.659C370.681 330.511 370.935 331.243 371.423 331.757C371.909 332.273 372.581 332.528 373.433 332.528C374.392 332.528 375.271 332.214 376.075 331.583V332.861C375.328 333.404 374.339 333.674 373.11 333.674C371.908 333.674 370.964 333.289 370.278 332.516C369.59 331.744 369.247 330.658 369.247 329.257C369.247 327.932 369.622 326.854 370.373 326.022C371.124 325.187 372.055 324.772 373.167 324.772C374.279 324.772 375.142 325.13 375.75 325.851C376.359 326.571 376.665 327.571 376.665 328.849V329.565ZM375.269 328.411C375.264 327.624 375.075 327.012 374.7 326.575C374.327 326.137 373.808 325.919 373.144 325.919C372.5 325.919 371.956 326.148 371.507 326.608C371.058 327.067 370.781 327.669 370.677 328.411H375.269Z" fill="black"/>
<path d="M383.01 332.996V331.351C383.197 331.517 383.423 331.665 383.686 331.799C383.95 331.932 384.227 332.043 384.517 332.136C384.809 332.227 385.101 332.296 385.392 332.348C385.688 332.397 385.959 332.421 386.207 332.421C387.065 332.421 387.706 332.263 388.13 331.943C388.553 331.626 388.765 331.167 388.765 330.568C388.765 330.248 388.694 329.968 388.553 329.73C388.411 329.493 388.217 329.275 387.968 329.078C387.72 328.882 387.424 328.692 387.082 328.515C386.742 328.333 386.376 328.143 385.982 327.946C385.568 327.734 385.18 327.521 384.82 327.305C384.46 327.088 384.146 326.851 383.882 326.592C383.614 326.331 383.405 326.036 383.252 325.706C383.101 325.377 383.025 324.991 383.025 324.547C383.025 324.005 383.143 323.533 383.381 323.131C383.62 322.73 383.932 322.4 384.319 322.139C384.708 321.878 385.149 321.684 385.643 321.559C386.139 321.43 386.644 321.367 387.16 321.367C388.333 321.367 389.188 321.508 389.726 321.792V323.361C389.023 322.873 388.12 322.63 387.019 322.63C386.713 322.63 386.409 322.662 386.105 322.725C385.801 322.789 385.53 322.894 385.292 323.038C385.054 323.182 384.86 323.367 384.709 323.595C384.561 323.822 384.485 324.098 384.485 324.425C384.485 324.73 384.542 324.993 384.656 325.214C384.769 325.436 384.937 325.638 385.158 325.82C385.38 326.003 385.649 326.18 385.968 326.351C386.287 326.523 386.655 326.712 387.069 326.916C387.496 327.126 387.9 327.348 388.281 327.58C388.664 327.811 388.999 328.07 389.288 328.352C389.574 328.634 389.804 328.946 389.973 329.29C390.141 329.633 390.227 330.026 390.227 330.47C390.227 331.057 390.111 331.554 389.881 331.96C389.652 332.368 389.343 332.699 388.951 332.953C388.561 333.208 388.111 333.391 387.601 333.506C387.092 333.618 386.553 333.675 385.99 333.675C385.802 333.675 385.57 333.66 385.293 333.63C385.017 333.601 384.733 333.555 384.445 333.497C384.158 333.439 383.883 333.368 383.628 333.28C383.37 333.195 383.164 333.101 383.01 332.996Z" fill="black"/>
<path d="M399.255 329.565H393.25C393.272 330.511 393.527 331.243 394.014 331.757C394.502 332.273 395.172 332.528 396.026 332.528C396.982 332.528 397.864 332.214 398.665 331.583V332.861C397.918 333.404 396.931 333.674 395.701 333.674C394.5 333.674 393.555 333.289 392.868 332.516C392.182 331.744 391.84 330.658 391.84 329.257C391.84 327.932 392.214 326.854 392.965 326.022C393.715 325.187 394.647 324.772 395.759 324.772C396.872 324.772 397.734 325.13 398.342 325.851C398.952 326.571 399.256 327.571 399.256 328.849V329.565H399.255ZM397.86 328.411C397.854 327.624 397.664 327.012 397.291 326.575C396.918 326.137 396.397 325.919 395.733 325.919C395.09 325.919 394.545 326.148 394.097 326.608C393.648 327.067 393.371 327.669 393.266 328.411H397.86Z" fill="black"/>
<path d="M405.749 326.351C405.511 326.167 405.168 326.077 404.721 326.077C404.139 326.077 403.653 326.351 403.261 326.899C402.871 327.448 402.677 328.196 402.677 329.141V333.477H401.316V324.971H402.677V326.726H402.71C402.904 326.125 403.201 325.66 403.598 325.326C403.997 324.991 404.443 324.823 404.936 324.823C405.291 324.823 405.562 324.862 405.749 324.939V326.351Z" fill="black"/>
<path d="M413.915 324.971L410.524 333.477H409.189L405.966 324.971H407.46L409.62 331.153C409.779 331.606 409.88 332.001 409.92 332.34H409.952C410.007 331.914 410.095 331.529 410.217 331.186L412.477 324.972H413.915V324.971Z" fill="black"/>
<path d="M416.074 322.813C415.83 322.813 415.623 322.729 415.45 322.563C415.279 322.397 415.193 322.187 415.193 321.932C415.193 321.677 415.279 321.465 415.45 321.295C415.623 321.127 415.83 321.042 416.074 321.042C416.322 321.042 416.533 321.127 416.709 321.295C416.883 321.465 416.97 321.677 416.97 321.932C416.97 322.175 416.883 322.384 416.709 322.554C416.533 322.728 416.322 322.813 416.074 322.813ZM416.737 333.477H415.375V324.971H416.737V333.477Z" fill="black"/>
<path d="M425.293 333.087C424.64 333.48 423.865 333.676 422.967 333.676C421.755 333.676 420.777 333.281 420.031 332.492C419.286 331.704 418.915 330.681 418.915 329.424C418.915 328.024 419.316 326.898 420.117 326.049C420.923 325.198 421.993 324.774 423.332 324.774C424.081 324.774 424.738 324.913 425.311 325.188V326.584C424.68 326.143 424.003 325.92 423.284 325.92C422.416 325.92 421.701 326.231 421.147 326.855C420.588 327.479 420.311 328.296 420.311 329.31C420.311 330.305 420.571 331.092 421.095 331.667C421.618 332.243 422.32 332.53 423.201 332.53C423.943 332.53 424.639 332.285 425.293 331.791V333.087Z" fill="black"/>
<path d="M434.188 329.565H428.181C428.205 330.511 428.459 331.243 428.948 331.757C429.433 332.273 430.104 332.528 430.958 332.528C431.916 332.528 432.796 332.214 433.599 331.583V332.861C432.852 333.404 431.862 333.674 430.635 333.674C429.433 333.674 428.489 333.289 427.801 332.516C427.115 331.744 426.772 330.658 426.772 329.257C426.772 327.932 427.146 326.854 427.897 326.022C428.647 325.187 429.581 324.772 430.692 324.772C431.805 324.772 432.668 325.13 433.275 325.851C433.885 326.571 434.189 327.571 434.189 328.849V329.565H434.188ZM432.793 328.411C432.788 327.624 432.598 327.012 432.225 326.575C431.851 326.137 431.332 325.919 430.668 325.919C430.023 325.919 429.479 326.148 429.031 326.608C428.581 327.067 428.304 327.669 428.2 328.411H432.793Z" fill="black"/>
<path d="M435.732 333.17V331.708C436.475 332.255 437.292 332.529 438.184 332.529C439.377 332.529 439.976 332.132 439.976 331.333C439.976 331.106 439.925 330.915 439.825 330.758C439.721 330.599 439.584 330.459 439.408 330.337C439.235 330.217 439.03 330.107 438.794 330.009C438.56 329.913 438.306 329.811 438.034 329.706C437.656 329.557 437.326 329.406 437.041 329.254C436.757 329.102 436.519 328.93 436.328 328.739C436.137 328.548 435.991 328.331 435.895 328.086C435.796 327.844 435.749 327.558 435.749 327.232C435.749 326.833 435.841 326.48 436.023 326.172C436.204 325.864 436.448 325.608 436.752 325.401C437.059 325.193 437.405 325.037 437.796 324.932C438.186 324.827 438.591 324.774 439.005 324.774C439.741 324.774 440.399 324.9 440.984 325.155V326.534C440.359 326.125 439.637 325.92 438.824 325.92C438.567 325.92 438.339 325.949 438.133 326.008C437.928 326.067 437.751 326.148 437.606 326.252C437.46 326.357 437.347 326.482 437.266 326.63C437.186 326.776 437.145 326.939 437.145 327.116C437.145 327.339 437.186 327.522 437.266 327.673C437.347 327.821 437.463 327.954 437.618 328.071C437.773 328.186 437.963 328.292 438.185 328.386C438.405 328.48 438.658 328.582 438.941 328.693C439.316 328.838 439.656 328.985 439.954 329.138C440.252 329.29 440.509 329.461 440.717 329.652C440.928 329.844 441.089 330.063 441.202 330.313C441.319 330.563 441.375 330.859 441.375 331.202C441.375 331.624 441.279 331.988 441.095 332.298C440.911 332.608 440.663 332.866 440.354 333.071C440.044 333.275 439.687 333.428 439.281 333.527C438.877 333.627 438.454 333.676 438.01 333.676C437.136 333.676 436.376 333.507 435.732 333.17Z" fill="black"/>
<path d="M52.683 96.8391H40.399V108.179H52.683V96.8391Z" fill="white"/>
<path d="M52.974 108.469H40.108V96.549H52.974V108.469ZM41.634 106.944H51.448V98.074H41.634V106.944Z" fill="#707070"/>
<path d="M64.969 96.839H157.578C160.708 96.839 163.247 99.377 163.247 102.508C163.247 105.639 160.708 108.178 157.578 108.178H64.969C61.838 108.178 59.299 105.638 59.299 102.508C59.299 99.376 61.837 96.839 64.969 96.839Z" fill="#DFDFDF"/>
<path d="M235.067 96.8391H222.782V108.179H235.067V96.8391Z" fill="white"/>
<path d="M235.357 108.469H222.492V96.549H235.357V108.469ZM224.017 106.944H233.832V98.074H224.017V106.944Z" fill="#707070"/>
<path d="M247.352 96.839H339.959C343.093 96.839 345.63 99.377 345.63 102.508C345.63 105.639 343.092 108.178 339.959 108.178H247.352C244.221 108.178 241.681 105.638 241.681 102.508C241.681 99.376 244.22 96.839 247.352 96.839Z" fill="#DFDFDF"/>
<path d="M417.448 96.8391H405.165V108.179H417.448V96.8391Z" fill="white"/>
<path d="M417.741 108.469H404.873V96.549H417.741V108.469ZM406.398 106.944H416.214V98.074H406.398V106.944Z" fill="#707070"/>
<path d="M429.734 96.839H522.342C525.473 96.839 528.012 99.377 528.012 102.508C528.012 105.639 525.473 108.178 522.342 108.178H429.734C426.603 108.178 424.064 105.638 424.064 102.508C424.064 99.376 426.604 96.839 429.734 96.839Z" fill="#DFDFDF"/>
<path d="M599.834 96.8391H587.549V108.179H599.834V96.8391Z" fill="white"/>
<path d="M600.123 108.469H587.259V96.549H600.123V108.469ZM588.784 106.944H598.598V98.074H588.784V106.944Z" fill="#707070"/>
<path d="M612.118 96.839H704.728C707.86 96.839 710.398 99.377 710.398 102.508C710.398 105.639 707.86 108.178 704.728 108.178H612.118C608.987 108.178 606.448 105.638 606.448 102.508C606.448 99.376 608.987 96.839 612.118 96.839Z" fill="#DFDFDF"/>
<path d="M52.683 122.354H40.399V134.639H52.683V122.354Z" fill="white"/>
<path d="M52.974 134.929H40.108V122.063H52.974V134.929ZM41.634 133.403H51.448V123.588H41.634V133.403Z" fill="#707070"/>
<path d="M65.44 122.354H157.104C160.497 122.354 163.247 125.104 163.247 128.497C163.247 131.889 160.497 134.639 157.104 134.639H65.44C62.048 134.639 59.298 131.889 59.298 128.497C59.299 125.104 62.049 122.354 65.44 122.354Z" fill="#DFDFDF"/>
<path d="M235.067 122.354H222.782V134.639H235.067V122.354Z" fill="white"/>
<path d="M235.357 134.929H222.492V122.063H235.357V134.929ZM224.017 133.403H233.832V123.588H224.017V133.403Z" fill="#707070"/>
<path d="M247.824 122.354H339.487C342.882 122.354 345.631 125.104 345.631 128.497C345.631 131.889 342.882 134.639 339.487 134.639H247.824C244.432 134.639 241.681 131.889 241.681 128.497C241.681 125.104 244.432 122.354 247.824 122.354Z" fill="#DFDFDF"/>
<path d="M417.448 122.354H405.165V134.639H417.448V122.354Z" fill="white"/>
<path d="M417.741 134.929H404.873V122.063H417.741V134.929ZM406.398 133.403H416.214V123.588H406.398V133.403Z" fill="#707070"/>
<path d="M430.205 122.354H521.869C525.263 122.354 528.013 125.104 528.013 128.497C528.013 131.889 525.263 134.639 521.869 134.639H430.205C426.814 134.639 424.064 131.889 424.064 128.497C424.064 125.104 426.814 122.354 430.205 122.354Z" fill="#DFDFDF"/>
<path d="M599.834 122.354H587.549V134.639H599.834V122.354Z" fill="white"/>
<path d="M600.123 134.929H587.259V122.063H600.123V134.929ZM588.784 133.403H598.598V123.588H588.784V133.403Z" fill="#707070"/>
<path d="M612.592 122.354H704.256C707.649 122.354 710.399 125.104 710.399 128.497C710.399 131.889 707.649 134.639 704.256 134.639H612.592C609.198 134.639 606.448 131.889 606.448 128.497C606.448 125.104 609.198 122.354 612.592 122.354Z" fill="#DFDFDF"/>
<path d="M52.683 147.868H40.399V160.152H52.683V147.868Z" fill="white"/>
<path d="M52.974 160.443H40.108V147.578H52.974V160.443ZM41.634 158.917H51.448V149.103H41.634V158.917Z" fill="#707070"/>
<path d="M65.44 147.868H157.104C160.497 147.868 163.247 150.618 163.247 154.011C163.247 157.404 160.497 160.153 157.104 160.153H65.44C62.048 160.153 59.298 157.404 59.298 154.011C59.299 150.619 62.049 147.868 65.44 147.868Z" fill="#DFDFDF"/>
<path d="M235.067 147.868H222.782V160.152H235.067V147.868Z" fill="white"/>
<path d="M235.357 160.443H222.492V147.578H235.357V160.443ZM224.017 158.917H233.832V149.103H224.017V158.917Z" fill="#707070"/>
<path d="M247.824 147.868H339.487C342.882 147.868 345.631 150.618 345.631 154.011C345.631 157.404 342.882 160.153 339.487 160.153H247.824C244.432 160.153 241.681 157.404 241.681 154.011C241.681 150.619 244.432 147.868 247.824 147.868Z" fill="#DFDFDF"/>
<path d="M417.448 147.868H405.165V160.152H417.448V147.868Z" fill="white"/>
<path d="M417.741 160.443H404.873V147.578H417.741V160.443ZM406.398 158.917H416.214V149.103H406.398V158.917Z" fill="#707070"/>
<path d="M430.205 147.868H521.869C525.263 147.868 528.013 150.618 528.013 154.011C528.013 157.404 525.263 160.153 521.869 160.153H430.205C426.814 160.153 424.064 157.404 424.064 154.011C424.064 150.619 426.814 147.868 430.205 147.868Z" fill="#DFDFDF"/>
<path d="M599.834 147.868H587.549V160.152H599.834V147.868Z" fill="white"/>
<path d="M600.123 160.443H587.259V147.578H600.123V160.443ZM588.784 158.917H598.598V149.103H588.784V158.917Z" fill="#707070"/>
<path d="M612.592 147.868H704.256C707.649 147.868 710.399 150.618 710.399 154.011C710.399 157.404 707.649 160.153 704.256 160.153H612.592C609.198 160.153 606.448 157.404 606.448 154.011C606.448 150.619 609.198 147.868 612.592 147.868Z" fill="#DFDFDF"/>
<path d="M52.683 228.19H40.399V239.532H52.683V228.19Z" fill="white"/>
<path d="M52.974 239.821H40.108V227.901H52.974V239.821ZM41.634 238.296H51.448V229.427H41.634V238.296Z" fill="#707070"/>
<path d="M64.969 228.19H157.578C160.708 228.19 163.247 230.728 163.247 233.862C163.247 236.994 160.708 239.532 157.578 239.532H64.969C61.838 239.532 59.299 236.994 59.299 233.862C59.299 230.729 61.837 228.19 64.969 228.19Z" fill="#DFDFDF"/>
<path d="M235.067 228.19H222.782V239.532H235.067V228.19Z" fill="white"/>
<path d="M235.357 239.821H222.492V227.901H235.357V239.821ZM224.017 238.296H233.832V229.427H224.017V238.296Z" fill="#707070"/>
<path d="M247.352 228.19H339.959C343.093 228.19 345.63 230.728 345.63 233.862C345.63 236.994 343.092 239.532 339.959 239.532H247.352C244.221 239.532 241.681 236.994 241.681 233.862C241.681 230.729 244.22 228.19 247.352 228.19Z" fill="#DFDFDF"/>
<path d="M417.448 228.19H405.165V239.532H417.448V228.19Z" fill="white"/>
<path d="M417.741 239.821H404.873V227.901H417.741V239.821ZM406.398 238.296H416.214V229.427H406.398V238.296Z" fill="#707070"/>
<path d="M429.734 228.19H522.342C525.473 228.19 528.012 230.728 528.012 233.862C528.012 236.994 525.473 239.532 522.342 239.532H429.734C426.603 239.532 424.064 236.994 424.064 233.862C424.064 230.729 426.604 228.19 429.734 228.19Z" fill="#DFDFDF"/>
<path d="M599.834 228.19H587.549V239.532H599.834V228.19Z" fill="white"/>
<path d="M600.123 239.821H587.259V227.901H600.123V239.821ZM588.784 238.296H598.598V229.427H588.784V238.296Z" fill="#707070"/>
<path d="M612.118 228.19H704.728C707.86 228.19 710.398 230.728 710.398 233.862C710.398 236.994 707.86 239.532 704.728 239.532H612.118C608.987 239.532 606.448 236.994 606.448 233.862C606.448 230.729 608.987 228.19 612.118 228.19Z" fill="#DFDFDF"/>
<path d="M52.683 253.707H40.399V265.991H52.683V253.707Z" fill="white"/>
<path d="M52.974 266.282H40.108V253.416H52.974V266.282ZM41.634 264.757H51.448V254.942H41.634V264.757Z" fill="#707070"/>
<path d="M65.44 253.707H157.104C160.497 253.707 163.247 256.457 163.247 259.851C163.247 263.242 160.497 265.992 157.104 265.992H65.44C62.048 265.992 59.298 263.242 59.298 259.851C59.299 256.457 62.049 253.707 65.44 253.707Z" fill="#DFDFDF"/>
<path d="M235.067 253.707H222.782V265.991H235.067V253.707Z" fill="white"/>
<path d="M235.357 266.282H222.492V253.416H235.357V266.282ZM224.017 264.757H233.832V254.942H224.017V264.757Z" fill="#707070"/>
<path d="M247.824 253.707H339.487C342.882 253.707 345.631 256.457 345.631 259.851C345.631 263.242 342.882 265.992 339.487 265.992H247.824C244.432 265.992 241.681 263.242 241.681 259.851C241.681 256.457 244.432 253.707 247.824 253.707Z" fill="#DFDFDF"/>
<path d="M417.448 253.707H405.165V265.991H417.448V253.707Z" fill="white"/>
<path d="M417.741 266.282H404.873V253.416H417.741V266.282ZM406.398 264.757H416.214V254.942H406.398V264.757Z" fill="#707070"/>
<path d="M430.205 253.707H521.869C525.263 253.707 528.013 256.457 528.013 259.851C528.013 263.242 525.263 265.992 521.869 265.992H430.205C426.814 265.992 424.064 263.242 424.064 259.851C424.064 256.457 426.814 253.707 430.205 253.707Z" fill="#DFDFDF"/>
<path d="M599.834 253.707H587.549V265.991H599.834V253.707Z" fill="white"/>
<path d="M600.123 266.282H587.259V253.416H600.123V266.282ZM588.784 264.757H598.598V254.942H588.784V264.757Z" fill="#707070"/>
<path d="M612.592 253.707H704.256C707.649 253.707 710.399 256.457 710.399 259.851C710.399 263.242 707.649 265.992 704.256 265.992H612.592C609.198 265.992 606.448 263.242 606.448 259.851C606.448 256.457 609.198 253.707 612.592 253.707Z" fill="#DFDFDF"/>
<path d="M52.683 279.222H40.399V291.507H52.683V279.222Z" fill="white"/>
<path d="M52.974 291.796H40.108V278.933H52.974V291.796ZM41.634 290.271H51.448V280.457H41.634V290.271Z" fill="#707070"/>
<path d="M65.44 279.222H157.104C160.497 279.222 163.247 281.971 163.247 285.366C163.247 288.759 160.497 291.508 157.104 291.508H65.44C62.048 291.508 59.298 288.759 59.298 285.366C59.299 281.971 62.049 279.222 65.44 279.222Z" fill="#DFDFDF"/>
<path d="M235.067 279.222H222.782V291.507H235.067V279.222Z" fill="white"/>
<path d="M235.357 291.796H222.492V278.933H235.357V291.796ZM224.017 290.271H233.832V280.457H224.017V290.271Z" fill="#707070"/>
<path d="M247.824 279.222H339.487C342.882 279.222 345.631 281.971 345.631 285.366C345.631 288.759 342.882 291.508 339.487 291.508H247.824C244.432 291.508 241.681 288.759 241.681 285.366C241.681 281.971 244.432 279.222 247.824 279.222Z" fill="#DFDFDF"/>
<path d="M417.448 279.222H405.165V291.507H417.448V279.222Z" fill="white"/>
<path d="M417.741 291.796H404.873V278.933H417.741V291.796ZM406.398 290.271H416.214V280.457H406.398V290.271Z" fill="#707070"/>
<path d="M430.205 279.222H521.869C525.263 279.222 528.013 281.971 528.013 285.366C528.013 288.759 525.263 291.508 521.869 291.508H430.205C426.814 291.508 424.064 288.759 424.064 285.366C424.064 281.971 426.814 279.222 430.205 279.222Z" fill="#DFDFDF"/>
<path d="M599.834 279.222H587.549V291.507H599.834V279.222Z" fill="white"/>
<path d="M600.123 291.796H587.259V278.933H600.123V291.796ZM588.784 290.271H598.598V280.457H588.784V290.271Z" fill="#707070"/>
<path d="M612.592 279.222H704.256C707.649 279.222 710.399 281.971 710.399 285.366C710.399 288.759 707.649 291.508 704.256 291.508H612.592C609.198 291.508 606.448 288.759 606.448 285.366C606.448 281.971 609.198 279.222 612.592 279.222Z" fill="#DFDFDF"/>
<path d="M52.683 359.546H40.399V371.83H52.683V359.546Z" fill="white"/>
<path d="M52.974 372.121H40.108V359.257H52.974V372.121ZM41.634 370.597H51.448V360.784H41.634V370.597Z" fill="#707070"/>
<path d="M65.44 359.546H157.104C160.497 359.546 163.247 362.296 163.247 365.69C163.247 369.081 160.497 371.831 157.104 371.831H65.44C62.048 371.831 59.298 369.081 59.298 365.69C59.299 362.296 62.049 359.546 65.44 359.546Z" fill="#DFDFDF"/>
<path d="M235.067 359.546H222.782V371.83H235.067V359.546Z" fill="white"/>
<path d="M235.357 372.121H222.492V359.257H235.357V372.121ZM224.017 370.597H233.832V360.784H224.017V370.597Z" fill="#707070"/>
<path d="M247.824 359.546H339.487C342.882 359.546 345.631 362.296 345.631 365.69C345.631 369.081 342.882 371.831 339.487 371.831H247.824C244.432 371.831 241.681 369.081 241.681 365.69C241.681 362.296 244.432 359.546 247.824 359.546Z" fill="#DFDFDF"/>
<path d="M417.448 359.546H405.165V371.83H417.448V359.546Z" fill="white"/>
<path d="M417.741 372.121H404.873V359.257H417.741V372.121ZM406.398 370.597H416.214V360.784H406.398V370.597Z" fill="#707070"/>
<path d="M430.205 359.546H521.869C525.263 359.546 528.013 362.296 528.013 365.69C528.013 369.081 525.263 371.831 521.869 371.831H430.205C426.814 371.831 424.064 369.081 424.064 365.69C424.064 362.296 426.814 359.546 430.205 359.546Z" fill="#DFDFDF"/>
<path d="M599.834 359.546H587.549V371.83H599.834V359.546Z" fill="white"/>
<path d="M600.123 372.121H587.259V359.257H600.123V372.121ZM588.784 370.597H598.598V360.784H588.784V370.597Z" fill="#707070"/>
<path d="M612.592 359.546H704.256C707.649 359.546 710.399 362.296 710.399 365.69C710.399 369.081 707.649 371.831 704.256 371.831H612.592C609.198 371.831 606.448 369.081 606.448 365.69C606.448 362.296 609.198 359.546 612.592 359.546Z" fill="#DFDFDF"/>
<path d="M52.683 385.061H40.399V397.347H52.683V385.061Z" fill="white"/>
<path d="M52.974 397.636H40.108V384.772H52.974V397.636ZM41.634 396.11H51.448V386.296H41.634V396.11Z" fill="#707070"/>
<path d="M65.44 385.061H157.104C160.497 385.061 163.247 387.811 163.247 391.205C163.247 394.598 160.497 397.348 157.104 397.348H65.44C62.048 397.348 59.298 394.598 59.298 391.205C59.299 387.811 62.049 385.061 65.44 385.061Z" fill="#DFDFDF"/>
<path d="M235.067 385.061H222.782V397.347H235.067V385.061Z" fill="white"/>
<path d="M235.357 397.636H222.492V384.772H235.357V397.636ZM224.017 396.11H233.832V386.296H224.017V396.11Z" fill="#707070"/>
<path d="M247.824 385.061H339.487C342.882 385.061 345.631 387.811 345.631 391.205C345.631 394.598 342.882 397.348 339.487 397.348H247.824C244.432 397.348 241.681 394.598 241.681 391.205C241.681 387.811 244.432 385.061 247.824 385.061Z" fill="#DFDFDF"/>
<path d="M417.448 385.061H405.165V397.347H417.448V385.061Z" fill="white"/>
<path d="M417.741 397.636H404.873V384.772H417.741V397.636ZM406.398 396.11H416.214V386.296H406.398V396.11Z" fill="#707070"/>
<path d="M430.205 385.061H521.869C525.263 385.061 528.013 387.811 528.013 391.205C528.013 394.598 525.263 397.348 521.869 397.348H430.205C426.814 397.348 424.064 394.598 424.064 391.205C424.064 387.811 426.814 385.061 430.205 385.061Z" fill="#DFDFDF"/>
<path d="M599.834 385.061H587.549V397.347H599.834V385.061Z" fill="white"/>
<path d="M600.123 397.636H587.259V384.772H600.123V397.636ZM588.784 396.11H598.598V386.296H588.784V396.11Z" fill="#707070"/>
<path d="M612.592 385.061H704.256C707.649 385.061 710.399 387.811 710.399 391.205C710.399 394.598 707.649 397.348 704.256 397.348H612.592C609.198 397.348 606.448 394.598 606.448 391.205C606.448 387.811 609.198 385.061 612.592 385.061Z" fill="#DFDFDF"/>
<path d="M52.683 410.578H40.399V422.86H52.683V410.578Z" fill="white"/>
<path d="M52.974 423.151H40.108V410.285H52.974V423.151ZM41.634 421.627H51.448V411.811H41.634V421.627Z" fill="#707070"/>
<path d="M65.44 410.578H157.104C160.497 410.578 163.247 413.326 163.247 416.717C163.247 420.111 160.497 422.861 157.104 422.861H65.44C62.048 422.861 59.298 420.111 59.298 416.717C59.299 413.326 62.049 410.578 65.44 410.578Z" fill="#DFDFDF"/>
<path d="M235.067 410.578H222.782V422.86H235.067V410.578Z" fill="white"/>
<path d="M235.357 423.151H222.492V410.285H235.357V423.151ZM224.017 421.627H233.832V411.811H224.017V421.627Z" fill="#707070"/>
<path d="M247.824 410.578H339.487C342.882 410.578 345.631 413.326 345.631 416.717C345.631 420.111 342.882 422.861 339.487 422.861H247.824C244.432 422.861 241.681 420.111 241.681 416.717C241.681 413.326 244.432 410.578 247.824 410.578Z" fill="#DFDFDF"/>
<path d="M417.448 410.578H405.165V422.86H417.448V410.578Z" fill="white"/>
<path d="M417.741 423.151H404.873V410.285H417.741V423.151ZM406.398 421.627H416.214V411.811H406.398V421.627Z" fill="#707070"/>
<path d="M430.205 410.578H521.869C525.263 410.578 528.013 413.326 528.013 416.717C528.013 420.111 525.263 422.861 521.869 422.861H430.205C426.814 422.861 424.064 420.111 424.064 416.717C424.064 413.326 426.814 410.578 430.205 410.578Z" fill="#DFDFDF"/>
<path d="M599.834 410.578H587.549V422.86H599.834V410.578Z" fill="white"/>
<path d="M600.123 423.151H587.259V410.285H600.123V423.151ZM588.784 421.627H598.598V411.811H588.784V421.627Z" fill="#707070"/>
<path d="M612.592 410.578H704.256C707.649 410.578 710.399 413.326 710.399 416.717C710.399 420.111 707.649 422.861 704.256 422.861H612.592C609.198 422.861 606.448 420.111 606.448 416.717C606.448 413.326 609.198 410.578 612.592 410.578Z" fill="#DFDFDF"/>
</svg>