<svg xmlns="http://www.w3.org/2000/svg" xmlns:xlink="http://www.w3.org/1999/xlink" width="759.531" height="554.26" viewBox="0 0 759.531 554.26"><defs><linearGradient id="a" x1="-0.049" y1="0.53" x2="1" y2="0.529" gradientUnits="objectBoundingBox"><stop offset="0" stop-color="#e5e5e5"/><stop offset="0.431" stop-color="#fff"/><stop offset="0.556" stop-color="#fff"/><stop offset="1" stop-color="#e6e6e6"/><stop offset="1" stop-color="#efefef"/></linearGradient></defs><g transform="translate(-8311 2742)"><path d="M30,0H729.532a30,30,0,0,1,30,30v82.049a0,0,0,0,1,0,0H0a0,0,0,0,1,0,0V30A30,30,0,0,1,30,0Z" transform="translate(8311 -2742)" fill="url(#a)"/><g transform="translate(1415.755 -926.87)"><path d="M7654.747-1703.216v413.971a28.375,28.375,0,0,1-28.375,28.375H6923.62a28.375,28.375,0,0,1-28.375-28.375v-413.971Z" fill="#fff"/></g><g transform="translate(1415.755 -926.87)"><rect width="554.412" height="1" transform="translate(7052.09 -1658.78)" fill="#707070"/></g><g transform="translate(1415.755 -926.87)"><rect width="452.204" height="1" transform="translate(7057.24 -1570.97)" fill="#707070"/></g><g transform="translate(1415.755 -926.87)"><rect width="1" height="396.959" transform="translate(7508.88 -1658.28)" fill="#707070"/></g><g transform="translate(1415.755 -926.87)"><rect width="1" height="396.959" transform="translate(7040.91 -1658.28)" fill="#707070"/></g><g transform="translate(1415.755 -926.87)"><rect width="452.204" height="1" transform="translate(7057.24 -1486.31)" fill="#707070"/></g><g transform="translate(1415.755 -926.87)"><rect width="1" height="17.011" transform="translate(7185.3 -1675.29)" fill="#707070"/></g><g transform="translate(1415.755 -926.87)"><rect width="68.038" height="17.011" transform="translate(7185.8 -1675.29)" fill="none"/></g><g transform="translate(1415.755 -926.87)"><rect width="137.265" height="1" transform="translate(6914.83 -1658.78)" fill="#707070"/></g><g transform="translate(1415.755 -926.87)"><path d="M7011.11-1727.17h103.1a8.985,8.985,0,0,1,8.985,8.985h0a8.985,8.985,0,0,1-8.985,8.985h-103.1a8.985,8.985,0,0,1-8.985-8.985h0A8.994,8.994,0,0,1,7011.11-1727.17Z" fill="#d6d6d6"/></g><g transform="translate(1415.755 -926.87)"><path d="M7117.99-1676.09H7171.9a6.148,6.148,0,0,1,6.148,6.148h0a6.146,6.146,0,0,1-6.148,6.147H7117.99a6.147,6.147,0,0,1-6.148-6.147h0A6.148,6.148,0,0,1,7117.99-1676.09Z" fill="#afafaf"/></g><g transform="translate(1415.755 -926.87)"><path d="M7005.91-1747.97h177.816a9.457,9.457,0,0,1,9.458,9.458h0a9.458,9.458,0,0,1-9.458,9.459H7005.91a9.458,9.458,0,0,1-9.458-9.459h0A9.456,9.456,0,0,1,7005.91-1747.97Z" fill="#afafaf"/></g><g transform="translate(1415.755 -926.87)"><path d="M7063.13-1589.07h53.913a6.149,6.149,0,0,1,6.148,6.148h0a6.148,6.148,0,0,1-6.148,6.147H7063.13a6.148,6.148,0,0,1-6.148-6.147h0A6.155,6.155,0,0,1,7063.13-1589.07Z" fill="#afafaf"/></g><g transform="translate(1415.755 -926.87)"><path d="M7063.13-1505.84h53.913a6.148,6.148,0,0,1,6.148,6.147h0a6.148,6.148,0,0,1-6.148,6.148H7063.13a6.149,6.149,0,0,1-6.148-6.148h0A6.155,6.155,0,0,1,7063.13-1505.84Z" fill="#afafaf"/></g><g transform="translate(1415.755 -926.87)"><path d="M7201.23-1676.09h53.913a6.148,6.148,0,0,1,6.148,6.148h0a6.146,6.146,0,0,1-6.148,6.147H7201.23a6.148,6.148,0,0,1-6.148-6.147h0A6.142,6.142,0,0,1,7201.23-1676.09Z" fill="#afafaf"/></g><g transform="translate(1415.755 -926.87)"><path d="M7063.13-1475.57h138.091a6.148,6.148,0,0,1,6.148,6.148h0a6.146,6.146,0,0,1-6.148,6.147H7063.13a6.148,6.148,0,0,1-6.148-6.147h0A6.155,6.155,0,0,1,7063.13-1475.57Z" fill="#d6d6d6"/></g><g transform="translate(1415.755 -926.87)"><path d="M7206.83-1636.33h283.229a6.131,6.131,0,0,1,6.133,6.132h0a6.132,6.132,0,0,1-6.133,6.131H7206.83a6.131,6.131,0,0,1-6.132-6.131h0A6.14,6.14,0,0,1,7206.83-1636.33Z" fill="#d6d6d6"/></g><g transform="translate(1415.755 -926.87)"><path d="M7082.79-1618.13h407.272a6.132,6.132,0,0,1,6.133,6.131h0a6.132,6.132,0,0,1-6.133,6.132H7082.79a6.131,6.131,0,0,1-6.132-6.132h0A6.127,6.127,0,0,1,7082.79-1618.13Z" fill="#d6d6d6"/></g><g transform="translate(1415.755 -926.87)"><path d="M7143.15-1553.26h346.917a6.132,6.132,0,0,1,6.133,6.131h0a6.132,6.132,0,0,1-6.133,6.131H7143.15a6.131,6.131,0,0,1-6.131-6.131h0A6.132,6.132,0,0,1,7143.15-1553.26Z" fill="#d6d6d6"/></g><g transform="translate(1415.755 -926.87)"><path d="M7082.79-1535.06h407.272a6.132,6.132,0,0,1,6.133,6.132h0a6.132,6.132,0,0,1-6.133,6.132H7082.79a6.131,6.131,0,0,1-6.132-6.132h0A6.127,6.127,0,0,1,7082.79-1535.06Z" fill="#d6d6d6"/></g><g transform="translate(1415.755 -926.87)"><path d="M6918.42-1633.53h112.554a6.148,6.148,0,0,1,6.148,6.148h0a6.147,6.147,0,0,1-6.148,6.147H6918.42a6.148,6.148,0,0,1-6.148-6.147h0A6.148,6.148,0,0,1,6918.42-1633.53Z" fill="#d6d6d6"/></g><g transform="translate(1415.755 -926.87)"><path d="M6918.42-1610.83h69.045a6.147,6.147,0,0,1,6.148,6.147h0a6.147,6.147,0,0,1-6.148,6.148H6918.42a6.148,6.148,0,0,1-6.148-6.148h0A6.148,6.148,0,0,1,6918.42-1610.83Z" fill="#d6d6d6"/></g><g transform="translate(1415.755 -926.87)"><path d="M6918.42-1588.13h52.966a6.147,6.147,0,0,1,6.148,6.147h0a6.146,6.146,0,0,1-6.148,6.147H6918.42a6.147,6.147,0,0,1-6.148-6.147h0A6.148,6.148,0,0,1,6918.42-1588.13Z" fill="#d6d6d6"/></g><g transform="translate(1415.755 -926.87)"><path d="M6918.42-1565.43h29.321a6.148,6.148,0,0,1,6.148,6.148h0a6.146,6.146,0,0,1-6.148,6.147H6918.42a6.147,6.147,0,0,1-6.148-6.147h0A6.148,6.148,0,0,1,6918.42-1565.43Z" fill="#d6d6d6"/></g><g transform="translate(1415.755 -926.87)"><path d="M6919.37-1564.48h7.567a5.2,5.2,0,0,1,5.2,5.2h0a5.2,5.2,0,0,1-5.2,5.2h-7.567a5.2,5.2,0,0,1-5.2-5.2h0A5.206,5.206,0,0,1,6919.37-1564.48Z" fill="#fff"/></g><g transform="translate(1415.755 -926.87)"><path d="M6969.5-1565.43h29.321a6.148,6.148,0,0,1,6.148,6.148h0a6.146,6.146,0,0,1-6.148,6.147H6969.5a6.148,6.148,0,0,1-6.148-6.147h0A6.142,6.142,0,0,1,6969.5-1565.43Z" fill="#d6d6d6"/></g><g transform="translate(1415.755 -926.87)"><path d="M6970.44-1564.48h7.567a5.2,5.2,0,0,1,5.2,5.2h0a5.2,5.2,0,0,1-5.2,5.2h-7.567a5.2,5.2,0,0,1-5.2-5.2h0A5.206,5.206,0,0,1,6970.44-1564.48Z" fill="#fff"/></g><g transform="translate(1415.755 -926.87)"><path d="M7115.63-1450.98h146.6a24.592,24.592,0,0,1,24.592,24.592v68.1a24.592,24.592,0,0,1-24.592,24.592h-146.6a24.591,24.591,0,0,1-24.591-24.592v-68.1A24.593,24.593,0,0,1,7115.63-1450.98Z" fill="#d9d9d9"/></g><g transform="translate(8220.755 -2359.87)"><circle cx="16.552" cy="16.552" r="16.552" transform="translate(291.711 85.113)" fill="#f1f1f1"/><path d="M308.263,118.3A16.634,16.634,0,1,1,324.9,101.664,16.653,16.653,0,0,1,308.263,118.3Zm0-30.267A13.634,13.634,0,1,0,321.9,101.664,13.648,13.648,0,0,0,308.263,88.031Z" fill="#606060"/></g><g transform="translate(1415.755 -926.87)"><path d="M7137.38-1328.97h68.1a3.783,3.783,0,0,1,3.783,3.783h0a3.783,3.783,0,0,1-3.783,3.783h-68.1a3.784,3.784,0,0,1-3.784-3.783h0A3.784,3.784,0,0,1,7137.38-1328.97Z" fill="#dedede"/></g><g transform="translate(1415.755 -926.87)"><path d="M7137.38-1318.57h112.554a3.784,3.784,0,0,1,3.783,3.784h0a3.783,3.783,0,0,1-3.783,3.783H7137.38a3.784,3.784,0,0,1-3.784-3.783h0A3.791,3.791,0,0,1,7137.38-1318.57Z" fill="#dedede"/></g><g transform="translate(1415.755 -926.87)"><path d="M7137.38-1308.16h54.858a3.784,3.784,0,0,1,3.783,3.783h0a3.784,3.784,0,0,1-3.783,3.784H7137.38a3.785,3.785,0,0,1-3.784-3.784h0A3.784,3.784,0,0,1,7137.38-1308.16Z" fill="#dedede"/></g><g transform="translate(1415.755 -926.87)"><path d="M7317.09-1450.98h147.549a24.592,24.592,0,0,1,24.592,24.592v68.1a24.592,24.592,0,0,1-24.592,24.592H7317.09a24.592,24.592,0,0,1-24.592-24.592v-68.1A24.594,24.594,0,0,1,7317.09-1450.98Z" fill="#d9d9d9"/></g><g transform="translate(8434.755 -2359.87)"><circle cx="16.552" cy="16.552" r="16.552" transform="translate(280.119 85.113)" fill="#f1f1f1"/><path d="M296.671,118.3A16.634,16.634,0,1,1,313.3,101.664,16.653,16.653,0,0,1,296.671,118.3Zm0-30.267A13.634,13.634,0,1,0,310.3,101.664,13.648,13.648,0,0,0,296.671,88.031Z" fill="#606060"/></g><g transform="translate(1415.755 -926.87)"><path d="M7339.79-1328.97h67.154a3.783,3.783,0,0,1,3.783,3.783h0a3.783,3.783,0,0,1-3.783,3.783H7339.79a3.784,3.784,0,0,1-3.783-3.783h0A3.782,3.782,0,0,1,7339.79-1328.97Z" fill="#dedede"/></g><g transform="translate(1415.755 -926.87)"><path d="M7339.79-1318.57h112.554a3.784,3.784,0,0,1,3.784,3.784h0a3.784,3.784,0,0,1-3.784,3.783H7339.79a3.784,3.784,0,0,1-3.783-3.783h0A3.789,3.789,0,0,1,7339.79-1318.57Z" fill="#dedede"/></g><g transform="translate(1415.755 -926.87)"><path d="M7339.79-1308.16h54.858a3.783,3.783,0,0,1,3.783,3.783h0a3.783,3.783,0,0,1-3.783,3.784H7339.79a3.784,3.784,0,0,1-3.783-3.784h0A3.782,3.782,0,0,1,7339.79-1308.16Z" fill="#dedede"/></g><g transform="translate(8054.755 -2792.87)"><circle cx="43.508" cy="43.508" r="43.508" transform="translate(300.703 108.567)" fill="#fff"/><path d="M344.211,200.448a48.373,48.373,0,1,1,48.373-48.373A48.428,48.428,0,0,1,344.211,200.448Zm0-91.746a43.373,43.373,0,1,0,43.373,43.373A43.422,43.422,0,0,0,344.211,108.7Z" fill="#707070"/></g><g transform="translate(1415.755 -926.87)"><path d="M6982.27-1736.44a12.7,12.7,0,0,0-12.624,12.768c0,.024,0,.048,0,.072a13.417,13.417,0,0,0,13.092,12.561,12.88,12.88,0,0,0,12.455-13.022C6995.13-1731.24,6989.6-1736.54,6982.27-1736.44Z" fill="#afafaf"/></g><g transform="translate(1415.755 -926.87)"><path d="M6983.12-1757.93a44.12,44.12,0,0,0-44.12,44.12,44.12,44.12,0,0,0,44.12,44.12,44.12,44.12,0,0,0,44.12-44.12h0A44.122,44.122,0,0,0,6983.12-1757.93Zm26.7,67.22c-9.657-17.459-42.512-18.243-54.264-1.293-8.832-7.8-10.956-22.487-6.473-34.633a36.247,36.247,0,0,1,3.955-7.6,29.883,29.883,0,0,1,2.963-3.6,43.726,43.726,0,0,1,13.556-9.724,36.357,36.357,0,0,1,27.334.08,43.922,43.922,0,0,1,13.953,10.315c.682.735,1.324,1.5,1.926,2.291a36.327,36.327,0,0,1,3.565,35.9A26.329,26.329,0,0,1,7009.82-1690.71Z" fill="#afafaf"/></g><g transform="translate(1415.755 -926.87)"><path d="M7491.07-1762.52h91.9a20.257,20.257,0,0,1,20.258,20.257h0a20.258,20.258,0,0,1-20.258,20.258h-91.9a20.257,20.257,0,0,1-20.257-20.258h0A20.254,20.254,0,0,1,7491.07-1762.52Z" fill="#b1aeae"/></g><g transform="translate(1415.755 -926.87)"><path d="M7511.59-1736.34a9.319,9.319,0,0,1-4.389.931,7.08,7.08,0,0,1-5.432-2.184,8.054,8.054,0,0,1-2.039-5.73,8.449,8.449,0,0,1,2.294-6.163,7.791,7.791,0,0,1,5.819-2.35,9.326,9.326,0,0,1,3.746.654v1.984a7.6,7.6,0,0,0-3.769-.953,5.776,5.776,0,0,0-4.438,1.829,6.888,6.888,0,0,0-1.7,4.888,6.549,6.549,0,0,0,1.591,4.627,5.413,5.413,0,0,0,4.173,1.724,7.822,7.822,0,0,0,4.146-1.064v1.807Z" fill="#fff"/><path d="M7519.33-1735.41a5.262,5.262,0,0,1-4.018-1.591,5.887,5.887,0,0,1-1.5-4.217,6.138,6.138,0,0,1,1.563-4.467,5.62,5.62,0,0,1,4.223-1.607,5.09,5.09,0,0,1,3.963,1.563,6.2,6.2,0,0,1,1.424,4.334,6.1,6.1,0,0,1-1.535,4.351A5.381,5.381,0,0,1,7519.33-1735.41Zm.13-10.36a3.458,3.458,0,0,0-2.771,1.191,4.887,4.887,0,0,0-1.021,3.287,4.631,4.631,0,0,0,1.031,3.181,3.5,3.5,0,0,0,2.76,1.164,3.321,3.321,0,0,0,2.71-1.142,4.955,4.955,0,0,0,.948-3.248,5.037,5.037,0,0,0-.948-3.281A3.311,3.311,0,0,0,7519.46-1745.77Z" fill="#fff"/><path d="M7537.31-1735.68h-1.818v-6.473q0-3.614-2.638-3.613a2.863,2.863,0,0,0-2.256,1.025,3.8,3.8,0,0,0-.893,2.588v6.473h-1.817v-11.35h1.817v1.884h.045a4.1,4.1,0,0,1,3.724-2.15,3.473,3.473,0,0,1,2.849,1.2,5.354,5.354,0,0,1,.987,3.475Z" fill="#fff"/><path d="M7545.99-1735.79a3.509,3.509,0,0,1-1.695.354q-2.982,0-2.981-3.325v-6.717h-1.951v-1.552h1.951v-2.771l1.817-.587v3.358h2.859v1.552h-2.859v6.4a2.646,2.646,0,0,0,.388,1.629,1.551,1.551,0,0,0,1.286.488,1.906,1.906,0,0,0,1.186-.377v1.552Z" fill="#fff"/><path d="M7556.55-1735.68h-1.818v-1.773h-.044a3.806,3.806,0,0,1-3.491,2.04,3.728,3.728,0,0,1-2.655-.9,3.112,3.112,0,0,1-.959-2.383q0-3.181,3.747-3.7l3.4-.477q0-2.893-2.339-2.893a5.587,5.587,0,0,0-3.7,1.4v-1.862a7.038,7.038,0,0,1,3.857-1.064q4,0,4,4.234Zm-1.82-5.74-2.737.377a4.433,4.433,0,0,0-1.906.626,1.8,1.8,0,0,0-.644,1.59,1.732,1.732,0,0,0,.594,1.358,2.289,2.289,0,0,0,1.579.526,2.916,2.916,0,0,0,2.233-.948,3.387,3.387,0,0,0,.881-2.4v-1.13Z" fill="#fff"/><path d="M7567.71-1736.2a5.911,5.911,0,0,1-3.1.787,5.135,5.135,0,0,1-3.918-1.58,5.723,5.723,0,0,1-1.49-4.1,6.294,6.294,0,0,1,1.606-4.505,5.624,5.624,0,0,1,4.29-1.7,5.981,5.981,0,0,1,2.638.554v1.862a4.625,4.625,0,0,0-2.7-.887,3.656,3.656,0,0,0-2.854,1.247,4.733,4.733,0,0,0-1.114,3.275,4.5,4.5,0,0,0,1.048,3.147,3.608,3.608,0,0,0,2.81,1.153,4.559,4.559,0,0,0,2.793-.986v1.731Z" fill="#fff"/><path d="M7575.72-1735.79a3.509,3.509,0,0,1-1.695.354q-2.982,0-2.981-3.325v-6.717h-1.951v-1.552h1.951v-2.771l1.817-.587v3.358h2.859v1.552h-2.859v6.4a2.646,2.646,0,0,0,.388,1.629,1.551,1.551,0,0,0,1.286.488,1.906,1.906,0,0,0,1.186-.377v1.552Z" fill="#fff"/></g><g transform="translate(1415.755 -926.87)"><path d="M7528.82-1485.61h91.16a6.131,6.131,0,0,1,6.131,6.131h0a6.131,6.131,0,0,1-6.131,6.132h-91.16a6.131,6.131,0,0,1-6.132-6.132h0A6.134,6.134,0,0,1,7528.82-1485.61Z" fill="#d6d6d6"/></g><g transform="translate(1415.755 -926.87)"><path d="M7528.62-1467.42h91.172a6.132,6.132,0,0,1,6.133,6.132h0a6.132,6.132,0,0,1-6.133,6.131H7528.62a6.131,6.131,0,0,1-6.132-6.131h0A6.134,6.134,0,0,1,7528.62-1467.42Z" fill="#d6d6d6"/></g><g transform="translate(1415.755 -926.87)"><path d="M7528.82-1446.85h91.16a6.131,6.131,0,0,1,6.131,6.131h0a6.131,6.131,0,0,1-6.131,6.132h-91.16a6.131,6.131,0,0,1-6.132-6.132h0A6.14,6.14,0,0,1,7528.82-1446.85Z" fill="#d6d6d6"/></g><g transform="translate(1415.755 -926.87)"><path d="M7528.62-1428.65h91.172a6.132,6.132,0,0,1,6.133,6.131h0a6.132,6.132,0,0,1-6.133,6.131H7528.62a6.131,6.131,0,0,1-6.132-6.131h0A6.127,6.127,0,0,1,7528.62-1428.65Z" fill="#d6d6d6"/></g><g transform="translate(8654.755 -2688.87)"><path d="M291.847,102.934H381.7a23.646,23.646,0,0,1,23.646,23.646v54.858A23.646,23.646,0,0,1,381.7,205.084H291.847A23.646,23.646,0,0,1,268.2,181.438V126.58A23.646,23.646,0,0,1,291.847,102.934Z" fill="#fff"/><path d="M381.7,205.219H291.847a23.808,23.808,0,0,1-23.78-23.781V126.58a23.808,23.808,0,0,1,23.78-23.781H381.7a23.808,23.808,0,0,1,23.781,23.781v54.858A23.808,23.808,0,0,1,381.7,205.219ZM291.847,107.8a18.8,18.8,0,0,0-18.78,18.781v54.858a18.8,18.8,0,0,0,18.78,18.781H381.7a18.8,18.8,0,0,0,18.781-18.781V126.579A18.8,18.8,0,0,0,381.7,107.8Z" fill="#1e783c"/></g><g transform="translate(1415.755 -926.87)"><path d="M7274.92-1798.56a29.713,29.713,0,0,0-29.712,29.713,29.714,29.714,0,0,0,29.713,29.712,29.712,29.712,0,0,0,29.711-29.712,29.712,29.712,0,0,0-29.71-29.713Zm2.07,57.17a25.632,25.632,0,0,1-25.632-25.632c-.548-12.634,10.137-24.6,25.572-19.94,13.791,5.571,13.425,18.448,12.09,23.186-.4,1.4,1.04,1.709,1.587,1.009,2.976-3.8,3.6-5.44,4.729-10.357.822-3.607-.326-8.959-.615-9.852a.945.945,0,0,1,.7-1.142.945.945,0,0,1,.926.29,25.334,25.334,0,0,1,6.281,16.812,25.632,25.632,0,0,1-25.637,25.625Z" fill="#5b5b5b"/></g><g transform="translate(1415.755 -926.87)"><path d="M7528.82-1610.62h91.16a6.131,6.131,0,0,1,6.131,6.131h0a6.131,6.131,0,0,1-6.131,6.132h-91.16a6.131,6.131,0,0,1-6.132-6.132h0A6.14,6.14,0,0,1,7528.82-1610.62Z" fill="#d6d6d6"/><path d="M7528.62-1592.42h91.172a6.132,6.132,0,0,1,6.133,6.132h0a6.132,6.132,0,0,1-6.133,6.131H7528.62a6.131,6.131,0,0,1-6.132-6.131h0A6.127,6.127,0,0,1,7528.62-1592.42Z" fill="#d6d6d6"/><path d="M7528.37-1640.68h95.13A10.682,10.682,0,0,1,7634.181-1630h0a10.681,10.681,0,0,1-10.681,10.68h-95.13a10.681,10.681,0,0,1-10.681-10.68h0A10.68,10.68,0,0,1,7528.37-1640.68Z" fill="#f5f5f5"/><path d="M7623.5-1617.82h-95.13a12.194,12.194,0,0,1-12.181-12.18,12.2,12.2,0,0,1,12.181-12.181h95.13A12.2,12.2,0,0,1,7635.681-1630,12.2,12.2,0,0,1,7623.5-1617.82Zm-95.13-21.36a9.191,9.191,0,0,0-9.181,9.181,9.191,9.191,0,0,0,9.181,9.18h95.13a9.191,9.191,0,0,0,9.181-9.18,9.191,9.191,0,0,0-9.181-9.181Z" fill="#d6d6d6"/><path d="M7537.26-1626.27a6.423,6.423,0,0,1-2.978.621,4.867,4.867,0,0,1-3.695-1.456,5.3,5.3,0,0,1-1.389-3.82,5.562,5.562,0,0,1,1.563-4.108,5.346,5.346,0,0,1,3.949-1.566,6.467,6.467,0,0,1,2.55.436v1.744a4.548,4.548,0,0,0-2.364-.635,3.712,3.712,0,0,0-2.79,1.1,4.043,4.043,0,0,0-1.067,2.941,3.859,3.859,0,0,0,1,2.79,3.473,3.473,0,0,0,2.623,1.038,4.7,4.7,0,0,0,2.6-.709v1.623Z" fill="#565656"/><path d="M7545.48-1629.15h-5.158a2.18,2.18,0,0,0,.646,1.618,2.409,2.409,0,0,0,1.7.569,3.749,3.749,0,0,0,2.225-.724v1.381a5.08,5.08,0,0,1-2.734.65,3.386,3.386,0,0,1-2.62-1.031,4.124,4.124,0,0,1-.949-2.9,4.033,4.033,0,0,1,1.046-2.878,3.422,3.422,0,0,1,2.6-1.112,2.981,2.981,0,0,1,2.4,1,4.145,4.145,0,0,1,.85,2.771v.658Zm-1.65-1.21a2.2,2.2,0,0,0-.437-1.437,1.458,1.458,0,0,0-1.182-.514,1.664,1.664,0,0,0-1.253.54,2.465,2.465,0,0,0-.632,1.411Z" fill="#565656"/><path d="M7551.51-1631.77a1.419,1.419,0,0,0-.894-.244,1.529,1.529,0,0,0-1.271.687,3.082,3.082,0,0,0-.51,1.87v3.621h-1.714v-7.566h1.714v1.559h.029a2.64,2.64,0,0,1,.772-1.245,1.744,1.744,0,0,1,1.164-.447,1.435,1.435,0,0,1,.709.141v1.624Z" fill="#565656"/><path d="M7557.15-1625.91a2.982,2.982,0,0,1-1.323.251q-2.2,0-2.2-2.113v-4.278h-1.264v-1.345h1.264v-1.751l1.715-.488v2.239h1.811v1.345h-1.811v3.783a1.49,1.49,0,0,0,.243.96,1.015,1.015,0,0,0,.813.289,1.183,1.183,0,0,0,.754-.251v1.359Z" fill="#565656"/><path d="M7559.49-1634.99a1.034,1.034,0,0,1-.721-.273.9.9,0,0,1-.3-.695.924.924,0,0,1,.3-.7,1.011,1.011,0,0,1,.721-.281,1.044,1.044,0,0,1,.739.281.92.92,0,0,1,.3.7.909.909,0,0,1-.3.684A1.034,1.034,0,0,1,7559.49-1634.99Zm.85,9.16h-1.714v-7.566h1.714Z" fill="#565656"/><path d="M7566.85-1635.64a1.559,1.559,0,0,0-.791-.2q-1.25,0-1.249,1.411v1.027h1.759v1.345h-1.751v6.222H7563.1v-6.222h-1.293v-1.345h1.293v-1.227a2.392,2.392,0,0,1,.783-1.888,2.857,2.857,0,0,1,1.959-.691,2.929,2.929,0,0,1,1,.14Z" fill="#565656"/><path d="M7568.66-1634.99a1.034,1.034,0,0,1-.721-.273.9.9,0,0,1-.3-.695.924.924,0,0,1,.3-.7,1.011,1.011,0,0,1,.721-.281,1.044,1.044,0,0,1,.739.281.92.92,0,0,1,.3.7.909.909,0,0,1-.3.684A1.033,1.033,0,0,1,7568.66-1634.99Zm.85,9.16H7567.8v-7.566h1.714Z" fill="#565656"/><path d="M7577.16-1626.18a4.226,4.226,0,0,1-2.15.524,3.646,3.646,0,0,1-2.72-1.053,3.732,3.732,0,0,1-1.034-2.73,4.109,4.109,0,0,1,1.112-3,3.976,3.976,0,0,1,2.975-1.134,4.342,4.342,0,0,1,1.824.362v1.6a2.76,2.76,0,0,0-1.685-.591,2.339,2.339,0,0,0-1.78.735,2.689,2.689,0,0,0-.695,1.925,2.568,2.568,0,0,0,.654,1.854,2.321,2.321,0,0,0,1.755.68,2.741,2.741,0,0,0,1.744-.658Z" fill="#565656"/><path d="M7584.67-1625.83h-1.663v-1.182h-.029a2.5,2.5,0,0,1-2.3,1.359,2.423,2.423,0,0,1-1.748-.606,2.12,2.12,0,0,1-.632-1.6q0-2.142,2.469-2.5l2.246-.317q0-1.618-1.537-1.619a3.654,3.654,0,0,0-2.438.931v-1.5a5.319,5.319,0,0,1,2.764-.709q2.867,0,2.867,2.823v4.922Zm-1.65-3.72-1.589.222a2.53,2.53,0,0,0-1.112.358,1.049,1.049,0,0,0-.373.92,1.008,1.008,0,0,0,.344.787,1.333,1.333,0,0,0,.92.307,1.7,1.7,0,0,0,1.3-.551,1.95,1.95,0,0,0,.514-1.385v-.658Z" fill="#565656"/><path d="M7590.75-1625.91a2.982,2.982,0,0,1-1.323.251q-2.2,0-2.2-2.113v-4.278h-1.264v-1.345h1.264v-1.751l1.715-.488v2.239h1.811v1.345h-1.811v3.783a1.49,1.49,0,0,0,.243.96,1.015,1.015,0,0,0,.813.289,1.183,1.183,0,0,0,.754-.251v1.359Z" fill="#565656"/><path d="M7593.1-1634.99a1.034,1.034,0,0,1-.721-.273.9.9,0,0,1-.3-.695.924.924,0,0,1,.3-.7,1.011,1.011,0,0,1,.721-.281,1.044,1.044,0,0,1,.739.281.92.92,0,0,1,.3.7.909.909,0,0,1-.3.684A1.05,1.05,0,0,1,7593.1-1634.99Zm.84,9.16h-1.714v-7.566h1.714Z" fill="#565656"/><path d="M7599.54-1625.65a3.753,3.753,0,0,1-2.8-1.06,3.834,3.834,0,0,1-1.046-2.812,3.985,3.985,0,0,1,1.09-2.978,4.007,4.007,0,0,1,2.938-1.072,3.633,3.633,0,0,1,2.764,1.042,4.025,4.025,0,0,1,.99,2.889,3.964,3.964,0,0,1-1.068,2.9A3.843,3.843,0,0,1,7599.54-1625.65Zm.08-6.56a1.958,1.958,0,0,0-1.589.7,2.939,2.939,0,0,0-.584,1.936,2.764,2.764,0,0,0,.592,1.873,1.984,1.984,0,0,0,1.581.684,1.887,1.887,0,0,0,1.556-.672,2.969,2.969,0,0,0,.543-1.914,3.025,3.025,0,0,0-.543-1.929A1.9,1.9,0,0,0,7599.62-1632.21Z" fill="#565656"/><path d="M7611.96-1625.83h-1.714v-4.264q0-2.121-1.5-2.121a1.639,1.639,0,0,0-1.293.587,2.179,2.179,0,0,0-.51,1.481v4.315h-1.722v-7.566h1.722v1.256h.029a2.7,2.7,0,0,1,2.453-1.434,2.285,2.285,0,0,1,1.884.8,3.6,3.6,0,0,1,.65,2.317v4.627Z" fill="#565656"/><path d="M7613.58-1626.07v-1.589a3.421,3.421,0,0,0,2.121.731q1.551,0,1.552-.916a.723.723,0,0,0-.133-.44,1.261,1.261,0,0,0-.358-.321,2.861,2.861,0,0,0-.532-.251c-.2-.074-.433-.157-.684-.251a7.186,7.186,0,0,1-.839-.392,2.521,2.521,0,0,1-.62-.469,1.777,1.777,0,0,1-.374-.595,2.208,2.208,0,0,1-.125-.776,1.786,1.786,0,0,1,.259-.964,2.243,2.243,0,0,1,.694-.7,3.355,3.355,0,0,1,.99-.429,4.536,4.536,0,0,1,1.146-.144,5.2,5.2,0,0,1,1.877.318v1.5a3.171,3.171,0,0,0-1.833-.547,2.4,2.4,0,0,0-.587.066,1.48,1.48,0,0,0-.447.185.9.9,0,0,0-.288.284.682.682,0,0,0-.1.366.777.777,0,0,0,.1.414.923.923,0,0,0,.307.3,2.616,2.616,0,0,0,.487.236q.283.106.654.233.488.2.875.406a2.974,2.974,0,0,1,.662.469,1.852,1.852,0,0,1,.421.606,2.045,2.045,0,0,1,.147.816,1.869,1.869,0,0,1-.266,1.005,2.219,2.219,0,0,1-.71.709,3.273,3.273,0,0,1-1.023.417,5.328,5.328,0,0,1-1.223.137A4.93,4.93,0,0,1,7613.58-1626.07Z" fill="#565656"/></g></g></svg>