<svg width="759" height="239" viewBox="0 0 759 239" fill="none" xmlns="http://www.w3.org/2000/svg">
<path d="M24.562 0H734.004C747.568 0 758.566 10.997 758.566 24.561V214.439C758.566 228.004 747.569 239.001 734.004 239.001H24.562C10.997 239.001 0 228.005 0 214.439V24.562C0 10.997 10.997 0 24.562 0Z" fill="#F6F6F6"/>
<path d="M734.004 239.001H24.562C11.019 239.001 0 227.982 0 214.439V24.562C0 11.019 11.018 0.00100708 24.562 0.00100708H734.004C747.547 0.00100708 758.566 11.019 758.566 24.562V214.44C758.565 227.982 747.547 239.001 734.004 239.001ZM24.562 2.83401C12.582 2.83401 2.83401 12.581 2.83401 24.561V214.439C2.83401 226.419 12.581 236.167 24.562 236.167H734.004C745.984 236.167 755.732 226.42 755.732 214.439V24.562C755.732 12.582 745.985 2.83501 734.004 2.83501H24.562V2.83401Z" fill="#A4A4A4"/>
<path d="M34.9531 15.115H326.854C337.289 15.115 345.748 23.573 345.748 34.008V204.993C345.748 215.427 337.29 223.887 326.854 223.887H34.9531C24.5181 223.887 16.0591 215.427 16.0591 204.993V34.008C16.0591 23.574 24.5181 15.115 34.9531 15.115Z" fill="white"/>
<path d="M326.854 226.721H34.9531C22.9731 226.721 13.2251 216.973 13.2251 204.993V34.008C13.2251 22.028 22.9721 12.281 34.9531 12.281H326.854C338.834 12.281 348.582 22.028 348.582 34.008V204.993C348.581 216.973 338.834 226.721 326.854 226.721ZM34.9531 15.115C24.5361 15.115 16.0591 23.591 16.0591 34.008V204.993C16.0591 215.41 24.5351 223.887 34.9531 223.887H326.854C337.272 223.887 345.748 215.41 345.748 204.993V34.008C345.748 23.591 337.272 15.115 326.854 15.115H34.9531Z" fill="#919191"/>
<path d="M210.822 156.89L264.668 150.906L291.069 129.301L208.954 63.716L139.268 106.414L210.822 156.89Z" fill="#F2F2F2"/>
<path d="M240.345 176.883H345.708V118.816L326.776 101.353L240.345 176.883Z" fill="#CCCCCC"/>
<path d="M17.1191 179.199H234.414L64.7321 58.256L17.1191 122.833V179.199Z" fill="#E0E0E0"/>
<path d="M34.9531 224.233C25.9231 224.233 18.1561 217.845 16.4111 208.985C16.4201 207.267 16.4201 204.997 16.4201 200.226V172.081C58.7061 148.228 116.425 133.539 180.059 133.539C244.756 133.539 303.338 148.724 345.805 173.285V200.225C345.805 202.86 345.805 205.092 345.795 207.034C344.919 216.772 336.755 224.234 326.977 224.234L34.9531 224.233Z" fill="#AAAAAA"/>
<path d="M70.6741 138.428H66.2541V150.387H70.6741V138.428Z" fill="#C6C6C6"/>
<path d="M68.7011 110.771L63.1381 143.285L74.7411 143.222L68.7011 110.771Z" fill="#AAAAAA"/>
<path d="M85.3411 135.34H80.9211V147.299H85.3411V135.34Z" fill="#C6C6C6"/>
<path d="M83.3671 107.686L77.8031 140.2L89.4061 140.137L83.3671 107.686Z" fill="#AAAAAA"/>
<path d="M99.0291 133.284H94.6091V145.243H99.0291V133.284Z" fill="#C6C6C6"/>
<path d="M97.0561 105.627L91.4921 138.141L103.094 138.078L97.0561 105.627Z" fill="#AAAAAA"/>
<path d="M230.81 92.212L254.359 114.128L251.896 117.057L230.714 97.364C223.652 103.924 216.625 110.452 209.554 117.026L207.043 114.206V113.99C207.247 113.873 207.441 113.739 207.625 113.593C215.289 106.47 222.95 99.343 230.609 92.215L230.81 92.212Z" fill="#AAAAAA"/>
<path d="M230.746 100.716C233.286 103.067 235.821 105.415 238.351 107.76C241.116 110.327 243.894 112.879 246.622 115.491C247.022 115.903 247.26 116.445 247.293 117.019C247.338 123.846 247.324 130.674 247.32 137.501C247.32 138.959 247.078 139.212 245.724 139.213C242.517 139.213 239.311 139.213 235.957 139.213V136.387C235.957 134.265 235.963 132.148 235.957 130.026C235.951 128.819 235.642 128.485 234.507 128.48C231.98 128.471 229.453 128.471 226.925 128.48C225.775 128.48 225.467 128.807 225.463 130.014C225.454 133.026 225.463 136.04 225.463 139.214H224.109C221.275 139.214 218.441 139.214 215.607 139.214C214.392 139.214 214.103 138.917 214.102 137.622C214.095 130.722 214.1 123.822 214.117 116.922C214.115 116.478 214.272 116.047 214.56 115.71C219.812 110.789 225.081 105.887 230.369 101.005C230.489 100.902 230.615 100.807 230.746 100.716Z" fill="#CCCCCC"/>
<path d="M214.155 95.461H219.986C219.986 96.573 219.993 97.671 219.977 98.767C219.976 98.942 219.913 99.112 219.799 99.245C217.971 101 216.132 102.741 214.155 104.62C214.155 101.441 214.155 98.481 214.155 95.461Z" fill="#AAAAAA"/>
<path d="M228.491 135.131C228.491 135.131 92.9391 156.619 146.031 173.539C179.113 184.084 185.714 213.919 178.135 223.436L300.522 223.264C300.522 223.264 274.692 193.342 175.531 168.394C135.36 159.137 234.035 136.158 234.035 136.158L228.491 135.131Z" fill="#E2E2E2"/>
<path d="M287.981 66.732C296.081 66.732 302.648 59.8224 302.648 51.299C302.648 42.7756 296.081 35.866 287.981 35.866C279.881 35.866 273.314 42.7756 273.314 51.299C273.314 59.8224 279.881 66.732 287.981 66.732Z" fill="#F2F2F2"/>
<path d="M408.438 11.642C423.597 11.642 435.885 23.93 435.885 39.089C435.885 54.247 423.597 66.536 408.438 66.536C393.279 66.536 380.991 54.247 380.991 39.089C380.99 23.93 393.278 11.642 408.438 11.642Z" fill="#C2C2C2"/>
<path d="M460.044 25.729H663.148C668.365 25.729 672.594 29.958 672.594 35.176V38.955C672.594 44.172 668.365 48.402 663.148 48.402H460.044C454.827 48.402 450.598 44.173 450.598 38.955V35.176C450.598 29.959 454.827 25.729 460.044 25.729Z" fill="#C2C2C2"/>
<path d="M597.973 166.261H709.443C714.66 166.261 718.89 170.49 718.89 175.708V185.155C718.89 190.373 714.66 194.601 709.443 194.601H597.973C592.756 194.601 588.526 190.372 588.526 185.155V175.708C588.525 170.49 592.756 166.261 597.973 166.261Z" fill="#C2C2C2"/>
<path d="M387.313 86.91H714.167C717.819 86.91 720.779 89.8699 720.779 93.5229V100.135C720.779 103.787 717.819 106.748 714.167 106.748H387.313C383.661 106.748 380.7 103.788 380.7 100.135V93.5229C380.699 89.8699 383.66 86.91 387.313 86.91Z" fill="#D9D9D9"/>
<path d="M387.313 119.028H605.53C609.182 119.028 612.143 121.988 612.143 125.64V133.198C612.143 136.85 609.182 139.81 605.53 139.81H387.313C383.661 139.81 380.7 136.85 380.7 133.198V125.64C380.699 121.988 383.66 119.028 387.313 119.028Z" fill="#D9D9D9"/>
<path d="M43.7598 30.37H35.6011V36.931H43.1211V39.99H35.6011V49.123H31.978V27.295H43.7588V30.37H43.7598Z" fill="#5B5B5B"/>
<path d="M60.4429 42.2889H49.8179C49.8589 43.7299 50.3019 44.8409 51.1509 45.6219C51.9979 46.4029 53.162 46.7939 54.644 46.7939C56.308 46.7939 57.8351 46.297 59.2261 45.301V48.1479C57.8051 49.0409 55.9282 49.4869 53.5942 49.4869C51.3012 49.4869 49.5012 48.779 48.1982 47.363C46.8932 45.948 46.2422 43.956 46.2422 41.389C46.2422 38.964 46.959 36.988 48.395 35.46C49.831 33.933 51.6151 33.1689 53.7461 33.1689C55.8771 33.1689 57.5259 33.854 58.6929 35.224C59.8599 36.593 60.4429 38.496 60.4429 40.932V42.2889V42.2889ZM57.0342 39.792C57.0242 38.523 56.7242 37.5369 56.1362 36.8309C55.5472 36.1259 54.7362 35.7729 53.7002 35.7729C52.6852 35.7729 51.8251 36.143 51.1201 36.884C50.4141 37.625 49.9809 38.594 49.8179 39.792H57.0342Z" fill="#5B5B5B"/>
<path d="M75.771 49.123H72.3462V46.687H72.2852C71.2092 48.554 69.6308 49.488 67.5508 49.488C66.0188 49.488 64.8192 49.072 63.9512 48.24C63.0842 47.408 62.6499 46.307 62.6499 44.936C62.6499 41.994 64.3449 40.279 67.7339 39.792L72.3608 39.137C72.3608 36.914 71.3058 35.803 69.1948 35.803C67.3378 35.803 65.6629 36.443 64.1719 37.722V34.631C65.8159 33.657 67.7142 33.17 69.8652 33.17C73.8032 33.17 75.771 35.108 75.771 38.984V49.123V49.123ZM72.3618 41.4659L69.0898 41.924C68.0748 42.056 67.3108 42.301 66.7988 42.662C66.2858 43.022 66.0298 43.654 66.0298 44.557C66.0298 45.217 66.2648 45.757 66.7378 46.178C67.2088 46.6 67.8408 46.8099 68.6328 46.8099C69.7088 46.8099 70.5992 46.432 71.3052 45.676C72.0102 44.919 72.3628 43.968 72.3628 42.822V41.4659H72.3618Z" fill="#5B5B5B"/>
<path d="M88.2988 48.955C87.6088 49.3 86.7012 49.474 85.5742 49.474C82.5502 49.474 81.0381 48.023 81.0381 45.12V36.307H78.4351V33.536H81.0381V29.929L84.5688 28.923V33.536H88.2979V36.307H84.5688V44.1C84.5688 45.023 84.7358 45.683 85.0708 46.079C85.4058 46.475 85.9641 46.673 86.7451 46.673C87.3441 46.673 87.8609 46.5011 88.2979 46.1541V48.955H88.2988Z" fill="#5B5B5B"/>
<path d="M104.936 49.123H101.405V46.657H101.344C100.319 48.544 98.7259 49.488 96.5649 49.488C92.8809 49.488 91.0391 47.276 91.0391 42.851V33.536H94.5708V42.486C94.5708 45.287 95.652 46.687 97.813 46.687C98.858 46.687 99.7181 46.301 100.393 45.53C101.067 44.759 101.405 43.749 101.405 42.5V33.535H104.936V49.123Z" fill="#5B5B5B"/>
<path d="M118.575 36.899C118.149 36.565 117.535 36.3979 116.733 36.3979C115.688 36.3979 114.815 36.87 114.115 37.813C113.415 38.757 113.065 40.041 113.065 41.665V49.123H109.534V33.536H113.065V36.748H113.126C113.471 35.652 114.001 34.797 114.717 34.183C115.432 33.57 116.231 33.2629 117.114 33.2629C117.754 33.2629 118.24 33.36 118.575 33.552V36.899Z" fill="#5B5B5B"/>
<path d="M133.994 42.2889H123.369C123.41 43.7299 123.853 44.8409 124.701 45.6219C125.548 46.4029 126.713 46.7939 128.194 46.7939C129.858 46.7939 131.385 46.297 132.776 45.301V48.1479C131.356 49.0409 129.478 49.4869 127.144 49.4869C124.851 49.4869 123.052 48.779 121.748 47.363C120.444 45.948 119.792 43.956 119.792 41.389C119.792 38.964 120.51 36.988 121.946 35.46C123.382 33.933 125.165 33.1689 127.297 33.1689C129.428 33.1689 131.077 33.854 132.244 35.224C133.411 36.593 133.994 38.496 133.994 40.932V42.2889V42.2889ZM130.584 39.792C130.574 38.523 130.274 37.5369 129.686 36.8309C129.098 36.1259 128.286 35.7729 127.25 35.7729C126.235 35.7729 125.375 36.143 124.67 36.884C123.964 37.625 123.53 38.594 123.368 39.792H130.584Z" fill="#5B5B5B"/>
<path d="M151.53 49.123H147.998V46.475H147.937C146.8 48.484 145.05 49.489 142.685 49.489C140.768 49.489 139.232 48.792 138.081 47.396C136.929 46.001 136.353 44.101 136.353 41.696C136.353 39.118 136.99 37.054 138.263 35.5C139.536 33.948 141.234 33.172 143.355 33.172C145.456 33.172 146.983 34.014 147.937 35.699H147.998V26.048H151.53V49.123V49.123ZM148.044 42V39.96C148.044 38.854 147.684 37.916 146.963 37.144C146.243 36.374 145.324 35.9869 144.208 35.9869C142.889 35.9869 141.851 36.48 141.095 37.464C140.339 38.448 139.961 39.814 139.961 41.559C139.961 43.142 140.324 44.392 141.05 45.311C141.775 46.229 142.752 46.688 143.98 46.688C145.188 46.688 146.167 46.244 146.918 45.356C147.668 44.468 148.044 43.349 148.044 42Z" fill="#5B5B5B"/>
<path d="M168.821 49.123H165.092V27.295H168.821V49.123Z" fill="#5B5B5B"/>
<path d="M197.103 49.123H193.572V40.629C193.572 38.995 193.341 37.813 192.879 37.082C192.417 36.352 191.639 35.986 190.543 35.986C189.62 35.986 188.835 36.4479 188.191 37.3719C187.547 38.2949 187.225 39.4009 187.225 40.6899V49.123H183.679V40.3409C183.679 37.4389 182.654 35.9869 180.604 35.9869C179.65 35.9869 178.866 36.424 178.252 37.297C177.638 38.17 177.331 39.3 177.331 40.691V49.124H173.8V33.537H177.331V36.0031H177.392C178.518 34.1151 180.157 33.172 182.309 33.172C183.385 33.172 184.326 33.469 185.133 34.062C185.94 34.656 186.49 35.435 186.784 36.399C187.941 34.248 189.666 33.172 191.959 33.172C195.389 33.172 197.104 35.288 197.104 39.519V49.123H197.103Z" fill="#5B5B5B"/>
<path d="M213.375 49.123H209.95V46.687H209.889C208.813 48.554 207.236 49.488 205.155 49.488C203.623 49.488 202.423 49.072 201.555 48.24C200.688 47.408 200.254 46.307 200.254 44.936C200.254 41.994 201.949 40.279 205.338 39.792L209.965 39.137C209.965 36.914 208.91 35.803 206.799 35.803C204.942 35.803 203.268 36.443 201.776 37.722V34.631C203.42 33.657 205.318 33.17 207.469 33.17C211.406 33.17 213.375 35.108 213.375 38.984V49.123V49.123ZM209.965 41.4659L206.693 41.924C205.678 42.056 204.914 42.301 204.402 42.662C203.889 43.022 203.633 43.654 203.633 44.557C203.633 45.217 203.869 45.757 204.341 46.178C204.812 46.6 205.445 46.8099 206.236 46.8099C207.312 46.8099 208.202 46.432 208.907 45.676C209.612 44.919 209.965 43.968 209.965 42.822V41.4659Z" fill="#5B5B5B"/>
<path d="M231.869 47.875C231.869 53.598 228.992 56.46 223.239 56.46C221.209 56.46 219.439 56.1199 217.926 55.4399V52.213C219.631 53.187 221.25 53.674 222.782 53.674C226.486 53.674 228.338 51.852 228.338 48.209V46.504H228.277C227.11 48.493 225.354 49.4869 223.01 49.4869C221.113 49.4869 219.583 48.7939 218.421 47.4089C217.258 46.0239 216.678 44.165 216.678 41.83C216.678 39.182 217.302 37.0759 218.55 35.5129C219.799 33.9499 221.513 33.1689 223.695 33.1689C225.755 33.1689 227.282 34.011 228.277 35.696H228.338V33.5339H231.869V47.875ZM228.368 41.984V39.959C228.368 38.863 228.005 37.927 227.28 37.151C226.554 36.374 225.649 35.986 224.563 35.986C223.224 35.986 222.176 36.481 221.419 37.47C220.663 38.46 220.285 39.843 220.285 41.618C220.285 43.15 220.648 44.375 221.373 45.293C222.099 46.212 223.06 46.671 224.258 46.671C225.476 46.671 226.465 46.232 227.226 45.354C227.988 44.478 228.368 43.354 228.368 41.984Z" fill="#5B5B5B"/>
<path d="M249.664 42.2889H239.039C239.079 43.7299 239.523 44.8409 240.371 45.6219C241.218 46.4029 242.382 46.7939 243.864 46.7939C245.528 46.7939 247.055 46.297 248.446 45.301V48.1479C247.025 49.0409 245.148 49.4869 242.814 49.4869C240.521 49.4869 238.722 48.779 237.418 47.363C236.113 45.948 235.462 43.956 235.462 41.389C235.462 38.964 236.18 36.988 237.615 35.46C239.051 33.933 240.835 33.1689 242.966 33.1689C245.097 33.1689 246.746 33.854 247.913 35.224C249.08 36.593 249.663 38.496 249.663 40.932V42.2889H249.664ZM246.254 39.792C246.244 38.523 245.944 37.5369 245.356 36.8309C244.768 36.1259 243.956 35.7729 242.921 35.7729C241.906 35.7729 241.046 36.143 240.341 36.884C239.635 37.625 239.202 38.594 239.04 39.792H246.254Z" fill="#5B5B5B"/>
</svg>
