<svg width="774" height="240" viewBox="0 0 774 240" fill="none" xmlns="http://www.w3.org/2000/svg">
<path d="M25.0698 0.49707H734.53C748.095 0.49707 759.093 11.4941 759.093 25.0591V214.941C759.093 228.505 748.096 239.503 734.53 239.503H25.0698C11.5048 239.503 0.507812 228.506 0.507812 214.941V25.0591C0.507812 11.4941 11.5048 0.49707 25.0698 0.49707Z" fill="#F6F6F6"/>
<path d="M734.53 239.503H25.0698C11.5268 239.503 0.507812 228.484 0.507812 214.941V25.0591C0.507812 11.5161 11.5268 0.49707 25.0698 0.49707H734.53C748.072 0.49707 759.093 11.5161 759.093 25.0591V214.941C759.093 228.484 748.072 239.503 734.53 239.503ZM25.0698 3.33105C13.0898 3.33105 3.34183 13.0791 3.34183 25.0591V214.941C3.34183 226.921 13.0898 236.669 25.0698 236.669H734.53C746.511 236.669 756.259 226.922 756.259 214.941V25.0591C756.259 13.0791 746.512 3.33105 734.53 3.33105H25.0698Z" fill="#A4A4A4"/>
<path d="M35.4609 15.6121H327.37C337.805 15.6121 346.264 24.0701 346.264 34.5061V205.494C346.264 215.928 337.806 224.389 327.37 224.389H35.4609C25.0259 224.389 16.5669 215.928 16.5669 205.494V34.5061C16.5679 24.0701 25.0269 15.6121 35.4609 15.6121Z" fill="white"/>
<path d="M327.37 227.222H35.4609C23.4809 227.222 13.7329 217.475 13.7329 205.494V34.5061C13.7329 22.5261 23.4799 12.7781 35.4609 12.7781H327.37C339.35 12.7781 349.098 22.5251 349.098 34.5061V205.494C349.098 217.475 339.351 227.222 327.37 227.222ZM35.4609 15.6121C25.0439 15.6121 16.5669 24.0891 16.5669 34.5061V205.494C16.5669 215.912 25.0429 224.389 35.4609 224.389H327.37C337.788 224.389 346.264 215.912 346.264 205.494V34.5061C346.264 24.0891 337.788 15.6121 327.37 15.6121H35.4609V15.6121Z" fill="#919191"/>
<path d="M211.335 157.389L265.183 151.405L291.584 129.8L209.467 64.2151L139.779 106.915L211.335 157.389Z" fill="#F2F2F2"/>
<path d="M240.859 177.385H346.225V119.316L327.292 101.852L240.859 177.385Z" fill="#CCCCCC"/>
<path d="M17.6279 179.7H234.929L65.2412 58.7539L17.627 123.332V179.7H17.6279Z" fill="#E0E0E0"/>
<path d="M35.4609 224.734C26.4319 224.736 18.663 218.349 16.917 209.49C16.923 207.773 16.9268 205.502 16.9268 200.726V172.581C59.2158 148.727 116.937 134.038 180.572 134.038C245.27 134.038 303.853 149.224 346.32 173.785V200.725C346.32 203.362 346.32 205.592 346.311 207.534C345.435 217.274 337.271 224.735 327.492 224.733H35.4609V224.734Z" fill="#AAAAAA"/>
<path d="M71.1831 138.928H66.7632V150.887H71.1831V138.928Z" fill="#C6C6C6"/>
<path d="M69.21 111.271L63.647 143.785L75.25 143.722L69.21 111.271Z" fill="#AAAAAA"/>
<path d="M85.8511 135.842H81.4312V147.802H85.8511V135.842Z" fill="#C6C6C6"/>
<path d="M83.877 108.185L78.314 140.699L89.917 140.636L83.877 108.185Z" fill="#AAAAAA"/>
<path d="M99.54 133.783H95.1191V145.742H99.54V133.783Z" fill="#C6C6C6"/>
<path d="M97.5659 106.126L92.002 138.641L103.605 138.578L97.5659 106.126Z" fill="#AAAAAA"/>
<path d="M231.324 92.7109L254.873 114.628L252.41 117.558L231.228 97.863C224.166 104.424 217.139 110.952 210.066 117.526L207.555 114.705V114.489C207.76 114.373 207.954 114.239 208.138 114.092C215.801 106.968 223.463 99.8419 231.122 92.7129L231.324 92.7109Z" fill="#AAAAAA"/>
<path d="M231.261 101.215C233.8 103.565 236.335 105.912 238.866 108.259C241.631 110.825 244.409 113.377 247.136 115.99C247.536 116.401 247.774 116.944 247.807 117.517C247.852 124.344 247.838 131.172 247.834 137.998C247.834 139.456 247.593 139.709 246.238 139.711C243.032 139.711 239.825 139.711 236.471 139.711V136.885C236.471 134.763 236.477 132.647 236.471 130.525C236.465 129.319 236.156 128.985 235.02 128.979C232.492 128.969 229.966 128.969 227.439 128.979C226.288 128.979 225.981 129.305 225.977 130.512C225.968 133.525 225.977 136.537 225.977 139.713H224.623C221.789 139.713 218.955 139.713 216.121 139.713C214.906 139.713 214.616 139.416 214.616 138.121C214.609 131.22 214.614 124.319 214.631 117.42C214.627 116.976 214.785 116.545 215.074 116.206C220.326 111.285 225.595 106.383 230.883 101.5C231.003 101.401 231.13 101.304 231.261 101.215Z" fill="#CCCCCC"/>
<path d="M214.668 95.96H220.499C220.499 97.072 220.507 98.1711 220.491 99.2661C220.49 99.4411 220.427 99.6111 220.313 99.7451C218.484 101.499 216.646 103.239 214.669 105.12C214.668 101.94 214.668 98.979 214.668 95.96Z" fill="#AAAAAA"/>
<path d="M229.003 135.63C229.003 135.63 93.4481 157.119 146.541 174.039C179.623 184.586 186.225 214.421 178.645 223.937L301.035 223.765C301.035 223.765 275.204 193.843 176.042 168.894C135.87 159.638 234.547 136.659 234.547 136.659L229.003 135.63Z" fill="#E2E2E2"/>
<path d="M288.496 67.23C296.597 67.23 303.164 60.3199 303.164 51.7959C303.164 43.2719 296.597 36.3621 288.496 36.3621C280.395 36.3621 273.828 43.2719 273.828 51.7959C273.828 60.3199 280.395 67.23 288.496 67.23Z" fill="#F2F2F2"/>
<path d="M380.622 13.804C395.781 13.804 408.069 26.0939 408.069 41.2529C408.069 56.4109 395.781 68.7019 380.622 68.7019C365.462 68.7019 353.174 56.4109 353.174 41.2529C353.174 26.0929 365.462 13.804 380.622 13.804Z" fill="#C2C2C2"/>
<path d="M432.23 27.8931H635.338C640.554 27.8931 644.784 32.1221 644.784 37.3401V41.1179C644.784 46.3349 640.554 50.5649 635.338 50.5649H432.23C427.012 50.5649 422.783 46.3349 422.783 41.1179V37.3401C422.783 32.1221 427.013 27.8931 432.23 27.8931Z" fill="#C2C2C2"/>
<path d="M598.495 196.047H709.968C715.184 196.047 719.415 200.276 719.415 205.494V214.941C719.415 220.159 715.184 224.388 709.968 224.388H598.495C593.277 224.388 589.049 220.159 589.049 214.941V205.494C589.049 200.276 593.277 196.047 598.495 196.047Z" fill="#C2C2C2"/>
<path d="M387.831 116.693H714.692C718.343 116.693 721.304 119.652 721.304 123.306V129.919C721.304 133.569 718.343 136.531 714.692 136.531H387.831C384.177 136.531 381.217 133.569 381.217 129.919V123.306C381.217 119.653 384.177 116.693 387.831 116.693Z" fill="#D9D9D9"/>
<path d="M387.831 149.758H606.053C609.704 149.758 612.666 152.717 612.666 156.371V163.928C612.666 167.58 609.704 170.541 606.053 170.541H387.831C384.177 170.541 381.217 167.58 381.217 163.928V156.371C381.217 152.717 384.177 149.758 387.831 149.758Z" fill="#D9D9D9"/>
<path d="M633.086 62.2029H773.759V103.203H633.086L660.185 82.6201L633.086 62.2029Z" fill="#E2A700"/>
<path d="M758.598 46.7871L773.763 62.2041H758.598V46.7871Z" fill="#B7831E"/>
<path d="M773.765 82.623V103.2H633.092L660.191 82.623H773.765Z" fill="#FFDF29"/>
<path d="M681.224 88.3401H669.801V69.157H674.121V84.834H681.224V88.3401Z" fill="#434343"/>
<path d="M696.407 88.3401H692.193V86.2529H692.126C691.083 87.8679 689.688 88.6741 687.939 88.6741C684.763 88.6741 683.177 86.7519 683.177 82.9089V74.6421H687.391V82.5349C687.391 84.4709 688.157 85.438 689.692 85.438C690.449 85.438 691.056 85.1731 691.51 84.6421C691.965 84.1121 692.193 83.391 692.193 82.481V74.6421H696.407V88.3401V88.3401Z" fill="#434343"/>
<path d="M713.195 74.6421L708.674 81.2771L713.167 88.3401H708.3L706.319 84.6479C706.159 84.3539 705.966 83.9401 705.745 83.4041H705.692C705.557 83.7791 705.376 84.1789 705.142 84.6069L703.15 88.3401H698.294L702.923 81.5181L698.575 74.6421H703.471L705.425 78.4819C705.684 78.9889 705.866 79.4171 705.972 79.7661H706.026C706.169 79.3461 706.36 78.9101 706.602 78.4541L708.596 74.6421H713.195V74.6421Z" fill="#434343"/>
<path d="M728.11 88.3401H723.896V86.2529H723.83C722.786 87.8679 721.391 88.6741 719.642 88.6741C716.467 88.6741 714.88 86.7519 714.88 82.9089V74.6421H719.094V82.5349C719.094 84.4709 719.862 85.438 721.395 85.438C722.153 85.438 722.758 85.1731 723.214 84.6421C723.667 84.1121 723.896 83.391 723.896 82.481V74.6421H728.11V88.3401V88.3401Z" fill="#434343"/>
<path d="M740.604 78.4541C740.095 78.1791 739.502 78.04 738.826 78.04C737.906 78.04 737.188 78.377 736.672 79.05C736.154 79.724 735.895 80.6401 735.895 81.7991V88.3411H731.668V74.6431H735.895V77.1851H735.95C736.619 75.3301 737.823 74.4021 739.561 74.4021C740.006 74.4021 740.355 74.456 740.605 74.563V78.4541H740.604Z" fill="#434343"/>
<path d="M756.711 74.6421L751.145 89.436C749.808 92.995 747.793 94.7739 745.1 94.7739C744.074 94.7739 743.231 94.658 742.572 94.426V91.0549C743.134 91.3849 743.744 91.55 744.404 91.55C745.493 91.55 746.251 91.037 746.678 90.011L747.401 88.313L741.837 74.6421H746.518L749.073 82.9771C749.233 83.4931 749.359 84.1041 749.448 84.8081H749.502C749.582 84.2911 749.73 83.689 749.943 83.002L752.525 74.6421H756.711Z" fill="#434343"/>
<path d="M742.547 94.6079V91.292C743.104 91.615 743.735 91.783 744.377 91.78C745.385 91.829 746.306 91.2161 746.646 90.2681L747.368 88.5969L744.903 82.6221H748.817L749.045 83.3411C749.222 83.9301 749.349 84.533 749.423 85.144H749.477C749.579 84.544 749.724 83.9511 749.914 83.3721L750.149 82.623H753.82L751.117 89.7009C749.778 93.1999 747.765 94.9509 745.078 94.9509C744.222 94.9749 743.368 94.8589 742.551 94.6089H742.547V94.6079ZM714.885 83.283V82.6221H719.095V82.9099C719.095 84.8139 719.863 85.7661 721.394 85.7661C722.087 85.7931 722.755 85.5059 723.211 84.9829C723.691 84.3839 723.938 83.6259 723.895 82.8579V82.6221H728.102V88.6211H723.895V86.5691H723.831C722.967 88.0581 721.368 88.9679 719.646 88.9509C716.473 88.9509 714.885 87.062 714.885 83.283ZM683.209 83.283V82.6221H687.422V82.9099C687.422 84.8139 688.189 85.7661 689.723 85.7661C690.414 85.7931 691.082 85.5059 691.54 84.9829C692.019 84.3819 692.262 83.6249 692.219 82.8579V82.6221H696.43V88.6211H692.219V86.5691H692.153C691.287 88.0581 689.692 88.9679 687.969 88.9509C684.795 88.9509 683.209 87.062 683.209 83.283ZM731.655 88.6211V82.6221H735.881V88.6211H731.655ZM708.311 88.6211L706.332 84.99C706.171 84.7 705.978 84.291 705.757 83.762H705.703C705.551 84.17 705.369 84.566 705.156 84.946L703.163 88.6211H698.313L702.448 82.6221H709.298L713.173 88.6211H708.311V88.6211ZM669.849 88.6211V82.6221H674.166V85.1721H681.261V88.6201H669.849V88.6211Z" fill="#676767"/>
</svg>
