<svg xmlns="http://www.w3.org/2000/svg" xmlns:xlink="http://www.w3.org/1999/xlink" width="758.638" height="553.626" viewBox="0 0 758.638 553.626"><defs><linearGradient id="a" x1="-0.049" y1="0.53" x2="1" y2="0.529" gradientUnits="objectBoundingBox"><stop offset="0" stop-color="#e5e5e5"/><stop offset="0.431" stop-color="#fff"/><stop offset="0.556" stop-color="#fff"/><stop offset="1" stop-color="#e6e6e6"/><stop offset="1" stop-color="#efefef"/></linearGradient></defs><g transform="translate(-9132 2742)"><path d="M30,0H728.532a30,30,0,0,1,30,30v82.049a0,0,0,0,1,0,0H0a0,0,0,0,1,0,0V30A30,30,0,0,1,30,0Z" transform="translate(9132 -2742)" fill="url(#a)"/><path d="M4766.255,17.039V430.471a28.343,28.343,0,0,1-28.343,28.342H4035.96a28.343,28.343,0,0,1-28.343-28.342V17.039Z" transform="translate(5124.383 -2647.187)" fill="#fff"/><path d="M4039.74,292.536h82.193a23.62,23.62,0,0,1,23.619,23.619V349.22a23.619,23.619,0,0,1-23.619,23.619H4039.74a23.619,23.619,0,0,1-23.619-23.619V316.155A23.621,23.621,0,0,1,4039.74,292.536Z" transform="translate(5124.383 -2647.187)" fill="#f2f2f2"/><rect width="553.781" height="1" transform="translate(9288.673 -2585.833)" fill="#707070"/><rect width="451.689" height="1" transform="translate(9293.803 -2498.116)" fill="#707070"/><rect width="1" height="396.506" transform="translate(9744.933 -2585.333)" fill="#707070"/><rect width="1" height="396.506" transform="translate(9277.503 -2585.333)" fill="#707070"/><rect width="451.689" height="1" transform="translate(9293.803 -2413.56)" fill="#707070"/><g transform="translate(9135.572 -2706.343)"><rect width="1" height="16.991" transform="translate(286.147 104.019)" fill="#707070"/></g><rect width="137.108" height="1" transform="translate(9151.563 -2585.833)" fill="#707070"/><path d="M4123.35-6.951h102.979a8.975,8.975,0,0,1,8.975,8.975h0A8.975,8.975,0,0,1,4226.329,11H4123.35a8.975,8.975,0,0,1-8.975-8.975h0A8.977,8.977,0,0,1,4123.35-6.951Z" transform="translate(5124.383 -2647.187)" fill="#d6d6d6"/><path d="M4230.11,44.066h53.851a6.141,6.141,0,0,1,6.141,6.141h0a6.141,6.141,0,0,1-6.141,6.141H4230.11a6.141,6.141,0,0,1-6.141-6.141h0A6.143,6.143,0,0,1,4230.11,44.066Z" transform="translate(5124.383 -2647.187)" fill="#afafaf"/><path d="M4118.15-27.735h177.613a9.447,9.447,0,0,1,9.448,9.447h0a9.447,9.447,0,0,1-9.448,9.447H4118.15a9.447,9.447,0,0,1-9.448-9.447h0A9.458,9.458,0,0,1,4118.15-27.735Z" transform="translate(5124.383 -2647.187)" fill="#afafaf"/><path d="M4175.31,130.983h53.851a6.14,6.14,0,0,1,6.141,6.141h0a6.142,6.142,0,0,1-6.141,6.141H4175.31a6.141,6.141,0,0,1-6.141-6.141h0A6.142,6.142,0,0,1,4175.31,130.983Z" transform="translate(5124.383 -2647.187)" fill="#afafaf"/><path d="M4175.31,214.121h53.851a6.141,6.141,0,0,1,6.141,6.141h0a6.141,6.141,0,0,1-6.141,6.142H4175.31a6.141,6.141,0,0,1-6.141-6.142h0A6.143,6.143,0,0,1,4175.31,214.121Z" transform="translate(5124.383 -2647.187)" fill="#afafaf"/><path d="M4313.25,44.066H4367.1a6.141,6.141,0,0,1,6.141,6.141h0a6.142,6.142,0,0,1-6.141,6.141H4313.25a6.141,6.141,0,0,1-6.141-6.141h0A6.13,6.13,0,0,1,4313.25,44.066Z" transform="translate(5124.383 -2647.187)" fill="#afafaf"/><path d="M4175.31,244.354h137.934a6.141,6.141,0,0,1,6.141,6.142h0a6.142,6.142,0,0,1-6.141,6.141H4175.31a6.141,6.141,0,0,1-6.141-6.141h0A6.143,6.143,0,0,1,4175.31,244.354Z" transform="translate(5124.383 -2647.187)" fill="#d6d6d6"/><path d="M423.049,101.743H705.956a6.124,6.124,0,0,1,6.125,6.125h0a6.124,6.124,0,0,1-6.125,6.124H423.049a6.124,6.124,0,0,1-6.125-6.124h0A6.125,6.125,0,0,1,423.049,101.743Z" transform="translate(9020.184 -2665.147)" fill="#d6d6d6"/><path d="M299.147,119.919H705.956a6.124,6.124,0,0,1,6.125,6.125h0a6.124,6.124,0,0,1-6.125,6.125H299.147a6.125,6.125,0,0,1-6.125-6.125h0A6.125,6.125,0,0,1,299.147,119.919Z" transform="translate(9020.184 -2665.147)" fill="#d6d6d6"/><path d="M273.311,101.743h91.056a6.124,6.124,0,0,1,6.124,6.125h0a6.124,6.124,0,0,1-6.124,6.124H273.311a6.125,6.125,0,0,1-6.127-6.124h0A6.125,6.125,0,0,1,273.311,101.743Z" transform="translate(9491.545 -2665.147)" fill="#d6d6d6"/><path d="M273.105,119.919h91.069a6.124,6.124,0,0,1,6.124,6.125h0a6.124,6.124,0,0,1-6.124,6.125H273.105a6.124,6.124,0,0,1-6.124-6.125h0A6.125,6.125,0,0,1,273.105,119.919Z" transform="translate(9491.545 -2665.147)" fill="#d6d6d6"/><path d="M359.433,96.891H705.955a6.124,6.124,0,0,1,6.125,6.125h0a6.124,6.124,0,0,1-6.125,6.124H359.433a6.125,6.125,0,0,1-6.125-6.124h0A6.126,6.126,0,0,1,359.433,96.891Z" transform="translate(9020.184 -2577.319)" fill="#d6d6d6"/><path d="M299.147,115.068H705.956a6.124,6.124,0,0,1,6.125,6.125h0a6.123,6.123,0,0,1-6.125,6.123H299.147a6.124,6.124,0,0,1-6.125-6.123h0A6.125,6.125,0,0,1,299.147,115.068Z" transform="translate(9020.184 -2577.319)" fill="#d6d6d6"/><path d="M308.781,101.195H421.206a6.141,6.141,0,0,1,6.141,6.141h0a6.14,6.14,0,0,1-6.141,6.141H308.781a6.14,6.14,0,0,1-6.141-6.141h0A6.142,6.142,0,0,1,308.781,101.195Z" transform="translate(8846.367 -2661.802)" fill="#d6d6d6"/><path d="M308.781,123.869h68.967a6.14,6.14,0,0,1,6.141,6.141h0a6.142,6.142,0,0,1-6.141,6.141H308.781a6.141,6.141,0,0,1-6.141-6.141h0A6.141,6.141,0,0,1,308.781,123.869Z" transform="translate(8846.367 -2661.802)" fill="#d6d6d6"/><path d="M308.781,146.543h52.906a6.142,6.142,0,0,1,6.141,6.141h0a6.141,6.141,0,0,1-6.141,6.141H308.781a6.14,6.14,0,0,1-6.141-6.141h0A6.142,6.142,0,0,1,308.781,146.543Z" transform="translate(8846.367 -2661.802)" fill="#d6d6d6"/><g transform="translate(8846.367 -2590.285)"><path d="M308.781,97.7h29.288a6.141,6.141,0,0,1,6.141,6.141h0a6.141,6.141,0,0,1-6.141,6.141H308.781a6.141,6.141,0,0,1-6.141-6.141h0A6.141,6.141,0,0,1,308.781,97.7Z" fill="#d6d6d6"/></g><g transform="translate(8846.367 -2590.285)"><path d="M309.726,98.644h7.558a5.2,5.2,0,0,1,5.2,5.2h0a5.2,5.2,0,0,1-5.2,5.2h-7.558a5.2,5.2,0,0,1-5.2-5.2h0A5.2,5.2,0,0,1,309.726,98.644Z" fill="#fff"/></g><g transform="translate(8900.737 -2590.285)"><path d="M305.428,97.7h29.287a6.14,6.14,0,0,1,6.141,6.141h0a6.14,6.14,0,0,1-6.141,6.141H305.428a6.141,6.141,0,0,1-6.141-6.141h0A6.14,6.14,0,0,1,305.428,97.7Z" fill="#d6d6d6"/></g><g transform="translate(8900.737 -2590.285)"><path d="M306.373,98.644h7.558a5.2,5.2,0,0,1,5.2,5.2h0a5.2,5.2,0,0,1-5.2,5.2h-7.558a5.2,5.2,0,0,1-5.2-5.2h0A5.2,5.2,0,0,1,306.373,98.644Z" fill="#fff"/></g><path d="M317.141,91.146H463.578a24.564,24.564,0,0,1,24.564,24.563v68.023a24.565,24.565,0,0,1-24.564,24.563H317.141a24.563,24.563,0,0,1-24.563-24.563V115.709A24.563,24.563,0,0,1,317.141,91.146Z" transform="translate(9034.988 -2469.416)" fill="#d9d9d9"/><g transform="translate(9041.383 -2360.187)"><circle cx="16.533" cy="16.533" r="16.533" transform="translate(291.851 84.895)" fill="#f1f1f1"/></g><g transform="translate(9041.383 -2360.187)"><path d="M308.384,118.045A16.616,16.616,0,1,1,325,101.428,16.635,16.635,0,0,1,308.384,118.045Zm0-30.232A13.616,13.616,0,1,0,322,101.428,13.63,13.63,0,0,0,308.384,87.813Z" fill="#606060"/></g><path d="M338.87,213.02h68.022a3.778,3.778,0,0,1,3.779,3.778h0a3.779,3.779,0,0,1-3.779,3.779H338.87a3.779,3.779,0,0,1-3.779-3.779h0A3.778,3.778,0,0,1,338.87,213.02Z" transform="translate(9034.988 -2469.416)" fill="#dedede"/><path d="M338.87,223.412H451.3a3.779,3.779,0,0,1,3.779,3.778h0a3.779,3.779,0,0,1-3.779,3.78H338.87a3.779,3.779,0,0,1-3.779-3.78h0A3.779,3.779,0,0,1,338.87,223.412Z" transform="translate(9034.988 -2469.416)" fill="#dedede"/><path d="M338.87,233.8h54.8a3.779,3.779,0,0,1,3.779,3.778h0a3.778,3.778,0,0,1-3.779,3.779h-54.8a3.778,3.778,0,0,1-3.779-3.779h0A3.78,3.78,0,0,1,338.87,233.8Z" transform="translate(9034.988 -2469.416)" fill="#dedede"/><path d="M304.66,91.146H452.04A24.564,24.564,0,0,1,476.6,115.709v68.023a24.565,24.565,0,0,1-24.564,24.563H304.66A24.564,24.564,0,0,1,280.1,183.732V115.709A24.563,24.563,0,0,1,304.66,91.146Z" transform="translate(9248.703 -2469.416)" fill="#d9d9d9"/><g transform="translate(9255.383 -2360.187)"><circle cx="16.533" cy="16.533" r="16.533" transform="translate(280.029 84.895)" fill="#f1f1f1"/></g><g transform="translate(9255.383 -2360.187)"><path d="M296.562,118.045a16.616,16.616,0,1,1,16.615-16.617A16.635,16.635,0,0,1,296.562,118.045Zm0-30.232a13.616,13.616,0,1,0,13.615,13.615A13.63,13.63,0,0,0,296.562,87.813Z" fill="#606060"/></g><path d="M327.333,213.02h67.078a3.777,3.777,0,0,1,3.778,3.778h0a3.778,3.778,0,0,1-3.778,3.779H327.333a3.779,3.779,0,0,1-3.778-3.779h0A3.777,3.777,0,0,1,327.333,213.02Z" transform="translate(9248.703 -2469.416)" fill="#dedede"/><path d="M327.333,223.412H439.759a3.779,3.779,0,0,1,3.779,3.778h0a3.779,3.779,0,0,1-3.779,3.78H327.333a3.779,3.779,0,0,1-3.778-3.78h0A3.778,3.778,0,0,1,327.333,223.412Z" transform="translate(9248.703 -2469.416)" fill="#dedede"/><path d="M327.333,233.8h54.8a3.779,3.779,0,0,1,3.778,3.778h0a3.778,3.778,0,0,1-3.778,3.779h-54.8a3.778,3.778,0,0,1-3.778-3.779h0A3.779,3.779,0,0,1,327.333,233.8Z" transform="translate(9248.703 -2469.416)" fill="#dedede"/><g transform="translate(8875.383 -2793.187)"><circle cx="43.458" cy="43.458" r="43.458" transform="translate(301.022 108.818)" fill="#fff"/></g><g transform="translate(8875.383 -2793.187)"><path d="M344.48,200.6A48.321,48.321,0,1,1,392.8,152.276,48.375,48.375,0,0,1,344.48,200.6Zm0-91.642A43.321,43.321,0,1,0,387.8,152.276,43.37,43.37,0,0,0,344.48,108.955Z" fill="#707070"/></g><g transform="translate(8875.162 -2793.187)"><path d="M343.88,130.093a12.571,12.571,0,0,0-12.5,12.643v.072a13.289,13.289,0,0,0,12.965,12.438,12.755,12.755,0,0,0,12.333-12.9C356.615,135.243,351.137,130,343.88,130.093Z" fill="#afafaf"/></g><g transform="translate(8875.162 -2793.187)"><path d="M344.724,108.817a43.69,43.69,0,1,0,43.69,43.69h0A43.69,43.69,0,0,0,344.724,108.817Zm26.434,66.564c-9.562-17.289-42.1-18.067-53.734-1.282-8.745-7.727-10.849-22.268-6.41-34.294a35.929,35.929,0,0,1,3.917-7.528,29.467,29.467,0,0,1,2.934-3.566,43.245,43.245,0,0,1,13.425-9.628,35.985,35.985,0,0,1,27.067.08,43.455,43.455,0,0,1,13.817,10.214c.675.728,1.307,1.488,1.907,2.268a35.975,35.975,0,0,1,3.532,35.558,26.172,26.172,0,0,1-6.455,8.178Z" fill="#afafaf"/></g><path d="M290.235,109.115h91.8a20.235,20.235,0,0,1,20.235,20.234h0a20.235,20.235,0,0,1-20.235,20.234h-91.8A20.233,20.233,0,0,1,270,129.349h0A20.232,20.232,0,0,1,290.235,109.115Z" transform="translate(9436.906 -2798.563)" fill="#b1aeae"/><path d="M310.736,135.259a9.31,9.31,0,0,1-4.384.93,7.07,7.07,0,0,1-5.425-2.181,8.048,8.048,0,0,1-2.037-5.724,8.439,8.439,0,0,1,2.291-6.156,7.783,7.783,0,0,1,5.813-2.347,9.326,9.326,0,0,1,3.742.653v1.982a7.586,7.586,0,0,0-3.764-.952,5.778,5.778,0,0,0-4.435,1.827,6.881,6.881,0,0,0-1.7,4.882,6.546,6.546,0,0,0,1.589,4.623,5.407,5.407,0,0,0,4.168,1.721,7.815,7.815,0,0,0,4.141-1.063v1.805Z" transform="translate(9436.906 -2798.563)" fill="#fff"/><path d="M318.463,136.189a5.254,5.254,0,0,1-4.013-1.589,5.88,5.88,0,0,1-1.5-4.212,6.13,6.13,0,0,1,1.562-4.462,5.612,5.612,0,0,1,4.218-1.605,5.083,5.083,0,0,1,3.958,1.561,6.191,6.191,0,0,1,1.423,4.329,6.092,6.092,0,0,1-1.533,4.346A5.373,5.373,0,0,1,318.463,136.189Zm.133-10.341a3.452,3.452,0,0,0-2.768,1.19,4.89,4.89,0,0,0-1.019,3.283,4.624,4.624,0,0,0,1.029,3.177,3.5,3.5,0,0,0,2.757,1.163,3.319,3.319,0,0,0,2.707-1.14,4.949,4.949,0,0,0,.946-3.244A5.034,5.034,0,0,0,321.3,127,3.3,3.3,0,0,0,318.6,125.848Z" transform="translate(9436.906 -2798.563)" fill="#fff"/><path d="M336.421,135.923h-1.815v-6.466q0-3.609-2.635-3.609a2.857,2.857,0,0,0-2.253,1.024,3.792,3.792,0,0,0-.892,2.585v6.466h-1.815V124.586h1.815v1.882h.045a4.089,4.089,0,0,1,3.72-2.147,3.467,3.467,0,0,1,2.845,1.2,5.351,5.351,0,0,1,.985,3.471Z" transform="translate(9436.906 -2798.563)" fill="#fff"/><path d="M345.1,135.812a3.5,3.5,0,0,1-1.694.354q-2.977,0-2.978-3.321v-6.709H338.48v-1.55h1.949v-2.768l1.815-.586v3.354H345.1v1.55h-2.856v6.388a2.641,2.641,0,0,0,.388,1.627,1.546,1.546,0,0,0,1.284.487,1.908,1.908,0,0,0,1.185-.376Z" transform="translate(9436.906 -2798.563)" fill="#fff"/><path d="M355.641,135.923h-1.815v-1.771h-.045a3.8,3.8,0,0,1-3.487,2.037,3.729,3.729,0,0,1-2.651-.9,3.106,3.106,0,0,1-.958-2.38q0-3.179,3.742-3.7l3.4-.476q0-2.891-2.336-2.89a5.579,5.579,0,0,0-3.7,1.395v-1.86a7.028,7.028,0,0,1,3.853-1.063q4,0,4,4.229v7.373Zm-1.815-5.735-2.735.376a4.442,4.442,0,0,0-1.9.625,1.8,1.8,0,0,0-.643,1.589,1.731,1.731,0,0,0,.592,1.356,2.29,2.29,0,0,0,1.578.526,2.91,2.91,0,0,0,2.23-.946,3.382,3.382,0,0,0,.881-2.4v-1.129Z" transform="translate(9436.906 -2798.563)" fill="#fff"/><path d="M366.79,135.4a5.9,5.9,0,0,1-3.1.786,5.134,5.134,0,0,1-3.914-1.578,5.72,5.72,0,0,1-1.489-4.091,6.286,6.286,0,0,1,1.605-4.5,5.615,5.615,0,0,1,4.285-1.7,5.982,5.982,0,0,1,2.635.553v1.86a4.614,4.614,0,0,0-2.7-.886,3.655,3.655,0,0,0-2.852,1.245,4.731,4.731,0,0,0-1.112,3.272,4.5,4.5,0,0,0,1.046,3.144A3.607,3.607,0,0,0,364,134.659a4.55,4.55,0,0,0,2.79-.985V135.4Z" transform="translate(9436.906 -2798.563)" fill="#fff"/><path d="M374.794,135.812a3.5,3.5,0,0,1-1.694.354q-2.977,0-2.978-3.321v-6.709h-1.949v-1.55h1.949v-2.768l1.815-.586v3.354h2.856v1.55h-2.856v6.388a2.641,2.641,0,0,0,.388,1.627,1.546,1.546,0,0,0,1.284.487,1.908,1.908,0,0,0,1.185-.376Z" transform="translate(9436.906 -2798.563)" fill="#fff"/><g transform="translate(9491.545 -2577.802)"><path d="M273.311,96.918h91.056a6.124,6.124,0,0,1,6.124,6.124h0a6.124,6.124,0,0,1-6.124,6.125H273.311a6.125,6.125,0,0,1-6.127-6.125h0A6.125,6.125,0,0,1,273.311,96.918Z" fill="#d6d6d6"/></g><g transform="translate(9491.545 -2577.802)"><path d="M273.105,115.094h91.069a6.124,6.124,0,0,1,6.124,6.125h0a6.124,6.124,0,0,1-6.124,6.124H273.105a6.124,6.124,0,0,1-6.124-6.124h0A6.124,6.124,0,0,1,273.105,115.094Z" fill="#d6d6d6"/></g><g transform="translate(9491.545 -2536.816)"><path d="M273.311,94.653h91.056a6.124,6.124,0,0,1,6.124,6.124h0a6.124,6.124,0,0,1-6.124,6.125H273.311a6.125,6.125,0,0,1-6.127-6.125h0A6.126,6.126,0,0,1,273.311,94.653Z" fill="#d6d6d6"/></g><g transform="translate(9491.545 -2536.816)"><path d="M273.105,112.83h91.069a6.124,6.124,0,0,1,6.124,6.124h0a6.124,6.124,0,0,1-6.124,6.124H273.105a6.123,6.123,0,0,1-6.124-6.124h0A6.124,6.124,0,0,1,273.105,112.83Z" fill="#d6d6d6"/></g><g transform="translate(8833.384 -2565.187)"><path d="M326.961,96.221h89.751a23.62,23.62,0,0,1,23.619,23.619v55.74A23.619,23.619,0,0,1,416.712,199.2H326.961a23.62,23.62,0,0,1-23.619-23.619V119.84A23.62,23.62,0,0,1,326.961,96.221Z" fill="#fff"/></g><g transform="translate(8833.384 -2565.187)"><path d="M416.712,199.337H326.961A23.783,23.783,0,0,1,303.2,175.58V119.84a23.783,23.783,0,0,1,23.757-23.757h89.751a23.783,23.783,0,0,1,23.757,23.757v55.74A23.783,23.783,0,0,1,416.712,199.337Zm-89.751-98.254A18.778,18.778,0,0,0,308.2,119.84v55.74a18.778,18.778,0,0,0,18.757,18.757h89.751a18.778,18.778,0,0,0,18.757-18.757V119.84a18.778,18.778,0,0,0-18.757-18.757H326.961Z" fill="#20783c"/></g><g transform="translate(8849.146 -2514.166)"><path d="M308.8,93.4h91.057a6.124,6.124,0,0,1,6.125,6.125h0a6.125,6.125,0,0,1-6.125,6.124H308.8a6.125,6.125,0,0,1-6.125-6.124h0A6.125,6.125,0,0,1,308.8,93.4Z" fill="#d6d6d6"/></g><g transform="translate(8849.146 -2514.166)"><path d="M308.6,111.578h91.069a6.125,6.125,0,0,1,6.125,6.125h0a6.124,6.124,0,0,1-6.125,6.124H308.6a6.124,6.124,0,0,1-6.125-6.124h0A6.126,6.126,0,0,1,308.6,111.578Z" fill="#d6d6d6"/></g><path d="M324.5,113.979h95.021a10.668,10.668,0,0,1,10.668,10.668h0a10.668,10.668,0,0,1-10.668,10.668H324.5a10.668,10.668,0,0,1-10.668-10.668h0A10.668,10.668,0,0,1,324.5,113.979Z" transform="translate(8832.984 -2564.772)" fill="#f5f5f5"/><path d="M419.524,136.814H324.5a12.168,12.168,0,0,1,0-24.336h95.021a12.168,12.168,0,0,1,0,24.336ZM324.5,115.479a9.168,9.168,0,0,0,0,18.336h95.021a9.168,9.168,0,0,0,0-18.336H324.5Z" transform="translate(8832.984 -2564.772)" fill="#d6d6d6"/><path d="M341.023,127.866V117.28h3.359a3.963,3.963,0,0,1,2.433.672,2.085,2.085,0,0,1,.9,1.749,2.494,2.494,0,0,1-.509,1.565,2.746,2.746,0,0,1-1.41.944v.03a2.754,2.754,0,0,1,1.746.809,2.459,2.459,0,0,1,.653,1.775,2.665,2.665,0,0,1-1.07,2.2,4.239,4.239,0,0,1-2.7.842h-3.4Zm1.749-9.176V121.7h1.137a2.189,2.189,0,0,0,1.436-.432,1.5,1.5,0,0,0,.521-1.223q0-1.357-1.816-1.357Zm0,4.422v3.352h1.5a2.278,2.278,0,0,0,1.517-.455,1.553,1.553,0,0,0,.535-1.25q0-1.647-2.281-1.646h-1.27Z" transform="translate(8832.984 -2564.772)" fill="#565656"/><path d="M354.349,121.939a1.415,1.415,0,0,0-.893-.244,1.528,1.528,0,0,0-1.27.687,3.07,3.07,0,0,0-.509,1.868v3.617h-1.713v-7.56h1.713v1.558h.029a2.642,2.642,0,0,1,.771-1.244,1.745,1.745,0,0,1,1.163-.446,1.434,1.434,0,0,1,.708.14v1.624Z" transform="translate(8832.984 -2564.772)" fill="#565656"/><path d="M361.362,127.866H359.7v-1.182h-.029a2.5,2.5,0,0,1-2.3,1.359,2.421,2.421,0,0,1-1.746-.605,2.119,2.119,0,0,1-.631-1.6q0-2.141,2.466-2.5l2.244-.317q0-1.617-1.536-1.617a3.646,3.646,0,0,0-2.436.931v-1.5a5.317,5.317,0,0,1,2.761-.708q2.863,0,2.864,2.819v4.917Zm-1.654-3.713-1.587.221a2.528,2.528,0,0,0-1.111.358,1.044,1.044,0,0,0-.373.919,1,1,0,0,0,.344.786,1.331,1.331,0,0,0,.919.307,1.7,1.7,0,0,0,1.3-.55,1.951,1.951,0,0,0,.513-1.385v-.656Z" transform="translate(8832.984 -2564.772)" fill="#565656"/><path d="M370.184,127.866h-1.713v-4.26q0-2.118-1.5-2.119a1.632,1.632,0,0,0-1.292.588,2.179,2.179,0,0,0-.509,1.479v4.312h-1.72v-7.56h1.72v1.255h.029a2.694,2.694,0,0,1,2.451-1.432,2.281,2.281,0,0,1,1.882.8,3.594,3.594,0,0,1,.65,2.314v4.622Z" transform="translate(8832.984 -2564.772)" fill="#565656"/><path d="M377.685,127.519a4.218,4.218,0,0,1-2.148.525,3.641,3.641,0,0,1-2.717-1.053,3.726,3.726,0,0,1-1.034-2.728,4.1,4.1,0,0,1,1.111-3,3.97,3.97,0,0,1,2.971-1.133,4.344,4.344,0,0,1,1.824.361v1.594a2.768,2.768,0,0,0-1.684-.59,2.339,2.339,0,0,0-1.779.734,2.686,2.686,0,0,0-.694,1.924,2.561,2.561,0,0,0,.654,1.853,2.323,2.323,0,0,0,1.753.679,2.748,2.748,0,0,0,1.743-.656Z" transform="translate(8832.984 -2564.772)" fill="#565656"/><path d="M386.1,127.866h-1.713v-4.135q0-2.244-1.5-2.244a1.569,1.569,0,0,0-1.27.65,2.586,2.586,0,0,0-.517,1.66v4.068h-1.72V116.674h1.72v4.887h.029a2.7,2.7,0,0,1,2.451-1.432q2.517,0,2.518,3.078v4.659Z" transform="translate(8832.984 -2564.772)" fill="#565656"/><path d="M394.583,124.552H389.43a2.181,2.181,0,0,0,.646,1.617,2.4,2.4,0,0,0,1.694.568,3.732,3.732,0,0,0,2.222-.725v1.381a5.069,5.069,0,0,1-2.731.65,3.383,3.383,0,0,1-2.617-1.03,4.119,4.119,0,0,1-.949-2.9,4.026,4.026,0,0,1,1.045-2.876,3.414,3.414,0,0,1,2.6-1.11,2.979,2.979,0,0,1,2.4,1,4.139,4.139,0,0,1,.849,2.769v.657Zm-1.653-1.211a2.2,2.2,0,0,0-.436-1.436,1.457,1.457,0,0,0-1.181-.514,1.661,1.661,0,0,0-1.251.539,2.459,2.459,0,0,0-.631,1.41h3.5Z" transform="translate(8832.984 -2564.772)" fill="#565656"/><path d="M395.742,127.63v-1.588a3.413,3.413,0,0,0,2.119.731q1.549,0,1.55-.915a.72.72,0,0,0-.133-.439,1.261,1.261,0,0,0-.358-.321,2.856,2.856,0,0,0-.531-.251c-.2-.074-.432-.157-.683-.251a7.072,7.072,0,0,1-.838-.392,2.475,2.475,0,0,1-.62-.469,1.769,1.769,0,0,1-.373-.594,2.183,2.183,0,0,1-.125-.775,1.79,1.79,0,0,1,.258-.963,2.231,2.231,0,0,1,.694-.7,3.349,3.349,0,0,1,.989-.429,4.478,4.478,0,0,1,1.144-.144,5.214,5.214,0,0,1,1.875.316v1.5a3.164,3.164,0,0,0-1.831-.546,2.358,2.358,0,0,0-.587.066,1.5,1.5,0,0,0-.447.184.922.922,0,0,0-.288.285.674.674,0,0,0-.1.365.783.783,0,0,0,.1.414.942.942,0,0,0,.306.3,2.7,2.7,0,0,0,.487.236c.189.07.407.148.653.232a9.46,9.46,0,0,1,.875.406,2.9,2.9,0,0,1,.661.469,1.844,1.844,0,0,1,.421.6,2.064,2.064,0,0,1,.147.815,1.854,1.854,0,0,1-.266,1,2.212,2.212,0,0,1-.709.709,3.316,3.316,0,0,1-1.022.418,5.308,5.308,0,0,1-1.222.137A5.111,5.111,0,0,1,395.742,127.63Z" transform="translate(8832.984 -2564.772)" fill="#565656"/><path d="M7274.86-635.262a29.679,29.679,0,0,0-29.679,29.68,29.679,29.679,0,0,0,29.68,29.677,29.678,29.678,0,0,0,29.677-29.678,29.676,29.676,0,0,0-29.677-29.679Zm2.06,57.106a25.6,25.6,0,0,1-25.6-25.6c-.547-12.619,10.125-24.57,25.543-19.917,13.776,5.564,13.411,18.427,12.076,23.159-.4,1.4,1.039,1.707,1.586,1.007,2.972-3.792,3.6-5.435,4.724-10.346.82-3.6-.327-8.949-.616-9.841a.943.943,0,0,1,.7-1.139.949.949,0,0,1,.926.289,25.318,25.318,0,0,1,6.274,16.792,25.6,25.6,0,0,1-25.608,25.6Z" transform="translate(2236.383 -2090.187)" fill="#5b5b5b"/></g></svg>