<svg width="760" height="254" viewBox="0 0 760 254" fill="none" xmlns="http://www.w3.org/2000/svg">
<path d="M0.691223 84.5561C3.43922 83.8951 6.17623 83.2661 8.90723 82.5731C22.5852 79.0991 36.2642 75.6681 49.9162 72.1271C72.2602 66.3361 94.5752 60.4551 116.908 54.6361C133.774 50.2401 150.652 45.9231 167.503 41.4771C175.731 39.3101 183.915 36.9821 192.096 34.6651C195.847 33.5551 199.867 33.7851 203.468 35.3141C215.199 40.0231 227.13 44.2321 238.924 48.7931C260.138 56.9731 281.298 65.2841 302.481 73.5011C323.961 81.8301 345.449 90.1271 366.944 98.3901C372.434 100.5 377.962 102.527 384.263 104.895C369.144 110.61 354.857 116.011 340.805 121.317C342.937 126.079 345.032 130.495 346.921 134.996C350.51 143.584 349.542 152.407 347.644 161.109C346.111 168.134 343.827 174.999 342.081 181.998C341.753 183.458 341.948 184.987 342.632 186.318C346.553 192.916 345.128 199.193 338.648 203.497C337.662 204.139 337.002 205.173 336.835 206.337C337.538 219.463 341.217 231.581 349.544 242.002C350.937 243.485 352.423 244.876 353.996 246.165C346.981 248.706 340.711 251.465 334.159 253.185C328.659 254.625 326.624 249.491 324.749 245.87C317.213 231.288 318.327 216.612 325.194 202.041C325.773 200.725 325.843 199.24 325.395 197.873C322.859 191.641 324.245 186.585 329.921 182.397C330.488 181.984 331.229 181.506 331.392 180.917C334.997 168.412 339.297 155.901 336.001 142.661C334.84 137.998 332.343 133.66 330.454 129.176C329.071 125.911 326.745 126.286 324.015 127.341C308.69 133.201 293.349 139.009 277.99 144.768C254.408 153.592 230.376 161.397 207.409 171.598C197.282 176.099 190.888 171.163 183.296 168.192C175.007 164.954 167.089 160.777 158.984 157.073C143.663 150.056 128.336 143.074 113.003 136.123C98.9552 129.764 84.8502 123.538 70.8042 117.171C52.5992 108.919 34.4352 100.575 16.2402 92.3031C11.0822 89.9561 5.85923 87.7281 0.657227 85.4491C0.673227 85.1541 0.683223 84.8521 0.691223 84.5561Z" fill="#A4A4A4"/>
<path d="M185.079 241.371C161.1 201.099 126.366 181.156 78.9082 183.603C78.1992 166.292 82.3222 149.824 88.7122 133.363C97.9592 137.485 106.988 141.46 115.985 145.519C124.368 149.303 132.71 153.186 141.07 156.999C155.464 163.585 169.859 170.158 184.256 176.72C187.919 178.387 191.496 180.352 195.328 181.483C197.747 182.17 200.317 182.108 202.701 181.306C221.872 174.251 240.939 166.951 260.025 159.719C272.775 154.891 285.529 150.06 298.973 144.956C304.728 164.363 305.273 184.94 300.555 204.623C279.183 199.123 257.928 198.806 237.061 205.555C216.407 212.235 199.542 224.838 185.079 241.371Z" fill="#D4D4D4"/>
<path d="M701.451 66.8651C701.399 103.427 671.718 133.024 635.154 132.972C598.591 132.919 568.994 103.239 569.046 66.6761C569.207 31.7381 596.651 0.762073 635.423 0.568073C672.159 0.388073 701.451 30.1571 701.451 66.8651Z" fill="#A4A4A4"/>
<path d="M758.661 236.983C758.256 234.3 757.82 231.619 757.427 228.927C751.1 185.983 725.79 157.576 688.264 138.462C685.872 137.234 684.5 137.721 682.653 139.535C672.049 149.939 659.734 156.439 645.757 158.575C649.805 164.169 648.55 171.984 642.957 176.031C642.169 176.601 641.317 177.076 640.421 177.449L654.492 253.081C680.987 252.881 707.451 251.853 733.808 248.896C740.23 248.142 746.604 247.034 752.903 245.576C759.058 244.194 759.576 243.086 758.661 236.983Z" fill="#A4A4A4"/>
<path d="M631.99 177.873C625.377 175.885 621.628 168.912 623.616 162.3C624.011 160.987 624.619 159.747 625.416 158.632C611.061 156.515 598.555 149.798 587.859 139.252C586.078 137.491 584.809 137.269 582.577 138.308C556.958 150.328 537.598 169.095 523.962 193.629C516.109 207.75 513.772 223.638 511.739 239.481C511.266 243.226 513.451 244.504 516.245 245.005C525.516 246.7 534.793 248.966 544.159 249.561C568.734 251.116 593.336 252.248 617.93 253.433L631.99 177.873Z" fill="#A4A4A4"/>
</svg>
