<svg width="758" height="253" viewBox="0 0 758 253" fill="none" xmlns="http://www.w3.org/2000/svg">
<path d="M38.744 11.3172H93.432C114.783 11.3172 132.09 28.6262 132.09 49.9752V71.6622H0.085022V49.9752C0.085022 28.6232 17.393 11.3172 38.744 11.3172Z" fill="white"/>
<path d="M129.262 71.7472H2.914C1.307 71.7472 0 70.4392 0 68.8322V49.9752C0 28.6112 17.38 11.2302 38.744 11.2302H93.432C114.796 11.2302 132.176 28.6112 132.176 49.9752V68.8322C132.177 70.4402 130.869 71.7472 129.262 71.7472ZM3 68.7472H129.177V49.9752C129.177 30.2652 113.142 14.2302 93.433 14.2302H38.745C19.036 14.2302 3.00101 30.2652 3.00101 49.9752V68.7472H3Z" fill="#20783C"/>
<path d="M213.182 240.912H46.287C40.24 240.912 34.375 239.729 28.854 237.393C23.521 235.137 18.731 231.908 14.618 227.793C10.504 223.68 7.27401 218.891 5.01901 213.557C2.68301 208.036 1.49902 202.17 1.49902 196.123V66.3412H129.733H131.147V64.9272V49.9752C131.147 44.9452 132.131 40.0692 134.074 35.4782C135.95 31.0412 138.636 27.0602 142.055 23.6392C145.476 20.2182 149.459 17.5342 153.895 15.6572C158.486 13.7172 163.364 12.7302 168.391 12.7302H220.723C225.75 12.7302 230.628 13.7152 235.219 15.6572C239.655 17.5342 243.637 20.2202 247.059 23.6392C250.48 27.0592 253.164 31.0422 255.04 35.4782C256.981 40.0692 257.966 44.9452 257.966 49.9752V72.8502V196.125C257.966 202.172 256.782 208.037 254.447 213.559C252.191 218.893 248.962 223.682 244.847 227.795C240.734 231.908 235.944 235.139 230.611 237.395C225.094 239.731 219.228 240.912 213.182 240.912Z" fill="white"/>
<path d="M213.182 239.5C219.037 239.5 224.717 238.352 230.064 236.09C235.228 233.908 239.867 230.778 243.851 226.795C247.834 222.811 250.962 218.172 253.148 213.008C255.409 207.662 256.554 201.983 256.554 196.125V72.8502V49.9752C256.554 45.1362 255.608 40.4462 253.741 36.0302C251.936 31.7632 249.352 27.9302 246.061 24.6392C242.769 21.3472 238.937 18.7632 234.669 16.9592C230.254 15.0902 225.563 14.1452 220.725 14.1452H168.393C163.555 14.1452 158.864 15.0902 154.448 16.9592C150.18 18.7632 146.35 21.3472 143.057 24.6392C139.766 27.9302 137.182 31.7632 135.377 36.0302C133.51 40.4462 132.564 45.1362 132.564 49.9752V64.9272V67.7552H129.735H2.91501V196.125C2.91501 201.979 4.06102 207.66 6.32202 213.008C8.50702 218.172 11.635 222.811 15.619 226.795C19.602 230.778 24.241 233.908 29.406 236.09C34.752 238.352 40.431 239.5 46.288 239.5H213.182ZM213.182 242.328H46.287C20.771 242.328 0.085022 221.641 0.085022 196.125V64.9272H129.734V49.9752C129.734 28.6232 147.043 11.3172 168.391 11.3172H220.723C242.074 11.3172 259.381 28.6262 259.381 49.9752V72.8502V196.125C259.383 221.643 238.698 242.328 213.182 242.328Z" fill="#AFAFAF"/>
<path d="M28.844 32.0602H103.333C109.842 32.0602 115.119 37.3372 115.119 43.8462C115.119 50.3562 109.842 55.6322 103.333 55.6322H28.844C22.335 55.6322 17.058 50.3562 17.058 43.8462C17.057 37.3372 22.335 32.0602 28.844 32.0602Z" fill="#F5F5F5"/>
<path d="M103.333 55.6902H28.844C22.314 55.6902 17.001 50.3772 17.001 43.8462C17.001 37.3152 22.314 32.0022 28.844 32.0022H103.333C109.864 32.0022 115.177 37.3152 115.177 43.8462C115.177 50.3772 109.864 55.6902 103.333 55.6902ZM28.844 34.0022C23.416 34.0022 19.001 38.4182 19.001 43.8462C19.001 49.2742 23.417 53.6902 28.844 53.6902H103.333C108.761 53.6902 113.177 49.2742 113.177 43.8462C113.177 38.4182 108.761 34.0022 103.333 34.0022H28.844Z" fill="#D6D6D6"/>
<path d="M233.491 54.8752H154.379C149.481 54.8752 145.494 50.8902 145.494 45.9902V41.5682C145.494 36.6682 149.479 32.6823 154.379 32.6823H233.491C238.389 32.6823 242.376 36.6652 242.376 41.5682V45.9902C242.376 50.8902 238.391 54.8752 233.491 54.8752Z" fill="#F5F5F5"/>
<path d="M154.379 33.6263C150 33.6263 146.438 37.1892 146.438 41.5682V45.9902C146.438 50.3702 150.001 53.9302 154.379 53.9302H233.491C237.87 53.9302 241.432 50.3682 241.432 45.9902V41.5682C241.432 37.1872 237.869 33.6263 233.491 33.6263H154.379ZM154.379 31.7412H233.491C238.919 31.7412 243.318 36.1412 243.318 41.5692V45.9932C243.318 51.4202 238.919 55.8182 233.491 55.8182H154.379C148.951 55.8182 144.551 51.4202 144.551 45.9932V41.5692C144.551 36.1412 148.951 31.7412 154.379 31.7412Z" fill="#D6D6D6"/>
<path d="M44.061 43.7792V48.0892H42.097V36.2052H45.702C47.067 36.2052 48.125 36.5222 48.876 37.1582C49.627 37.7932 50.003 38.6882 50.003 39.8432C50.003 40.9982 49.61 41.9432 48.826 42.6782C48.041 43.4122 46.98 43.7802 45.643 43.7802H44.061V43.7792ZM44.061 37.8282V42.1712H45.337C46.182 42.1712 46.826 41.9752 47.268 41.5822C47.71 41.1902 47.931 40.6382 47.931 39.9252C47.931 38.5282 47.118 37.8282 45.494 37.8282H44.061V37.8282Z" fill="#565656"/>
<path d="M56.724 41.4342C56.492 41.2512 56.158 41.1612 55.722 41.1612C55.153 41.1612 54.678 41.4182 54.296 41.9322C53.915 42.4462 53.724 43.1452 53.724 44.0292V48.0902H51.802V39.6042H53.724V41.3532H53.757C53.945 40.7562 54.234 40.2902 54.623 39.9572C55.012 39.6242 55.448 39.4552 55.928 39.4552C56.276 39.4552 56.541 39.5082 56.723 39.6132V41.4342H56.724Z" fill="#565656"/>
<path d="M61.696 48.2872C60.387 48.2872 59.341 47.8912 58.559 47.0982C57.777 46.3052 57.387 45.2542 57.387 43.9452C57.387 42.5192 57.794 41.4062 58.609 40.6052C59.424 39.8042 60.522 39.4042 61.903 39.4042C63.229 39.4042 64.262 39.7932 65.002 40.5722C65.742 41.3512 66.112 42.4312 66.112 43.8122C66.112 45.1662 65.713 46.2502 64.915 47.0652C64.117 47.8802 63.044 48.2872 61.696 48.2872ZM61.787 40.9362C61.036 40.9362 60.442 41.1992 60.005 41.7242C59.568 42.2482 59.35 42.9722 59.35 43.8952C59.35 44.7852 59.571 45.4852 60.013 45.9962C60.455 46.5082 61.046 46.7632 61.786 46.7632C62.543 46.7632 63.124 46.5122 63.531 46.0092C63.937 45.5062 64.14 44.7912 64.14 43.8632C64.14 42.9292 63.937 42.2092 63.531 41.7002C63.125 41.1912 62.544 40.9362 61.787 40.9362Z" fill="#565656"/>
<path d="M72.585 37.0912C72.325 36.9422 72.03 36.8672 71.698 36.8672C70.764 36.8672 70.297 37.3942 70.297 38.4502V39.6012H72.27V41.1102H70.306V48.0882H68.384V41.1102H66.934V39.6012H68.384V38.2252C68.384 37.3302 68.676 36.6242 69.262 36.1082C69.847 35.5912 70.579 35.3342 71.458 35.3342C71.933 35.3342 72.309 35.3872 72.585 35.4912V37.0912Z" fill="#565656"/>
<path d="M74.608 37.8212C74.293 37.8212 74.024 37.7182 73.8 37.5142C73.576 37.3092 73.464 37.0492 73.464 36.7352C73.464 36.4212 73.576 36.1582 73.8 35.9482C74.024 35.7382 74.293 35.6332 74.608 35.6332C74.934 35.6332 75.21 35.7382 75.437 35.9482C75.664 36.1582 75.777 36.4212 75.777 36.7352C75.777 37.0332 75.664 37.2892 75.437 37.5022C75.21 37.7152 74.933 37.8212 74.608 37.8212ZM75.56 48.0882H73.638V39.6022H75.56V48.0882Z" fill="#565656"/>
<path d="M80.002 48.0882H78.071V35.5252H80.002V48.0882Z" fill="#565656"/>
<path d="M89.69 44.3672H83.905C83.927 45.1512 84.169 45.7572 84.63 46.1812C85.091 46.6072 85.725 46.8202 86.532 46.8202C87.438 46.8202 88.27 46.5492 89.027 46.0072V47.5572C88.254 48.0432 87.232 48.2862 85.961 48.2862C84.712 48.2862 83.733 47.9002 83.023 47.1302C82.313 46.3592 81.958 45.2752 81.958 43.8772C81.958 42.5572 82.349 41.4812 83.13 40.6492C83.912 39.8172 84.883 39.4022 86.043 39.4022C87.203 39.4022 88.101 39.7742 88.736 40.5202C89.371 41.2662 89.689 42.3022 89.689 43.6272V44.3672H89.69ZM87.834 43.0082C87.829 42.3182 87.666 41.7802 87.345 41.3962C87.024 41.0122 86.582 40.8212 86.019 40.8212C85.466 40.8212 84.998 41.0222 84.614 41.4252C84.23 41.8282 83.994 42.3572 83.906 43.0082H87.834Z" fill="#565656"/>
<path d="M166.638 43.7792V48.0892H164.674V36.2052H168.279C169.644 36.2052 170.702 36.5222 171.453 37.1582C172.204 37.7932 172.58 38.6882 172.58 39.8432C172.58 40.9982 172.187 41.9432 171.403 42.6782C170.618 43.4122 169.557 43.7802 168.22 43.7802H166.638V43.7792ZM166.638 37.8282V42.1712H167.914C168.759 42.1712 169.403 41.9752 169.845 41.5822C170.287 41.1902 170.508 40.6382 170.508 39.9252C170.508 38.5282 169.695 37.8282 168.071 37.8282H166.638V37.8282Z" fill="#565656"/>
<path d="M179.301 41.4342C179.069 41.2512 178.735 41.1612 178.299 41.1612C177.73 41.1612 177.255 41.4182 176.873 41.9322C176.492 42.4462 176.301 43.1452 176.301 44.0292V48.0902H174.379V39.6042H176.301V41.3532H176.334C176.522 40.7562 176.811 40.2902 177.2 39.9572C177.589 39.6242 178.025 39.4552 178.505 39.4552C178.853 39.4552 179.118 39.5082 179.3 39.6132V41.4342H179.301Z" fill="#565656"/>
<path d="M184.273 48.2872C182.964 48.2872 181.918 47.8912 181.136 47.0982C180.354 46.3052 179.964 45.2542 179.964 43.9452C179.964 42.5192 180.371 41.4062 181.186 40.6052C182.001 39.8042 183.099 39.4042 184.48 39.4042C185.806 39.4042 186.839 39.7932 187.579 40.5722C188.319 41.3512 188.689 42.4312 188.689 43.8122C188.689 45.1662 188.29 46.2502 187.492 47.0652C186.694 47.8802 185.621 48.2872 184.273 48.2872ZM184.364 40.9362C183.613 40.9362 183.019 41.1992 182.582 41.7242C182.145 42.2482 181.927 42.9722 181.927 43.8952C181.927 44.7852 182.148 45.4852 182.59 45.9962C183.032 46.5082 183.623 46.7632 184.363 46.7632C185.12 46.7632 185.701 46.5122 186.108 46.0092C186.514 45.5062 186.717 44.7912 186.717 43.8632C186.717 42.9292 186.514 42.2092 186.108 41.7002C185.703 41.1912 185.121 40.9362 184.364 40.9362Z" fill="#565656"/>
<path d="M192.568 47.7322C192.568 49.1252 192.276 50.1982 191.69 50.9522C191.105 51.7062 190.268 52.0832 189.179 52.0832C188.776 52.0832 188.383 51.9952 188.002 51.8182V50.1692C188.361 50.4182 188.701 50.5422 189.021 50.5422C190.104 50.5422 190.646 49.5862 190.646 47.6752V39.6032H192.568V47.7322ZM191.624 37.8212C191.309 37.8212 191.04 37.7182 190.816 37.5142C190.592 37.3092 190.48 37.0492 190.48 36.7352C190.48 36.4212 190.592 36.1582 190.816 35.9482C191.04 35.7382 191.309 35.6332 191.624 35.6332C191.944 35.6332 192.218 35.7382 192.444 35.9482C192.67 36.1582 192.784 36.4212 192.784 36.7352C192.784 37.0332 192.671 37.2892 192.444 37.5022C192.217 37.7152 191.944 37.8212 191.624 37.8212Z" fill="#565656"/>
<path d="M202.265 44.3672H196.48C196.502 45.1512 196.744 45.7572 197.205 46.1812C197.666 46.6072 198.3 46.8202 199.107 46.8202C200.013 46.8202 200.845 46.5492 201.602 46.0072V47.5572C200.829 48.0432 199.807 48.2862 198.536 48.2862C197.287 48.2862 196.308 47.9002 195.598 47.1302C194.888 46.3592 194.533 45.2752 194.533 43.8772C194.533 42.5572 194.924 41.4812 195.705 40.6492C196.487 39.8172 197.458 39.4022 198.618 39.4022C199.778 39.4022 200.676 39.7742 201.311 40.5202C201.946 41.2662 202.264 42.3022 202.264 43.6272V44.3672H202.265ZM200.409 43.0082C200.404 42.3182 200.241 41.7802 199.92 41.3962C199.599 41.0122 199.157 40.8212 198.594 40.8212C198.041 40.8212 197.573 41.0222 197.189 41.4252C196.805 41.8282 196.569 42.3572 196.481 43.0082H200.409Z" fill="#565656"/>
<path d="M210.171 47.6992C209.491 48.0922 208.687 48.2882 207.759 48.2882C206.499 48.2882 205.483 47.8942 204.709 47.1062C203.936 46.3192 203.549 45.2982 203.549 44.0442C203.549 42.6472 203.965 41.5232 204.796 40.6752C205.628 39.8272 206.739 39.4042 208.131 39.4042C208.904 39.4042 209.587 39.5392 210.178 39.8092V41.5992C209.587 41.1582 208.957 40.9362 208.289 40.9362C207.477 40.9362 206.811 41.2112 206.291 41.7612C205.772 42.3112 205.512 43.0312 205.512 43.9192C205.512 44.7982 205.757 45.4912 206.245 45.9992C206.734 46.5082 207.39 46.7622 208.213 46.7622C208.903 46.7622 209.556 46.5172 210.169 46.0252V47.6992H210.171Z" fill="#565656"/>
<path d="M216.552 47.9972C216.176 48.1852 215.682 48.2782 215.069 48.2782C213.423 48.2782 212.599 47.4882 212.599 45.9082V41.1102H211.182V39.6012H212.599V37.6372L214.522 37.0902V39.6012H216.552V41.1102H214.522V45.3532C214.522 45.8552 214.613 46.2142 214.795 46.4302C214.977 46.6452 215.281 46.7532 215.707 46.7532C216.033 46.7532 216.314 46.6592 216.552 46.4712V47.9972V47.9972Z" fill="#565656"/>
<path d="M217.679 47.8232V46.0422C218.397 46.5892 219.19 46.8622 220.057 46.8622C221.217 46.8622 221.797 46.5192 221.797 45.8352C221.797 45.6422 221.747 45.4782 221.648 45.3422C221.549 45.2062 221.415 45.0862 221.246 44.9822C221.078 44.8772 220.879 44.7832 220.649 44.7002C220.42 44.6172 220.164 44.5232 219.882 44.4192C219.534 44.2802 219.22 44.1342 218.942 43.9802C218.663 43.8262 218.431 43.6502 218.246 43.4542C218.061 43.2582 217.921 43.0352 217.828 42.7872C217.734 42.5382 217.687 42.2482 217.687 41.9172C217.687 41.5082 217.783 41.1472 217.977 40.8352C218.17 40.5232 218.43 40.2612 218.756 40.0482C219.082 39.8352 219.452 39.6752 219.866 39.5682C220.281 39.4612 220.709 39.4072 221.151 39.4072C221.936 39.4072 222.637 39.5252 223.256 39.7622V41.4452C222.659 41.0372 221.974 40.8322 221.201 40.8322C220.958 40.8322 220.738 40.8572 220.542 40.9072C220.346 40.9562 220.178 41.0252 220.041 41.1142C219.903 41.2022 219.795 41.3082 219.718 41.4322C219.64 41.5572 219.602 41.6942 219.602 41.8422C219.602 42.0252 219.641 42.1802 219.718 42.3072C219.795 42.4342 219.91 42.5452 220.062 42.6422C220.214 42.7392 220.396 42.8282 220.609 42.9082C220.822 42.9882 221.066 43.0752 221.342 43.1692C221.707 43.3182 222.034 43.4712 222.324 43.6252C222.614 43.7792 222.861 43.9552 223.066 44.1512C223.27 44.3472 223.428 44.5742 223.538 44.8312C223.648 45.0882 223.704 45.3932 223.704 45.7462C223.704 46.1782 223.605 46.5532 223.406 46.8742C223.207 47.1942 222.942 47.4592 222.611 47.6692C222.28 47.8792 221.897 48.0352 221.463 48.1382C221.029 48.2402 220.572 48.2912 220.092 48.2912C219.162 48.2872 218.358 48.1322 217.679 47.8232Z" fill="#565656"/>
<path d="M28.844 83.9182H116.534C123.043 83.9182 128.32 89.1942 128.32 95.7052C128.32 102.215 123.043 107.49 116.534 107.49H28.844C22.335 107.49 17.058 102.215 17.058 95.7052C17.057 89.1962 22.335 83.9182 28.844 83.9182Z" fill="#D9D9D9"/>
<path d="M21.301 130.121H243.826C246.17 130.121 248.068 132.02 248.068 134.362C248.068 136.707 246.17 138.606 243.826 138.606H21.301C18.957 138.606 17.058 136.707 17.058 134.362C17.057 132.022 18.957 130.121 21.301 130.121Z" fill="#F5F5F5"/>
<path d="M76.931 177.268C81.3576 177.268 84.946 173.469 84.946 168.782C84.946 164.096 81.3576 160.296 76.931 160.296C72.5045 160.296 68.916 164.096 68.916 168.782C68.916 173.469 72.5045 177.268 76.931 177.268Z" fill="#D9D9D9"/>
<path d="M183.009 177.268C187.696 177.268 191.495 173.469 191.495 168.782C191.495 164.096 187.696 160.296 183.009 160.296C178.322 160.296 174.523 164.096 174.523 168.782C174.523 173.469 178.322 177.268 183.009 177.268Z" fill="#D9D9D9"/>
<path d="M76.931 204.609C81.3576 204.609 84.946 200.81 84.946 196.124C84.946 191.438 81.3576 187.639 76.931 187.639C72.5045 187.639 68.916 191.438 68.916 196.124C68.916 200.81 72.5045 204.609 76.931 204.609Z" fill="#D9D9D9"/>
<path d="M183.009 204.609C187.695 204.609 191.494 200.81 191.494 196.124C191.494 191.438 187.695 187.639 183.009 187.639C178.323 187.639 174.524 191.438 174.524 196.124C174.524 200.81 178.323 204.609 183.009 204.609Z" fill="#D9D9D9"/>
<path d="M453.622 0H559.226C572.766 0 583.743 10.976 583.743 24.516V67.89C583.743 81.429 572.766 92.405 559.226 92.405H453.622C440.083 92.405 429.107 81.429 429.107 67.89V24.516C429.107 10.976 440.083 0 453.622 0Z" fill="#D9D9D9"/>
<path d="M447.021 107.492C454.312 107.492 460.222 101.582 460.222 94.291C460.222 87.0003 454.312 81.09 447.021 81.09C439.73 81.09 433.82 87.0003 433.82 94.291C433.82 101.582 439.73 107.492 447.021 107.492Z" fill="#F1F1F1"/>
<path d="M447.021 107.577C439.695 107.577 433.735 101.618 433.735 94.292C433.735 86.966 439.695 81.006 447.021 81.006C454.347 81.006 460.307 86.966 460.307 94.292C460.307 101.617 454.347 107.577 447.021 107.577ZM447.021 84.005C441.349 84.005 436.735 88.619 436.735 94.291C436.735 99.962 441.349 104.576 447.021 104.576C452.693 104.576 457.307 99.962 457.307 94.291C457.307 88.62 452.693 84.005 447.021 84.005Z" fill="#A4A4A4"/>
<path d="M466.351 96.177H519.154C520.976 96.177 522.455 97.654 522.455 99.477C522.455 101.301 520.976 102.777 519.154 102.777H466.351C464.528 102.777 463.049 101.301 463.049 99.477C463.051 97.654 464.528 96.177 466.351 96.177Z" fill="#DEDEDE"/>
<path d="M466.351 104.663H554.04C555.861 104.663 557.339 106.142 557.339 107.965C557.339 109.787 555.861 111.265 554.04 111.265H466.351C464.528 111.265 463.049 109.787 463.049 107.965C463.051 106.14 464.528 104.663 466.351 104.663Z" fill="#DEDEDE"/>
<path d="M466.351 112.206H508.782C510.604 112.206 512.082 113.684 512.082 115.507C512.082 117.328 510.604 118.806 508.782 118.806H466.351C464.528 118.806 463.049 117.328 463.049 115.507C463.051 113.684 464.528 112.206 466.351 112.206Z" fill="#DEDEDE"/>
<path d="M625.23 0H732.721C746.26 0 757.237 10.976 757.237 24.516V67.89C757.237 81.429 746.26 92.405 732.721 92.405H625.23C611.691 92.405 600.713 81.429 600.713 67.89V24.516C600.715 10.976 611.691 0 625.23 0Z" fill="#D9D9D9"/>
<path d="M618.631 107.492C625.922 107.492 631.832 101.582 631.832 94.291C631.832 87.0003 625.922 81.09 618.631 81.09C611.34 81.09 605.43 87.0003 605.43 94.291C605.43 101.582 611.34 107.492 618.631 107.492Z" fill="#F1F1F1"/>
<path d="M618.631 107.577C611.305 107.577 605.345 101.618 605.345 94.292C605.345 86.966 611.305 81.006 618.631 81.006C625.957 81.006 631.917 86.966 631.917 94.292C631.917 101.617 625.957 107.577 618.631 107.577ZM618.631 84.005C612.959 84.005 608.345 88.619 608.345 94.291C608.345 99.962 612.959 104.576 618.631 104.576C624.303 104.576 628.917 99.962 628.917 94.291C628.917 88.62 624.303 84.005 618.631 84.005Z" fill="#A4A4A4"/>
<path d="M637.96 96.177H690.763C692.584 96.177 694.064 97.654 694.064 99.477C694.064 101.301 692.585 102.777 690.763 102.777H637.96C636.138 102.777 634.66 101.301 634.66 99.477C634.66 97.654 636.138 96.177 637.96 96.177Z" fill="#DEDEDE"/>
<path d="M637.96 104.663H726.594C728.414 104.663 729.894 106.142 729.894 107.965C729.894 109.787 728.415 111.265 726.594 111.265H637.96C636.138 111.265 634.66 109.787 634.66 107.965C634.66 106.14 636.138 104.663 637.96 104.663Z" fill="#DEDEDE"/>
<path d="M637.96 112.206H680.392C682.212 112.206 683.693 113.684 683.693 115.507C683.693 117.328 682.214 118.806 680.392 118.806H637.96C636.138 118.806 634.66 117.328 634.66 115.507C634.66 113.684 636.138 112.206 637.96 112.206Z" fill="#DEDEDE"/>
<path d="M453.622 133.893H559.226C572.766 133.893 583.743 144.87 583.743 158.409V201.782C583.743 215.323 572.766 226.299 559.226 226.299H453.622C440.083 226.299 429.107 215.323 429.107 201.782V158.409C429.107 144.87 440.083 133.893 453.622 133.893Z" fill="#D9D9D9"/>
<path d="M447.021 241.383C454.311 241.383 460.221 235.473 460.221 228.183C460.221 220.893 454.311 214.983 447.021 214.983C439.731 214.983 433.821 220.893 433.821 228.183C433.821 235.473 439.731 241.383 447.021 241.383Z" fill="#F1F1F1"/>
<path d="M447.021 241.471C439.695 241.471 433.734 235.51 433.734 228.184C433.734 220.858 439.695 214.897 447.021 214.897C454.347 214.897 460.307 220.858 460.307 228.184C460.307 235.51 454.347 241.471 447.021 241.471ZM447.021 217.897C441.349 217.897 436.734 222.512 436.734 228.184C436.734 233.856 441.349 238.471 447.021 238.471C452.693 238.471 457.307 233.856 457.307 228.184C457.307 222.512 452.693 217.897 447.021 217.897Z" fill="#A4A4A4"/>
<path d="M466.351 230.069H519.154C520.976 230.069 522.455 231.548 522.455 233.37C522.455 235.194 520.976 236.672 519.154 236.672H466.351C464.528 236.672 463.049 235.194 463.049 233.37C463.051 231.547 464.528 230.069 466.351 230.069Z" fill="#DEDEDE"/>
<path d="M466.351 238.555H554.04C555.861 238.555 557.339 240.034 557.339 241.856C557.339 243.68 555.861 245.157 554.04 245.157H466.351C464.528 245.157 463.049 243.68 463.049 241.856C463.051 240.034 464.528 238.555 466.351 238.555Z" fill="#DEDEDE"/>
<path d="M466.351 246.098H508.782C510.604 246.098 512.082 247.577 512.082 249.399C512.082 251.221 510.604 252.7 508.782 252.7H466.351C464.528 252.7 463.049 251.221 463.049 249.399C463.051 247.577 464.528 246.098 466.351 246.098Z" fill="#DEDEDE"/>
<path d="M625.23 133.893H732.721C746.26 133.893 757.237 144.87 757.237 158.409V201.782C757.237 215.323 746.26 226.299 732.721 226.299H625.23C611.691 226.299 600.713 215.323 600.713 201.782V158.409C600.715 144.87 611.691 133.893 625.23 133.893Z" fill="#D9D9D9"/>
<path d="M618.631 241.383C625.921 241.383 631.831 235.473 631.831 228.183C631.831 220.893 625.921 214.983 618.631 214.983C611.341 214.983 605.431 220.893 605.431 228.183C605.431 235.473 611.341 241.383 618.631 241.383Z" fill="#F1F1F1"/>
<path d="M618.631 241.471C611.305 241.471 605.344 235.51 605.344 228.184C605.344 220.858 611.305 214.897 618.631 214.897C625.957 214.897 631.918 220.858 631.918 228.184C631.918 235.51 625.957 241.471 618.631 241.471ZM618.631 217.897C612.959 217.897 608.344 222.512 608.344 228.184C608.344 233.856 612.959 238.471 618.631 238.471C624.303 238.471 628.918 233.856 628.918 228.184C628.918 222.512 624.303 217.897 618.631 217.897Z" fill="#A4A4A4"/>
<path d="M637.96 230.069H690.763C692.584 230.069 694.064 231.548 694.064 233.37C694.064 235.194 692.585 236.672 690.763 236.672H637.96C636.138 236.672 634.66 235.194 634.66 233.37C634.66 231.547 636.138 230.069 637.96 230.069Z" fill="#DEDEDE"/>
<path d="M637.96 238.555H726.594C728.414 238.555 729.894 240.034 729.894 241.856C729.894 243.68 728.415 245.157 726.594 245.157H637.96C636.138 245.157 634.66 243.68 634.66 241.856C634.66 240.034 636.138 238.555 637.96 238.555Z" fill="#DEDEDE"/>
<path d="M637.96 246.098H680.392C682.212 246.098 683.693 247.577 683.693 249.399C683.693 251.221 682.214 252.7 680.392 252.7H637.96C636.138 252.7 634.66 251.221 634.66 249.399C634.66 247.577 636.138 246.098 637.96 246.098Z" fill="#DEDEDE"/>
<path d="M381.469 99.7531H294.004V109.753H381.469V99.7531Z" fill="#B8B8B8"/>
<path d="M359.656 134.125L352.584 127.055L374.32 105.319L352.585 83.5861L359.655 76.5151L388.463 105.319L359.656 134.125Z" fill="#B8B8B8"/>
</svg>
