<svg xmlns="http://www.w3.org/2000/svg" xmlns:xlink="http://www.w3.org/1999/xlink" width="759.531" height="553.975" viewBox="0 0 759.531 553.975"><defs><linearGradient id="a" x1="-0.049" y1="0.53" x2="1" y2="0.529" gradientUnits="objectBoundingBox"><stop offset="0" stop-color="#e5e5e5"/><stop offset="0.431" stop-color="#fff"/><stop offset="0.556" stop-color="#fff"/><stop offset="1" stop-color="#e6e6e6"/><stop offset="1" stop-color="#efefef"/></linearGradient></defs><g transform="translate(-9947 2742)"><path d="M30,0H729.532a30,30,0,0,1,30,30v82.049a0,0,0,0,1,0,0H0a0,0,0,0,1,0,0V30A30,30,0,0,1,30,0Z" transform="translate(9947 -2742)" fill="url(#a)"/><g transform="translate(9947 -2716.5)"><path d="M13678.588,16256.861v413.752a28.363,28.363,0,0,1-28.362,28.361H12947.8a28.363,28.363,0,0,1-28.362-28.361v-413.752Z" transform="translate(-12919.438 -16170.5)" fill="#fff"/></g><g transform="translate(10103.763 -2585.7)"><rect width="554.155" height="1" fill="#707070"/></g><g transform="translate(10108.862 -2498)"><rect width="451.995" height="1" fill="#707070"/></g><g transform="translate(10560.362 -2585.2)"><rect width="1" height="396.775" fill="#707070"/></g><g transform="translate(10092.563 -2585.2)"><rect width="1" height="396.775" fill="#707070"/></g><g transform="translate(10108.862 -2413.301)"><rect width="451.995" height="1" fill="#707070"/></g><g transform="translate(9966.563 -2585.7)"><rect width="137.2" height="1" fill="#707070"/></g><g transform="translate(10053.782 -2654.1)"><path d="M13035.2,16232.9h103.048a8.982,8.982,0,0,1,8.981,8.98h0a8.981,8.981,0,0,1-8.981,8.981H13035.2a8.981,8.981,0,0,1-8.98-8.981h0A9.057,9.057,0,0,1,13035.2,16232.9Z" transform="translate(-13026.22 -16232.9)" fill="#d6d6d6"/></g><g transform="translate(10163.515 -2603)"><path d="M13142.1,16284h53.887a6.146,6.146,0,0,1,6.146,6.145h0a6.146,6.146,0,0,1-6.146,6.146H13142.1a6.146,6.146,0,0,1-6.146-6.146h0A6.077,6.077,0,0,1,13142.1,16284Z" transform="translate(-13135.952 -16284)" fill="#afafaf"/></g><g transform="translate(10048.108 -2674.9)"><path d="M13030,16212.1h177.733a9.453,9.453,0,0,1,9.454,9.453h0a9.454,9.454,0,0,1-9.454,9.455H13030a9.454,9.454,0,0,1-9.454-9.455h0A9.547,9.547,0,0,1,13030,16212.1Z" transform="translate(-13020.546 -16212.1)" fill="#afafaf"/></g><g transform="translate(10108.616 -2516.1)"><path d="M13087.2,16370.9h53.888a6.145,6.145,0,0,1,6.145,6.145h0a6.144,6.144,0,0,1-6.145,6.145H13087.2a6.146,6.146,0,0,1-6.146-6.145h0A6.2,6.2,0,0,1,13087.2,16370.9Z" transform="translate(-13081.054 -16370.9)" fill="#afafaf"/></g><g transform="translate(10108.616 -2432.9)"><path d="M13087.2,16454.1h53.888a6.144,6.144,0,0,1,6.145,6.145h0a6.145,6.145,0,0,1-6.145,6.145H13087.2a6.147,6.147,0,0,1-6.146-6.145h0A6.2,6.2,0,0,1,13087.2,16454.1Z" transform="translate(-13081.054 -16454.1)" fill="#afafaf"/></g><g transform="translate(9958.196 -2457.574)"><g transform="translate(0.135 0.137)"><path d="M326.4,95.563h80.358A23.635,23.635,0,0,1,430.4,119.2v55.779a23.635,23.635,0,0,1-23.635,23.635H326.4a23.636,23.636,0,0,1-23.635-23.635V119.2A23.637,23.637,0,0,1,326.4,95.563Z" transform="translate(-302.769 -95.563)" fill="#f6f6f6"/></g><path d="M406.763,198.747H326.4a23.8,23.8,0,0,1-23.771-23.771V119.2A23.8,23.8,0,0,1,326.4,95.426h80.358A23.8,23.8,0,0,1,430.534,119.2v55.779A23.8,23.8,0,0,1,406.763,198.747ZM326.4,100.427A18.792,18.792,0,0,0,307.633,119.2v55.779A18.793,18.793,0,0,0,326.4,193.748h80.358a18.792,18.792,0,0,0,18.771-18.771V119.2a18.793,18.793,0,0,0-18.771-18.771H326.4Z" transform="translate(-302.634 -95.426)" fill="#1e783c"/></g><g transform="translate(10246.715 -2603)"><path d="M13225.3,16284h53.887a6.147,6.147,0,0,1,6.146,6.145h0a6.147,6.147,0,0,1-6.146,6.146H13225.3a6.147,6.147,0,0,1-6.146-6.146h0A6.077,6.077,0,0,1,13225.3,16284Z" transform="translate(-13219.152 -16284)" fill="#afafaf"/></g><g transform="translate(10108.616 -2402.6)"><path d="M13087.2,16484.4h138.027a6.147,6.147,0,0,1,6.145,6.146h0a6.145,6.145,0,0,1-6.145,6.145H13087.2a6.147,6.147,0,0,1-6.146-6.145h0A6.138,6.138,0,0,1,13087.2,16484.4Z" transform="translate(-13081.054 -16484.4)" fill="#d6d6d6"/></g><g transform="translate(10128.314 -2563.283)"><g transform="translate(123.985)"><path d="M423.065,101.677h283.1a6.129,6.129,0,0,1,6.129,6.129h0a6.129,6.129,0,0,1-6.129,6.128h-283.1a6.129,6.129,0,0,1-6.129-6.128h0A6.13,6.13,0,0,1,423.065,101.677Z" transform="translate(-416.936 -101.677)" fill="#d6d6d6"/></g><g transform="translate(0 18.189)"><path d="M299.08,119.866H706.165a6.128,6.128,0,0,1,6.129,6.128h0a6.128,6.128,0,0,1-6.129,6.128H299.08a6.129,6.129,0,0,1-6.129-6.128h0A6.128,6.128,0,0,1,299.08,119.866Z" transform="translate(-292.951 -119.866)" fill="#d6d6d6"/></g></g><g transform="translate(10573.936 -2563.283)"><g transform="translate(0.205)"><path d="M273.545,101.677h91.117a6.129,6.129,0,0,1,6.129,6.129h0a6.129,6.129,0,0,1-6.129,6.128H273.545a6.129,6.129,0,0,1-6.129-6.128h0A6.129,6.129,0,0,1,273.545,101.677Z" transform="translate(-267.416 -101.677)" fill="#d6d6d6"/></g><g transform="translate(0 18.189)"><path d="M273.342,119.866h91.129a6.13,6.13,0,0,1,6.13,6.128h0a6.13,6.13,0,0,1-6.13,6.128H273.342a6.129,6.129,0,0,1-6.131-6.128h0A6.129,6.129,0,0,1,273.342,119.866Z" transform="translate(-267.211 -119.866)" fill="#d6d6d6"/></g></g><g transform="translate(10128.314 -2480.251)"><g transform="translate(60.327)"><path d="M359.407,96.881H706.165a6.129,6.129,0,0,1,6.129,6.128h0a6.128,6.128,0,0,1-6.129,6.128H359.407a6.129,6.129,0,0,1-6.129-6.128h0A6.129,6.129,0,0,1,359.407,96.881Z" transform="translate(-353.278 -96.881)" fill="#d6d6d6"/></g><g transform="translate(0 18.188)"><path d="M299.08,115.069H706.165a6.129,6.129,0,0,1,6.129,6.129h0a6.128,6.128,0,0,1-6.129,6.128H299.08a6.128,6.128,0,0,1-6.129-6.128h0A6.129,6.129,0,0,1,299.08,115.069Z" transform="translate(-292.951 -115.069)" fill="#d6d6d6"/></g></g><g transform="translate(9964.004 -2560.485)"><path d="M308.6,101.129h112.5a6.145,6.145,0,0,1,6.145,6.145h0a6.146,6.146,0,0,1-6.145,6.146H308.6a6.145,6.145,0,0,1-6.146-6.146h0A6.147,6.147,0,0,1,308.6,101.129Z" transform="translate(-302.458 -101.129)" fill="#d6d6d6"/><g transform="translate(0 22.69)"><path d="M308.6,123.819h69.014a6.145,6.145,0,0,1,6.145,6.145h0a6.146,6.146,0,0,1-6.145,6.146H308.6a6.145,6.145,0,0,1-6.146-6.146h0A6.146,6.146,0,0,1,308.6,123.819Z" transform="translate(-302.458 -123.819)" fill="#d6d6d6"/></g><g transform="translate(0 45.379)"><path d="M308.6,146.508h52.941a6.145,6.145,0,0,1,6.146,6.145h0a6.145,6.145,0,0,1-6.146,6.145H308.6a6.145,6.145,0,0,1-6.146-6.145h0A6.147,6.147,0,0,1,308.6,146.508Z" transform="translate(-302.458 -146.508)" fill="#d6d6d6"/></g><g transform="translate(0 68.069)"><path d="M308.6,97.681h29.307a6.145,6.145,0,0,1,6.146,6.145h0a6.145,6.145,0,0,1-6.146,6.145H308.6a6.145,6.145,0,0,1-6.146-6.145h0A6.146,6.146,0,0,1,308.6,97.681Z" transform="translate(-302.458 -97.681)" fill="#d6d6d6"/><g transform="translate(1.892 0.945)"><path d="M309.55,98.626h7.563a5.2,5.2,0,0,1,5.2,5.2h0a5.2,5.2,0,0,1-5.2,5.2H309.55a5.2,5.2,0,0,1-5.2-5.2h0A5.2,5.2,0,0,1,309.55,98.626Z" transform="translate(-304.35 -98.626)" fill="#fff"/></g></g><g transform="translate(51.052 68.069)"><path d="M305.285,97.681h29.308a6.145,6.145,0,0,1,6.145,6.145h0a6.145,6.145,0,0,1-6.145,6.145H305.285a6.145,6.145,0,0,1-6.145-6.145h0A6.146,6.146,0,0,1,305.285,97.681Z" transform="translate(-299.14 -97.681)" fill="#d6d6d6"/><g transform="translate(1.892 0.945)"><path d="M306.231,98.626h7.563a5.2,5.2,0,0,1,5.2,5.2h0a5.2,5.2,0,0,1-5.2,5.2h-7.563a5.2,5.2,0,0,1-5.2-5.2h0A5.2,5.2,0,0,1,306.231,98.626Z" transform="translate(-301.032 -98.626)" fill="#fff"/></g></g></g><g transform="translate(10142.685 -2378.023)"><path d="M317.1,91.205H463.633a24.58,24.58,0,0,1,24.579,24.58v68.068a24.579,24.579,0,0,1-24.579,24.58H317.1a24.58,24.58,0,0,1-24.58-24.58V115.785A24.58,24.58,0,0,1,317.1,91.205Z" transform="translate(-292.517 -91.205)" fill="#d9d9d9"/><g transform="translate(5.589 102.966)"><g transform="translate(0.083 0.082)"><circle cx="16.544" cy="16.544" r="16.544" fill="#f1f1f1"/></g><path d="M308.338,118.194a16.626,16.626,0,1,1,16.626-16.626A16.645,16.645,0,0,1,308.338,118.194Zm0-30.252a13.626,13.626,0,1,0,13.626,13.626A13.642,13.642,0,0,0,308.338,87.942Z" transform="translate(-291.711 -84.942)" fill="#606060"/></g><g transform="translate(42.542 121.955)"><path d="M338.841,213.16h68.068a3.781,3.781,0,0,1,3.781,3.781h0a3.781,3.781,0,0,1-3.781,3.782H338.841a3.781,3.781,0,0,1-3.782-3.782h0A3.782,3.782,0,0,1,338.841,213.16Z" transform="translate(-335.059 -213.16)" fill="#dedede"/></g><g transform="translate(42.542 132.355)"><path d="M338.841,223.56h112.5a3.781,3.781,0,0,1,3.782,3.781h0a3.781,3.781,0,0,1-3.782,3.782h-112.5a3.781,3.781,0,0,1-3.782-3.782h0A3.781,3.781,0,0,1,338.841,223.56Z" transform="translate(-335.059 -223.56)" fill="#dedede"/></g><g transform="translate(42.542 142.754)"><path d="M338.841,233.959h54.832a3.781,3.781,0,0,1,3.782,3.781h0a3.781,3.781,0,0,1-3.782,3.782H338.841a3.781,3.781,0,0,1-3.782-3.782h0A3.781,3.781,0,0,1,338.841,233.959Z" transform="translate(-335.059 -233.959)" fill="#dedede"/></g></g><g transform="translate(10344.052 -2378.023)"><path d="M304.75,91.205H452.23a24.581,24.581,0,0,1,24.581,24.58v68.068a24.58,24.58,0,0,1-24.581,24.58H304.75a24.58,24.58,0,0,1-24.581-24.58V115.785A24.581,24.581,0,0,1,304.75,91.205Z" transform="translate(-280.169 -91.205)" fill="#d9d9d9"/><g transform="translate(6.536 102.966)"><g transform="translate(0.082 0.082)"><circle cx="16.544" cy="16.544" r="16.544" fill="#f1f1f1"/></g><path d="M296.651,118.194a16.626,16.626,0,1,1,16.627-16.626A16.644,16.644,0,0,1,296.651,118.194Zm0-30.252a13.626,13.626,0,1,0,13.627,13.626A13.641,13.641,0,0,0,296.651,87.942Z" transform="translate(-280.025 -84.942)" fill="#606060"/></g><g transform="translate(43.488 121.955)"><path d="M327.439,213.16h67.122a3.781,3.781,0,0,1,3.782,3.781h0a3.781,3.781,0,0,1-3.782,3.782H327.439a3.781,3.781,0,0,1-3.782-3.782h0A3.783,3.783,0,0,1,327.439,213.16Z" transform="translate(-323.657 -213.16)" fill="#dedede"/></g><g transform="translate(43.488 132.355)"><path d="M327.439,223.56h112.5a3.781,3.781,0,0,1,3.782,3.781h0a3.781,3.781,0,0,1-3.782,3.782h-112.5a3.781,3.781,0,0,1-3.782-3.782h0A3.782,3.782,0,0,1,327.439,223.56Z" transform="translate(-323.657 -223.56)" fill="#dedede"/></g><g transform="translate(43.488 142.754)"><path d="M327.439,233.959h54.832a3.781,3.781,0,0,1,3.782,3.781h0a3.781,3.781,0,0,1-3.782,3.782H327.439a3.781,3.781,0,0,1-3.782-3.782h0A3.782,3.782,0,0,1,327.439,233.959Z" transform="translate(-323.657 -233.959)" fill="#dedede"/></g></g><g transform="translate(9986.557 -2689.195)"><g transform="translate(4.864 4.864)"><circle cx="43.488" cy="43.488" r="43.488" fill="#fff"/></g><path d="M344.346,200.509A48.352,48.352,0,1,1,392.7,152.157,48.407,48.407,0,0,1,344.346,200.509Zm0-91.7A43.352,43.352,0,1,0,387.7,152.157,43.4,43.4,0,0,0,344.346,108.805Z" transform="translate(-295.994 -103.805)" fill="#707070"/><g transform="translate(4.656 4.864)"><g transform="translate(30.366 21.289)"><path d="M343.745,129.959a12.582,12.582,0,0,0-12.509,12.653v.07a13.3,13.3,0,0,0,12.974,12.447,12.763,12.763,0,0,0,12.342-12.9C356.489,135.113,351.008,129.863,343.745,129.959Z" transform="translate(-331.236 -129.958)" fill="#afafaf"/></g><path d="M344.59,108.669a43.72,43.72,0,1,0,43.721,43.72h0A43.721,43.721,0,0,0,344.59,108.669Zm26.452,66.608c-9.569-17.3-42.125-18.079-53.77-1.282-8.751-7.732-10.856-22.283-6.414-34.317a35.9,35.9,0,0,1,3.919-7.533,29.433,29.433,0,0,1,2.936-3.569,43.3,43.3,0,0,1,13.435-9.635,36.022,36.022,0,0,1,27.085.079,43.515,43.515,0,0,1,13.826,10.222c.676.729,1.309,1.49,1.908,2.269a36,36,0,0,1,3.534,35.582,26.171,26.171,0,0,1-6.459,8.184Z" transform="translate(-300.87 -108.669)" fill="#afafaf"/></g></g><g transform="translate(10522.281 -2689.414)"><path d="M290.443,108.962H382.3a20.248,20.248,0,0,1,20.248,20.248h0A20.248,20.248,0,0,1,382.3,149.458h-91.86A20.248,20.248,0,0,1,270.2,129.21h0A20.249,20.249,0,0,1,290.443,108.962Z" transform="translate(-270.195 -108.962)" fill="#b1aeae"/><g transform="translate(28.908 10.674)"><path d="M310.958,135.125a9.322,9.322,0,0,1-4.387.931,7.075,7.075,0,0,1-5.429-2.183,8.053,8.053,0,0,1-2.039-5.728,8.441,8.441,0,0,1,2.294-6.16,7.782,7.782,0,0,1,5.816-2.349,9.314,9.314,0,0,1,3.744.654v1.983a7.6,7.6,0,0,0-3.767-.953,5.782,5.782,0,0,0-4.438,1.828,6.887,6.887,0,0,0-1.7,4.886,6.549,6.549,0,0,0,1.59,4.625,5.411,5.411,0,0,0,4.171,1.723,7.826,7.826,0,0,0,4.144-1.063v1.806Z" transform="translate(-299.103 -119.636)" fill="#fff"/><path d="M318.691,136.055a5.264,5.264,0,0,1-4.017-1.59,5.888,5.888,0,0,1-1.5-4.216,6.134,6.134,0,0,1,1.563-4.465,5.614,5.614,0,0,1,4.221-1.606,5.088,5.088,0,0,1,3.961,1.563,6.2,6.2,0,0,1,1.424,4.332,6.1,6.1,0,0,1-1.535,4.349A5.381,5.381,0,0,1,318.691,136.055Zm.133-10.347a3.456,3.456,0,0,0-2.77,1.191,4.889,4.889,0,0,0-1.02,3.285,4.632,4.632,0,0,0,1.03,3.18,3.5,3.5,0,0,0,2.759,1.163,3.322,3.322,0,0,0,2.709-1.141,4.952,4.952,0,0,0,.947-3.246,5.039,5.039,0,0,0-.947-3.279A3.3,3.3,0,0,0,318.824,125.708Z" transform="translate(-299.103 -119.636)" fill="#fff"/><path d="M336.661,135.789h-1.816v-6.47q0-3.612-2.637-3.611a2.861,2.861,0,0,0-2.255,1.024,3.8,3.8,0,0,0-.892,2.587v6.47h-1.817V124.444h1.817v1.883h.044a4.094,4.094,0,0,1,3.723-2.149,3.475,3.475,0,0,1,2.848,1.2,5.357,5.357,0,0,1,.985,3.473v6.936Z" transform="translate(-299.103 -119.636)" fill="#fff"/><path d="M345.347,135.678a3.508,3.508,0,0,1-1.7.354q-2.979,0-2.98-3.324v-6.713h-1.949v-1.551h1.949v-2.77l1.817-.587v3.357h2.858V126h-2.858v6.392a2.647,2.647,0,0,0,.388,1.629,1.548,1.548,0,0,0,1.285.487,1.911,1.911,0,0,0,1.186-.376v1.551Z" transform="translate(-299.103 -119.636)" fill="#fff"/><path d="M355.894,135.789h-1.817v-1.772h-.044a3.8,3.8,0,0,1-3.49,2.039,3.728,3.728,0,0,1-2.653-.9,3.109,3.109,0,0,1-.958-2.382q0-3.18,3.745-3.7l3.4-.476q0-2.892-2.337-2.892a5.583,5.583,0,0,0-3.7,1.4v-1.861a7.029,7.029,0,0,1,3.855-1.064q4,0,4,4.232Zm-1.818-5.739-2.736.376a4.432,4.432,0,0,0-1.9.626,1.8,1.8,0,0,0-.643,1.59,1.729,1.729,0,0,0,.593,1.357,2.288,2.288,0,0,0,1.578.526,2.912,2.912,0,0,0,2.232-.947,3.38,3.38,0,0,0,.881-2.4Z" transform="translate(-299.103 -119.636)" fill="#fff"/><path d="M367.051,135.269a5.908,5.908,0,0,1-3.1.787,5.134,5.134,0,0,1-3.916-1.579,5.722,5.722,0,0,1-1.49-4.093,6.29,6.29,0,0,1,1.606-4.5,5.622,5.622,0,0,1,4.287-1.7,5.979,5.979,0,0,1,2.638.554v1.861a4.623,4.623,0,0,0-2.7-.886,3.655,3.655,0,0,0-2.853,1.246,4.726,4.726,0,0,0-1.113,3.274,4.5,4.5,0,0,0,1.047,3.146,3.609,3.609,0,0,0,2.809,1.152,4.552,4.552,0,0,0,2.792-.986v1.729Z" transform="translate(-299.103 -119.636)" fill="#fff"/><path d="M375.061,135.678a3.508,3.508,0,0,1-1.7.354q-2.979,0-2.98-3.324v-6.713h-1.949v-1.551h1.949v-2.77l1.817-.587v3.357h2.858V126H372.2v6.392a2.647,2.647,0,0,0,.388,1.629,1.548,1.548,0,0,0,1.285.487,1.911,1.911,0,0,0,1.186-.376v1.551Z" transform="translate(-299.103 -119.636)" fill="#fff"/></g></g><g transform="translate(10573.936 -2412.639)"><g transform="translate(0.205)"><path d="M273.545,92.976h91.117a6.128,6.128,0,0,1,6.129,6.128h0a6.129,6.129,0,0,1-6.129,6.129H273.545a6.129,6.129,0,0,1-6.129-6.129h0A6.128,6.128,0,0,1,273.545,92.976Z" transform="translate(-267.416 -92.976)" fill="#d6d6d6"/></g><g transform="translate(0 18.188)"><path d="M273.342,111.164h91.129a6.13,6.13,0,0,1,6.13,6.129h0a6.13,6.13,0,0,1-6.13,6.128H273.342a6.129,6.129,0,0,1-6.131-6.128h0A6.129,6.129,0,0,1,273.342,111.164Z" transform="translate(-267.211 -111.164)" fill="#d6d6d6"/></g><g transform="translate(0 38.748)"><g transform="translate(0.205)"><path d="M273.545,90.738h91.117a6.129,6.129,0,0,1,6.129,6.129h0a6.129,6.129,0,0,1-6.129,6.128H273.545a6.129,6.129,0,0,1-6.129-6.128h0A6.129,6.129,0,0,1,273.545,90.738Z" transform="translate(-267.416 -90.738)" fill="#d6d6d6"/></g><g transform="translate(0 18.187)"><path d="M273.342,108.925h91.129a6.13,6.13,0,0,1,6.13,6.129h0a6.13,6.13,0,0,1-6.13,6.129H273.342a6.129,6.129,0,0,1-6.131-6.129h0A6.129,6.129,0,0,1,273.342,108.925Z" transform="translate(-267.211 -108.925)" fill="#d6d6d6"/></g></g></g><g transform="translate(9988.363 -2442.596)"><path d="M12973.1,16458.8a10.418,10.418,0,0,1-5.067,1.238,7.056,7.056,0,0,1-5.23-2.01,7.217,7.217,0,0,1-2-5.322,7.484,7.484,0,0,1,2.189-5.551,7.572,7.572,0,0,1,5.56-2.168,10.383,10.383,0,0,1,4.083.711v2.488a7.033,7.033,0,0,0-3.992-1.117,5.082,5.082,0,0,0-3.813,1.535,5.456,5.456,0,0,0-1.488,3.969,5.72,5.72,0,0,0,1.279,3.945,4.415,4.415,0,0,0,3.474,1.438,5.494,5.494,0,0,0,2.6-.578v-3.463h-3.067v-2.031h5.474v6.916Z" transform="translate(-12960.801 -16444.404)" fill="#565656"/><path d="M12980.6,16460.1a5.151,5.151,0,0,1-3.844-1.457,5.263,5.263,0,0,1-1.438-3.863,5.134,5.134,0,0,1,5.535-5.566,4.991,4.991,0,0,1,3.8,1.434,5.53,5.53,0,0,1,1.36,3.969,5.106,5.106,0,0,1-5.412,5.484Zm.1-9a2.693,2.693,0,0,0-2.184.965,4.047,4.047,0,0,0-.8,2.66,3.8,3.8,0,0,0,.813,2.574,2.729,2.729,0,0,0,2.173.941,2.589,2.589,0,0,0,2.139-.926,4.09,4.09,0,0,0,.746-2.629,4.165,4.165,0,0,0-.746-2.652A2.644,2.644,0,0,0,12980.7,16451.1Z" transform="translate(-12960.801 -16444.404)" fill="#565656"/><path d="M12993,16460.1a5.153,5.153,0,0,1-3.844-1.457,5.266,5.266,0,0,1-1.437-3.863,5.134,5.134,0,0,1,5.534-5.566,4.99,4.99,0,0,1,3.8,1.434,5.526,5.526,0,0,1,1.361,3.969,5.448,5.448,0,0,1-1.469,3.986A5.151,5.151,0,0,1,12993,16460.1Zm.1-9a2.691,2.691,0,0,0-2.184.965,4.047,4.047,0,0,0-.8,2.66,3.8,3.8,0,0,0,.813,2.574,2.726,2.726,0,0,0,2.173.941,2.589,2.589,0,0,0,2.138-.926,4.084,4.084,0,0,0,.746-2.629,4.159,4.159,0,0,0-.746-2.652A2.511,2.511,0,0,0,12993.1,16451.1Z" transform="translate(-12960.801 -16444.404)" fill="#565656"/><path d="M13010.3,16459q0,5.728-5.758,5.729a8.557,8.557,0,0,1-3.545-.682v-2.152a6.553,6.553,0,0,0,3.24.975q3.706,0,3.707-3.645v-1.139h-.041a4.088,4.088,0,0,1-6.577.6,5.6,5.6,0,0,1-1.162-3.721,6.569,6.569,0,0,1,1.248-4.215,4.156,4.156,0,0,1,3.434-1.564,3.308,3.308,0,0,1,3.057,1.688h.041v-1.443h2.355V16459Zm-2.4-3.9v-1.352a2.644,2.644,0,0,0-.727-1.873,2.379,2.379,0,0,0-1.813-.777,2.49,2.49,0,0,0-2.1.99,4.468,4.468,0,0,0-.757,2.768,3.845,3.845,0,0,0,.727,2.453,2.326,2.326,0,0,0,1.924.918,2.5,2.5,0,0,0,1.98-.879A3.175,3.175,0,0,0,13007.9,16455.1Z" transform="translate(-12960.801 -16444.404)" fill="#565656"/><path d="M13015.7,16459.8h-2.367v-15.4h2.367Z" transform="translate(-12960.801 -16444.404)" fill="#565656"/><path d="M13027.6,16455.3h-7.088a3,3,0,0,0,.889,2.225,3.311,3.311,0,0,0,2.33.781,5.134,5.134,0,0,0,3.057-1v1.9a6.98,6.98,0,0,1-3.757.893,4.656,4.656,0,0,1-3.6-1.416,5.673,5.673,0,0,1-1.3-3.986,5.532,5.532,0,0,1,1.438-3.955,4.7,4.7,0,0,1,3.569-1.529,4.1,4.1,0,0,1,3.3,1.371,5.689,5.689,0,0,1,1.168,3.809v.9Zm-2.3-1.7a3.036,3.036,0,0,0-.6-1.975,2,2,0,0,0-1.625-.705,2.284,2.284,0,0,0-1.722.74,3.379,3.379,0,0,0-.868,1.939Z" transform="translate(-12960.801 -16444.404)" fill="#565656"/></g><g transform="translate(10002.122 -2417.162)"><path d="M12990.2,16484.4h-2.4v-9.424q0-1.157.142-2.834h-.04a9.8,9.8,0,0,1-.4,1.371l-4.348,10.887h-1.665l-4.356-10.8a10.183,10.183,0,0,1-.387-1.453h-.04q.081.876.081,2.855v9.4h-2.234v-14.562h3.4l3.828,9.7a14.682,14.682,0,0,1,.569,1.664h.051q.376-1.146.609-1.705l3.9-9.658h3.28v14.563Z" transform="translate(-12974.56 -16469.838)" fill="#565656"/><path d="M13001.5,16484.4h-2.285v-1.625h-.041a3.442,3.442,0,0,1-3.158,1.871,3.333,3.333,0,0,1-2.4-.834,2.92,2.92,0,0,1-.867-2.205q0-2.944,3.392-3.432l3.087-.436q0-2.227-2.112-2.225a5.011,5.011,0,0,0-3.351,1.279v-2.062a7.317,7.317,0,0,1,3.8-.975q3.94,0,3.941,3.881Zm-2.2-5.1-2.184.3a3.457,3.457,0,0,0-1.527.492,1.437,1.437,0,0,0-.514,1.264,1.385,1.385,0,0,0,.473,1.082,1.826,1.826,0,0,0,1.264.422,2.335,2.335,0,0,0,1.783-.756,2.687,2.687,0,0,0,.705-1.9Z" transform="translate(-12974.56 -16469.838)" fill="#565656"/><path d="M13006.8,16482.9h-.04v6.316h-2.356v-15.184h2.356v1.828h.04a3.864,3.864,0,0,1,3.535-2.072,3.723,3.723,0,0,1,3.087,1.393,5.832,5.832,0,0,1,1.106,3.736,6.486,6.486,0,0,1-1.248,4.164,4.134,4.134,0,0,1-3.413,1.564A3.7,3.7,0,0,1,13006.8,16482.9Zm0-4.1v1.289a2.754,2.754,0,0,0,.727,1.93,2.565,2.565,0,0,0,3.9-.229,4.749,4.749,0,0,0,.747-2.848,3.741,3.741,0,0,0-.7-2.4,2.289,2.289,0,0,0-1.884-.869,2.535,2.535,0,0,0-2.025.895A2.953,2.953,0,0,0,13006.8,16478.8Z" transform="translate(-12974.56 -16469.838)" fill="#565656"/></g><g transform="translate(9983.099 -2393.281)"><path d="M12963.6,16509h-8.063v-14.564h2.416v12.521h5.646V16509Z" transform="translate(-12955.536 -16493.719)" fill="#565656"/><path d="M12970.1,16509.2a5.151,5.151,0,0,1-3.844-1.457,5.263,5.263,0,0,1-1.438-3.863,5.134,5.134,0,0,1,5.535-5.566,4.984,4.984,0,0,1,3.8,1.434,5.53,5.53,0,0,1,1.36,3.969,5.1,5.1,0,0,1-5.412,5.484Zm.1-9a2.693,2.693,0,0,0-2.184.965,4.047,4.047,0,0,0-.8,2.66,3.8,3.8,0,0,0,.813,2.574,2.723,2.723,0,0,0,2.173.941,2.589,2.589,0,0,0,2.139-.926,4.09,4.09,0,0,0,.746-2.629,4.165,4.165,0,0,0-.746-2.652A2.644,2.644,0,0,0,12970.2,16500.2Z" transform="translate(-12955.536 -16493.719)" fill="#565656"/><path d="M12985.3,16508.5a5.812,5.812,0,0,1-2.955.721,5,5,0,0,1-3.737-1.445,5.128,5.128,0,0,1-1.422-3.754,5.641,5.641,0,0,1,1.528-4.129,5.465,5.465,0,0,1,4.088-1.559,5.962,5.962,0,0,1,2.508.5v2.193a3.8,3.8,0,0,0-2.314-.812,3.209,3.209,0,0,0-2.448,1.012,3.692,3.692,0,0,0-.954,2.645,3.521,3.521,0,0,0,.9,2.549,3.191,3.191,0,0,0,2.412.936,3.766,3.766,0,0,0,2.4-.9Z" transform="translate(-12955.536 -16493.719)" fill="#565656"/><path d="M12995.6,16509h-2.285v-1.625h-.041a3.439,3.439,0,0,1-3.158,1.867,3.332,3.332,0,0,1-2.4-.832,2.912,2.912,0,0,1-.867-2.2q0-2.947,3.392-3.434l3.087-.437q0-2.221-2.112-2.223a5.011,5.011,0,0,0-3.351,1.279v-2.061a7.281,7.281,0,0,1,3.8-.977q3.94,0,3.941,3.879Zm-2.2-5.1-2.184.3a3.457,3.457,0,0,0-1.527.492,1.441,1.441,0,0,0-.514,1.266,1.388,1.388,0,0,0,.473,1.082,1.825,1.825,0,0,0,1.264.42,2.335,2.335,0,0,0,1.783-.756,2.687,2.687,0,0,0,.705-1.9Z" transform="translate(-12955.536 -16493.719)" fill="#565656"/><path d="M13004,16508.9a4.077,4.077,0,0,1-1.817.346q-3.026,0-3.026-2.9v-5.879h-1.736v-1.85h1.736v-2.408l2.355-.668v3.076H13004v1.85h-2.488v5.2a2.052,2.052,0,0,0,.336,1.32,1.391,1.391,0,0,0,1.117.395,1.617,1.617,0,0,0,1.035-.344Z" transform="translate(-12955.536 -16493.719)" fill="#565656"/><path d="M13007.2,16496.4a1.412,1.412,0,0,1-.99-.377,1.23,1.23,0,0,1-.411-.953,1.267,1.267,0,0,1,.411-.965,1.393,1.393,0,0,1,.99-.387,1.439,1.439,0,0,1,1.016.387,1.262,1.262,0,0,1,.417.965,1.244,1.244,0,0,1-.417.939A1.364,1.364,0,0,1,13007.2,16496.4Zm1.2,12.6h-2.356v-10.4h2.356Z" transform="translate(-12955.536 -16493.719)" fill="#565656"/><path d="M13016.1,16509.2a5.151,5.151,0,0,1-3.844-1.457,5.262,5.262,0,0,1-1.437-3.863,5.134,5.134,0,0,1,5.534-5.566,4.979,4.979,0,0,1,3.8,1.434,5.522,5.522,0,0,1,1.361,3.969,5.1,5.1,0,0,1-5.413,5.484Zm.1-9a2.689,2.689,0,0,0-2.184.965,4.042,4.042,0,0,0-.8,2.66,3.8,3.8,0,0,0,.813,2.574,2.721,2.721,0,0,0,2.174.941,2.585,2.585,0,0,0,2.137-.926,4.084,4.084,0,0,0,.747-2.629,4.159,4.159,0,0,0-.747-2.652A2.638,2.638,0,0,0,13016.2,16500.2Z" transform="translate(-12955.536 -16493.719)" fill="#565656"/><path d="M13033.1,16509h-2.355v-5.859q0-2.918-2.062-2.916a2.255,2.255,0,0,0-1.777.807,3,3,0,0,0-.7,2.037V16509h-2.367v-10.4h2.367v1.727h.04a3.7,3.7,0,0,1,3.372-1.971,3.143,3.143,0,0,1,2.59,1.1,4.95,4.95,0,0,1,.893,3.184Z" transform="translate(-12955.536 -16493.719)" fill="#565656"/></g><path d="M7274.92,48.562a29.7,29.7,0,1,0,29.7,29.7,29.7,29.7,0,0,0-29.7-29.7Zm2.07,57.145a25.62,25.62,0,0,1-25.62-25.62c-.547-12.628,10.133-24.586,25.562-19.931,13.784,5.568,13.418,18.44,12.083,23.175-.394,1.4,1.04,1.708,1.586,1.008,2.975-3.795,3.6-5.438,4.728-10.353.821-3.605-.327-8.955-.615-9.847a.945.945,0,0,1,1.623-.851,25.319,25.319,0,0,1,6.278,16.8,25.621,25.621,0,0,1-25.624,25.613v0Z" transform="translate(3051.563 -2774)" fill="#5b5b5b"/></g></svg>