<svg xmlns="http://www.w3.org/2000/svg" xmlns:xlink="http://www.w3.org/1999/xlink" width="760.531" height="703.491" viewBox="0 0 760.531 703.491"><defs><linearGradient id="a" x1="-0.049" y1="0.53" x2="1" y2="0.529" gradientUnits="objectBoundingBox"><stop offset="0" stop-color="#e5e5e5"/><stop offset="0.431" stop-color="#fff"/><stop offset="0.556" stop-color="#fff"/><stop offset="1" stop-color="#e6e6e6"/><stop offset="1" stop-color="#efefef"/></linearGradient><clipPath id="b"><rect width="68.089" height="17.022" transform="translate(592.151 177.19)"/></clipPath></defs><g transform="translate(-7508 2742)"><path d="M1061.693,149.222V712.341a28.4,28.4,0,0,1-28.405,28.4H329.8a28.4,28.4,0,0,1-28.4-28.4V149.223Z" transform="translate(7206.61 -2779.254)" fill="#fff"/><path d="M30,0H730.532a30,30,0,0,1,30,30v82.049a0,0,0,0,1,0,0H0a0,0,0,0,1,0,0V30A30,30,0,0,1,30,0Z" transform="translate(7508 -2742)" fill="url(#a)"/><g transform="translate(7853.61 -2450.254)"><path d="M290.658,19.761h89.949a23.672,23.672,0,0,1,23.671,23.67v208.3A23.673,23.673,0,0,1,380.607,275.4H290.658a23.672,23.672,0,0,1-23.67-23.672V43.431A23.67,23.67,0,0,1,290.658,19.761Z" fill="#fff"/></g><g transform="translate(7853.61 -2450.254)"><path d="M380.607,275.535H290.658a23.83,23.83,0,0,1-23.8-23.8V43.431a23.831,23.831,0,0,1,23.8-23.8h89.949a23.831,23.831,0,0,1,23.8,23.8v208.3A23.831,23.831,0,0,1,380.607,275.535ZM290.658,24.627a18.825,18.825,0,0,0-18.8,18.8v208.3a18.824,18.824,0,0,0,18.8,18.8h89.949a18.825,18.825,0,0,0,18.8-18.8V43.431a18.825,18.825,0,0,0-18.8-18.8H290.658Z" fill="#20783c"/></g><rect width="574.441" height="1" transform="translate(7664.959 -2585.541)" fill="#707070"/><rect width="452.535" height="1" transform="translate(7670.107 -2497.66)" fill="#707070"/><rect width="1" height="546.094" transform="translate(8122.078 -2585.041)" fill="#707070"/><rect width="1" height="546.094" transform="translate(7653.772 -2585.041)" fill="#707070"/><rect width="452.535" height="1" transform="translate(7670.107 -2412.945)" fill="#707070"/><g transform="translate(7513.7 -2631.458)" clip-path="url(#b)"><rect width="1" height="17.022" transform="translate(284.561 29.394)" fill="#707070"/></g><rect width="137.365" height="1" transform="translate(7527.595 -2585.541)" fill="#707070"/><path d="M417.377,125.309h103.2a9,9,0,0,1,9,9h0a8.995,8.995,0,0,1-9,8.994h-103.2a9,9,0,0,1-9-8.994h0A9,9,0,0,1,417.377,125.309Z" transform="translate(7206.61 -2779.254)" fill="#d6d6d6"/><path d="M524.368,176.438h53.969a6.154,6.154,0,0,1,6.154,6.154h0a6.154,6.154,0,0,1-6.154,6.154H524.368a6.154,6.154,0,0,1-6.154-6.154h0A6.153,6.153,0,0,1,524.368,176.438Z" transform="translate(7206.61 -2779.254)" fill="#afafaf"/><path d="M412.169,104.479h178a9.467,9.467,0,0,1,9.468,9.468h0a9.469,9.469,0,0,1-9.468,9.469h-178a9.468,9.468,0,0,1-9.468-9.469h0A9.467,9.467,0,0,1,412.169,104.479Z" transform="translate(7206.61 -2779.254)" fill="#afafaf"/><path d="M469.452,263.545h53.97a6.156,6.156,0,0,1,6.154,6.155h0a6.155,6.155,0,0,1-6.154,6.154h-53.97A6.154,6.154,0,0,1,463.3,269.7h0A6.155,6.155,0,0,1,469.452,263.545Z" transform="translate(7206.61 -2779.254)" fill="#afafaf"/><path d="M469.452,346.866h53.97a6.155,6.155,0,0,1,6.154,6.154h0a6.154,6.154,0,0,1-6.154,6.154h-53.97a6.154,6.154,0,0,1-6.154-6.154h0A6.154,6.154,0,0,1,469.452,346.866Z" transform="translate(7206.61 -2779.254)" fill="#afafaf"/><path d="M607.689,176.438h53.969a6.154,6.154,0,0,1,6.154,6.154h0a6.154,6.154,0,0,1-6.154,6.154H607.689a6.156,6.156,0,0,1-6.155-6.154h0A6.155,6.155,0,0,1,607.689,176.438Z" transform="translate(7206.61 -2779.254)" fill="#afafaf"/><path d="M469.452,377.164H607.689a6.156,6.156,0,0,1,6.155,6.155h0a6.155,6.155,0,0,1-6.155,6.155H469.452a6.155,6.155,0,0,1-6.154-6.155h0A6.155,6.155,0,0,1,469.452,377.164Z" transform="translate(7206.61 -2779.254)" fill="#d6d6d6"/><g transform="translate(7398.349 -2590.275)"><path d="M421.464,27.2H704.9a6.137,6.137,0,0,1,6.137,6.136h0a6.134,6.134,0,0,1-6.137,6.135H421.464a6.134,6.134,0,0,1-6.136-6.135v0A6.136,6.136,0,0,1,421.464,27.2Z" fill="#d6d6d6"/></g><g transform="translate(7398.349 -2590.275)"><path d="M297.331,45.415H704.9a6.136,6.136,0,0,1,6.137,6.136h0a6.135,6.135,0,0,1-6.137,6.136H297.331a6.134,6.134,0,0,1-6.135-6.136h0A6.135,6.135,0,0,1,297.331,45.415Z" fill="#d6d6d6"/></g><g transform="translate(7869.558 -2590.275)"><path d="M272.48,27.2h91.229a6.135,6.135,0,0,1,6.134,6.136h0a6.133,6.133,0,0,1-6.134,6.135H272.48a6.134,6.134,0,0,1-6.135-6.135v0A6.136,6.136,0,0,1,272.48,27.2Z" fill="#d6d6d6"/></g><g transform="translate(7869.558 -2590.275)"><path d="M272.276,45.415h91.24a6.136,6.136,0,0,1,6.137,6.136h0a6.135,6.135,0,0,1-6.137,6.136h-91.24a6.135,6.135,0,0,1-6.136-6.136h0A6.136,6.136,0,0,1,272.276,45.415Z" fill="#d6d6d6"/></g><g transform="translate(7398.349 -2502.476)"><path d="M357.729,22.536H704.9a6.137,6.137,0,0,1,6.137,6.136h0a6.136,6.136,0,0,1-6.137,6.136H357.729a6.136,6.136,0,0,1-6.135-6.136h0A6.136,6.136,0,0,1,357.729,22.536Z" fill="#d6d6d6"/></g><g transform="translate(7398.349 -2502.476)"><path d="M297.331,40.746H704.9a6.136,6.136,0,0,1,6.137,6.136h0a6.135,6.135,0,0,1-6.137,6.135H297.331a6.134,6.134,0,0,1-6.135-6.135h0A6.135,6.135,0,0,1,297.331,40.746Z" fill="#d6d6d6"/></g><g transform="translate(7224.588 -2586.931)"><path d="M306.609,26.722H419.281a6.155,6.155,0,0,1,6.155,6.154h0a6.155,6.155,0,0,1-6.155,6.154H306.609a6.154,6.154,0,0,1-6.154-6.154h0A6.154,6.154,0,0,1,306.609,26.722Z" fill="#d6d6d6"/></g><g transform="translate(7224.588 -2586.931)"><path d="M306.609,49.446h69.119a6.154,6.154,0,0,1,6.154,6.154h0a6.154,6.154,0,0,1-6.154,6.154H306.609a6.154,6.154,0,0,1-6.154-6.154h0A6.154,6.154,0,0,1,306.609,49.446Z" fill="#d6d6d6"/></g><g transform="translate(7224.588 -2586.931)"><path d="M306.609,72.169h53.022a6.154,6.154,0,0,1,6.154,6.154h0a6.154,6.154,0,0,1-6.154,6.154H306.609a6.154,6.154,0,0,1-6.154-6.154h0A6.154,6.154,0,0,1,306.609,72.169Z" fill="#d6d6d6"/></g><g transform="translate(7224.588 -2515.437)"><path d="M306.609,23.4h29.352a6.154,6.154,0,0,1,6.154,6.154h0a6.154,6.154,0,0,1-6.154,6.154H306.609a6.154,6.154,0,0,1-6.154-6.154h0A6.154,6.154,0,0,1,306.609,23.4Z" fill="#d6d6d6"/><path d="M307.556,24.346h7.575a5.208,5.208,0,0,1,5.208,5.207h0a5.208,5.208,0,0,1-5.208,5.208h-7.575a5.208,5.208,0,0,1-5.208-5.208h0A5.209,5.209,0,0,1,307.556,24.346Z" fill="#fff"/></g><g transform="translate(7278.94 -2515.437)"><path d="M303.386,23.4h29.352a6.155,6.155,0,0,1,6.155,6.154h0a6.155,6.155,0,0,1-6.155,6.154H303.386a6.155,6.155,0,0,1-6.155-6.154h0A6.156,6.156,0,0,1,303.386,23.4Z" fill="#d6d6d6"/><path d="M304.333,24.346h7.575a5.208,5.208,0,0,1,5.208,5.207h0a5.208,5.208,0,0,1-5.208,5.208h-7.575a5.208,5.208,0,0,1-5.208-5.208h0A5.209,5.209,0,0,1,304.333,24.346Z" fill="#fff"/></g><g transform="translate(7413.148 -2394.607)"><path d="M315.463,17.136H462.221a24.617,24.617,0,0,1,24.618,24.617v68.172a24.617,24.617,0,0,1-24.618,24.617H315.463a24.617,24.617,0,0,1-24.618-24.617V41.753A24.617,24.617,0,0,1,315.463,17.136Z" fill="#d9d9d9"/><g transform="translate(6.462 109.353)"><circle cx="16.569" cy="16.569" r="16.569" transform="translate(290.065 10.987)" fill="#f1f1f1"/><path d="M306.634,44.205a16.649,16.649,0,1,1,16.649-16.65A16.669,16.669,0,0,1,306.634,44.205Zm0-30.3a13.649,13.649,0,1,0,13.649,13.648A13.664,13.664,0,0,0,306.634,13.906Z" fill="#606060"/></g><path d="M337.24,139.277h68.172a3.787,3.787,0,0,1,3.787,3.787h0a3.787,3.787,0,0,1-3.787,3.787H337.24a3.787,3.787,0,0,1-3.787-3.787h0A3.787,3.787,0,0,1,337.24,139.277Z" fill="#dedede"/><path d="M337.24,149.691H449.912a3.787,3.787,0,0,1,3.788,3.787h0a3.787,3.787,0,0,1-3.788,3.787H337.24a3.787,3.787,0,0,1-3.787-3.787h0A3.787,3.787,0,0,1,337.24,149.691Z" fill="#dedede"/><path d="M337.24,160.107h54.917a3.788,3.788,0,0,1,3.788,3.787h0a3.787,3.787,0,0,1-3.788,3.787H337.24a3.787,3.787,0,0,1-3.787-3.787h0A3.787,3.787,0,0,1,337.24,160.107Z" fill="#dedede"/></g><g transform="translate(7626.794 -2394.607)"><path d="M303.49,17.136H451.2a24.616,24.616,0,0,1,24.618,24.617v68.172A24.617,24.617,0,0,1,451.2,134.542H303.49a24.616,24.616,0,0,1-24.617-24.617V41.753A24.616,24.616,0,0,1,303.49,17.136Z" fill="#d9d9d9"/><g transform="translate(6.815 109.353)"><circle cx="16.569" cy="16.569" r="16.569" transform="translate(278.687 10.987)" fill="#f1f1f1"/><path d="M295.256,44.205A16.649,16.649,0,1,1,311.9,27.555,16.668,16.668,0,0,1,295.256,44.205Zm0-30.3A13.649,13.649,0,1,0,308.9,27.554,13.664,13.664,0,0,0,295.256,13.906Z" fill="#606060"/></g><path d="M326.213,139.277h67.226a3.786,3.786,0,0,1,3.787,3.787h0a3.786,3.786,0,0,1-3.787,3.787H326.213a3.787,3.787,0,0,1-3.787-3.787h0A3.788,3.788,0,0,1,326.213,139.277Z" fill="#dedede"/><path d="M326.213,149.691H437.94a3.786,3.786,0,0,1,3.787,3.787h0a3.786,3.786,0,0,1-3.787,3.787H326.213a3.787,3.787,0,0,1-3.787-3.787h0A3.788,3.788,0,0,1,326.213,149.691Z" fill="#dedede"/><path d="M326.213,160.107h53.97a3.787,3.787,0,0,1,3.788,3.787h0a3.787,3.787,0,0,1-3.788,3.787h-53.97a3.787,3.787,0,0,1-3.787-3.787h0A3.788,3.788,0,0,1,326.213,160.107Z" fill="#dedede"/></g><g transform="translate(7413.148 -2226.951)"><path d="M315.463,7.6H462.221a24.616,24.616,0,0,1,24.618,24.615V100.39a24.618,24.618,0,0,1-24.618,24.617H315.463a24.619,24.619,0,0,1-24.618-24.617V32.216A24.616,24.616,0,0,1,315.463,7.6Z" fill="#d9d9d9"/><g transform="translate(6.462 108.698)"><ellipse cx="16.569" cy="17.043" rx="16.569" ry="17.043" transform="translate(290.065 2.106)" fill="#f1f1f1"/><path d="M306.634,36.272a16.911,16.911,0,0,1-16.649-17.123,16.656,16.656,0,1,1,33.3,0A16.911,16.911,0,0,1,306.634,36.272Zm0-31.246a13.908,13.908,0,0,0-13.649,14.123,13.657,13.657,0,1,0,27.3,0A13.908,13.908,0,0,0,306.634,5.026Z" fill="#606060"/></g><path d="M337.714,129.742h67.225A4.259,4.259,0,0,1,409.2,134h0a4.261,4.261,0,0,1-4.26,4.262H337.714A4.261,4.261,0,0,1,333.453,134h0A4.259,4.259,0,0,1,337.714,129.742Z" fill="#dedede"/><path d="M337.714,140.156H449.439a4.26,4.26,0,0,1,4.261,4.26h0a4.261,4.261,0,0,1-4.261,4.262H337.714a4.261,4.261,0,0,1-4.261-4.262h0A4.26,4.26,0,0,1,337.714,140.156Z" fill="#dedede"/><path d="M337.714,150.572h53.969a4.259,4.259,0,0,1,4.261,4.26h0a4.26,4.26,0,0,1-4.261,4.26H337.714a4.259,4.259,0,0,1-4.261-4.26h0A4.259,4.259,0,0,1,337.714,150.572Z" fill="#dedede"/></g><g transform="translate(7626.794 -2226.951)"><path d="M303.49,7.6H451.2a24.616,24.616,0,0,1,24.618,24.615V100.39A24.618,24.618,0,0,1,451.2,125.007H303.49a24.618,24.618,0,0,1-24.617-24.617V32.216A24.615,24.615,0,0,1,303.49,7.6Z" fill="#d9d9d9"/><g transform="translate(6.815 108.698)"><ellipse cx="16.569" cy="17.043" rx="16.569" ry="17.043" transform="translate(278.687 2.106)" fill="#f1f1f1"/><path d="M295.256,36.272a16.91,16.91,0,0,1-16.649-17.123,16.655,16.655,0,1,1,33.3,0A16.91,16.91,0,0,1,295.256,36.272Zm0-31.246a13.908,13.908,0,0,0-13.649,14.123,13.656,13.656,0,1,0,27.3,0A13.908,13.908,0,0,0,295.256,5.026Z" fill="#606060"/></g><path d="M326.687,129.742h66.278a4.259,4.259,0,0,1,4.261,4.26h0a4.261,4.261,0,0,1-4.261,4.262H326.687A4.262,4.262,0,0,1,322.426,134h0A4.26,4.26,0,0,1,326.687,129.742Z" fill="#dedede"/><path d="M326.687,140.156H437.466a4.26,4.26,0,0,1,4.261,4.26h0a4.26,4.26,0,0,1-4.261,4.262H326.687a4.262,4.262,0,0,1-4.261-4.262h0A4.262,4.262,0,0,1,326.687,140.156Z" fill="#dedede"/><path d="M326.687,150.572H379.71a4.26,4.26,0,0,1,4.261,4.26h0a4.26,4.26,0,0,1-4.261,4.26H326.687a4.26,4.26,0,0,1-4.261-4.26h0A4.26,4.26,0,0,1,326.687,150.572Z" fill="#dedede"/></g><g transform="translate(7253.61 -2718.254)"><circle cx="43.554" cy="43.554" r="43.554" transform="translate(298.891 34.01)" fill="#fff"/><path d="M342.445,125.985a48.421,48.421,0,1,1,48.421-48.422A48.476,48.476,0,0,1,342.445,125.985Zm0-89.841c-23.943,0-43.421,17.478-43.421,41.42a43.421,43.421,0,1,0,86.842,0C385.866,53.622,366.388,36.144,342.445,36.144Z" fill="#707070"/></g><g transform="translate(7253.855 -2717.794)"><path d="M341.582,55.19a12.53,12.53,0,0,0-12.459,12.6v.071a13.247,13.247,0,0,0,12.922,12.4A12.713,12.713,0,0,0,354.337,67.4C354.275,60.324,348.815,55.1,341.582,55.19Z" fill="#afafaf"/><path d="M342.422,33.985A43.544,43.544,0,1,0,385.967,77.53h0A43.545,43.545,0,0,0,342.422,33.985Zm26.347,66.342c-9.53-17.231-41.957-18.006-53.557-1.275-8.715-7.7-10.812-22.194-6.389-34.182a35.779,35.779,0,0,1,3.9-7.5,29.535,29.535,0,0,1,2.924-3.556,43.147,43.147,0,0,1,13.38-9.6,35.873,35.873,0,0,1,26.977.08,43.31,43.31,0,0,1,13.771,10.18c.673.726,1.3,1.484,1.9,2.262a35.854,35.854,0,0,1,3.52,35.439,26.027,26.027,0,0,1-6.43,8.15Z" fill="#afafaf"/></g><g transform="translate(7814.937 -2723.647)"><path d="M289.318,34.3h91.969a20.272,20.272,0,0,1,20.272,20.271h0a20.272,20.272,0,0,1-20.272,20.271H289.318a20.272,20.272,0,0,1-20.273-20.271h0A20.271,20.271,0,0,1,289.318,34.3Z" fill="#b1aeae"/></g><g transform="translate(7814.937 -2723.647)"><path d="M310.053,60.515a9.337,9.337,0,0,1-4.394.932,7.086,7.086,0,0,1-5.437-2.186,8.066,8.066,0,0,1-2.042-5.736,8.453,8.453,0,0,1,2.3-6.169A7.8,7.8,0,0,1,306.3,45a9.345,9.345,0,0,1,3.75.654v1.986a7.6,7.6,0,0,0-3.772-.954,5.784,5.784,0,0,0-4.443,1.831,6.9,6.9,0,0,0-1.7,4.893,6.563,6.563,0,0,0,1.592,4.633,5.42,5.42,0,0,0,4.178,1.725,7.835,7.835,0,0,0,4.149-1.065Z" fill="#fff"/><path d="M317.8,61.446a5.266,5.266,0,0,1-4.022-1.592,5.9,5.9,0,0,1-1.5-4.222,6.146,6.146,0,0,1,1.564-4.472,5.627,5.627,0,0,1,4.228-1.609,5.1,5.1,0,0,1,3.967,1.564,6.205,6.205,0,0,1,1.426,4.338,6.105,6.105,0,0,1-1.537,4.355A5.381,5.381,0,0,1,317.8,61.446Zm.133-10.363a3.459,3.459,0,0,0-2.773,1.193,4.9,4.9,0,0,0-1.021,3.29,4.635,4.635,0,0,0,1.031,3.184,3.506,3.506,0,0,0,2.763,1.165,3.325,3.325,0,0,0,2.713-1.143,4.957,4.957,0,0,0,.949-3.251,5.04,5.04,0,0,0-.949-3.284A3.311,3.311,0,0,0,317.931,51.083Z" fill="#fff"/><path d="M335.8,61.18h-1.82V54.7q0-3.616-2.641-3.617a2.867,2.867,0,0,0-2.258,1.026,3.8,3.8,0,0,0-.894,2.591v6.48h-1.819V49.818h1.819V51.7h.045a4.1,4.1,0,0,1,3.728-2.153,3.48,3.48,0,0,1,2.853,1.2,5.366,5.366,0,0,1,.987,3.479Z" fill="#fff"/><path d="M344.494,61.069a3.516,3.516,0,0,1-1.7.355q-2.985,0-2.985-3.329V51.371H337.86V49.818h1.952V47.044l1.82-.588v3.362h2.862v1.553h-2.862v6.4a2.652,2.652,0,0,0,.388,1.631,1.548,1.548,0,0,0,1.287.488,1.914,1.914,0,0,0,1.188-.377v1.554Z" fill="#fff"/><path d="M355.057,61.18h-1.819V59.4h-.044a3.811,3.811,0,0,1-3.495,2.042,3.735,3.735,0,0,1-2.658-.9,3.117,3.117,0,0,1-.959-2.386q0-3.185,3.75-3.706l3.406-.477q0-2.9-2.341-2.9a5.592,5.592,0,0,0-3.706,1.4V50.618a7.037,7.037,0,0,1,3.861-1.065q4.005,0,4.005,4.239Zm-1.82-5.747-2.74.377a4.443,4.443,0,0,0-1.909.627,1.807,1.807,0,0,0-.644,1.592,1.732,1.732,0,0,0,.594,1.359,2.291,2.291,0,0,0,1.581.527,2.923,2.923,0,0,0,2.236-.948,3.39,3.39,0,0,0,.882-2.4V55.433Z" fill="#fff"/><path d="M366.231,60.659a5.916,5.916,0,0,1-3.107.788,5.145,5.145,0,0,1-3.922-1.581,5.728,5.728,0,0,1-1.492-4.1,6.3,6.3,0,0,1,1.608-4.511,5.629,5.629,0,0,1,4.294-1.7,5.975,5.975,0,0,1,2.641.555v1.864a4.623,4.623,0,0,0-2.707-.888,3.658,3.658,0,0,0-2.857,1.249,4.738,4.738,0,0,0-1.114,3.279,4.51,4.51,0,0,0,1.048,3.151,3.612,3.612,0,0,0,2.813,1.154,4.565,4.565,0,0,0,2.8-.987v1.73Z" fill="#fff"/><path d="M374.252,61.069a3.516,3.516,0,0,1-1.7.355q-2.985,0-2.985-3.329V51.371h-1.952V49.818h1.952V47.044l1.82-.588v3.362h2.862v1.553H371.39v6.4a2.652,2.652,0,0,0,.388,1.631,1.548,1.548,0,0,0,1.287.488,1.914,1.914,0,0,0,1.188-.377v1.554Z" fill="#fff"/></g><g transform="translate(7869.558 -2434.117)"><path d="M276.432,20.287h82.929a10.292,10.292,0,0,1,10.292,10.292h0a10.292,10.292,0,0,1-10.292,10.292H276.432A10.292,10.292,0,0,1,266.14,30.58h0A10.292,10.292,0,0,1,276.432,20.287Z" fill="#f5f5f5"/><path d="M359.361,42.372H276.432a11.792,11.792,0,0,1,0-23.585h82.929a11.792,11.792,0,0,1,0,23.585ZM276.432,21.787a8.793,8.793,0,0,0,0,17.585h82.929a8.792,8.792,0,0,0,0-17.585H276.432Z" fill="#d6d6d6"/></g><g transform="translate(7869.558 -2402.551)"><path d="M272.48,17.223h91.229a6.135,6.135,0,0,1,6.134,6.135v0a6.134,6.134,0,0,1-6.134,6.135H272.48a6.135,6.135,0,0,1-6.135-6.135v0A6.136,6.136,0,0,1,272.48,17.223Z" fill="#d6d6d6"/><path d="M272.276,35.432h91.24a6.137,6.137,0,0,1,6.137,6.137h0a6.137,6.137,0,0,1-6.137,6.137h-91.24a6.137,6.137,0,0,1-6.136-6.137h0A6.137,6.137,0,0,1,272.276,35.432Z" fill="#d6d6d6"/><g transform="translate(0 40.973)"><path d="M272.48,15.045h91.229a6.135,6.135,0,0,1,6.134,6.135v0a6.134,6.134,0,0,1-6.134,6.135H272.48a6.135,6.135,0,0,1-6.135-6.135v0A6.136,6.136,0,0,1,272.48,15.045Z" fill="#d6d6d6"/><path d="M272.276,33.254h91.24a6.136,6.136,0,0,1,6.137,6.135v0a6.137,6.137,0,0,1-6.137,6.137h-91.24a6.137,6.137,0,0,1-6.136-6.137v0A6.136,6.136,0,0,1,272.276,33.254Z" fill="#d6d6d6"/></g></g><g transform="translate(7869.558 -2434.117)"><path d="M304.216,35h-1.932l-.954-2.7h-4.174l-.917,2.7h-1.924l3.974-10.611h1.982Zm-3.352-4.136-1.472-4.232a4.838,4.838,0,0,1-.141-.666h-.03a4.467,4.467,0,0,1-.147.666l-1.458,4.232Z" fill="#565656"/><path d="M315.456,27.42,313.221,35h-1.8l-1.376-5.135a3.209,3.209,0,0,1-.1-.666h-.03a3.029,3.029,0,0,1-.133.651L308.286,35h-1.762L304.3,27.42h1.775l1.376,5.461a3.206,3.206,0,0,1,.089.651h.052a3.541,3.541,0,0,1,.119-.666l1.531-5.446h1.613l1.361,5.482a3.951,3.951,0,0,1,.1.651h.052a3.57,3.57,0,0,1,.111-.651l1.347-5.482Z" fill="#565656"/><path d="M322.544,35h-1.665V33.813h-.029a2.508,2.508,0,0,1-2.3,1.361,2.426,2.426,0,0,1-1.75-.606,2.122,2.122,0,0,1-.633-1.6q0-2.146,2.472-2.5l2.249-.318q0-1.621-1.539-1.621a3.653,3.653,0,0,0-2.441.933v-1.5a5.331,5.331,0,0,1,2.768-.71q2.871,0,2.871,2.826V35Zm-1.658-3.721-1.591.222a2.519,2.519,0,0,0-1.113.359,1.048,1.048,0,0,0-.374.921,1.008,1.008,0,0,0,.345.788,1.331,1.331,0,0,0,.921.307,1.7,1.7,0,0,0,1.3-.551,1.955,1.955,0,0,0,.514-1.388v-.658Z" fill="#565656"/><path d="M329.033,29.055a1.423,1.423,0,0,0-.9-.244,1.529,1.529,0,0,0-1.272.688,3.072,3.072,0,0,0-.511,1.872V35h-1.717V27.42h1.717v1.562h.029a2.649,2.649,0,0,1,.773-1.247,1.746,1.746,0,0,1,1.165-.447,1.456,1.456,0,0,1,.711.14v1.627Z" fill="#565656"/><path d="M337,35h-1.717V33.71h-.029a2.962,2.962,0,0,1-4.791.447,4.222,4.222,0,0,1-.84-2.771,4.6,4.6,0,0,1,.929-3.012,3.038,3.038,0,0,1,2.475-1.132,2.371,2.371,0,0,1,2.228,1.228h.029V23.78H337V35Zm-1.694-3.463v-.992a1.932,1.932,0,0,0-.525-1.369,1.752,1.752,0,0,0-1.339-.563,1.8,1.8,0,0,0-1.514.718,3.2,3.2,0,0,0-.551,1.99,2.863,2.863,0,0,0,.529,1.824,1.722,1.722,0,0,0,1.424.67,1.783,1.783,0,0,0,1.428-.647A2.434,2.434,0,0,0,335.308,31.534Z" fill="#565656"/><path d="M338.771,34.761V33.169a3.425,3.425,0,0,0,2.124.733q1.554,0,1.554-.918a.723.723,0,0,0-.133-.44,1.284,1.284,0,0,0-.359-.322,2.8,2.8,0,0,0-.532-.251c-.2-.074-.434-.158-.685-.251a7.276,7.276,0,0,1-.84-.392,2.538,2.538,0,0,1-.622-.47,1.762,1.762,0,0,1-.373-.6,2.19,2.19,0,0,1-.126-.777,1.789,1.789,0,0,1,.259-.965,2.261,2.261,0,0,1,.7-.7,3.33,3.33,0,0,1,.992-.429,4.539,4.539,0,0,1,1.146-.144,5.223,5.223,0,0,1,1.88.318v1.5a3.171,3.171,0,0,0-1.836-.547,2.415,2.415,0,0,0-.588.066,1.5,1.5,0,0,0-.447.185.905.905,0,0,0-.289.285.68.68,0,0,0-.1.366.777.777,0,0,0,.1.415.94.94,0,0,0,.308.3,2.613,2.613,0,0,0,.488.237c.189.072.408.149.654.233a9.506,9.506,0,0,1,.877.407,2.972,2.972,0,0,1,.662.47,1.834,1.834,0,0,1,.422.607,2.055,2.055,0,0,1,.148.817,1.865,1.865,0,0,1-.267,1.007,2.232,2.232,0,0,1-.71.711,3.344,3.344,0,0,1-1.025.418,5.341,5.341,0,0,1-1.225.137A5.208,5.208,0,0,1,338.771,34.761Z" fill="#565656"/></g><g transform="translate(7869.558 -2313.288)"><path d="M277.225,13.466h81.343A11.085,11.085,0,0,1,369.653,24.55h0a11.087,11.087,0,0,1-11.085,11.086H277.225A11.087,11.087,0,0,1,266.14,24.55h0A11.084,11.084,0,0,1,277.225,13.466Z" fill="#f5f5f5"/><path d="M358.568,37.136H277.225a12.585,12.585,0,0,1,0-25.17h81.343a12.585,12.585,0,0,1,0,25.17Zm-81.343-22.17a9.585,9.585,0,0,0,0,19.17h81.343a9.585,9.585,0,0,0,0-19.17H277.225Z" fill="#d6d6d6"/></g><g transform="translate(7869.558 -2280.468)"><path d="M272.48,10.732h91.229a6.135,6.135,0,0,1,6.134,6.135h0A6.134,6.134,0,0,1,363.709,23H272.48a6.135,6.135,0,0,1-6.135-6.137h0A6.136,6.136,0,0,1,272.48,10.732Z" fill="#d6d6d6"/><path d="M272.276,28.941h91.24a6.136,6.136,0,0,1,6.137,6.135v0a6.135,6.135,0,0,1-6.137,6.135h-91.24a6.135,6.135,0,0,1-6.136-6.135v0A6.136,6.136,0,0,1,272.276,28.941Z" fill="#d6d6d6"/><g transform="translate(0 40.973)"><path d="M272.48,8.553h91.229a6.134,6.134,0,0,1,6.134,6.137h0a6.135,6.135,0,0,1-6.134,6.135H272.48a6.136,6.136,0,0,1-6.135-6.135h0A6.136,6.136,0,0,1,272.48,8.553Z" fill="#d6d6d6"/><path d="M272.276,26.762h91.24a6.136,6.136,0,0,1,6.137,6.135v0a6.135,6.135,0,0,1-6.137,6.135h-91.24A6.135,6.135,0,0,1,266.14,32.9v0A6.136,6.136,0,0,1,272.276,26.762Z" fill="#d6d6d6"/></g></g><g transform="translate(7869.558 -2313.288)"><path d="M304.216,28.571h-1.932l-.954-2.7h-4.174l-.917,2.7h-1.924l3.974-10.609h1.982Zm-3.352-4.137L299.392,20.2a4.77,4.77,0,0,1-.141-.666h-.03a4.438,4.438,0,0,1-.147.666l-1.458,4.232Z" fill="#565656"/><path d="M315.456,21l-2.235,7.576h-1.8l-1.376-5.135a3.22,3.22,0,0,1-.1-.666h-.03a3.01,3.01,0,0,1-.133.65l-1.494,5.15h-1.762L304.3,20.994h1.775l1.376,5.461a3.185,3.185,0,0,1,.089.65h.052a3.541,3.541,0,0,1,.119-.666l1.531-5.445h1.613l1.361,5.482a3.954,3.954,0,0,1,.1.65h.052a3.561,3.561,0,0,1,.111-.65l1.347-5.482h1.637Z" fill="#565656"/><path d="M322.544,28.571h-1.665V27.387h-.029a2.506,2.506,0,0,1-2.3,1.361,2.426,2.426,0,0,1-1.75-.6,2.127,2.127,0,0,1-.633-1.607q0-2.145,2.472-2.5l2.249-.318q0-1.62-1.539-1.621a3.65,3.65,0,0,0-2.441.934v-1.5a5.313,5.313,0,0,1,2.768-.711q2.871,0,2.871,2.826v4.927Zm-1.658-3.721-1.591.221a2.519,2.519,0,0,0-1.113.359,1.049,1.049,0,0,0-.374.922,1.006,1.006,0,0,0,.345.787,1.331,1.331,0,0,0,.921.307,1.7,1.7,0,0,0,1.3-.551,1.952,1.952,0,0,0,.514-1.387V24.85Z" fill="#565656"/><path d="M329.033,22.63a1.429,1.429,0,0,0-.9-.244,1.532,1.532,0,0,0-1.272.688,3.077,3.077,0,0,0-.511,1.873v3.625h-1.717V21h1.717v1.561h.029a2.646,2.646,0,0,1,.773-1.246,1.74,1.74,0,0,1,1.165-.447,1.443,1.443,0,0,1,.711.141V22.63Z" fill="#565656"/><path d="M337,28.571h-1.717V27.284h-.029a2.962,2.962,0,0,1-4.791.447,4.222,4.222,0,0,1-.84-2.771,4.6,4.6,0,0,1,.929-3.01,3.036,3.036,0,0,1,2.475-1.133,2.372,2.372,0,0,1,2.228,1.229h.029V17.355H337V28.571Zm-1.694-3.463v-.99a1.931,1.931,0,0,0-.525-1.369,1.752,1.752,0,0,0-1.339-.563,1.8,1.8,0,0,0-1.514.717,3.2,3.2,0,0,0-.551,1.99,2.861,2.861,0,0,0,.529,1.824,1.719,1.719,0,0,0,1.424.67,1.782,1.782,0,0,0,1.428-.646A2.445,2.445,0,0,0,335.308,25.108Z" fill="#565656"/><path d="M338.771,28.335V26.743a3.42,3.42,0,0,0,2.124.734q1.554,0,1.554-.918a.721.721,0,0,0-.133-.441,1.294,1.294,0,0,0-.359-.32,2.867,2.867,0,0,0-.532-.252c-.2-.074-.434-.158-.685-.252a6.955,6.955,0,0,1-.84-.393,2.586,2.586,0,0,1-.622-.469,1.782,1.782,0,0,1-.373-.6,2.2,2.2,0,0,1-.126-.777,1.8,1.8,0,0,1,.259-.967,2.255,2.255,0,0,1,.7-.7,3.306,3.306,0,0,1,.992-.43,4.539,4.539,0,0,1,1.146-.145,5.2,5.2,0,0,1,1.88.318v1.5a3.171,3.171,0,0,0-1.836-.547,2.366,2.366,0,0,0-.588.066,1.473,1.473,0,0,0-.447.184.915.915,0,0,0-.289.285.684.684,0,0,0-.1.367.774.774,0,0,0,.1.414.95.95,0,0,0,.308.3,2.552,2.552,0,0,0,.488.238c.189.07.408.148.654.232.326.133.618.27.877.406a2.974,2.974,0,0,1,.662.471,1.836,1.836,0,0,1,.422.6,2.064,2.064,0,0,1,.148.818,1.861,1.861,0,0,1-.267,1.006,2.222,2.222,0,0,1-.71.711,3.344,3.344,0,0,1-1.025.418,5.28,5.28,0,0,1-1.225.137A5.13,5.13,0,0,1,338.771,28.335Z" fill="#565656"/></g><path d="M311.459,36.322A29.743,29.743,0,1,0,341.2,66.066a29.744,29.744,0,0,0-29.745-29.744Zm2.073,57.232a25.659,25.659,0,0,1-25.659-25.66c-.548-12.646,10.148-24.623,25.6-19.961,13.806,5.578,13.439,18.47,12.1,23.212-.395,1.4,1.042,1.709,1.589,1.008,2.979-3.8,3.609-5.446,4.735-10.367.821-3.612-.329-8.969-.618-9.862a.947.947,0,0,1,1.626-.853A25.365,25.365,0,0,1,339.195,67.9a25.659,25.659,0,0,1-25.664,25.652Z" transform="translate(7576.623 -2761.736)" fill="#5b5b5b"/></g></svg>