<svg xmlns="http://www.w3.org/2000/svg" width="546.335" height="383" viewBox="0 0 546.335 383"><defs><style>.a{fill:#20783c;}.b,.c{fill:#b7b7b7;}.c{stroke:#fff;stroke-miterlimit:10;stroke-width:3px;}</style></defs><g transform="translate(-464.656 -6643)"><g transform="translate(464.656 6908.876)"><path class="a" d="M525.462,339.432a29.845,29.845,0,0,0,16.922-4.47c3.972,7.681,7.664,15.417,11.907,22.841,4.22,7.39,8.993,14.461,13.668,21.9-1.563,1.471-3.437,3.234-5.344,5.025a45.959,45.959,0,0,0-4.9-3.162,20.122,20.122,0,0,0-5.957-2.113c-4.382-.576-7.27,1.3-9.112,5.547-.756,1.756-1.241,3.624-1.9,5.594-3.113-.778-6.243-1.086-9.3.336-3.121,1.454-4.783,4.094-5.98,7.331-3.73-1.4-7.5-3.046-11.459-1.043-4.065,2.058-4.771,6.119-5.563,10.021-11.978,2.066-13.607,6.009-7.506,18.307-2.211,1.65-4.254,3.488-7.463,2.831-2.3-.468-4.212-1.3-5.147-3.556-1.027-2.485-1.117-4.926.753-7.136,2.589-3.057,5.151-6.129,7.756-9.172,1.007-1.171,1.7-2.4.307-3.628-1.555-1.377-2.654-.238-3.667.94-3.868,4.507-7.766,8.993-11.615,13.517-2.052,2.414-4.5,3.87-7.718,2.931a8.644,8.644,0,0,1-6.413-6.479c-.571-2.274.691-3.921,1.947-5.415,3.646-4.348,7.441-8.569,11.175-12.841a8.411,8.411,0,0,0,1.769-2.149,3.207,3.207,0,0,0-.084-2.607c-.72-.951-1.842-.812-2.735.169-3.326,3.659-6.678,7.288-10.008,10.942-1.981,2.172-3.908,4.391-5.916,6.538a5.244,5.244,0,0,1-5.926,1.2,9.314,9.314,0,0,1-5.513-5.721,4.817,4.817,0,0,1,.846-4.913c2.818-3.382,5.65-6.753,8.533-10.082,3.8-4.391,7.651-8.737,11.484-13.1a1.962,1.962,0,0,0-.173-3.123c-1.094-.992-1.911-.454-2.706.446Q459.4,387.581,448.375,400.03c-2.941,3.326-7.124,3.493-9.939.006a13.68,13.68,0,0,1-2.514-5.673,5.066,5.066,0,0,1,1.3-3.692q16.989-19.471,34.157-38.787a10.39,10.39,0,0,1,2.654-2.078c4.747-2.695,9.5-5.386,14.341-7.907a9.149,9.149,0,0,1,3.848-.62c2.536-.074,5.58-.833,7.468.289,1.863,1.1,2.552,4.175,3.758,6.386.5.931,1,1.875,1.532,2.8,4.458,7.71,7.933,7.53,15.028,6.78a12.976,12.976,0,0,0,9.139-5.2,4.634,4.634,0,0,0,.328-5.863C528.1,344.278,526.9,341.986,525.462,339.432Z" transform="translate(-382.127 -311.719)"/><path class="a" d="M376.673,373.629c9.942-20.5,19.822-40.882,29.744-61.356,8.187,5.051,16.281,10.042,24.373,15.038,1.415.872,2.778,1.842,4.251,2.607,1.092.566,1.135,1.216.787,2.257-6.219,18.662-15.3,35.673-28.9,50.082a11.136,11.136,0,0,1-1.873,1.791,2.408,2.408,0,0,1-1.837.377c-8.712-3.43-17.391-6.935-26.077-10.432A2.089,2.089,0,0,1,376.673,373.629Z" transform="translate(-376.673 -309.629)"/><path class="b" d="M441.934,337.253c5.81.49,11.356.7,16.45-2.749,6.224-4.223,12.684-8.1,18.979-12.212a14.115,14.115,0,0,1,8.241-2.508c6.815.112,13.635.138,20.45-.013a6.666,6.666,0,0,1,6.485,3.807q5.948,10.969,11.74,22.034c1.279,2.44.61,4.458-1.745,5.934a11.477,11.477,0,0,1-16.151-4.1c-1.712-3.159-3.445-6.306-5.043-9.521a2.431,2.431,0,0,0-2.629-1.56,79.533,79.533,0,0,1-8.617-.006,12.215,12.215,0,0,0-7.561,1.983q-6.037,3.716-12.143,7.318c-4.675,2.752-7.682,7.177-11.146,11.107-8.865,10.068-17.588,20.258-26.518,30.571-4.335-2.616-8.7-5.244-13.132-7.919C429.724,366.735,436.494,352.416,441.934,337.253Z" transform="translate(-380.627 -310.32)"/><path class="a" d="M555.1,327.582c10-6.32,19.448-12.291,28.826-18.221,9.609,19.814,19.212,39.611,28.885,59.559q-6.134,2.446-12.324,4.919c-4.008,1.6-8.028,3.16-12.014,4.822a2.215,2.215,0,0,1-2.911-.585,104.789,104.789,0,0,1-16.074-22.563C564.523,346.367,559.939,337.014,555.1,327.582Z" transform="translate(-393.11 -309.361)"/><path class="b" d="M541.378,421.019c-.4,4.755-4.592,8.283-9.045,7.346a5.067,5.067,0,0,1-2.678-1.509q-4.661-5.491-9.074-11.179c-1.827-2.349-1.029-5.59,1.8-8.124,2.412-2.162,5.973-2.43,7.986-.364q5.095,5.235,9.916,10.737C540.95,418.692,541.027,419.973,541.378,421.019Z" transform="translate(-389.839 -318.243)"/><path class="b" d="M550.373,418.335c-1.489-.825-2.914-1.289-3.9-2.221-2.322-2.2-4.466-4.6-6.634-6.954-1.924-2.1-2.125-4.01-.5-6.325,2.739-3.894,6.479-5.57,10.717-1.637,1.66,1.537,3.462,2.927,5.22,4.358,3.846,3.123,3.962,6.924.075,10.1C553.982,416.782,552.182,417.386,550.373,418.335Z" transform="translate(-391.557 -317.614)"/><path class="b" d="M555.45,394.037c.013-3.888,2.048-6.027,5.944-6.245,4.766-.274,9.954,3.524,10.147,7.423a7.73,7.73,0,0,1-4.9,7.895c-2.847,1.066-6.827-.31-9.05-3.46a36.71,36.71,0,0,1-2.656-5.365Z" transform="translate(-393.095 -316.585)"/><path class="b" d="M513.9,418.631a10.477,10.477,0,0,1,2.516,1.345c2.56,2.3,5.182,4.588,6.29,8.034a4.309,4.309,0,0,1-1.715,5.269,13.811,13.811,0,0,1-5.547,1.783c-.907.1-2.211-.819-2.894-1.641-1.519-1.832-2.725-3.927-4.136-5.855-1.258-1.716-2.1-3.507-.846-5.5C508.877,419.977,510.913,418.934,513.9,418.631Z" transform="translate(-388.674 -319.427)"/></g><g transform="translate(833.882 6685.902)"><path class="a" d="M720.928,445.023c-18.075-.906-36.158-1.661-54.223-2.8-5.573-.355-11.092-1.7-16.611-2.711-1.661-.3-2.963-1.059-2.681-3.287,1.209-9.428,2.6-18.883,7.273-27.286a76.318,76.318,0,0,1,34.882-32.921,2.329,2.329,0,0,1,3.143.559c7.61,7.5,16.75,11.764,27.483,11.963,11.252.207,20.909-3.927,28.927-11.8,1.1-1.079,1.916-1.365,3.34-.638,22.329,11.375,37.393,28.279,41.157,53.834.234,1.6.494,3.2.734,4.795.539,3.632.232,4.292-3.424,5.114a104.634,104.634,0,0,1-11.364,1.976,471.054,471.054,0,0,1-51.685,2.518q-3.464.005-6.928,0C720.944,444.564,720.936,444.792,720.928,445.023Z" transform="translate(-647.373 -294.042)"/><path class="a" d="M763.773,325.216a39.4,39.4,0,1,1-39.29-39.453A39.205,39.205,0,0,1,763.773,325.216Z" transform="translate(-650.838 -285.762)"/></g><g transform="translate(803.321 6907.188)"><path class="a" d="M835.726,333.888c1.487-.358,2.97-.7,4.447-1.074,7.4-1.881,14.81-3.739,22.2-5.655,12.1-3.135,24.177-6.319,36.267-9.469,9.131-2.38,18.268-4.717,27.391-7.124,4.454-1.173,8.885-2.433,13.314-3.688a9.124,9.124,0,0,1,6.156.351c6.352,2.549,12.81,4.828,19.2,7.3,11.485,4.429,22.94,8.927,34.41,13.376q17.444,6.764,34.9,13.475c2.973,1.142,5.965,2.24,9.377,3.522-8.185,3.094-15.92,6.017-23.527,8.89,1.154,2.578,2.288,4.97,3.311,7.406,1.945,4.649,1.419,9.426.391,14.137-.83,3.8-2.066,7.52-3.011,11.309a3.45,3.45,0,0,0,.3,2.339c2.123,3.573,1.351,6.971-2.157,9.3a2.206,2.206,0,0,0-.982,1.537c.38,7.107,2.371,13.667,6.881,19.309a25.517,25.517,0,0,0,2.41,2.254c-3.8,1.375-7.192,2.869-10.739,3.8-2.978.78-4.079-2-5.094-3.961-4.08-7.894-3.478-15.839.241-23.727a3.159,3.159,0,0,0,.108-2.256c-1.373-3.375-.622-6.111,2.451-8.378.306-.223.707-.482.8-.8,1.952-6.769,4.28-13.543,2.5-20.711-.629-2.524-1.98-4.874-3-7.3-.749-1.768-2.008-1.564-3.486-.993q-12.444,4.758-24.917,9.435c-12.767,4.777-25.777,9-38.21,14.525-5.483,2.437-8.944-.235-13.054-1.844-4.488-1.753-8.774-4.015-13.161-6.019q-12.442-5.7-24.893-11.342c-7.605-3.443-15.242-6.814-22.845-10.26-9.856-4.468-19.689-8.984-29.54-13.463-2.793-1.271-5.62-2.477-8.434-3.711C835.716,334.212,835.721,334.049,835.726,333.888Z" transform="translate(-835.712 -306.503)"/><path class="b" d="M939.842,424.243c-12.982-21.8-31.786-32.6-57.478-31.273-.384-9.372,1.848-18.287,5.307-27.2,5.006,2.232,9.894,4.384,14.765,6.581,4.539,2.049,9.054,4.151,13.581,6.216q11.689,5.348,23.38,10.676a46.888,46.888,0,0,0,5.994,2.578,6.745,6.745,0,0,0,3.991-.1c10.376-3.819,20.7-7.771,31.035-11.687,6.9-2.614,13.807-5.228,21.085-7.991a62.425,62.425,0,0,1,.856,32.3c-11.57-2.978-23.077-3.149-34.373.5C956.8,408.471,947.672,415.293,939.842,424.243Z" transform="translate(-840.006 -311.962)"/></g><g transform="translate(501.283 6643)"><g transform="translate(0 43.81)"><path class="a" d="M284.417,325.216a39.4,39.4,0,1,1-39.29-39.453A39.205,39.205,0,0,1,284.417,325.216Z" transform="translate(-171.481 -285.762)"/><g transform="translate(0 81.599)"><path class="a" d="M322.771,434.737c-.241-1.6-.5-3.192-.734-4.795-3.764-25.555-18.828-42.46-41.157-53.834-1.424-.728-2.241-.441-3.34.638a39.424,39.424,0,0,1-21.956,11.33,7.438,7.438,0,0,1-3.175,11.231l8.374,45.008a453.161,453.161,0,0,0,47.2-2.49,104.672,104.672,0,0,0,11.364-1.976C323,439.028,323.309,438.369,322.771,434.737Z" transform="translate(-175.791 -375.647)"/><path class="a" d="M239.615,399.555a7.44,7.44,0,0,1-3.911-11.45,39.664,39.664,0,0,1-22.35-11.533,2.329,2.329,0,0,0-3.143-.559,76.319,76.319,0,0,0-34.882,32.921c-4.673,8.4-6.065,17.858-7.274,27.286-.282,2.229,1.02,2.99,2.681,3.287,5.518,1.009,11.038,2.357,16.611,2.711,14.626.925,29.265,1.6,43.9,2.3Z" transform="translate(-168.016 -375.641)"/></g></g><g transform="translate(7.018)"><path class="a" d="M175.753,255.016c.951-.228,1.9-.447,2.843-.686,4.735-1.2,9.469-2.39,14.195-3.615,7.734-2,15.457-4.04,23.187-6.054,5.838-1.522,11.68-3.016,17.512-4.555,2.848-.75,5.681-1.555,8.512-2.358a5.827,5.827,0,0,1,3.937.225c4.061,1.63,8.19,3.087,12.273,4.666,7.343,2.832,14.666,5.708,22,8.551q11.152,4.325,22.312,8.615c1.9.731,3.814,1.433,6,2.252-5.233,1.978-10.178,3.848-15.042,5.684.738,1.649,1.463,3.178,2.117,4.736,1.243,2.972.908,6.026.25,9.039-.53,2.432-1.321,4.808-1.926,7.23a2.206,2.206,0,0,0,.192,1.5,4.06,4.06,0,0,1-1.38,5.946,1.406,1.406,0,0,0-.627.983,20.958,20.958,0,0,0,4.4,12.344,16.534,16.534,0,0,0,1.541,1.442c-2.428.879-4.6,1.835-6.866,2.429-1.9.5-2.608-1.279-3.257-2.534-2.608-5.047-2.223-10.126.154-15.169a2.017,2.017,0,0,0,.069-1.443,4.1,4.1,0,0,1,1.568-5.356c.2-.143.452-.308.509-.512,1.248-4.328,2.736-8.658,1.6-13.241a33.213,33.213,0,0,0-1.92-4.668c-.478-1.13-1.284-1-2.229-.635q-7.956,3.042-15.931,6.032c-8.162,3.054-16.48,5.755-24.429,9.287-3.505,1.557-5.719-.151-8.346-1.179-2.869-1.12-5.61-2.567-8.415-3.849q-7.954-3.643-15.915-7.251c-4.862-2.2-9.744-4.356-14.606-6.56-6.3-2.856-12.588-5.744-18.887-8.607-1.786-.813-3.593-1.583-5.392-2.372C175.748,255.223,175.751,255.118,175.753,255.016Z" transform="translate(-175.747 -237.507)"/><path class="c" d="M242.319,312.784c-8.3-13.939-20.322-20.842-36.748-19.994-.246-5.992,1.182-11.692,3.393-17.39,3.2,1.426,6.326,2.8,9.439,4.207,2.9,1.31,5.789,2.654,8.683,3.974q7.472,3.419,14.947,6.825a29.819,29.819,0,0,0,3.832,1.648,4.315,4.315,0,0,0,2.552-.061c6.634-2.441,13.235-4.968,19.842-7.472,4.411-1.671,8.827-3.343,13.48-5.109a39.926,39.926,0,0,1,.548,20.652,38.749,38.749,0,0,0-21.977.322C253.164,302.7,247.326,307.061,242.319,312.784Z" transform="translate(-178.492 -240.998)"/></g></g></g></svg>