<svg xmlns="http://www.w3.org/2000/svg" xmlns:xlink="http://www.w3.org/1999/xlink" width="625" height="412" viewBox="0 0 625 412"><defs><style>.a,.h,.i{fill:none;}.b{fill:#d9d9d9;}.b,.h{stroke:#20783c;}.c,.g{fill:#20783c;}.d{clip-path:url(#a);}.e{fill:#fff;}.e,.f,.g{stroke:#a8a8a8;}.f{fill:#b1b1b1;}.i{stroke:#707070;}.j{stroke:none;}</style><clipPath id="a"><rect class="a" width="406" height="310"/></clipPath></defs><g transform="translate(-1369 -4908)"><g class="b" transform="translate(1369 4908)"><rect class="j" width="358" height="412" rx="31"/><rect class="a" x="0.5" y="0.5" width="357" height="411" rx="30.5"/></g><rect class="c" width="312" height="43" rx="21.5" transform="translate(1387 4925)"/><g class="d" transform="translate(1387 4997)"><g transform="translate(-1387 -3271)"><g class="e" transform="translate(1387 3271)"><rect class="j" width="311" height="43" rx="21.5"/><rect class="a" x="0.5" y="0.5" width="310" height="42" rx="21"/></g></g><g transform="translate(-1387 -3208)"><g class="e" transform="translate(1387 3271)"><rect class="j" width="311" height="43" rx="21.5"/><rect class="a" x="0.5" y="0.5" width="310" height="42" rx="21"/></g></g><g transform="translate(-1387 -3145)"><g class="e" transform="translate(1387 3271)"><rect class="j" width="311" height="43" rx="21.5"/><rect class="a" x="0.5" y="0.5" width="310" height="42" rx="21"/></g></g><g transform="translate(-1387 -3082)"><g class="e" transform="translate(1387 3271)"><rect class="j" width="311" height="43" rx="21.5"/><rect class="a" x="0.5" y="0.5" width="310" height="42" rx="21"/></g></g><g transform="translate(-1387 -3019)"><g class="e" transform="translate(1387 3271)"><rect class="j" width="311" height="43" rx="21.5"/><rect class="a" x="0.5" y="0.5" width="310" height="42" rx="21"/></g></g></g><g class="f" transform="translate(1793 4987)"><rect class="j" width="201" height="43" rx="21.5"/><rect class="a" x="0.5" y="0.5" width="200" height="42" rx="21"/></g><g class="e" transform="translate(1793 5061)"><rect class="j" width="201" height="43" rx="21.5"/><rect class="a" x="0.5" y="0.5" width="200" height="42" rx="21"/></g><g class="g" transform="translate(1793 5135)"><rect class="j" width="201" height="43" rx="21.5"/><rect class="a" x="0.5" y="0.5" width="200" height="42" rx="21"/></g><line class="h" y1="65" x2="78" transform="translate(1705.5 5013.5)"/><line class="h" x2="78" y2="65" transform="translate(1705.5 5078.5)"/><line class="i" x2="78" transform="translate(1705.5 5078.5)"/><path class="c" d="M10.5,0,21,18H0Z" transform="translate(1797.181 5141.979) rotate(131)"/><path class="c" d="M10.5,0,21,18H0Z" transform="translate(1782.44 4998.21) rotate(45)"/><path class="c" d="M10.5,0,21,18H0Z" transform="translate(1790.5 5068.5) rotate(90)"/></g></svg>