<svg xmlns="http://www.w3.org/2000/svg" width="598" height="459" viewBox="0 0 598 459"><defs><style>.a,.l{fill:#20783c;}.b,.e{fill:#bebebe;}.c{fill:#fff;}.c,.d,.e,.f,.g,.i,.j,.k,.l,.m{fill-rule:evenodd;}.d{fill:#e8e8e8;}.f{fill:#a4a4a4;}.h{fill:#c6c6c6;}.i{fill:#777;}.j{fill:#aaa;}.k{fill:#ccc;}.m{fill:#e2e2e2;}.n{fill:#f2f2f2;}.o{fill:#f1f1f1;stroke:#606060;stroke-width:3px;}.p{stroke:none;}.q{fill:none;}</style></defs><g transform="translate(-1446 -1611)"><rect class="a" width="598" height="358" rx="43" transform="translate(1446 1611)"/><rect class="b" width="229" height="24" rx="12" transform="translate(1578 1983)"/><rect class="b" width="365" height="24" rx="12" transform="translate(1578 2015)"/><rect class="b" width="189" height="24" rx="12" transform="translate(1578 2046)"/><g transform="translate(1451.816 1616.665)"><path class="c" d="M681.058,388.264c0,21.124-18.636,38.247-41.625,38.247H136.611c-22.988,0-41.624-17.123-41.624-38.247V118.246C94.987,97.123,113.623,80,136.611,80H639.433c22.989,0,41.625,17.123,41.625,38.246Z" transform="translate(-94.987 -80)"/><path class="d" d="M468.1,350.815l144.8-11.541,46.422-37.85L490.643,203.5,347.5,267.247Z" transform="matrix(1, -0.017, 0.017, 1, -161.962, -93.089)"/><path class="e" d="M554.253,388.583H719.86V302.544L690.1,276.668Z" transform="translate(-133.396 -116.561)"/><path class="f" d="M95,372.089H433.77l-264.54-179.2L95,288.578Z" transform="translate(-94.99 -98.399)"/><path class="g" d="M398,310" transform="translate(-135.332 -126.787)"/><g transform="translate(74.773 181.838)"><rect class="h" width="6.891" height="17.719" transform="translate(4.861 40.978)"/><path class="i" d="M200.452,294.98l-8.675,48.176,18.088-.094Z" transform="translate(-191.777 -294.98)"/></g><g transform="translate(107.391 173.014)"><rect class="h" width="6.891" height="17.719" transform="translate(4.861 40.978)"/><path class="i" d="M230.452,288.98l-8.675,48.176,18.088-.094Z" transform="translate(-221.777 -288.98)"/></g><g transform="translate(134.769 164.798)"><rect class="h" width="6.891" height="17.719" transform="translate(4.861 40.978)"/><path class="i" d="M258.452,284.98l-8.675,48.176,18.088-.094Z" transform="translate(-249.777 -284.98)"/></g><g transform="translate(365.893 150.143)"><path class="j" d="M523.182,258.9l36.713,32.468-3.841,4.334c-11.036-9.75-21.984-19.42-33.021-29.17l-32.994,29.134-3.915-4.18v-.319a6.964,6.964,0,0,0,.908-.589q17.922-15.831,35.832-31.677Z" transform="translate(-486.124 -258.9)"/><path class="k" d="M526.512,275.432q5.937,5.224,11.858,10.438c4.312,3.8,8.642,7.585,12.895,11.454a3.463,3.463,0,0,1,1.045,2.264c.069,10.117.049,20.233.043,30.349,0,2.159-.377,2.534-2.489,2.535-5,.007-10,0-15.227,0v-4.189c0-3.143.011-6.282,0-9.425-.008-1.789-.491-2.282-2.262-2.29q-5.91-.024-11.819,0c-1.794.007-2.273.484-2.278,2.271-.016,4.464-.005,8.93-.005,13.633h-2.111c-4.419,0-8.838.007-13.258,0-1.893,0-2.344-.439-2.345-2.36q-.016-15.335.023-30.668a2.658,2.658,0,0,1,.691-1.8q12.282-10.937,24.645-21.788C526.07,275.719,526.255,275.612,526.512,275.432Z" transform="translate(-489.553 -262.831)"/><path class="j" d="M500.681,265.218h9.089c0,1.648.013,3.275-.013,4.905a1.075,1.075,0,0,1-.28.708c-2.848,2.6-5.715,5.181-8.8,7.963Z" transform="translate(-489.586 -260.402)"/></g><path class="l" d="M387.34,337.09c-113.294,0-216.057,21.822-291.341,57.255v41.8c0,19.972,18.647,36.161,41.65,36.161H640.781c23,0,41.651-16.189,41.651-36.161V396.132C606.828,359.647,502.526,337.09,387.34,337.09Z" transform="translate(-95.989 -126.181)"/><path class="m" d="M483.893,342.334s-211.328,31.149-128.557,55.685c51.575,15.289,61.865,58.544,50.051,72.341l190.8-.248s-40.27-43.38-194.868-79.551c-62.627-13.424,91.209-46.736,91.209-46.736Z" transform="translate(-81.521 -124.612)"/><circle class="n" cx="22.866" cy="22.866" r="22.866" transform="translate(446.425 18.293)"/></g><g class="o" transform="translate(1466 1925)"><ellipse class="p" cx="50.5" cy="51" rx="50.5" ry="51"/><ellipse class="q" cx="50.5" cy="51" rx="49" ry="49.5"/></g><g transform="translate(2705.691 2111.753)"><g transform="translate(-1222.775 -172.412)"><g transform="translate(0)"><path class="a" d="M688.48,360.221a17.834,17.834,0,1,1-17.787-17.86A17.748,17.748,0,0,1,688.48,360.221Z" transform="translate(-637.355 -342.361)"/><g transform="translate(0 36.939)"><path class="a" d="M32.568,30.979h-.113v0c-6.7-.05-17.162-.426-23.7-.84a65.222,65.222,0,0,1-7.519-1.228c-.753-.135-1.342-.478-1.214-1.488.546-4.268,1.176-8.547,3.293-12.352A34.544,34.544,0,0,1,19.1.168a1.054,1.054,0,0,1,1.423.254,17.96,17.96,0,0,0,10.11,5.218C39.776,5.962,43.209,3.294,46.06.5A1.107,1.107,0,0,1,47.571.208C57.679,5.357,64.5,13.009,66.2,24.578c.106.726.224,1.448.333,2.17.245,1.645.1,1.943-1.55,2.315a46.979,46.979,0,0,1-5.144.894c-7.02.79-19.952.964-27.142,1.021v0Z" transform="translate(0 0)"/></g></g></g></g></g></svg>