<svg xmlns="http://www.w3.org/2000/svg" xmlns:xlink="http://www.w3.org/1999/xlink" width="1568.355" height="593" viewBox="0 0 1568.355 593"><defs><style>.a{fill:none;}.aa,.b,.e,.s{fill:#20783c;}.b{font-size:40px;}.ab,.b{font-family:SegoeUI, Segoe UI;}.c,.j{fill:#d9d9d9;}.c,.d{stroke:#a8a8a8;}.d,.h,.i,.o{fill:#a4a4a4;}.f{clip-path:url(#a);}.g,.w{fill:#f6f6f6;}.g,.k,.z{stroke:#707070;}.af,.k{fill:#707070;}.ab,.l,.z{fill:#fff;}.l,.m,.n,.o,.p,.r,.s,.t{fill-rule:evenodd;}.m{fill:#e8e8e8;}.n{fill:#bebebe;}.q{fill:#c6c6c6;}.r{fill:#777;}.t{fill:#e2e2e2;}.u{fill:#f2f2f2;}.v{fill:url(#b);}.x{fill:#d6d6d6;}.y{fill:#afafaf;}.z{stroke-width:5px;}.ab{font-size:26px;}.ac{fill:#f1f1f1;stroke:#606060;stroke-width:3px;}.ad{fill:#dedede;}.ae,.af{stroke:none;}</style><clipPath id="a"><rect class="a" width="456" height="411"/></clipPath><linearGradient id="b" x1="-0.049" y1="0.53" x2="1" y2="0.529" gradientUnits="objectBoundingBox"><stop offset="0" stop-color="#e5e5e5"/><stop offset="0.431" stop-color="#fff"/><stop offset="0.556" stop-color="#fff"/><stop offset="1" stop-color="#e6e6e6"/><stop offset="1" stop-color="#efefef"/></linearGradient></defs><g transform="translate(-272 -4814)"><g transform="translate(-91)"><text class="b" transform="translate(572 5344)"><tspan x="-134.355" y="0">Select a service</tspan><tspan x="-173.838" y="53">from main category</tspan></text><g transform="translate(363 4826)"><g class="c"><rect class="ae" width="419" height="58" rx="22"/><rect class="a" x="0.5" y="0.5" width="418" height="57" rx="21.5"/></g><g class="d" transform="translate(0 85)"><rect class="ae" width="419" height="58" rx="22"/><rect class="a" x="0.5" y="0.5" width="418" height="57" rx="21.5"/></g><g class="c" transform="translate(0 170)"><rect class="ae" width="419" height="58" rx="22"/><rect class="a" x="0.5" y="0.5" width="418" height="57" rx="21.5"/></g><g class="c" transform="translate(0 255)"><rect class="ae" width="419" height="58" rx="22"/><rect class="a" x="0.5" y="0.5" width="418" height="57" rx="21.5"/></g><g class="c" transform="translate(0 340)"><rect class="ae" width="419" height="58" rx="22"/><rect class="a" x="0.5" y="0.5" width="418" height="57" rx="21.5"/></g><g class="e" transform="translate(279.916 114.449) rotate(-25)"><path class="ae" d="M 42.86914825439453 120.7983093261719 L 26.68554878234863 120.7983093261719 L 26.68554878234863 96.22808074951172 L 26.68554878234863 95.51752471923828 L 26.01673316955566 95.7574462890625 L 0.7909625172615051 104.80615234375 L 34.3681640625 1.615908026695251 L 67.94535827636719 104.8061294555664 L 43.53797912597656 96.05062866210938 L 42.86914825439453 95.81070709228516 L 42.86914825439453 96.52126312255859 L 42.86914825439453 120.7983093261719 Z"/><path class="af" d="M 42.36914825439453 120.2983016967773 L 42.36914825439453 96.52127075195312 L 42.36914825439453 95.10015106201172 L 43.7067985534668 95.58000183105469 L 67.15438842773438 103.9912033081055 L 34.3681640625 3.23180103302002 L 1.581930875778198 103.9912338256836 L 25.84789657592773 95.28680419921875 L 27.185546875 94.80696868896484 L 27.185546875 96.22807312011719 L 27.185546875 120.2983016967773 L 42.36914825439453 120.2983016967773 M 43.36914825439453 121.2983016967773 L 26.185546875 121.2983016967773 L 26.185546875 96.22807312011719 L -2.604166638775496e-06 105.6210708618164 L 34.3681640625 4.663085746869911e-06 L 68.736328125 105.6210708618164 L 43.36914825439453 96.52127075195312 L 43.36914825439453 121.2983016967773 Z"/></g></g></g><g transform="translate(-183)"><text class="b" transform="translate(1201 5344)"><tspan x="-170.654" y="0">Select the best pick</tspan><tspan x="-161.523" y="53">using filter section</tspan></text><g transform="translate(965.598 4826)"><g class="f" transform="translate(0.402)"><g transform="translate(-808 -4826)"><g class="g" transform="translate(808 4826)"><rect class="ae" width="456" height="126" rx="15"/><rect class="a" x="0.5" y="0.5" width="455" height="125" rx="14.5"/></g><g class="h" transform="translate(1020 4834)"><path class="ae" d="M 16.5 32.5 C 12.22624015808105 32.5 8.208290100097656 30.8357105255127 5.18628978729248 27.8137092590332 C 2.164289951324463 24.79170989990234 0.5 20.77375984191895 0.5 16.5 C 0.5 12.22624015808105 2.164289951324463 8.208290100097656 5.18628978729248 5.18628978729248 C 8.208290100097656 2.164289951324463 12.22624015808105 0.5 16.5 0.5 C 20.77375984191895 0.5 24.79170989990234 2.164289951324463 27.8137092590332 5.18628978729248 C 30.8357105255127 8.208290100097656 32.5 12.22624015808105 32.5 16.5 C 32.5 20.77375984191895 30.8357105255127 24.79170989990234 27.8137092590332 27.8137092590332 C 24.79170989990234 30.8357105255127 20.77375984191895 32.5 16.5 32.5 Z"/><path class="af" d="M 16.5 1 C 12.35980033874512 1 8.467409133911133 2.612279891967773 5.539840698242188 5.539840698242188 C 2.612279891967773 8.467409133911133 1 12.35980033874512 1 16.5 C 1 20.64019966125488 2.612279891967773 24.53258895874023 5.539840698242188 27.46015930175781 C 8.467409133911133 30.38772010803223 12.35980033874512 32 16.5 32 C 20.64019966125488 32 24.53258895874023 30.38772010803223 27.46015930175781 27.46015930175781 C 30.38772010803223 24.53258895874023 32 20.64019966125488 32 16.5 C 32 12.35980033874512 30.38772010803223 8.467409133911133 27.46015930175781 5.539840698242188 C 24.53258895874023 2.612279891967773 20.64019966125488 1 16.5 1 M 16.5 0 C 25.61269950866699 0 33 7.387300491333008 33 16.5 C 33 25.61269950866699 25.61269950866699 33 16.5 33 C 7.387300491333008 33 0 25.61269950866699 0 16.5 C 0 7.387300491333008 7.387300491333008 0 16.5 0 Z"/></g><rect class="i" width="133" height="14" rx="7" transform="translate(1062 4842)"/><rect class="i" width="78" height="17" rx="8.5" transform="translate(1162 4926)"/><rect class="j" width="204" height="12" rx="6" transform="translate(1037 4878)"/><rect class="j" width="139" height="12" rx="6" transform="translate(1037 4898)"/><g transform="translate(814.765 4831.919)"><g class="k" transform="translate(0.235 0.081)"><rect class="ae" width="193" height="115" rx="16"/><rect class="a" x="0.5" y="0.5" width="192" height="114" rx="15.5"/></g><g transform="translate(0.846 0.846)"><path class="l" d="M286.144,180.546c0,6.89-6.079,12.475-13.577,12.475h-164c-7.5,0-13.576-5.585-13.576-12.475V92.475c0-6.89,6.078-12.475,13.576-12.475h164c7.5,0,13.577,5.585,13.577,12.475Z" transform="translate(-94.987 -80)"/><path class="m" d="M46.241,46.887l37.777-4.426,17.688-10.521L46.689,0,0,20.792Z" transform="matrix(1, -0.017, 0.017, 1, 61.658, 34.025)"/><path class="n" d="M554.253,313.171h54.016V285.108l-9.706-8.44Z" transform="translate(-416.983 -224.446)"/><path class="o" d="M95,251.338H205.5l-86.284-58.45L95,224.1Z" transform="translate(-94.997 -162.069)"/><path class="p" d="M398,310" transform="translate(-312.326 -250.242)"/><g transform="translate(24.062 58.374)"><rect class="q" width="2.248" height="5.779" transform="translate(1.585 13.366)"/><path class="r" d="M194.607,294.98l-2.83,15.713,5.9-.031Z" transform="translate(-191.777 -294.98)"/></g><g transform="translate(35.006 55.801)"><rect class="q" width="2.248" height="5.779" transform="translate(1.585 13.366)"/><path class="r" d="M224.607,288.98l-2.83,15.713,5.9-.031Z" transform="translate(-221.777 -288.98)"/></g><g transform="translate(43.957 53.752)"><rect class="q" width="2.248" height="5.779" transform="translate(1.585 13.366)"/><path class="r" d="M252.607,284.98l-2.83,15.713,5.9-.031Z" transform="translate(-249.777 -284.98)"/></g><g transform="translate(118.819 49.015)"><path class="r" d="M498.211,258.9l11.974,10.59-1.253,1.414-10.771-9.514-10.762,9.5-1.277-1.363v-.1a2.265,2.265,0,0,0,.3-.192q5.846-5.164,11.687-10.332Z" transform="translate(-486.124 -258.9)"/><path class="o" d="M509.015,275.432q1.937,1.7,3.868,3.4c1.406,1.241,2.819,2.474,4.206,3.736a1.129,1.129,0,0,1,.341.738c.023,3.3.016,6.6.014,9.9,0,.7-.123.827-.812.827-1.63,0-3.26,0-4.967,0v-1.366c0-1.025,0-2.049,0-3.074,0-.583-.16-.744-.738-.747q-1.928-.008-3.855,0c-.585,0-.741.158-.743.741-.005,1.456,0,2.913,0,4.446h-.688c-1.441,0-2.883,0-4.324,0-.617,0-.765-.143-.765-.77q-.005-5,.008-10a.866.866,0,0,1,.225-.586q4.006-3.567,8.038-7.107C508.871,275.526,508.931,275.491,509.015,275.432Z" transform="translate(-496.96 -271.322)"/><path class="r" d="M500.681,265.218h2.965c0,.538,0,1.068,0,1.6a.351.351,0,0,1-.091.231c-.929.848-1.864,1.69-2.869,2.6Z" transform="translate(-497.062 -263.647)"/></g><path class="s" d="M190.9,337.09c-36.9,0-70.379,7.118-94.9,18.675V369.4c0,6.514,6.074,11.794,13.567,11.794H273.459c7.493,0,13.568-5.28,13.568-11.794V356.348C262.4,344.447,228.423,337.09,190.9,337.09Z" transform="translate(-95.747 -268.298)"/><path class="t" d="M384.314,342.334s-68.928,10.383-41.931,18.562c16.822,5.1,20.178,19.515,16.325,24.115l62.234-.083s-13.135-14.46-63.56-26.518c-20.427-4.475,29.75-15.579,29.75-15.579Z" transform="translate(-253.073 -272.239)"/><circle class="u" cx="7.458" cy="7.458" r="7.458" transform="translate(145.609 5.966)"/></g></g></g><g transform="translate(-808 -4691)"><g class="g" transform="translate(808 4826)"><rect class="ae" width="456" height="126" rx="15"/><rect class="a" x="0.5" y="0.5" width="455" height="125" rx="14.5"/></g><g class="h" transform="translate(1020 4834)"><path class="ae" d="M 16.5 32.5 C 12.22624015808105 32.5 8.208290100097656 30.8357105255127 5.18628978729248 27.8137092590332 C 2.164289951324463 24.79170989990234 0.5 20.77375984191895 0.5 16.5 C 0.5 12.22624015808105 2.164289951324463 8.208290100097656 5.18628978729248 5.18628978729248 C 8.208290100097656 2.164289951324463 12.22624015808105 0.5 16.5 0.5 C 20.77375984191895 0.5 24.79170989990234 2.164289951324463 27.8137092590332 5.18628978729248 C 30.8357105255127 8.208290100097656 32.5 12.22624015808105 32.5 16.5 C 32.5 20.77375984191895 30.8357105255127 24.79170989990234 27.8137092590332 27.8137092590332 C 24.79170989990234 30.8357105255127 20.77375984191895 32.5 16.5 32.5 Z"/><path class="af" d="M 16.5 1 C 12.35980033874512 1 8.467409133911133 2.612279891967773 5.539840698242188 5.539840698242188 C 2.612279891967773 8.467409133911133 1 12.35980033874512 1 16.5 C 1 20.64019966125488 2.612279891967773 24.53258895874023 5.539840698242188 27.46015930175781 C 8.467409133911133 30.38772010803223 12.35980033874512 32 16.5 32 C 20.64019966125488 32 24.53258895874023 30.38772010803223 27.46015930175781 27.46015930175781 C 30.38772010803223 24.53258895874023 32 20.64019966125488 32 16.5 C 32 12.35980033874512 30.38772010803223 8.467409133911133 27.46015930175781 5.539840698242188 C 24.53258895874023 2.612279891967773 20.64019966125488 1 16.5 1 M 16.5 0 C 25.61269950866699 0 33 7.387300491333008 33 16.5 C 33 25.61269950866699 25.61269950866699 33 16.5 33 C 7.387300491333008 33 0 25.61269950866699 0 16.5 C 0 7.387300491333008 7.387300491333008 0 16.5 0 Z"/></g><rect class="i" width="133" height="14" rx="7" transform="translate(1062 4842)"/><rect class="i" width="78" height="17" rx="8.5" transform="translate(1162 4926)"/><rect class="j" width="204" height="12" rx="6" transform="translate(1037 4878)"/><rect class="j" width="139" height="12" rx="6" transform="translate(1037 4898)"/><g transform="translate(814.765 4831.919)"><g class="k" transform="translate(0.235 0.081)"><rect class="ae" width="193" height="115" rx="16"/><rect class="a" x="0.5" y="0.5" width="192" height="114" rx="15.5"/></g><g transform="translate(0.846 0.846)"><path class="l" d="M286.144,180.546c0,6.89-6.079,12.475-13.577,12.475h-164c-7.5,0-13.576-5.585-13.576-12.475V92.475c0-6.89,6.078-12.475,13.576-12.475h164c7.5,0,13.577,5.585,13.577,12.475Z" transform="translate(-94.987 -80)"/><path class="m" d="M46.241,46.887l37.777-4.426,17.688-10.521L46.689,0,0,20.792Z" transform="matrix(1, -0.017, 0.017, 1, 61.658, 34.025)"/><path class="n" d="M554.253,313.171h54.016V285.108l-9.706-8.44Z" transform="translate(-416.983 -224.446)"/><path class="o" d="M95,251.338H205.5l-86.284-58.45L95,224.1Z" transform="translate(-94.997 -162.069)"/><path class="p" d="M398,310" transform="translate(-312.326 -250.242)"/><g transform="translate(24.062 58.374)"><rect class="q" width="2.248" height="5.779" transform="translate(1.585 13.366)"/><path class="r" d="M194.607,294.98l-2.83,15.713,5.9-.031Z" transform="translate(-191.777 -294.98)"/></g><g transform="translate(35.006 55.801)"><rect class="q" width="2.248" height="5.779" transform="translate(1.585 13.366)"/><path class="r" d="M224.607,288.98l-2.83,15.713,5.9-.031Z" transform="translate(-221.777 -288.98)"/></g><g transform="translate(43.957 53.752)"><rect class="q" width="2.248" height="5.779" transform="translate(1.585 13.366)"/><path class="r" d="M252.607,284.98l-2.83,15.713,5.9-.031Z" transform="translate(-249.777 -284.98)"/></g><g transform="translate(118.819 49.015)"><path class="r" d="M498.211,258.9l11.974,10.59-1.253,1.414-10.771-9.514-10.762,9.5-1.277-1.363v-.1a2.265,2.265,0,0,0,.3-.192q5.846-5.164,11.687-10.332Z" transform="translate(-486.124 -258.9)"/><path class="o" d="M509.015,275.432q1.937,1.7,3.868,3.4c1.406,1.241,2.819,2.474,4.206,3.736a1.129,1.129,0,0,1,.341.738c.023,3.3.016,6.6.014,9.9,0,.7-.123.827-.812.827-1.63,0-3.26,0-4.967,0v-1.366c0-1.025,0-2.049,0-3.074,0-.583-.16-.744-.738-.747q-1.928-.008-3.855,0c-.585,0-.741.158-.743.741-.005,1.456,0,2.913,0,4.446h-.688c-1.441,0-2.883,0-4.324,0-.617,0-.765-.143-.765-.77q-.005-5,.008-10a.866.866,0,0,1,.225-.586q4.006-3.567,8.038-7.107C508.871,275.526,508.931,275.491,509.015,275.432Z" transform="translate(-496.96 -271.322)"/><path class="r" d="M500.681,265.218h2.965c0,.538,0,1.068,0,1.6a.351.351,0,0,1-.091.231c-.929.848-1.864,1.69-2.869,2.6Z" transform="translate(-497.062 -263.647)"/></g><path class="s" d="M190.9,337.09c-36.9,0-70.379,7.118-94.9,18.675V369.4c0,6.514,6.074,11.794,13.567,11.794H273.459c7.493,0,13.568-5.28,13.568-11.794V356.348C262.4,344.447,228.423,337.09,190.9,337.09Z" transform="translate(-95.747 -268.298)"/><path class="t" d="M384.314,342.334s-68.928,10.383-41.931,18.562c16.822,5.1,20.178,19.515,16.325,24.115l62.234-.083s-13.135-14.46-63.56-26.518c-20.427-4.475,29.75-15.579,29.75-15.579Z" transform="translate(-253.073 -272.239)"/><circle class="u" cx="7.458" cy="7.458" r="7.458" transform="translate(145.609 5.966)"/></g></g></g><g transform="translate(-808 -4556)"><g class="g" transform="translate(808 4826)"><rect class="ae" width="456" height="126" rx="15"/><rect class="a" x="0.5" y="0.5" width="455" height="125" rx="14.5"/></g><g class="h" transform="translate(1020 4834)"><path class="ae" d="M 16.5 32.5 C 12.22624015808105 32.5 8.208290100097656 30.8357105255127 5.18628978729248 27.8137092590332 C 2.164289951324463 24.79170989990234 0.5 20.77375984191895 0.5 16.5 C 0.5 12.22624015808105 2.164289951324463 8.208290100097656 5.18628978729248 5.18628978729248 C 8.208290100097656 2.164289951324463 12.22624015808105 0.5 16.5 0.5 C 20.77375984191895 0.5 24.79170989990234 2.164289951324463 27.8137092590332 5.18628978729248 C 30.8357105255127 8.208290100097656 32.5 12.22624015808105 32.5 16.5 C 32.5 20.77375984191895 30.8357105255127 24.79170989990234 27.8137092590332 27.8137092590332 C 24.79170989990234 30.8357105255127 20.77375984191895 32.5 16.5 32.5 Z"/><path class="af" d="M 16.5 1 C 12.35980033874512 1 8.467409133911133 2.612279891967773 5.539840698242188 5.539840698242188 C 2.612279891967773 8.467409133911133 1 12.35980033874512 1 16.5 C 1 20.64019966125488 2.612279891967773 24.53258895874023 5.539840698242188 27.46015930175781 C 8.467409133911133 30.38772010803223 12.35980033874512 32 16.5 32 C 20.64019966125488 32 24.53258895874023 30.38772010803223 27.46015930175781 27.46015930175781 C 30.38772010803223 24.53258895874023 32 20.64019966125488 32 16.5 C 32 12.35980033874512 30.38772010803223 8.467409133911133 27.46015930175781 5.539840698242188 C 24.53258895874023 2.612279891967773 20.64019966125488 1 16.5 1 M 16.5 0 C 25.61269950866699 0 33 7.387300491333008 33 16.5 C 33 25.61269950866699 25.61269950866699 33 16.5 33 C 7.387300491333008 33 0 25.61269950866699 0 16.5 C 0 7.387300491333008 7.387300491333008 0 16.5 0 Z"/></g><rect class="i" width="133" height="14" rx="7" transform="translate(1062 4842)"/><rect class="i" width="78" height="17" rx="8.5" transform="translate(1162 4926)"/><rect class="j" width="204" height="12" rx="6" transform="translate(1037 4878)"/><rect class="j" width="139" height="12" rx="6" transform="translate(1037 4898)"/><g transform="translate(814.765 4831.919)"><g class="k" transform="translate(0.235 0.081)"><rect class="ae" width="193" height="115" rx="16"/><rect class="a" x="0.5" y="0.5" width="192" height="114" rx="15.5"/></g><g transform="translate(0.846 0.846)"><path class="l" d="M286.144,180.546c0,6.89-6.079,12.475-13.577,12.475h-164c-7.5,0-13.576-5.585-13.576-12.475V92.475c0-6.89,6.078-12.475,13.576-12.475h164c7.5,0,13.577,5.585,13.577,12.475Z" transform="translate(-94.987 -80)"/><path class="m" d="M46.241,46.887l37.777-4.426,17.688-10.521L46.689,0,0,20.792Z" transform="matrix(1, -0.017, 0.017, 1, 61.658, 34.025)"/><path class="n" d="M554.253,313.171h54.016V285.108l-9.706-8.44Z" transform="translate(-416.983 -224.446)"/><path class="o" d="M95,251.338H205.5l-86.284-58.45L95,224.1Z" transform="translate(-94.997 -162.069)"/><path class="p" d="M398,310" transform="translate(-312.326 -250.242)"/><g transform="translate(24.062 58.374)"><rect class="q" width="2.248" height="5.779" transform="translate(1.585 13.366)"/><path class="r" d="M194.607,294.98l-2.83,15.713,5.9-.031Z" transform="translate(-191.777 -294.98)"/></g><g transform="translate(35.006 55.801)"><rect class="q" width="2.248" height="5.779" transform="translate(1.585 13.366)"/><path class="r" d="M224.607,288.98l-2.83,15.713,5.9-.031Z" transform="translate(-221.777 -288.98)"/></g><g transform="translate(43.957 53.752)"><rect class="q" width="2.248" height="5.779" transform="translate(1.585 13.366)"/><path class="r" d="M252.607,284.98l-2.83,15.713,5.9-.031Z" transform="translate(-249.777 -284.98)"/></g><g transform="translate(118.819 49.015)"><path class="r" d="M498.211,258.9l11.974,10.59-1.253,1.414-10.771-9.514-10.762,9.5-1.277-1.363v-.1a2.265,2.265,0,0,0,.3-.192q5.846-5.164,11.687-10.332Z" transform="translate(-486.124 -258.9)"/><path class="o" d="M509.015,275.432q1.937,1.7,3.868,3.4c1.406,1.241,2.819,2.474,4.206,3.736a1.129,1.129,0,0,1,.341.738c.023,3.3.016,6.6.014,9.9,0,.7-.123.827-.812.827-1.63,0-3.26,0-4.967,0v-1.366c0-1.025,0-2.049,0-3.074,0-.583-.16-.744-.738-.747q-1.928-.008-3.855,0c-.585,0-.741.158-.743.741-.005,1.456,0,2.913,0,4.446h-.688c-1.441,0-2.883,0-4.324,0-.617,0-.765-.143-.765-.77q-.005-5,.008-10a.866.866,0,0,1,.225-.586q4.006-3.567,8.038-7.107C508.871,275.526,508.931,275.491,509.015,275.432Z" transform="translate(-496.96 -271.322)"/><path class="r" d="M500.681,265.218h2.965c0,.538,0,1.068,0,1.6a.351.351,0,0,1-.091.231c-.929.848-1.864,1.69-2.869,2.6Z" transform="translate(-497.062 -263.647)"/></g><path class="s" d="M190.9,337.09c-36.9,0-70.379,7.118-94.9,18.675V369.4c0,6.514,6.074,11.794,13.567,11.794H273.459c7.493,0,13.568-5.28,13.568-11.794V356.348C262.4,344.447,228.423,337.09,190.9,337.09Z" transform="translate(-95.747 -268.298)"/><path class="t" d="M384.314,342.334s-68.928,10.383-41.931,18.562c16.822,5.1,20.178,19.515,16.325,24.115l62.234-.083s-13.135-14.46-63.56-26.518c-20.427-4.475,29.75-15.579,29.75-15.579Z" transform="translate(-253.073 -272.239)"/><circle class="u" cx="7.458" cy="7.458" r="7.458" transform="translate(145.609 5.966)"/></g></g></g><g transform="translate(-808 -4421)"><g class="g" transform="translate(808 4826)"><rect class="ae" width="456" height="126" rx="15"/><rect class="a" x="0.5" y="0.5" width="455" height="125" rx="14.5"/></g><g class="h" transform="translate(1020 4834)"><path class="ae" d="M 16.5 32.5 C 12.22624015808105 32.5 8.208290100097656 30.8357105255127 5.18628978729248 27.8137092590332 C 2.164289951324463 24.79170989990234 0.5 20.77375984191895 0.5 16.5 C 0.5 12.22624015808105 2.164289951324463 8.208290100097656 5.18628978729248 5.18628978729248 C 8.208290100097656 2.164289951324463 12.22624015808105 0.5 16.5 0.5 C 20.77375984191895 0.5 24.79170989990234 2.164289951324463 27.8137092590332 5.18628978729248 C 30.8357105255127 8.208290100097656 32.5 12.22624015808105 32.5 16.5 C 32.5 20.77375984191895 30.8357105255127 24.79170989990234 27.8137092590332 27.8137092590332 C 24.79170989990234 30.8357105255127 20.77375984191895 32.5 16.5 32.5 Z"/><path class="af" d="M 16.5 1 C 12.35980033874512 1 8.467409133911133 2.612279891967773 5.539840698242188 5.539840698242188 C 2.612279891967773 8.467409133911133 1 12.35980033874512 1 16.5 C 1 20.64019966125488 2.612279891967773 24.53258895874023 5.539840698242188 27.46015930175781 C 8.467409133911133 30.38772010803223 12.35980033874512 32 16.5 32 C 20.64019966125488 32 24.53258895874023 30.38772010803223 27.46015930175781 27.46015930175781 C 30.38772010803223 24.53258895874023 32 20.64019966125488 32 16.5 C 32 12.35980033874512 30.38772010803223 8.467409133911133 27.46015930175781 5.539840698242188 C 24.53258895874023 2.612279891967773 20.64019966125488 1 16.5 1 M 16.5 0 C 25.61269950866699 0 33 7.387300491333008 33 16.5 C 33 25.61269950866699 25.61269950866699 33 16.5 33 C 7.387300491333008 33 0 25.61269950866699 0 16.5 C 0 7.387300491333008 7.387300491333008 0 16.5 0 Z"/></g><rect class="i" width="133" height="14" rx="7" transform="translate(1062 4842)"/><rect class="i" width="78" height="17" rx="8.5" transform="translate(1162 4926)"/><rect class="j" width="204" height="12" rx="6" transform="translate(1037 4878)"/><rect class="j" width="139" height="12" rx="6" transform="translate(1037 4898)"/><g transform="translate(814.765 4831.919)"><g class="k" transform="translate(0.235 0.081)"><rect class="ae" width="193" height="115" rx="16"/><rect class="a" x="0.5" y="0.5" width="192" height="114" rx="15.5"/></g><g transform="translate(0.846 0.846)"><path class="l" d="M286.144,180.546c0,6.89-6.079,12.475-13.577,12.475h-164c-7.5,0-13.576-5.585-13.576-12.475V92.475c0-6.89,6.078-12.475,13.576-12.475h164c7.5,0,13.577,5.585,13.577,12.475Z" transform="translate(-94.987 -80)"/><path class="m" d="M46.241,46.887l37.777-4.426,17.688-10.521L46.689,0,0,20.792Z" transform="matrix(1, -0.017, 0.017, 1, 61.658, 34.025)"/><path class="n" d="M554.253,313.171h54.016V285.108l-9.706-8.44Z" transform="translate(-416.983 -224.446)"/><path class="o" d="M95,251.338H205.5l-86.284-58.45L95,224.1Z" transform="translate(-94.997 -162.069)"/><path class="p" d="M398,310" transform="translate(-312.326 -250.242)"/><g transform="translate(24.062 58.374)"><rect class="q" width="2.248" height="5.779" transform="translate(1.585 13.366)"/><path class="r" d="M194.607,294.98l-2.83,15.713,5.9-.031Z" transform="translate(-191.777 -294.98)"/></g><g transform="translate(35.006 55.801)"><rect class="q" width="2.248" height="5.779" transform="translate(1.585 13.366)"/><path class="r" d="M224.607,288.98l-2.83,15.713,5.9-.031Z" transform="translate(-221.777 -288.98)"/></g><g transform="translate(43.957 53.752)"><rect class="q" width="2.248" height="5.779" transform="translate(1.585 13.366)"/><path class="r" d="M252.607,284.98l-2.83,15.713,5.9-.031Z" transform="translate(-249.777 -284.98)"/></g><g transform="translate(118.819 49.015)"><path class="r" d="M498.211,258.9l11.974,10.59-1.253,1.414-10.771-9.514-10.762,9.5-1.277-1.363v-.1a2.265,2.265,0,0,0,.3-.192q5.846-5.164,11.687-10.332Z" transform="translate(-486.124 -258.9)"/><path class="o" d="M509.015,275.432q1.937,1.7,3.868,3.4c1.406,1.241,2.819,2.474,4.206,3.736a1.129,1.129,0,0,1,.341.738c.023,3.3.016,6.6.014,9.9,0,.7-.123.827-.812.827-1.63,0-3.26,0-4.967,0v-1.366c0-1.025,0-2.049,0-3.074,0-.583-.16-.744-.738-.747q-1.928-.008-3.855,0c-.585,0-.741.158-.743.741-.005,1.456,0,2.913,0,4.446h-.688c-1.441,0-2.883,0-4.324,0-.617,0-.765-.143-.765-.77q-.005-5,.008-10a.866.866,0,0,1,.225-.586q4.006-3.567,8.038-7.107C508.871,275.526,508.931,275.491,509.015,275.432Z" transform="translate(-496.96 -271.322)"/><path class="r" d="M500.681,265.218h2.965c0,.538,0,1.068,0,1.6a.351.351,0,0,1-.091.231c-.929.848-1.864,1.69-2.869,2.6Z" transform="translate(-497.062 -263.647)"/></g><path class="s" d="M190.9,337.09c-36.9,0-70.379,7.118-94.9,18.675V369.4c0,6.514,6.074,11.794,13.567,11.794H273.459c7.493,0,13.568-5.28,13.568-11.794V356.348C262.4,344.447,228.423,337.09,190.9,337.09Z" transform="translate(-95.747 -268.298)"/><path class="t" d="M384.314,342.334s-68.928,10.383-41.931,18.562c16.822,5.1,20.178,19.515,16.325,24.115l62.234-.083s-13.135-14.46-63.56-26.518c-20.427-4.475,29.75-15.579,29.75-15.579Z" transform="translate(-253.073 -272.239)"/><circle class="u" cx="7.458" cy="7.458" r="7.458" transform="translate(145.609 5.966)"/></g></g></g></g><g class="e" transform="translate(373.259 124.449) rotate(-25)"><path class="ae" d="M 42.86914825439453 120.7983093261719 L 26.68554878234863 120.7983093261719 L 26.68554878234863 96.22808074951172 L 26.68554878234863 95.51752471923828 L 26.01673316955566 95.7574462890625 L 0.7909625172615051 104.80615234375 L 34.3681640625 1.615908026695251 L 67.94535827636719 104.8061294555664 L 43.53797912597656 96.05062866210938 L 42.86914825439453 95.81070709228516 L 42.86914825439453 96.52126312255859 L 42.86914825439453 120.7983093261719 Z"/><path class="af" d="M 42.36914825439453 120.2983016967773 L 42.36914825439453 96.52127075195312 L 42.36914825439453 95.10015106201172 L 43.7067985534668 95.58000183105469 L 67.15438842773438 103.9912033081055 L 34.3681640625 3.23180103302002 L 1.581930875778198 103.9912338256836 L 25.84789657592773 95.28680419921875 L 27.185546875 94.80696868896484 L 27.185546875 96.22807312011719 L 27.185546875 120.2983016967773 L 42.36914825439453 120.2983016967773 M 43.36914825439453 121.2983016967773 L 26.185546875 121.2983016967773 L 26.185546875 96.22807312011719 L -2.604166638775496e-06 105.6210708618164 L 34.3681640625 4.663085746869911e-06 L 68.736328125 105.6210708618164 L 43.36914825439453 96.52127075195312 L 43.36914825439453 121.2983016967773 Z"/></g></g></g><g transform="translate(-150)"><text class="b" transform="translate(1735 5344)"><tspan x="-158.398" y="0">Contact them and</tspan><tspan x="-147.598" y="53">get the job done</tspan></text><g transform="translate(1489.453 4814)"><rect class="v" width="475.518" height="113" rx="30"/><rect class="w" width="475.518" height="278" rx="30" transform="translate(0 127)"/><g transform="translate(23 16)"><rect class="x" width="107" height="16" rx="8" transform="translate(53.547 26)"/><rect class="y" width="173" height="17" rx="8.5" transform="translate(49.547 8)"/><g class="z" transform="translate(-0.453)"><circle class="ae" cx="38.5" cy="38.5" r="38.5"/><circle class="a" cx="38.5" cy="38.5" r="41"/></g><path class="y" d="M643.039,329.186a11.026,11.026,0,0,0-10.963,11.15,11.653,11.653,0,0,0,11.37,10.909,11.184,11.184,0,0,0,10.816-11.31A10.691,10.691,0,0,0,643.039,329.186Z" transform="translate(-605.463 -310.526)"/><path class="y" d="M592.65,274.667a38.316,38.316,0,1,0,38.316,38.316A38.359,38.359,0,0,0,592.65,274.667Zm23.183,58.376c-8.386-15.162-36.92-15.843-47.125-1.124-7.669-6.777-9.514-19.529-5.622-30.076a31.522,31.522,0,0,1,3.435-6.6,25.876,25.876,0,0,1,2.573-3.128,37.956,37.956,0,0,1,11.774-8.445,31.57,31.57,0,0,1,23.737.071,38.124,38.124,0,0,1,12.117,8.958c.594.639,1.147,1.305,1.672,1.99a31.55,31.55,0,0,1,3.1,31.184A22.952,22.952,0,0,1,615.833,333.043Z" transform="translate(-554.334 -274.667)"/></g><g transform="translate(299.254 31)"><rect class="aa" width="153.819" height="47.063" rx="23.531"/><text class="ab" transform="translate(32.293 31)"><tspan x="0" y="0">Contact</tspan></text></g><g transform="translate(85 135)"><rect class="j" width="153.204" height="16.918" rx="8.459" transform="translate(77)"/><rect class="j" width="305.541" height="16.918" rx="8.459" transform="translate(0 25.104)"/></g><g transform="translate(26 216)"><rect class="i" width="201" height="119" rx="26" transform="translate(-0.453)"/><g class="ac" transform="translate(4.547 106)"><ellipse class="ae" cx="17.5" cy="17" rx="17.5" ry="17"/><ellipse class="a" cx="17.5" cy="17" rx="16" ry="15.5"/></g><rect class="ad" width="80" height="6" rx="3" transform="translate(41.547 126)"/><rect class="ad" width="125" height="7" rx="3.5" transform="translate(41.547 136)"/><rect class="ad" width="66" height="6" rx="3" transform="translate(41.547 147)"/><g transform="translate(222)"><rect class="i" width="201" height="119" rx="26" transform="translate(-0.453)"/><g class="ac" transform="translate(7.547 106)"><ellipse class="ae" cx="17.5" cy="17" rx="17.5" ry="17"/><ellipse class="a" cx="17.5" cy="17" rx="16" ry="15.5"/></g><rect class="ad" width="77" height="6" rx="3" transform="translate(44.547 126)"/><rect class="ad" width="125" height="7" rx="3.5" transform="translate(44.547 136)"/><rect class="ad" width="64" height="6" rx="3" transform="translate(44.547 147)"/></g></g><g class="e" transform="translate(387.343 67.449) rotate(-25)"><path class="ae" d="M 42.86914825439453 120.7983093261719 L 26.68554878234863 120.7983093261719 L 26.68554878234863 96.22808074951172 L 26.68554878234863 95.51752471923828 L 26.01673316955566 95.7574462890625 L 0.7909625172615051 104.80615234375 L 34.3681640625 1.615908026695251 L 67.94535827636719 104.8061294555664 L 43.53797912597656 96.05062866210938 L 42.86914825439453 95.81070709228516 L 42.86914825439453 96.52126312255859 L 42.86914825439453 120.7983093261719 Z"/><path class="af" d="M 42.36914825439453 120.2983016967773 L 42.36914825439453 96.52127075195312 L 42.36914825439453 95.10015106201172 L 43.7067985534668 95.58000183105469 L 67.15438842773438 103.9912033081055 L 34.3681640625 3.23180103302002 L 1.581930875778198 103.9912338256836 L 25.84789657592773 95.28680419921875 L 27.185546875 94.80696868896484 L 27.185546875 96.22807312011719 L 27.185546875 120.2983016967773 L 42.36914825439453 120.2983016967773 M 43.36914825439453 121.2983016967773 L 26.185546875 121.2983016967773 L 26.185546875 96.22807312011719 L -2.604166638775496e-06 105.6210708618164 L 34.3681640625 4.663085746869911e-06 L 68.736328125 105.6210708618164 L 43.36914825439453 96.52127075195312 L 43.36914825439453 121.2983016967773 Z"/></g></g></g></g></svg>