<svg xmlns="http://www.w3.org/2000/svg" width="602.284" height="291.998" viewBox="0 0 602.284 291.998"><defs><style>.a{fill:#20783c;}.b{fill:#8f8f8f;}.c{fill:#b7b7b7;}</style></defs><g transform="translate(-267.224 -2250.772)"><g transform="translate(267.224 2250.772)"><g transform="translate(0 0)"><path class="a" d="M805.706,418.92a76.447,76.447,0,1,1-152.894-.221c.186-40.347,31.876-76.115,76.648-76.338C771.876,342.155,805.706,376.529,805.706,418.92Z" transform="translate(-586.556 -342.361)"/><g transform="translate(0 158.344)"><path class="a" d="M825.2,525.84c-.467-3.1-.972-6.19-1.428-9.3-7.3-49.592-36.533-82.395-79.864-104.465-2.763-1.409-4.347-.853-6.48,1.239-12.243,12.015-26.465,19.516-42.6,21.985a14.442,14.442,0,0,1-6.165,21.794l16.252,87.342c30.6-.234,61.155-1.414,91.592-4.837a201.545,201.545,0,0,0,22.051-3.834C825.651,534.169,826.251,532.888,825.2,525.84Z" transform="translate(-539.993 -411.18)"/><path class="a" d="M762.923,457.649a14.435,14.435,0,0,1-7.59-22.219c-16.578-2.446-31.021-10.2-43.37-22.375-2.057-2.034-3.524-2.29-6.1-1.087-29.584,13.877-51.939,35.559-67.685,63.879-9.071,16.312-11.769,34.655-14.114,52.951-.547,4.328,1.979,5.8,5.2,6.379,10.707,1.959,21.419,4.574,32.232,5.262,28.382,1.8,56.787,3.1,85.19,4.462Z" transform="translate(-623.989 -411.245)"/></g></g></g><g transform="translate(552.438 2353.295)"><g transform="translate(0 0)"><path class="b" d="M590.488,403.564c2.272-.548,4.535-1.068,6.79-1.642,11.307-2.871,22.615-5.706,33.9-8.633,18.47-4.787,36.914-9.647,55.373-14.457,13.939-3.635,27.893-7.2,41.82-10.878,6.8-1.79,13.564-3.715,20.328-5.629a13.954,13.954,0,0,1,9.4.537c9.7,3.893,19.562,7.373,29.308,11.143,17.535,6.76,35.023,13.63,52.538,20.422q26.63,10.329,53.283,20.573c4.54,1.745,9.106,3.42,14.318,5.377l-35.92,13.575c1.758,3.935,3.491,7.587,5.055,11.307,2.969,7.1,2.167,14.393.6,21.584-1.267,5.811-3.155,11.483-4.6,17.267a5.263,5.263,0,0,0,.455,3.571c3.242,5.453,2.065,10.642-3.292,14.2a3.362,3.362,0,0,0-1.5,2.348c.581,10.85,3.623,20.866,10.505,29.478a39.6,39.6,0,0,0,3.681,3.445c-5.8,2.1-10.981,4.382-16.4,5.8-4.549,1.191-6.228-3.054-7.777-6.047-6.232-12.053-5.311-24.181.366-36.226a4.812,4.812,0,0,0,.165-3.445c-2.1-5.153-.947-9.332,3.743-12.791.468-.34,1.077-.736,1.214-1.223,2.983-10.335,6.534-20.678,3.813-31.619-.962-3.854-3.023-7.442-4.586-11.149-1.145-2.7-3.066-2.387-5.322-1.514q-19,7.263-38.042,14.405c-19.49,7.293-39.356,13.744-58.338,22.176-8.369,3.72-13.657-.359-19.93-2.817-6.852-2.675-13.4-6.127-20.1-9.188q-18.995-8.7-38.005-17.318c-11.611-5.254-23.271-10.4-34.88-15.664-15.048-6.822-30.06-13.719-45.1-20.555-4.264-1.941-8.58-3.781-12.876-5.667C590.476,404.058,590.484,403.808,590.488,403.564Z" transform="translate(-590.472 -361.753)"/><path class="c" d="M714.639,497.243c-19.821-33.288-48.53-49.771-87.758-47.746-.585-14.311,2.823-27.921,8.1-41.526,7.642,3.407,15.107,6.694,22.543,10.047,6.93,3.128,13.824,6.337,20.736,9.492q17.848,8.164,35.7,16.3a72.346,72.346,0,0,0,9.149,3.935,10.274,10.274,0,0,0,6.092-.148c15.843-5.828,31.608-11.863,47.385-17.841,10.535-3.992,21.078-7.985,32.189-12.2a95.244,95.244,0,0,1,1.306,49.315c-17.665-4.545-35.232-4.806-52.478.771C740.534,473.163,726.595,483.581,714.639,497.243Z" transform="translate(-562.214 -325.817)"/></g></g></g></svg>