<svg xmlns="http://www.w3.org/2000/svg" width="475.518" height="484" viewBox="0 0 475.518 484"><defs><style>.a{fill:#f6f6f6;}.b,.f,.l{fill:#a4a4a4;}.c{fill:#f1f1f1;stroke:#606060;stroke-width:3px;}.d{fill:#dedede;}.e,.i{fill:#fff;}.e,.f,.h{stroke:#707070;}.g{fill:#d9d9d9;}.h,.u{fill:#707070;}.i,.j,.k,.l,.m,.o,.p,.q{fill-rule:evenodd;}.j{fill:#e8e8e8;}.k{fill:#bebebe;}.n{fill:#c6c6c6;}.o{fill:#777;}.p{fill:#20783c;}.q{fill:#e2e2e2;}.r{fill:#f2f2f2;}.s{fill:#afafaf;}.t,.u{stroke:none;}.v{fill:none;}</style></defs><g transform="translate(-1474.453 -7300)"><g class="a" transform="translate(1474.453 7300)"><path class="t" d="M 445.5176086425781 483 L 30.00003814697266 483 C 26.08460235595703 483 22.28685188293457 482.2333679199219 18.71222686767578 480.721435546875 C 15.2590389251709 479.2608642578125 12.15753936767578 477.1697387695312 9.493913650512695 474.5061340332031 C 6.830288887023926 471.8424987792969 4.739163875579834 468.7409973144531 3.27860164642334 465.2878112792969 C 1.766664028167725 461.7131958007812 1.000039100646973 457.9154357910156 1.000039100646973 454 L 1.000039100646973 30 C 1.000039100646973 26.08456230163574 1.766664028167725 22.28681182861328 3.27860164642334 18.71218681335449 C 4.739163875579834 15.25899982452393 6.830288887023926 12.15750026702881 9.493913650512695 9.493874549865723 C 12.15753936767578 6.830249786376953 15.2590389251709 4.739124774932861 18.71222686767578 3.278562545776367 C 22.28685188293457 1.766625046730042 26.08460235595703 1 30.00003814697266 1 L 445.5176086425781 1 C 449.4330444335938 1 453.2307739257812 1.766625046730042 456.805419921875 3.278562545776367 C 460.258544921875 4.739124774932861 463.3600463867188 6.830249786376953 466.0236511230469 9.493874549865723 C 468.6872863769531 12.15750026702881 470.7784729003906 15.25899982452393 472.2390441894531 18.71218681335449 C 473.7509765625 22.28681182861328 474.5176086425781 26.08456230163574 474.5176086425781 30 L 474.5176086425781 454 C 474.5176086425781 457.9154357910156 473.7509765625 461.7131958007812 472.2390441894531 465.2878112792969 C 470.7784729003906 468.7409973144531 468.6872863769531 471.8424987792969 466.0236511230469 474.5061340332031 C 463.3600463867188 477.1697387695312 460.258544921875 479.2608642578125 456.805419921875 480.721435546875 C 453.2307739257812 482.2333679199219 449.4330444335938 483 445.5176086425781 483 Z"/><path class="u" d="M 29.99996948242188 2 C 26.2191162109375 2 22.55242919921875 2.74005126953125 19.10171508789062 4.199554443359375 C 15.76779174804688 5.60968017578125 12.77310180664062 7.628875732421875 10.20098876953125 10.20098876953125 C 7.62884521484375 12.77313232421875 5.6097412109375 15.76776123046875 4.19952392578125 19.10174560546875 C 2.74005126953125 22.55242919921875 1.999969482421875 26.2191162109375 1.999969482421875 30 L 1.999969482421875 454 C 1.999969482421875 457.7808837890625 2.74005126953125 461.4475708007812 4.19952392578125 464.8982543945312 C 5.6097412109375 468.2322387695312 7.62884521484375 471.2268676757812 10.20098876953125 473.7990112304688 C 12.77310180664062 476.3711242675781 15.76779174804688 478.3903198242188 19.10171508789062 479.8004455566406 C 22.55242919921875 481.2599487304688 26.2191162109375 482 29.99996948242188 482 L 445.5175476074219 482 C 449.2984008789062 482 452.965087890625 481.2599487304688 456.4158020019531 479.8004455566406 C 459.7497863769531 478.3903198242188 462.7444152832031 476.3711242675781 465.3165283203125 473.7990112304688 C 467.888671875 471.2268676757812 469.9078369140625 468.2322387695312 471.3179626464844 464.8982543945312 C 472.7774658203125 461.4475708007812 473.5175476074219 457.7808837890625 473.5175476074219 454 L 473.5175476074219 30 C 473.5175476074219 26.2191162109375 472.7774658203125 22.55242919921875 471.3179626464844 19.10174560546875 C 469.9078369140625 15.76776123046875 467.888671875 12.77313232421875 465.3165283203125 10.20098876953125 C 462.7444152832031 7.628875732421875 459.7497863769531 5.60968017578125 456.4158020019531 4.199554443359375 C 452.965087890625 2.74005126953125 449.2984008789062 2 445.5175476074219 2 L 29.99996948242188 2 M 29.99996948242188 0 L 445.5175476074219 0 C 462.0860900878906 0 475.5175476074219 13.43142700195312 475.5175476074219 30 L 475.5175476074219 454 C 475.5175476074219 470.5685729980469 462.0860900878906 484 445.5175476074219 484 L 29.99996948242188 484 C 13.43148803710938 484 -3.0517578125e-05 470.5685729980469 -3.0517578125e-05 454 L -3.0517578125e-05 30 C -3.0517578125e-05 13.43142700195312 13.43148803710938 0 29.99996948242188 0 Z"/></g><g transform="translate(1500.453 7319)"><rect class="b" width="201" height="119" rx="26" transform="translate(-0.453)"/><g class="c" transform="translate(4.547 106)"><ellipse class="t" cx="17.5" cy="17" rx="17.5" ry="17"/><ellipse class="v" cx="17.5" cy="17" rx="16" ry="15.5"/></g><rect class="d" width="80" height="6" rx="3" transform="translate(41.547 126)"/><rect class="d" width="125" height="7" rx="3.5" transform="translate(41.547 136)"/><rect class="d" width="66" height="6" rx="3" transform="translate(41.547 147)"/><g transform="translate(222)"><rect class="b" width="201" height="119" rx="26" transform="translate(-0.453)"/><g class="c" transform="translate(7.547 106)"><ellipse class="t" cx="17.5" cy="17" rx="17.5" ry="17"/><ellipse class="v" cx="17.5" cy="17" rx="16" ry="15.5"/></g><rect class="d" width="77" height="6" rx="3" transform="translate(44.547 126)"/><rect class="d" width="125" height="7" rx="3.5" transform="translate(44.547 136)"/><rect class="d" width="64" height="6" rx="3" transform="translate(44.547 147)"/></g></g><g transform="translate(0 1553)"><g transform="translate(698 1146)"><g class="e" transform="translate(808 4826)"><rect class="t" width="417" height="115" rx="15"/><rect class="v" x="0.5" y="0.5" width="416" height="114" rx="14.5"/></g><g class="f" transform="translate(1002 4833)"><circle class="t" cx="15" cy="15" r="15"/><circle class="v" cx="15" cy="15" r="14.5"/></g><rect class="b" width="122" height="12" rx="6" transform="translate(1040 4841)"/><rect class="b" width="71" height="16" rx="8" transform="translate(1132 4917)"/><rect class="g" width="187" height="11" rx="5.5" transform="translate(1017 4874)"/><rect class="g" width="128" height="11" rx="5.5" transform="translate(1017 4892)"/><g transform="translate(814.401 4831.487)"><g class="h" transform="translate(-0.401 -0.487)"><rect class="t" width="177" height="106" rx="16"/><rect class="v" x="0.5" y="0.5" width="176" height="105" rx="15.5"/></g><g transform="translate(0.559 0.7)"><path class="i" d="M269.8,171.946c0,6.3-5.559,11.408-12.416,11.408H107.4c-6.857,0-12.415-5.107-12.415-11.408V91.408c0-6.3,5.558-11.408,12.415-11.408H257.38c6.857,0,12.416,5.107,12.416,11.408Z" transform="translate(-94.987 -80)"/><path class="j" d="M42.286,42.877l34.546-4.047,16.175-9.621L42.7,0,0,19.014Z" transform="matrix(1, -0.017, 0.017, 1, 56.384, 31.115)"/><path class="k" d="M554.253,310.049h49.4V284.386l-8.876-7.718Z" transform="translate(-428.723 -228.913)"/><path class="l" d="M95,246.339H196.046l-78.9-53.451L95,221.43Z" transform="translate(-94.997 -164.705)"/><path class="m" d="M398,310" transform="translate(-319.654 -255.353)"/><g transform="translate(23.004 54.553)"><rect class="n" width="2.055" height="5.285" transform="translate(1.45 12.223)"/><path class="o" d="M194.365,294.98l-2.588,14.37,5.4-.028Z" transform="translate(-191.777 -294.98)"/></g><g transform="translate(31.926 52.114)"><rect class="n" width="2.055" height="5.285" transform="translate(1.45 12.223)"/><path class="o" d="M224.365,288.98l-2.588,14.37,5.4-.028Z" transform="translate(-221.777 -288.98)"/></g><g transform="translate(40.198 49.155)"><rect class="n" width="2.055" height="5.285" transform="translate(1.45 12.223)"/><path class="o" d="M252.365,284.98l-2.588,14.37,5.4-.028Z" transform="translate(-249.777 -284.98)"/></g><g transform="translate(103.17 42.994)"><path class="o" d="M497.177,258.9l10.95,9.684-1.146,1.293-9.849-8.7-9.841,8.69-1.168-1.247v-.1a2.071,2.071,0,0,0,.271-.176q5.346-4.722,10.688-9.448Z" transform="translate(-486.124 -258.9)"/><path class="l" d="M508.29,275.432q1.771,1.558,3.537,3.113c1.286,1.135,2.578,2.263,3.846,3.417a1.033,1.033,0,0,1,.312.675c.021,3.017.015,6.035.013,9.052,0,.644-.112.756-.742.756-1.491,0-2.982,0-4.542,0V291.2c0-.938,0-1.874,0-2.811,0-.534-.146-.681-.675-.683q-1.763-.007-3.525,0c-.535,0-.678.144-.68.677,0,1.332,0,2.664,0,4.066h-.63c-1.318,0-2.636,0-3.954,0-.565,0-.7-.131-.7-.7q0-4.574.007-9.148a.792.792,0,0,1,.206-.536q3.663-3.262,7.351-6.5C508.158,275.518,508.214,275.486,508.29,275.432Z" transform="translate(-497.267 -271.674)"/><path class="o" d="M500.681,265.218h2.711c0,.492,0,.977,0,1.463a.321.321,0,0,1-.083.211c-.85.776-1.7,1.545-2.624,2.375Z" transform="translate(-497.372 -263.782)"/></g><path class="p" d="M182.785,337.09c-33.748,0-64.36,6.509-86.786,17.078v12.469c0,5.957,5.555,10.786,12.407,10.786H258.281c6.852,0,12.407-4.829,12.407-10.786V354.7C248.167,343.818,217.1,337.09,182.785,337.09Z" transform="translate(-95.769 -274.182)"/><path class="q" d="M380.191,342.334s-63.033,9.5-38.345,16.975c15.383,4.661,18.453,17.846,14.929,22.052l56.911-.076s-12.011-13.224-58.124-24.25c-18.68-4.092,27.205-14.247,27.205-14.247Z" transform="translate(-260.175 -278.234)"/><circle class="r" cx="6.82" cy="6.82" r="6.82" transform="translate(133.156 5.456)"/></g></g></g><g transform="translate(698 1272)"><g class="e" transform="translate(808 4826)"><rect class="t" width="417" height="115" rx="15"/><rect class="v" x="0.5" y="0.5" width="416" height="114" rx="14.5"/></g><g class="f" transform="translate(1002 4833)"><circle class="t" cx="15" cy="15" r="15"/><circle class="v" cx="15" cy="15" r="14.5"/></g><rect class="b" width="122" height="12" rx="6" transform="translate(1040 4841)"/><rect class="b" width="71" height="16" rx="8" transform="translate(1132 4917)"/><rect class="g" width="187" height="11" rx="5.5" transform="translate(1017 4874)"/><rect class="g" width="128" height="11" rx="5.5" transform="translate(1017 4892)"/><g transform="translate(814.401 4831.487)"><g class="h" transform="translate(-0.401 -0.487)"><rect class="t" width="177" height="106" rx="16"/><rect class="v" x="0.5" y="0.5" width="176" height="105" rx="15.5"/></g><g transform="translate(0.559 0.7)"><path class="i" d="M269.8,171.946c0,6.3-5.559,11.408-12.416,11.408H107.4c-6.857,0-12.415-5.107-12.415-11.408V91.408c0-6.3,5.558-11.408,12.415-11.408H257.38c6.857,0,12.416,5.107,12.416,11.408Z" transform="translate(-94.987 -80)"/><path class="j" d="M42.286,42.877l34.546-4.047,16.175-9.621L42.7,0,0,19.014Z" transform="matrix(1, -0.017, 0.017, 1, 56.384, 31.115)"/><path class="k" d="M554.253,310.049h49.4V284.386l-8.876-7.718Z" transform="translate(-428.723 -228.913)"/><path class="l" d="M95,246.339H196.046l-78.9-53.451L95,221.43Z" transform="translate(-94.997 -164.705)"/><path class="m" d="M398,310" transform="translate(-319.654 -255.353)"/><g transform="translate(22.004 53.553)"><rect class="n" width="2.055" height="5.285" transform="translate(1.45 12.223)"/><path class="o" d="M194.365,294.98l-2.588,14.37,5.4-.028Z" transform="translate(-191.777 -294.98)"/></g><g transform="translate(31.926 52.114)"><rect class="n" width="2.055" height="5.285" transform="translate(1.45 12.223)"/><path class="o" d="M224.365,288.98l-2.588,14.37,5.4-.028Z" transform="translate(-221.777 -288.98)"/></g><g transform="translate(40.198 49.155)"><rect class="n" width="2.055" height="5.285" transform="translate(1.45 12.223)"/><path class="o" d="M252.365,284.98l-2.588,14.37,5.4-.028Z" transform="translate(-249.777 -284.98)"/></g><g transform="translate(103.17 42.994)"><path class="o" d="M497.177,258.9l10.95,9.684-1.146,1.293-9.849-8.7-9.841,8.69-1.168-1.247v-.1a2.071,2.071,0,0,0,.271-.176q5.346-4.722,10.688-9.448Z" transform="translate(-486.124 -258.9)"/><path class="l" d="M508.29,275.432q1.771,1.558,3.537,3.113c1.286,1.135,2.578,2.263,3.846,3.417a1.033,1.033,0,0,1,.312.675c.021,3.017.015,6.035.013,9.052,0,.644-.112.756-.742.756-1.491,0-2.982,0-4.542,0V291.2c0-.938,0-1.874,0-2.811,0-.534-.146-.681-.675-.683q-1.763-.007-3.525,0c-.535,0-.678.144-.68.677,0,1.332,0,2.664,0,4.066h-.63c-1.318,0-2.636,0-3.954,0-.565,0-.7-.131-.7-.7q0-4.574.007-9.148a.792.792,0,0,1,.206-.536q3.663-3.262,7.351-6.5C508.158,275.518,508.214,275.486,508.29,275.432Z" transform="translate(-497.267 -271.674)"/><path class="o" d="M500.681,265.218h2.711c0,.492,0,.977,0,1.463a.321.321,0,0,1-.083.211c-.85.776-1.7,1.545-2.624,2.375Z" transform="translate(-497.372 -263.782)"/></g><path class="p" d="M182.785,337.09c-33.748,0-64.36,6.509-86.786,17.078v12.469c0,5.957,5.555,10.786,12.407,10.786H258.281c6.852,0,12.407-4.829,12.407-10.786V354.7C248.167,343.818,217.1,337.09,182.785,337.09Z" transform="translate(-95.769 -274.182)"/><path class="q" d="M380.191,342.334s-63.033,9.5-38.345,16.975c15.383,4.661,18.453,17.846,14.929,22.052l56.911-.076s-12.011-13.224-58.124-24.25c-18.68-4.092,27.205-14.247,27.205-14.247Z" transform="translate(-260.175 -278.234)"/><circle class="r" cx="6.82" cy="6.82" r="6.82" transform="translate(133.156 5.456)"/></g></g></g></g><rect class="s" width="233" height="11" rx="5.5" transform="translate(1506 7488)"/><rect class="s" width="107" height="11" rx="5.5" transform="translate(1506 7504)"/></g></svg>