<svg xmlns="http://www.w3.org/2000/svg" width="511.276" height="338.358" viewBox="0 0 511.276 338.358"><defs><style>.a{fill:#20783c;}.b,.c{stroke:none;}.c{fill:#fff;}</style></defs><g transform="translate(-1369.77 -2861.902)"><g transform="translate(1527.622 2864.902)"><g class="a" transform="translate(-647.373 -278.443)"><path class="b" d="M 736.4342041015625 459.8611755371094 L 734.9141845703125 459.7849731445312 C 728.8764038085938 459.4823303222656 722.7359008789062 459.1889038085938 716.797607421875 458.9051513671875 C 701.5579223632812 458.1769714355469 685.7993774414062 457.4239807128906 670.3054809570312 456.4443664550781 C 665.2426147460938 456.1218872070312 660.1884155273438 455.1199340820312 655.3005981445312 454.1509704589844 C 653.6738891601562 453.8284912109375 651.9917602539062 453.4949951171875 650.3433837890625 453.1937866210938 C 648.899169921875 452.9347839355469 647.8298950195312 452.4376831054688 647.0792846679688 451.6749572753906 C 646.10205078125 450.6819152832031 645.7158813476562 449.3155517578125 645.931396484375 447.6138000488281 C 646.634033203125 442.1354675292969 647.4296875 436.3227844238281 648.744140625 430.7487487792969 C 650.2149047851562 424.5119323730469 652.1866455078125 419.2200012207031 654.7720336914062 414.570556640625 C 659.70849609375 405.690673828125 665.7199096679688 397.8544311523438 672.6392211914062 391.2796325683594 C 676.1549072265625 387.9390563964844 679.975341796875 384.8578796386719 683.9944458007812 382.1217651367188 C 688.0545043945312 379.3577880859375 692.4288330078125 376.8699645996094 696.9959106445312 374.7274169921875 C 697.8533935546875 374.3274230957031 698.5698852539062 374.1417846679688 699.25390625 374.1417846679688 C 700.687255859375 374.1417846679688 701.705078125 374.9664916992188 702.431640625 375.6849670410156 C 706.8892822265625 380.0792846679688 711.7772827148438 383.4720458984375 716.958251953125 385.7673950195312 C 722.2982177734375 388.1331787109375 728.0797119140625 389.3896789550781 734.1421508789062 389.5019836425781 C 734.4512329101562 389.5076599121094 734.763916015625 389.5105590820312 735.0713500976562 389.5105590820312 C 741.2720336914062 389.5105590820312 747.1735229492188 388.3398132324219 752.6118774414062 386.0307922363281 C 757.9506225585938 383.7640686035156 762.9666748046875 380.3488159179688 767.5206298828125 375.8799133300781 C 768.3617553710938 375.0547790527344 769.4202880859375 374.21142578125 770.89501953125 374.21142578125 C 771.6200561523438 374.21142578125 772.3844604492188 374.4216918945312 773.2318725585938 374.8542785644531 C 780.0777587890625 378.3416748046875 786.298828125 382.2469177246094 791.7210083007812 386.4609069824219 C 797.3873901367188 390.8646545410156 802.3696899414062 395.7514038085938 806.529541015625 400.9854125976562 C 810.8506469726562 406.4222412109375 814.42138671875 412.4056396484375 817.1427001953125 418.7694396972656 C 819.9513549804688 425.3373413085938 821.9418334960938 432.5129089355469 823.0588989257812 440.0968322753906 C 823.2203369140625 441.2020874023438 823.39501953125 442.3236999511719 823.5640258789062 443.4083557128906 C 823.6862182617188 444.192626953125 823.8125 445.0036315917969 823.9330444335938 445.802978515625 C 824.25732421875 447.9866027832031 824.4342041015625 449.7639465332031 823.544189453125 451.1412963867188 C 822.6010131835938 452.6007690429688 820.715087890625 453.1284790039062 818.7010498046875 453.5817260742188 C 813.7470092773438 454.7033996582031 809.2657470703125 455.482177734375 805.0031127929688 455.9621276855469 C 795.2817993164062 457.0542602539062 785.1936645507812 457.8240051269531 774.161865234375 458.3153991699219 C 764.7938842773438 458.7326965332031 754.6900024414062 458.9469604492188 743.2728881835938 458.9703674316406 C 741.0084838867188 458.9739379882812 738.7141723632812 458.9745788574219 736.4656982421875 458.9746704101562 L 736.4342041015625 459.8611755371094 Z"/><path class="c" d="M 734.9892578125 458.286865234375 C 734.9990234375 458.0121765136719 735.0087280273438 457.7396850585938 735.017333984375 457.4747009277344 C 737.7685546875 457.4747009277344 740.5186767578125 457.4747009277344 743.2698364257812 457.4703674316406 C 763.8388061523438 457.4281921386719 784.3798217773438 456.7695922851562 804.8352661132812 454.4715270996094 C 809.37841796875 453.9600219726562 813.9107666015625 453.1283569335938 818.3717041015625 452.1183166503906 C 822.7255249023438 451.1385192871094 823.0921630859375 450.352294921875 822.4497680664062 446.0265502929688 C 822.1632080078125 444.1253967285156 821.8538818359375 442.2252807617188 821.5748901367188 440.3154296875 C 817.0912475585938 409.8750305175781 799.1478881835938 389.7396545410156 772.5498657226562 376.1902770996094 C 771.9154052734375 375.8663940429688 771.3823852539062 375.7113952636719 770.89501953125 375.7113952636719 C 770.0789184570312 375.7113952636719 769.3911743164062 376.1461486816406 768.5712280273438 376.9505310058594 C 759.2479248046875 386.0997619628906 748.066162109375 391.0105590820312 735.0712280273438 391.0105590820312 C 734.7535400390625 391.0105590820312 734.4342651367188 391.0076293945312 734.1143798828125 391.0017395019531 C 721.32958984375 390.764892578125 710.441650390625 385.6875305175781 701.376953125 376.7515563964844 C 700.6138916015625 375.9970397949219 699.9830322265625 375.6418151855469 699.25390625 375.6418151855469 C 698.777099609375 375.6418151855469 698.2581787109375 375.7938232421875 697.6329956054688 376.0854187011719 C 679.4723510742188 384.6050109863281 665.7489013671875 397.912109375 656.0830078125 415.2995300292969 C 650.516845703125 425.309326171875 648.8599243164062 436.5715026855469 647.4194946289062 447.8022766113281 C 647.083251953125 450.4572448730469 648.6350708007812 451.3634948730469 650.613037109375 451.7182006835938 C 657.1871337890625 452.9196472167969 663.76123046875 454.5245056152344 670.400146484375 454.9473571777344 C 691.9186401367188 456.307861328125 713.4588012695312 457.2075805664062 734.9892578125 458.286865234375 M 737.8792114257812 461.43310546875 L 734.8390502929688 461.2831115722656 C 728.8038330078125 460.9805603027344 722.6650390625 460.6872253417969 716.7283935546875 460.403564453125 C 701.4822387695312 459.675048828125 685.717041015625 458.9217529296875 670.2108764648438 457.9413757324219 C 665.0481567382812 457.612548828125 659.9443969726562 456.6007690429688 655.0086059570312 455.6222839355469 C 653.3887939453125 455.3011474609375 651.7138671875 454.9691467285156 650.0779418945312 454.6701049804688 C 648.3155517578125 454.3532104492188 646.9849243164062 453.7176208496094 646.0101318359375 452.72705078125 C 645.10546875 451.8077392578125 644.0992431640625 450.1416931152344 644.4432983398438 447.4253540039062 C 645.1512451171875 441.905517578125 645.9531860351562 436.0486755371094 647.2841796875 430.4044799804688 C 648.787109375 424.0312805175781 650.8075561523438 418.6134948730469 653.4611206054688 413.8415832519531 C 658.471435546875 404.8287963867188 664.5762939453125 396.8719177246094 671.60595703125 390.1922607421875 C 675.1802978515625 386.7959594726562 679.0643310546875 383.6634826660156 683.1503295898438 380.8818359375 C 687.2759399414062 378.0732116699219 691.7199096679688 375.5456848144531 696.35888671875 373.3694458007812 L 696.36181640625 373.3680419921875 L 696.36474609375 373.36669921875 C 697.4249267578125 372.8721618652344 698.3429565429688 372.6418151855469 699.25390625 372.6418151855469 C 701.2559204101562 372.6418151855469 702.6282348632812 373.7698669433594 703.486328125 374.6183471679688 C 707.8129272460938 378.8834838867188 712.551025390625 382.1742248535156 717.5657958984375 384.3959655761719 C 722.7220458984375 386.6803283691406 728.3084716796875 387.8936462402344 734.1699829101562 388.0022583007812 C 734.4700317382812 388.0077514648438 734.7734375 388.0105590820312 735.0712280273438 388.0105590820312 C 741.0694580078125 388.0105590820312 746.7737426757812 386.8799438476562 752.025634765625 384.6500854492188 C 757.1908569335938 382.4570617675781 762.0506591796875 379.1461486816406 766.4700317382812 374.8092956542969 C 767.4658813476562 373.8323669433594 768.868408203125 372.7113952636719 770.89501953125 372.7113952636719 C 771.86279296875 372.7113952636719 772.8502807617188 372.975341796875 773.9138793945312 373.518310546875 C 780.8428955078125 377.0480346679688 787.14453125 381.0044860839844 792.6414794921875 385.2765502929688 C 798.4020385742188 389.7535095214844 803.4697875976562 394.7247314453125 807.703857421875 400.0521240234375 C 812.1082153320312 405.59375 815.7479248046875 411.6927185058594 818.5219116210938 418.1796569824219 C 821.3812866210938 424.8662109375 823.406982421875 432.1666870117188 824.5428466796875 439.8782958984375 C 824.7035522460938 440.9783935546875 824.8777465820312 442.0965881347656 825.0462036132812 443.1779479980469 C 825.1686401367188 443.9638671875 825.2952270507812 444.7765502929688 825.416259765625 445.5794067382812 L 825.416748046875 445.5826416015625 L 825.417236328125 445.5858764648438 C 825.7753295898438 447.9974060058594 825.9763793945312 450.1412048339844 824.803955078125 451.9554443359375 C 823.5536499023438 453.8902587890625 821.3594970703125 454.52099609375 819.0303344726562 455.0451049804688 C 814.023681640625 456.1787414550781 809.4889526367188 456.966552734375 805.1708984375 457.4526977539062 C 795.4154663085938 458.5486755371094 785.29443359375 459.321044921875 774.2286376953125 459.81396484375 C 764.8391723632812 460.2322082519531 754.7144775390625 460.4469299316406 743.2760009765625 460.4703674316406 C 741.4942626953125 460.4731750488281 739.6943969726562 460.4741516113281 737.9132690429688 460.4745178222656 L 737.8792114257812 461.43310546875 Z"/></g><g class="a" transform="translate(-644.311 -285.762)"><path class="b" d="M 731.9578247070312 381.2469177246094 C 725.3948974609375 381.2469177246094 719.026611328125 379.9544677734375 713.0297241210938 377.4055480957031 C 707.2437133789062 374.9462280273438 702.0501098632812 371.4287109375 697.5932006835938 366.9507446289062 C 693.14208984375 362.4786376953125 689.6539306640625 357.2778015136719 687.2254638671875 351.4927062988281 C 684.7107543945312 345.5020751953125 683.4512939453125 339.1513671875 683.4820556640625 332.6169738769531 C 683.5112915039062 326.3064880371094 684.7384033203125 320.1455688476562 687.1292724609375 314.305419921875 C 689.4874267578125 308.5453186035156 692.8643188476562 303.3676147460938 697.1661987304688 298.9161682128906 C 701.56298828125 294.3665161132812 706.7246704101562 290.7894897460938 712.5077514648438 288.2844543457031 C 718.5880737304688 285.650634765625 725.1552734375 284.2976379394531 732.0269165039062 284.2630004882812 C 732.107421875 284.2626342773438 732.1890869140625 284.2624206542969 732.269287109375 284.2624206542969 C 738.806884765625 284.2624206542969 745.1328125 285.5459899902344 751.0712280273438 288.0774536132812 C 756.8008422851562 290.5198974609375 761.9387817382812 294.01904296875 766.34228515625 298.4777221679688 C 770.7366333007812 302.9270935058594 774.1846923828125 308.1138916015625 776.5906982421875 313.89404296875 C 779.075927734375 319.864501953125 780.3360595703125 326.2113342285156 780.3360595703125 332.7581481933594 C 780.3360595703125 339.3414001464844 779.0693359375 345.7085876464844 776.571044921875 351.6827392578125 C 774.1547241210938 357.4610900878906 770.688720703125 362.6412048339844 766.2694091796875 367.0791931152344 C 761.8499145507812 371.5173950195312 756.6878051757812 375.0016479492188 750.9265747070312 377.4351501464844 C 744.9696655273438 379.9512939453125 738.6181030273438 381.2337341308594 732.0482788085938 381.246826171875 L 731.9578247070312 381.2469177246094 Z"/><path class="c" d="M 731.957763671875 379.7468872070312 C 731.9863891601562 379.7468872070312 732.0166625976562 379.7468872070312 732.0452880859375 379.746826171875 C 758.0875854492188 379.6949157714844 778.8360595703125 358.8587951660156 778.8360595703125 332.7581481933594 C 778.8360595703125 306.8153991699219 758.1956176757812 285.7624206542969 732.269287109375 285.7624206542969 C 732.1915283203125 285.7624206542969 732.1123657226562 285.7626342773438 732.0344848632812 285.7630004882812 C 704.5507202148438 285.9014282226562 685.0966796875 307.8590393066406 684.9820556640625 332.6240539550781 C 684.8599243164062 358.5361328125 705.9367065429688 379.7468872070312 731.957763671875 379.7468872070312 M 731.957763671875 382.7469177246094 C 725.192138671875 382.7469177246094 718.6264038085938 381.4142761230469 712.4429321289062 378.7860107421875 C 706.4779663085938 376.2506103515625 701.1240844726562 372.6246643066406 696.530029296875 368.0089111328125 C 691.94189453125 363.3990783691406 688.3460083007812 358.0375366210938 685.8423461914062 352.0733032226562 C 683.2490844726562 345.8955993652344 681.9503173828125 339.34716796875 681.9820556640625 332.6098937988281 C 682.01220703125 326.1060791015625 683.2769165039062 319.7562866210938 685.7410888671875 313.7371215820312 C 688.1717529296875 307.7999877929688 691.6527709960938 302.4627685546875 696.0875854492188 297.873779296875 C 700.622314453125 293.181396484375 705.9462280273438 289.4919738769531 711.9114990234375 286.9080505371094 C 718.1787719726562 284.1932373046875 724.9440307617188 282.7986755371094 732.0193481445312 282.7630615234375 C 732.1024169921875 282.7626342773438 732.1865844726562 282.7624206542969 732.269287109375 282.7624206542969 C 739.0101928710938 282.7624206542969 745.5339965820312 284.08642578125 751.659423828125 286.6976013183594 C 757.5692749023438 289.2168579101562 762.8683471679688 292.8256225585938 767.4095458984375 297.4236755371094 C 771.9401245117188 302.010986328125 775.4950561523438 307.3584594726562 777.9755249023438 313.3175964355469 C 780.5371704101562 319.4716796875 781.8360595703125 326.0124206542969 781.8360595703125 332.7581481933594 C 781.8360595703125 339.5411376953125 780.5302734375 346.1029968261719 777.9549560546875 352.2614440917969 C 775.4632568359375 358.2198486328125 771.8893432617188 363.5613403320312 767.3323364257812 368.1376037597656 C 762.7748413085938 372.7143249511719 757.4515380859375 376.307373046875 751.51025390625 378.8169250488281 C 745.3685913085938 381.4111328125 738.8216552734375 382.7333068847656 732.05126953125 382.746826171875 L 731.957763671875 382.7469177246094 Z"/></g></g><g transform="translate(1449.004 2925.652)"><g class="a" transform="translate(-647.373 -278.443)"><path class="b" d="M 736.4342041015625 459.8611755371094 L 734.9141845703125 459.7849731445312 C 728.8764038085938 459.4823303222656 722.7359008789062 459.1889038085938 716.797607421875 458.9051513671875 C 701.5579223632812 458.1769714355469 685.7993774414062 457.4239807128906 670.3054809570312 456.4443664550781 C 665.2426147460938 456.1218872070312 660.1884155273438 455.1199340820312 655.3005981445312 454.1509704589844 C 653.6738891601562 453.8284912109375 651.9917602539062 453.4949951171875 650.3433837890625 453.1937866210938 C 648.899169921875 452.9347839355469 647.8298950195312 452.4376831054688 647.0792846679688 451.6749572753906 C 646.10205078125 450.6819152832031 645.7158813476562 449.3155517578125 645.931396484375 447.6138000488281 C 646.634033203125 442.1354675292969 647.4296875 436.3227844238281 648.744140625 430.7487487792969 C 650.2149047851562 424.5119323730469 652.1866455078125 419.2200012207031 654.7720336914062 414.570556640625 C 659.70849609375 405.690673828125 665.7199096679688 397.8544311523438 672.6392211914062 391.2796325683594 C 676.1549072265625 387.9390563964844 679.975341796875 384.8578796386719 683.9944458007812 382.1217651367188 C 688.0545043945312 379.3577880859375 692.4288330078125 376.8699645996094 696.9959106445312 374.7274169921875 C 697.8533935546875 374.3274230957031 698.5698852539062 374.1417846679688 699.25390625 374.1417846679688 C 700.687255859375 374.1417846679688 701.705078125 374.9664916992188 702.431640625 375.6849670410156 C 706.8892822265625 380.0792846679688 711.7772827148438 383.4720458984375 716.958251953125 385.7673950195312 C 722.2982177734375 388.1331787109375 728.0797119140625 389.3896789550781 734.1421508789062 389.5019836425781 C 734.4512329101562 389.5076599121094 734.763916015625 389.5105590820312 735.0713500976562 389.5105590820312 C 741.2720336914062 389.5105590820312 747.1735229492188 388.3398132324219 752.6118774414062 386.0307922363281 C 757.9506225585938 383.7640686035156 762.9666748046875 380.3488159179688 767.5206298828125 375.8799133300781 C 768.3617553710938 375.0547790527344 769.4202880859375 374.21142578125 770.89501953125 374.21142578125 C 771.6200561523438 374.21142578125 772.3844604492188 374.4216918945312 773.2318725585938 374.8542785644531 C 780.0777587890625 378.3416748046875 786.298828125 382.2469177246094 791.7210083007812 386.4609069824219 C 797.3873901367188 390.8646545410156 802.3696899414062 395.7514038085938 806.529541015625 400.9854125976562 C 810.8506469726562 406.4222412109375 814.42138671875 412.4056396484375 817.1427001953125 418.7694396972656 C 819.9513549804688 425.3373413085938 821.9418334960938 432.5129089355469 823.0588989257812 440.0968322753906 C 823.2203369140625 441.2020874023438 823.39501953125 442.3236999511719 823.5640258789062 443.4083557128906 C 823.6862182617188 444.192626953125 823.8125 445.0036315917969 823.9330444335938 445.802978515625 C 824.25732421875 447.9866027832031 824.4342041015625 449.7639465332031 823.544189453125 451.1412963867188 C 822.6010131835938 452.6007690429688 820.715087890625 453.1284790039062 818.7010498046875 453.5817260742188 C 813.7470092773438 454.7033996582031 809.2657470703125 455.482177734375 805.0031127929688 455.9621276855469 C 795.2817993164062 457.0542602539062 785.1936645507812 457.8240051269531 774.161865234375 458.3153991699219 C 764.7938842773438 458.7326965332031 754.6900024414062 458.9469604492188 743.2728881835938 458.9703674316406 C 741.0084838867188 458.9739379882812 738.7141723632812 458.9745788574219 736.4656982421875 458.9746704101562 L 736.4342041015625 459.8611755371094 Z"/><path class="c" d="M 734.9892578125 458.286865234375 C 734.9990234375 458.0121765136719 735.0087280273438 457.7396850585938 735.017333984375 457.4747009277344 C 737.7685546875 457.4747009277344 740.5186767578125 457.4747009277344 743.2698364257812 457.4703674316406 C 763.8388061523438 457.4281921386719 784.3798217773438 456.7695922851562 804.8352661132812 454.4715270996094 C 809.37841796875 453.9600219726562 813.9107666015625 453.1283569335938 818.3717041015625 452.1183166503906 C 822.7255249023438 451.1385192871094 823.0921630859375 450.352294921875 822.4497680664062 446.0265502929688 C 822.1632080078125 444.1253967285156 821.8538818359375 442.2252807617188 821.5748901367188 440.3154296875 C 817.0912475585938 409.8750305175781 799.1478881835938 389.7396545410156 772.5498657226562 376.1902770996094 C 771.9154052734375 375.8663940429688 771.3823852539062 375.7113952636719 770.89501953125 375.7113952636719 C 770.0789184570312 375.7113952636719 769.3911743164062 376.1461486816406 768.5712280273438 376.9505310058594 C 759.2479248046875 386.0997619628906 748.066162109375 391.0105590820312 735.0712280273438 391.0105590820312 C 734.7535400390625 391.0105590820312 734.4342651367188 391.0076293945312 734.1143798828125 391.0017395019531 C 721.32958984375 390.764892578125 710.441650390625 385.6875305175781 701.376953125 376.7515563964844 C 700.6138916015625 375.9970397949219 699.9830322265625 375.6418151855469 699.25390625 375.6418151855469 C 698.777099609375 375.6418151855469 698.2581787109375 375.7938232421875 697.6329956054688 376.0854187011719 C 679.4723510742188 384.6050109863281 665.7489013671875 397.912109375 656.0830078125 415.2995300292969 C 650.516845703125 425.309326171875 648.8599243164062 436.5715026855469 647.4194946289062 447.8022766113281 C 647.083251953125 450.4572448730469 648.6350708007812 451.3634948730469 650.613037109375 451.7182006835938 C 657.1871337890625 452.9196472167969 663.76123046875 454.5245056152344 670.400146484375 454.9473571777344 C 691.9186401367188 456.307861328125 713.4588012695312 457.2075805664062 734.9892578125 458.286865234375 M 737.8792114257812 461.43310546875 L 734.8390502929688 461.2831115722656 C 728.8038330078125 460.9805603027344 722.6650390625 460.6872253417969 716.7283935546875 460.403564453125 C 701.4822387695312 459.675048828125 685.717041015625 458.9217529296875 670.2108764648438 457.9413757324219 C 665.0481567382812 457.612548828125 659.9443969726562 456.6007690429688 655.0086059570312 455.6222839355469 C 653.3887939453125 455.3011474609375 651.7138671875 454.9691467285156 650.0779418945312 454.6701049804688 C 648.3155517578125 454.3532104492188 646.9849243164062 453.7176208496094 646.0101318359375 452.72705078125 C 645.10546875 451.8077392578125 644.0992431640625 450.1416931152344 644.4432983398438 447.4253540039062 C 645.1512451171875 441.905517578125 645.9531860351562 436.0486755371094 647.2841796875 430.4044799804688 C 648.787109375 424.0312805175781 650.8075561523438 418.6134948730469 653.4611206054688 413.8415832519531 C 658.471435546875 404.8287963867188 664.5762939453125 396.8719177246094 671.60595703125 390.1922607421875 C 675.1802978515625 386.7959594726562 679.0643310546875 383.6634826660156 683.1503295898438 380.8818359375 C 687.2759399414062 378.0732116699219 691.7199096679688 375.5456848144531 696.35888671875 373.3694458007812 L 696.36181640625 373.3680419921875 L 696.36474609375 373.36669921875 C 697.4249267578125 372.8721618652344 698.3429565429688 372.6418151855469 699.25390625 372.6418151855469 C 701.2559204101562 372.6418151855469 702.6282348632812 373.7698669433594 703.486328125 374.6183471679688 C 707.8129272460938 378.8834838867188 712.551025390625 382.1742248535156 717.5657958984375 384.3959655761719 C 722.7220458984375 386.6803283691406 728.3084716796875 387.8936462402344 734.1699829101562 388.0022583007812 C 734.4700317382812 388.0077514648438 734.7734375 388.0105590820312 735.0712280273438 388.0105590820312 C 741.0694580078125 388.0105590820312 746.7737426757812 386.8799438476562 752.025634765625 384.6500854492188 C 757.1908569335938 382.4570617675781 762.0506591796875 379.1461486816406 766.4700317382812 374.8092956542969 C 767.4658813476562 373.8323669433594 768.868408203125 372.7113952636719 770.89501953125 372.7113952636719 C 771.86279296875 372.7113952636719 772.8502807617188 372.975341796875 773.9138793945312 373.518310546875 C 780.8428955078125 377.0480346679688 787.14453125 381.0044860839844 792.6414794921875 385.2765502929688 C 798.4020385742188 389.7535095214844 803.4697875976562 394.7247314453125 807.703857421875 400.0521240234375 C 812.1082153320312 405.59375 815.7479248046875 411.6927185058594 818.5219116210938 418.1796569824219 C 821.3812866210938 424.8662109375 823.406982421875 432.1666870117188 824.5428466796875 439.8782958984375 C 824.7035522460938 440.9783935546875 824.8777465820312 442.0965881347656 825.0462036132812 443.1779479980469 C 825.1686401367188 443.9638671875 825.2952270507812 444.7765502929688 825.416259765625 445.5794067382812 L 825.416748046875 445.5826416015625 L 825.417236328125 445.5858764648438 C 825.7753295898438 447.9974060058594 825.9763793945312 450.1412048339844 824.803955078125 451.9554443359375 C 823.5536499023438 453.8902587890625 821.3594970703125 454.52099609375 819.0303344726562 455.0451049804688 C 814.023681640625 456.1787414550781 809.4889526367188 456.966552734375 805.1708984375 457.4526977539062 C 795.4154663085938 458.5486755371094 785.29443359375 459.321044921875 774.2286376953125 459.81396484375 C 764.8391723632812 460.2322082519531 754.7144775390625 460.4469299316406 743.2760009765625 460.4703674316406 C 741.4942626953125 460.4731750488281 739.6943969726562 460.4741516113281 737.9132690429688 460.4745178222656 L 737.8792114257812 461.43310546875 Z"/></g><g class="a" transform="translate(-644.311 -285.762)"><path class="b" d="M 731.9578247070312 381.2469177246094 C 725.3948974609375 381.2469177246094 719.026611328125 379.9544677734375 713.0297241210938 377.4055480957031 C 707.2437133789062 374.9462280273438 702.0501098632812 371.4287109375 697.5932006835938 366.9507446289062 C 693.14208984375 362.4786376953125 689.6539306640625 357.2778015136719 687.2254638671875 351.4927062988281 C 684.7107543945312 345.5020751953125 683.4512939453125 339.1513671875 683.4820556640625 332.6169738769531 C 683.5112915039062 326.3064880371094 684.7384033203125 320.1455688476562 687.1292724609375 314.305419921875 C 689.4874267578125 308.5453186035156 692.8643188476562 303.3676147460938 697.1661987304688 298.9161682128906 C 701.56298828125 294.3665161132812 706.7246704101562 290.7894897460938 712.5077514648438 288.2844543457031 C 718.5880737304688 285.650634765625 725.1552734375 284.2976379394531 732.0269165039062 284.2630004882812 C 732.107421875 284.2626342773438 732.1890869140625 284.2624206542969 732.269287109375 284.2624206542969 C 738.806884765625 284.2624206542969 745.1328125 285.5459899902344 751.0712280273438 288.0774536132812 C 756.8008422851562 290.5198974609375 761.9387817382812 294.01904296875 766.34228515625 298.4777221679688 C 770.7366333007812 302.9270935058594 774.1846923828125 308.1138916015625 776.5906982421875 313.89404296875 C 779.075927734375 319.864501953125 780.3360595703125 326.2113342285156 780.3360595703125 332.7581481933594 C 780.3360595703125 339.3414001464844 779.0693359375 345.7085876464844 776.571044921875 351.6827392578125 C 774.1547241210938 357.4610900878906 770.688720703125 362.6412048339844 766.2694091796875 367.0791931152344 C 761.8499145507812 371.5173950195312 756.6878051757812 375.0016479492188 750.9265747070312 377.4351501464844 C 744.9696655273438 379.9512939453125 738.6181030273438 381.2337341308594 732.0482788085938 381.246826171875 L 731.9578247070312 381.2469177246094 Z"/><path class="c" d="M 731.957763671875 379.7468872070312 C 731.9863891601562 379.7468872070312 732.0166625976562 379.7468872070312 732.0452880859375 379.746826171875 C 758.0875854492188 379.6949157714844 778.8360595703125 358.8587951660156 778.8360595703125 332.7581481933594 C 778.8360595703125 306.8153991699219 758.1956176757812 285.7624206542969 732.269287109375 285.7624206542969 C 732.1915283203125 285.7624206542969 732.1123657226562 285.7626342773438 732.0344848632812 285.7630004882812 C 704.5507202148438 285.9014282226562 685.0966796875 307.8590393066406 684.9820556640625 332.6240539550781 C 684.8599243164062 358.5361328125 705.9367065429688 379.7468872070312 731.957763671875 379.7468872070312 M 731.957763671875 382.7469177246094 C 725.192138671875 382.7469177246094 718.6264038085938 381.4142761230469 712.4429321289062 378.7860107421875 C 706.4779663085938 376.2506103515625 701.1240844726562 372.6246643066406 696.530029296875 368.0089111328125 C 691.94189453125 363.3990783691406 688.3460083007812 358.0375366210938 685.8423461914062 352.0733032226562 C 683.2490844726562 345.8955993652344 681.9503173828125 339.34716796875 681.9820556640625 332.6098937988281 C 682.01220703125 326.1060791015625 683.2769165039062 319.7562866210938 685.7410888671875 313.7371215820312 C 688.1717529296875 307.7999877929688 691.6527709960938 302.4627685546875 696.0875854492188 297.873779296875 C 700.622314453125 293.181396484375 705.9462280273438 289.4919738769531 711.9114990234375 286.9080505371094 C 718.1787719726562 284.1932373046875 724.9440307617188 282.7986755371094 732.0193481445312 282.7630615234375 C 732.1024169921875 282.7626342773438 732.1865844726562 282.7624206542969 732.269287109375 282.7624206542969 C 739.0101928710938 282.7624206542969 745.5339965820312 284.08642578125 751.659423828125 286.6976013183594 C 757.5692749023438 289.2168579101562 762.8683471679688 292.8256225585938 767.4095458984375 297.4236755371094 C 771.9401245117188 302.010986328125 775.4950561523438 307.3584594726562 777.9755249023438 313.3175964355469 C 780.5371704101562 319.4716796875 781.8360595703125 326.0124206542969 781.8360595703125 332.7581481933594 C 781.8360595703125 339.5411376953125 780.5302734375 346.1029968261719 777.9549560546875 352.2614440917969 C 775.4632568359375 358.2198486328125 771.8893432617188 363.5613403320312 767.3323364257812 368.1376037597656 C 762.7748413085938 372.7143249511719 757.4515380859375 376.307373046875 751.51025390625 378.8169250488281 C 745.3685913085938 381.4111328125 738.8216552734375 382.7333068847656 732.05126953125 382.746826171875 L 731.957763671875 382.7469177246094 Z"/></g></g><g transform="translate(1608.621 2925.652)"><g class="a" transform="translate(-647.373 -278.443)"><path class="b" d="M 736.4342041015625 459.8611755371094 L 734.9141845703125 459.7849731445312 C 728.8764038085938 459.4823303222656 722.7359008789062 459.1889038085938 716.797607421875 458.9051513671875 C 701.5579223632812 458.1769714355469 685.7993774414062 457.4239807128906 670.3054809570312 456.4443664550781 C 665.2426147460938 456.1218872070312 660.1884155273438 455.1199340820312 655.3005981445312 454.1509704589844 C 653.6738891601562 453.8284912109375 651.9917602539062 453.4949951171875 650.3433837890625 453.1937866210938 C 648.899169921875 452.9347839355469 647.8298950195312 452.4376831054688 647.0792846679688 451.6749572753906 C 646.10205078125 450.6819152832031 645.7158813476562 449.3155517578125 645.931396484375 447.6138000488281 C 646.634033203125 442.1354675292969 647.4296875 436.3227844238281 648.744140625 430.7487487792969 C 650.2149047851562 424.5119323730469 652.1866455078125 419.2200012207031 654.7720336914062 414.570556640625 C 659.70849609375 405.690673828125 665.7199096679688 397.8544311523438 672.6392211914062 391.2796325683594 C 676.1549072265625 387.9390563964844 679.975341796875 384.8578796386719 683.9944458007812 382.1217651367188 C 688.0545043945312 379.3577880859375 692.4288330078125 376.8699645996094 696.9959106445312 374.7274169921875 C 697.8533935546875 374.3274230957031 698.5698852539062 374.1417846679688 699.25390625 374.1417846679688 C 700.687255859375 374.1417846679688 701.705078125 374.9664916992188 702.431640625 375.6849670410156 C 706.8892822265625 380.0792846679688 711.7772827148438 383.4720458984375 716.958251953125 385.7673950195312 C 722.2982177734375 388.1331787109375 728.0797119140625 389.3896789550781 734.1421508789062 389.5019836425781 C 734.4512329101562 389.5076599121094 734.763916015625 389.5105590820312 735.0713500976562 389.5105590820312 C 741.2720336914062 389.5105590820312 747.1735229492188 388.3398132324219 752.6118774414062 386.0307922363281 C 757.9506225585938 383.7640686035156 762.9666748046875 380.3488159179688 767.5206298828125 375.8799133300781 C 768.3617553710938 375.0547790527344 769.4202880859375 374.21142578125 770.89501953125 374.21142578125 C 771.6200561523438 374.21142578125 772.3844604492188 374.4216918945312 773.2318725585938 374.8542785644531 C 780.0777587890625 378.3416748046875 786.298828125 382.2469177246094 791.7210083007812 386.4609069824219 C 797.3873901367188 390.8646545410156 802.3696899414062 395.7514038085938 806.529541015625 400.9854125976562 C 810.8506469726562 406.4222412109375 814.42138671875 412.4056396484375 817.1427001953125 418.7694396972656 C 819.9513549804688 425.3373413085938 821.9418334960938 432.5129089355469 823.0588989257812 440.0968322753906 C 823.2203369140625 441.2020874023438 823.39501953125 442.3236999511719 823.5640258789062 443.4083557128906 C 823.6862182617188 444.192626953125 823.8125 445.0036315917969 823.9330444335938 445.802978515625 C 824.25732421875 447.9866027832031 824.4342041015625 449.7639465332031 823.544189453125 451.1412963867188 C 822.6010131835938 452.6007690429688 820.715087890625 453.1284790039062 818.7010498046875 453.5817260742188 C 813.7470092773438 454.7033996582031 809.2657470703125 455.482177734375 805.0031127929688 455.9621276855469 C 795.2817993164062 457.0542602539062 785.1936645507812 457.8240051269531 774.161865234375 458.3153991699219 C 764.7938842773438 458.7326965332031 754.6900024414062 458.9469604492188 743.2728881835938 458.9703674316406 C 741.0084838867188 458.9739379882812 738.7141723632812 458.9745788574219 736.4656982421875 458.9746704101562 L 736.4342041015625 459.8611755371094 Z"/><path class="c" d="M 734.9892578125 458.286865234375 C 734.9990234375 458.0121765136719 735.0087280273438 457.7396850585938 735.017333984375 457.4747009277344 C 737.7685546875 457.4747009277344 740.5186767578125 457.4747009277344 743.2698364257812 457.4703674316406 C 763.8388061523438 457.4281921386719 784.3798217773438 456.7695922851562 804.8352661132812 454.4715270996094 C 809.37841796875 453.9600219726562 813.9107666015625 453.1283569335938 818.3717041015625 452.1183166503906 C 822.7255249023438 451.1385192871094 823.0921630859375 450.352294921875 822.4497680664062 446.0265502929688 C 822.1632080078125 444.1253967285156 821.8538818359375 442.2252807617188 821.5748901367188 440.3154296875 C 817.0912475585938 409.8750305175781 799.1478881835938 389.7396545410156 772.5498657226562 376.1902770996094 C 771.9154052734375 375.8663940429688 771.3823852539062 375.7113952636719 770.89501953125 375.7113952636719 C 770.0789184570312 375.7113952636719 769.3911743164062 376.1461486816406 768.5712280273438 376.9505310058594 C 759.2479248046875 386.0997619628906 748.066162109375 391.0105590820312 735.0712280273438 391.0105590820312 C 734.7535400390625 391.0105590820312 734.4342651367188 391.0076293945312 734.1143798828125 391.0017395019531 C 721.32958984375 390.764892578125 710.441650390625 385.6875305175781 701.376953125 376.7515563964844 C 700.6138916015625 375.9970397949219 699.9830322265625 375.6418151855469 699.25390625 375.6418151855469 C 698.777099609375 375.6418151855469 698.2581787109375 375.7938232421875 697.6329956054688 376.0854187011719 C 679.4723510742188 384.6050109863281 665.7489013671875 397.912109375 656.0830078125 415.2995300292969 C 650.516845703125 425.309326171875 648.8599243164062 436.5715026855469 647.4194946289062 447.8022766113281 C 647.083251953125 450.4572448730469 648.6350708007812 451.3634948730469 650.613037109375 451.7182006835938 C 657.1871337890625 452.9196472167969 663.76123046875 454.5245056152344 670.400146484375 454.9473571777344 C 691.9186401367188 456.307861328125 713.4588012695312 457.2075805664062 734.9892578125 458.286865234375 M 737.8792114257812 461.43310546875 L 734.8390502929688 461.2831115722656 C 728.8038330078125 460.9805603027344 722.6650390625 460.6872253417969 716.7283935546875 460.403564453125 C 701.4822387695312 459.675048828125 685.717041015625 458.9217529296875 670.2108764648438 457.9413757324219 C 665.0481567382812 457.612548828125 659.9443969726562 456.6007690429688 655.0086059570312 455.6222839355469 C 653.3887939453125 455.3011474609375 651.7138671875 454.9691467285156 650.0779418945312 454.6701049804688 C 648.3155517578125 454.3532104492188 646.9849243164062 453.7176208496094 646.0101318359375 452.72705078125 C 645.10546875 451.8077392578125 644.0992431640625 450.1416931152344 644.4432983398438 447.4253540039062 C 645.1512451171875 441.905517578125 645.9531860351562 436.0486755371094 647.2841796875 430.4044799804688 C 648.787109375 424.0312805175781 650.8075561523438 418.6134948730469 653.4611206054688 413.8415832519531 C 658.471435546875 404.8287963867188 664.5762939453125 396.8719177246094 671.60595703125 390.1922607421875 C 675.1802978515625 386.7959594726562 679.0643310546875 383.6634826660156 683.1503295898438 380.8818359375 C 687.2759399414062 378.0732116699219 691.7199096679688 375.5456848144531 696.35888671875 373.3694458007812 L 696.36181640625 373.3680419921875 L 696.36474609375 373.36669921875 C 697.4249267578125 372.8721618652344 698.3429565429688 372.6418151855469 699.25390625 372.6418151855469 C 701.2559204101562 372.6418151855469 702.6282348632812 373.7698669433594 703.486328125 374.6183471679688 C 707.8129272460938 378.8834838867188 712.551025390625 382.1742248535156 717.5657958984375 384.3959655761719 C 722.7220458984375 386.6803283691406 728.3084716796875 387.8936462402344 734.1699829101562 388.0022583007812 C 734.4700317382812 388.0077514648438 734.7734375 388.0105590820312 735.0712280273438 388.0105590820312 C 741.0694580078125 388.0105590820312 746.7737426757812 386.8799438476562 752.025634765625 384.6500854492188 C 757.1908569335938 382.4570617675781 762.0506591796875 379.1461486816406 766.4700317382812 374.8092956542969 C 767.4658813476562 373.8323669433594 768.868408203125 372.7113952636719 770.89501953125 372.7113952636719 C 771.86279296875 372.7113952636719 772.8502807617188 372.975341796875 773.9138793945312 373.518310546875 C 780.8428955078125 377.0480346679688 787.14453125 381.0044860839844 792.6414794921875 385.2765502929688 C 798.4020385742188 389.7535095214844 803.4697875976562 394.7247314453125 807.703857421875 400.0521240234375 C 812.1082153320312 405.59375 815.7479248046875 411.6927185058594 818.5219116210938 418.1796569824219 C 821.3812866210938 424.8662109375 823.406982421875 432.1666870117188 824.5428466796875 439.8782958984375 C 824.7035522460938 440.9783935546875 824.8777465820312 442.0965881347656 825.0462036132812 443.1779479980469 C 825.1686401367188 443.9638671875 825.2952270507812 444.7765502929688 825.416259765625 445.5794067382812 L 825.416748046875 445.5826416015625 L 825.417236328125 445.5858764648438 C 825.7753295898438 447.9974060058594 825.9763793945312 450.1412048339844 824.803955078125 451.9554443359375 C 823.5536499023438 453.8902587890625 821.3594970703125 454.52099609375 819.0303344726562 455.0451049804688 C 814.023681640625 456.1787414550781 809.4889526367188 456.966552734375 805.1708984375 457.4526977539062 C 795.4154663085938 458.5486755371094 785.29443359375 459.321044921875 774.2286376953125 459.81396484375 C 764.8391723632812 460.2322082519531 754.7144775390625 460.4469299316406 743.2760009765625 460.4703674316406 C 741.4942626953125 460.4731750488281 739.6943969726562 460.4741516113281 737.9132690429688 460.4745178222656 L 737.8792114257812 461.43310546875 Z"/></g><g class="a" transform="translate(-644.311 -285.762)"><path class="b" d="M 731.9578247070312 381.2469177246094 C 725.3948974609375 381.2469177246094 719.026611328125 379.9544677734375 713.0297241210938 377.4055480957031 C 707.2437133789062 374.9462280273438 702.0501098632812 371.4287109375 697.5932006835938 366.9507446289062 C 693.14208984375 362.4786376953125 689.6539306640625 357.2778015136719 687.2254638671875 351.4927062988281 C 684.7107543945312 345.5020751953125 683.4512939453125 339.1513671875 683.4820556640625 332.6169738769531 C 683.5112915039062 326.3064880371094 684.7384033203125 320.1455688476562 687.1292724609375 314.305419921875 C 689.4874267578125 308.5453186035156 692.8643188476562 303.3676147460938 697.1661987304688 298.9161682128906 C 701.56298828125 294.3665161132812 706.7246704101562 290.7894897460938 712.5077514648438 288.2844543457031 C 718.5880737304688 285.650634765625 725.1552734375 284.2976379394531 732.0269165039062 284.2630004882812 C 732.107421875 284.2626342773438 732.1890869140625 284.2624206542969 732.269287109375 284.2624206542969 C 738.806884765625 284.2624206542969 745.1328125 285.5459899902344 751.0712280273438 288.0774536132812 C 756.8008422851562 290.5198974609375 761.9387817382812 294.01904296875 766.34228515625 298.4777221679688 C 770.7366333007812 302.9270935058594 774.1846923828125 308.1138916015625 776.5906982421875 313.89404296875 C 779.075927734375 319.864501953125 780.3360595703125 326.2113342285156 780.3360595703125 332.7581481933594 C 780.3360595703125 339.3414001464844 779.0693359375 345.7085876464844 776.571044921875 351.6827392578125 C 774.1547241210938 357.4610900878906 770.688720703125 362.6412048339844 766.2694091796875 367.0791931152344 C 761.8499145507812 371.5173950195312 756.6878051757812 375.0016479492188 750.9265747070312 377.4351501464844 C 744.9696655273438 379.9512939453125 738.6181030273438 381.2337341308594 732.0482788085938 381.246826171875 L 731.9578247070312 381.2469177246094 Z"/><path class="c" d="M 731.957763671875 379.7468872070312 C 731.9863891601562 379.7468872070312 732.0166625976562 379.7468872070312 732.0452880859375 379.746826171875 C 758.0875854492188 379.6949157714844 778.8360595703125 358.8587951660156 778.8360595703125 332.7581481933594 C 778.8360595703125 306.8153991699219 758.1956176757812 285.7624206542969 732.269287109375 285.7624206542969 C 732.1915283203125 285.7624206542969 732.1123657226562 285.7626342773438 732.0344848632812 285.7630004882812 C 704.5507202148438 285.9014282226562 685.0966796875 307.8590393066406 684.9820556640625 332.6240539550781 C 684.8599243164062 358.5361328125 705.9367065429688 379.7468872070312 731.957763671875 379.7468872070312 M 731.957763671875 382.7469177246094 C 725.192138671875 382.7469177246094 718.6264038085938 381.4142761230469 712.4429321289062 378.7860107421875 C 706.4779663085938 376.2506103515625 701.1240844726562 372.6246643066406 696.530029296875 368.0089111328125 C 691.94189453125 363.3990783691406 688.3460083007812 358.0375366210938 685.8423461914062 352.0733032226562 C 683.2490844726562 345.8955993652344 681.9503173828125 339.34716796875 681.9820556640625 332.6098937988281 C 682.01220703125 326.1060791015625 683.2769165039062 319.7562866210938 685.7410888671875 313.7371215820312 C 688.1717529296875 307.7999877929688 691.6527709960938 302.4627685546875 696.0875854492188 297.873779296875 C 700.622314453125 293.181396484375 705.9462280273438 289.4919738769531 711.9114990234375 286.9080505371094 C 718.1787719726562 284.1932373046875 724.9440307617188 282.7986755371094 732.0193481445312 282.7630615234375 C 732.1024169921875 282.7626342773438 732.1865844726562 282.7624206542969 732.269287109375 282.7624206542969 C 739.0101928710938 282.7624206542969 745.5339965820312 284.08642578125 751.659423828125 286.6976013183594 C 757.5692749023438 289.2168579101562 762.8683471679688 292.8256225585938 767.4095458984375 297.4236755371094 C 771.9401245117188 302.010986328125 775.4950561523438 307.3584594726562 777.9755249023438 313.3175964355469 C 780.5371704101562 319.4716796875 781.8360595703125 326.0124206542969 781.8360595703125 332.7581481933594 C 781.8360595703125 339.5411376953125 780.5302734375 346.1029968261719 777.9549560546875 352.2614440917969 C 775.4632568359375 358.2198486328125 771.8893432617188 363.5613403320312 767.3323364257812 368.1376037597656 C 762.7748413085938 372.7143249511719 757.4515380859375 376.307373046875 751.51025390625 378.8169250488281 C 745.3685913085938 381.4111328125 738.8216552734375 382.7333068847656 732.05126953125 382.746826171875 L 731.957763671875 382.7469177246094 Z"/></g></g><g transform="translate(1702.724 3001.27)"><g class="a" transform="translate(-647.373 -278.443)"><path class="b" d="M 736.4342041015625 459.8611755371094 L 734.9141845703125 459.7849731445312 C 728.8764038085938 459.4823303222656 722.7359008789062 459.1889038085938 716.797607421875 458.9051513671875 C 701.5579223632812 458.1769714355469 685.7993774414062 457.4239807128906 670.3054809570312 456.4443664550781 C 665.2426147460938 456.1218872070312 660.1884155273438 455.1199340820312 655.3005981445312 454.1509704589844 C 653.6738891601562 453.8284912109375 651.9917602539062 453.4949951171875 650.3433837890625 453.1937866210938 C 648.899169921875 452.9347839355469 647.8298950195312 452.4376831054688 647.0792846679688 451.6749572753906 C 646.10205078125 450.6819152832031 645.7158813476562 449.3155517578125 645.931396484375 447.6138000488281 C 646.634033203125 442.1354675292969 647.4296875 436.3227844238281 648.744140625 430.7487487792969 C 650.2149047851562 424.5119323730469 652.1866455078125 419.2200012207031 654.7720336914062 414.570556640625 C 659.70849609375 405.690673828125 665.7199096679688 397.8544311523438 672.6392211914062 391.2796325683594 C 676.1549072265625 387.9390563964844 679.975341796875 384.8578796386719 683.9944458007812 382.1217651367188 C 688.0545043945312 379.3577880859375 692.4288330078125 376.8699645996094 696.9959106445312 374.7274169921875 C 697.8533935546875 374.3274230957031 698.5698852539062 374.1417846679688 699.25390625 374.1417846679688 C 700.687255859375 374.1417846679688 701.705078125 374.9664916992188 702.431640625 375.6849670410156 C 706.8892822265625 380.0792846679688 711.7772827148438 383.4720458984375 716.958251953125 385.7673950195312 C 722.2982177734375 388.1331787109375 728.0797119140625 389.3896789550781 734.1421508789062 389.5019836425781 C 734.4512329101562 389.5076599121094 734.763916015625 389.5105590820312 735.0713500976562 389.5105590820312 C 741.2720336914062 389.5105590820312 747.1735229492188 388.3398132324219 752.6118774414062 386.0307922363281 C 757.9506225585938 383.7640686035156 762.9666748046875 380.3488159179688 767.5206298828125 375.8799133300781 C 768.3617553710938 375.0547790527344 769.4202880859375 374.21142578125 770.89501953125 374.21142578125 C 771.6200561523438 374.21142578125 772.3844604492188 374.4216918945312 773.2318725585938 374.8542785644531 C 780.0777587890625 378.3416748046875 786.298828125 382.2469177246094 791.7210083007812 386.4609069824219 C 797.3873901367188 390.8646545410156 802.3696899414062 395.7514038085938 806.529541015625 400.9854125976562 C 810.8506469726562 406.4222412109375 814.42138671875 412.4056396484375 817.1427001953125 418.7694396972656 C 819.9513549804688 425.3373413085938 821.9418334960938 432.5129089355469 823.0588989257812 440.0968322753906 C 823.2203369140625 441.2020874023438 823.39501953125 442.3236999511719 823.5640258789062 443.4083557128906 C 823.6862182617188 444.192626953125 823.8125 445.0036315917969 823.9330444335938 445.802978515625 C 824.25732421875 447.9866027832031 824.4342041015625 449.7639465332031 823.544189453125 451.1412963867188 C 822.6010131835938 452.6007690429688 820.715087890625 453.1284790039062 818.7010498046875 453.5817260742188 C 813.7470092773438 454.7033996582031 809.2657470703125 455.482177734375 805.0031127929688 455.9621276855469 C 795.2817993164062 457.0542602539062 785.1936645507812 457.8240051269531 774.161865234375 458.3153991699219 C 764.7938842773438 458.7326965332031 754.6900024414062 458.9469604492188 743.2728881835938 458.9703674316406 C 741.0084838867188 458.9739379882812 738.7141723632812 458.9745788574219 736.4656982421875 458.9746704101562 L 736.4342041015625 459.8611755371094 Z"/><path class="c" d="M 734.9892578125 458.286865234375 C 734.9990234375 458.0121765136719 735.0087280273438 457.7396850585938 735.017333984375 457.4747009277344 C 737.7685546875 457.4747009277344 740.5186767578125 457.4747009277344 743.2698364257812 457.4703674316406 C 763.8388061523438 457.4281921386719 784.3798217773438 456.7695922851562 804.8352661132812 454.4715270996094 C 809.37841796875 453.9600219726562 813.9107666015625 453.1283569335938 818.3717041015625 452.1183166503906 C 822.7255249023438 451.1385192871094 823.0921630859375 450.352294921875 822.4497680664062 446.0265502929688 C 822.1632080078125 444.1253967285156 821.8538818359375 442.2252807617188 821.5748901367188 440.3154296875 C 817.0912475585938 409.8750305175781 799.1478881835938 389.7396545410156 772.5498657226562 376.1902770996094 C 771.9154052734375 375.8663940429688 771.3823852539062 375.7113952636719 770.89501953125 375.7113952636719 C 770.0789184570312 375.7113952636719 769.3911743164062 376.1461486816406 768.5712280273438 376.9505310058594 C 759.2479248046875 386.0997619628906 748.066162109375 391.0105590820312 735.0712280273438 391.0105590820312 C 734.7535400390625 391.0105590820312 734.4342651367188 391.0076293945312 734.1143798828125 391.0017395019531 C 721.32958984375 390.764892578125 710.441650390625 385.6875305175781 701.376953125 376.7515563964844 C 700.6138916015625 375.9970397949219 699.9830322265625 375.6418151855469 699.25390625 375.6418151855469 C 698.777099609375 375.6418151855469 698.2581787109375 375.7938232421875 697.6329956054688 376.0854187011719 C 679.4723510742188 384.6050109863281 665.7489013671875 397.912109375 656.0830078125 415.2995300292969 C 650.516845703125 425.309326171875 648.8599243164062 436.5715026855469 647.4194946289062 447.8022766113281 C 647.083251953125 450.4572448730469 648.6350708007812 451.3634948730469 650.613037109375 451.7182006835938 C 657.1871337890625 452.9196472167969 663.76123046875 454.5245056152344 670.400146484375 454.9473571777344 C 691.9186401367188 456.307861328125 713.4588012695312 457.2075805664062 734.9892578125 458.286865234375 M 737.8792114257812 461.43310546875 L 734.8390502929688 461.2831115722656 C 728.8038330078125 460.9805603027344 722.6650390625 460.6872253417969 716.7283935546875 460.403564453125 C 701.4822387695312 459.675048828125 685.717041015625 458.9217529296875 670.2108764648438 457.9413757324219 C 665.0481567382812 457.612548828125 659.9443969726562 456.6007690429688 655.0086059570312 455.6222839355469 C 653.3887939453125 455.3011474609375 651.7138671875 454.9691467285156 650.0779418945312 454.6701049804688 C 648.3155517578125 454.3532104492188 646.9849243164062 453.7176208496094 646.0101318359375 452.72705078125 C 645.10546875 451.8077392578125 644.0992431640625 450.1416931152344 644.4432983398438 447.4253540039062 C 645.1512451171875 441.905517578125 645.9531860351562 436.0486755371094 647.2841796875 430.4044799804688 C 648.787109375 424.0312805175781 650.8075561523438 418.6134948730469 653.4611206054688 413.8415832519531 C 658.471435546875 404.8287963867188 664.5762939453125 396.8719177246094 671.60595703125 390.1922607421875 C 675.1802978515625 386.7959594726562 679.0643310546875 383.6634826660156 683.1503295898438 380.8818359375 C 687.2759399414062 378.0732116699219 691.7199096679688 375.5456848144531 696.35888671875 373.3694458007812 L 696.36181640625 373.3680419921875 L 696.36474609375 373.36669921875 C 697.4249267578125 372.8721618652344 698.3429565429688 372.6418151855469 699.25390625 372.6418151855469 C 701.2559204101562 372.6418151855469 702.6282348632812 373.7698669433594 703.486328125 374.6183471679688 C 707.8129272460938 378.8834838867188 712.551025390625 382.1742248535156 717.5657958984375 384.3959655761719 C 722.7220458984375 386.6803283691406 728.3084716796875 387.8936462402344 734.1699829101562 388.0022583007812 C 734.4700317382812 388.0077514648438 734.7734375 388.0105590820312 735.0712280273438 388.0105590820312 C 741.0694580078125 388.0105590820312 746.7737426757812 386.8799438476562 752.025634765625 384.6500854492188 C 757.1908569335938 382.4570617675781 762.0506591796875 379.1461486816406 766.4700317382812 374.8092956542969 C 767.4658813476562 373.8323669433594 768.868408203125 372.7113952636719 770.89501953125 372.7113952636719 C 771.86279296875 372.7113952636719 772.8502807617188 372.975341796875 773.9138793945312 373.518310546875 C 780.8428955078125 377.0480346679688 787.14453125 381.0044860839844 792.6414794921875 385.2765502929688 C 798.4020385742188 389.7535095214844 803.4697875976562 394.7247314453125 807.703857421875 400.0521240234375 C 812.1082153320312 405.59375 815.7479248046875 411.6927185058594 818.5219116210938 418.1796569824219 C 821.3812866210938 424.8662109375 823.406982421875 432.1666870117188 824.5428466796875 439.8782958984375 C 824.7035522460938 440.9783935546875 824.8777465820312 442.0965881347656 825.0462036132812 443.1779479980469 C 825.1686401367188 443.9638671875 825.2952270507812 444.7765502929688 825.416259765625 445.5794067382812 L 825.416748046875 445.5826416015625 L 825.417236328125 445.5858764648438 C 825.7753295898438 447.9974060058594 825.9763793945312 450.1412048339844 824.803955078125 451.9554443359375 C 823.5536499023438 453.8902587890625 821.3594970703125 454.52099609375 819.0303344726562 455.0451049804688 C 814.023681640625 456.1787414550781 809.4889526367188 456.966552734375 805.1708984375 457.4526977539062 C 795.4154663085938 458.5486755371094 785.29443359375 459.321044921875 774.2286376953125 459.81396484375 C 764.8391723632812 460.2322082519531 754.7144775390625 460.4469299316406 743.2760009765625 460.4703674316406 C 741.4942626953125 460.4731750488281 739.6943969726562 460.4741516113281 737.9132690429688 460.4745178222656 L 737.8792114257812 461.43310546875 Z"/></g><g class="a" transform="translate(-644.311 -285.762)"><path class="b" d="M 731.9578247070312 381.2469177246094 C 725.3948974609375 381.2469177246094 719.026611328125 379.9544677734375 713.0297241210938 377.4055480957031 C 707.2437133789062 374.9462280273438 702.0501098632812 371.4287109375 697.5932006835938 366.9507446289062 C 693.14208984375 362.4786376953125 689.6539306640625 357.2778015136719 687.2254638671875 351.4927062988281 C 684.7107543945312 345.5020751953125 683.4512939453125 339.1513671875 683.4820556640625 332.6169738769531 C 683.5112915039062 326.3064880371094 684.7384033203125 320.1455688476562 687.1292724609375 314.305419921875 C 689.4874267578125 308.5453186035156 692.8643188476562 303.3676147460938 697.1661987304688 298.9161682128906 C 701.56298828125 294.3665161132812 706.7246704101562 290.7894897460938 712.5077514648438 288.2844543457031 C 718.5880737304688 285.650634765625 725.1552734375 284.2976379394531 732.0269165039062 284.2630004882812 C 732.107421875 284.2626342773438 732.1890869140625 284.2624206542969 732.269287109375 284.2624206542969 C 738.806884765625 284.2624206542969 745.1328125 285.5459899902344 751.0712280273438 288.0774536132812 C 756.8008422851562 290.5198974609375 761.9387817382812 294.01904296875 766.34228515625 298.4777221679688 C 770.7366333007812 302.9270935058594 774.1846923828125 308.1138916015625 776.5906982421875 313.89404296875 C 779.075927734375 319.864501953125 780.3360595703125 326.2113342285156 780.3360595703125 332.7581481933594 C 780.3360595703125 339.3414001464844 779.0693359375 345.7085876464844 776.571044921875 351.6827392578125 C 774.1547241210938 357.4610900878906 770.688720703125 362.6412048339844 766.2694091796875 367.0791931152344 C 761.8499145507812 371.5173950195312 756.6878051757812 375.0016479492188 750.9265747070312 377.4351501464844 C 744.9696655273438 379.9512939453125 738.6181030273438 381.2337341308594 732.0482788085938 381.246826171875 L 731.9578247070312 381.2469177246094 Z"/><path class="c" d="M 731.957763671875 379.7468872070312 C 731.9863891601562 379.7468872070312 732.0166625976562 379.7468872070312 732.0452880859375 379.746826171875 C 758.0875854492188 379.6949157714844 778.8360595703125 358.8587951660156 778.8360595703125 332.7581481933594 C 778.8360595703125 306.8153991699219 758.1956176757812 285.7624206542969 732.269287109375 285.7624206542969 C 732.1915283203125 285.7624206542969 732.1123657226562 285.7626342773438 732.0344848632812 285.7630004882812 C 704.5507202148438 285.9014282226562 685.0966796875 307.8590393066406 684.9820556640625 332.6240539550781 C 684.8599243164062 358.5361328125 705.9367065429688 379.7468872070312 731.957763671875 379.7468872070312 M 731.957763671875 382.7469177246094 C 725.192138671875 382.7469177246094 718.6264038085938 381.4142761230469 712.4429321289062 378.7860107421875 C 706.4779663085938 376.2506103515625 701.1240844726562 372.6246643066406 696.530029296875 368.0089111328125 C 691.94189453125 363.3990783691406 688.3460083007812 358.0375366210938 685.8423461914062 352.0733032226562 C 683.2490844726562 345.8955993652344 681.9503173828125 339.34716796875 681.9820556640625 332.6098937988281 C 682.01220703125 326.1060791015625 683.2769165039062 319.7562866210938 685.7410888671875 313.7371215820312 C 688.1717529296875 307.7999877929688 691.6527709960938 302.4627685546875 696.0875854492188 297.873779296875 C 700.622314453125 293.181396484375 705.9462280273438 289.4919738769531 711.9114990234375 286.9080505371094 C 718.1787719726562 284.1932373046875 724.9440307617188 282.7986755371094 732.0193481445312 282.7630615234375 C 732.1024169921875 282.7626342773438 732.1865844726562 282.7624206542969 732.269287109375 282.7624206542969 C 739.0101928710938 282.7624206542969 745.5339965820312 284.08642578125 751.659423828125 286.6976013183594 C 757.5692749023438 289.2168579101562 762.8683471679688 292.8256225585938 767.4095458984375 297.4236755371094 C 771.9401245117188 302.010986328125 775.4950561523438 307.3584594726562 777.9755249023438 313.3175964355469 C 780.5371704101562 319.4716796875 781.8360595703125 326.0124206542969 781.8360595703125 332.7581481933594 C 781.8360595703125 339.5411376953125 780.5302734375 346.1029968261719 777.9549560546875 352.2614440917969 C 775.4632568359375 358.2198486328125 771.8893432617188 363.5613403320312 767.3323364257812 368.1376037597656 C 762.7748413085938 372.7143249511719 757.4515380859375 376.307373046875 751.51025390625 378.8169250488281 C 745.3685913085938 381.4111328125 738.8216552734375 382.7333068847656 732.05126953125 382.746826171875 L 731.957763671875 382.7469177246094 Z"/></g></g><g transform="translate(1372.769 3001.27)"><g class="a" transform="translate(-647.373 -278.443)"><path class="b" d="M 736.4342041015625 459.8611755371094 L 734.9141845703125 459.7849731445312 C 728.8764038085938 459.4823303222656 722.7359008789062 459.1889038085938 716.797607421875 458.9051513671875 C 701.5579223632812 458.1769714355469 685.7993774414062 457.4239807128906 670.3054809570312 456.4443664550781 C 665.2426147460938 456.1218872070312 660.1884155273438 455.1199340820312 655.3005981445312 454.1509704589844 C 653.6738891601562 453.8284912109375 651.9917602539062 453.4949951171875 650.3433837890625 453.1937866210938 C 648.899169921875 452.9347839355469 647.8298950195312 452.4376831054688 647.0792846679688 451.6749572753906 C 646.10205078125 450.6819152832031 645.7158813476562 449.3155517578125 645.931396484375 447.6138000488281 C 646.634033203125 442.1354675292969 647.4296875 436.3227844238281 648.744140625 430.7487487792969 C 650.2149047851562 424.5119323730469 652.1866455078125 419.2200012207031 654.7720336914062 414.570556640625 C 659.70849609375 405.690673828125 665.7199096679688 397.8544311523438 672.6392211914062 391.2796325683594 C 676.1549072265625 387.9390563964844 679.975341796875 384.8578796386719 683.9944458007812 382.1217651367188 C 688.0545043945312 379.3577880859375 692.4288330078125 376.8699645996094 696.9959106445312 374.7274169921875 C 697.8533935546875 374.3274230957031 698.5698852539062 374.1417846679688 699.25390625 374.1417846679688 C 700.687255859375 374.1417846679688 701.705078125 374.9664916992188 702.431640625 375.6849670410156 C 706.8892822265625 380.0792846679688 711.7772827148438 383.4720458984375 716.958251953125 385.7673950195312 C 722.2982177734375 388.1331787109375 728.0797119140625 389.3896789550781 734.1421508789062 389.5019836425781 C 734.4512329101562 389.5076599121094 734.763916015625 389.5105590820312 735.0713500976562 389.5105590820312 C 741.2720336914062 389.5105590820312 747.1735229492188 388.3398132324219 752.6118774414062 386.0307922363281 C 757.9506225585938 383.7640686035156 762.9666748046875 380.3488159179688 767.5206298828125 375.8799133300781 C 768.3617553710938 375.0547790527344 769.4202880859375 374.21142578125 770.89501953125 374.21142578125 C 771.6200561523438 374.21142578125 772.3844604492188 374.4216918945312 773.2318725585938 374.8542785644531 C 780.0777587890625 378.3416748046875 786.298828125 382.2469177246094 791.7210083007812 386.4609069824219 C 797.3873901367188 390.8646545410156 802.3696899414062 395.7514038085938 806.529541015625 400.9854125976562 C 810.8506469726562 406.4222412109375 814.42138671875 412.4056396484375 817.1427001953125 418.7694396972656 C 819.9513549804688 425.3373413085938 821.9418334960938 432.5129089355469 823.0588989257812 440.0968322753906 C 823.2203369140625 441.2020874023438 823.39501953125 442.3236999511719 823.5640258789062 443.4083557128906 C 823.6862182617188 444.192626953125 823.8125 445.0036315917969 823.9330444335938 445.802978515625 C 824.25732421875 447.9866027832031 824.4342041015625 449.7639465332031 823.544189453125 451.1412963867188 C 822.6010131835938 452.6007690429688 820.715087890625 453.1284790039062 818.7010498046875 453.5817260742188 C 813.7470092773438 454.7033996582031 809.2657470703125 455.482177734375 805.0031127929688 455.9621276855469 C 795.2817993164062 457.0542602539062 785.1936645507812 457.8240051269531 774.161865234375 458.3153991699219 C 764.7938842773438 458.7326965332031 754.6900024414062 458.9469604492188 743.2728881835938 458.9703674316406 C 741.0084838867188 458.9739379882812 738.7141723632812 458.9745788574219 736.4656982421875 458.9746704101562 L 736.4342041015625 459.8611755371094 Z"/><path class="c" d="M 734.9892578125 458.286865234375 C 734.9990234375 458.0121765136719 735.0087280273438 457.7396850585938 735.017333984375 457.4747009277344 C 737.7685546875 457.4747009277344 740.5186767578125 457.4747009277344 743.2698364257812 457.4703674316406 C 763.8388061523438 457.4281921386719 784.3798217773438 456.7695922851562 804.8352661132812 454.4715270996094 C 809.37841796875 453.9600219726562 813.9107666015625 453.1283569335938 818.3717041015625 452.1183166503906 C 822.7255249023438 451.1385192871094 823.0921630859375 450.352294921875 822.4497680664062 446.0265502929688 C 822.1632080078125 444.1253967285156 821.8538818359375 442.2252807617188 821.5748901367188 440.3154296875 C 817.0912475585938 409.8750305175781 799.1478881835938 389.7396545410156 772.5498657226562 376.1902770996094 C 771.9154052734375 375.8663940429688 771.3823852539062 375.7113952636719 770.89501953125 375.7113952636719 C 770.0789184570312 375.7113952636719 769.3911743164062 376.1461486816406 768.5712280273438 376.9505310058594 C 759.2479248046875 386.0997619628906 748.066162109375 391.0105590820312 735.0712280273438 391.0105590820312 C 734.7535400390625 391.0105590820312 734.4342651367188 391.0076293945312 734.1143798828125 391.0017395019531 C 721.32958984375 390.764892578125 710.441650390625 385.6875305175781 701.376953125 376.7515563964844 C 700.6138916015625 375.9970397949219 699.9830322265625 375.6418151855469 699.25390625 375.6418151855469 C 698.777099609375 375.6418151855469 698.2581787109375 375.7938232421875 697.6329956054688 376.0854187011719 C 679.4723510742188 384.6050109863281 665.7489013671875 397.912109375 656.0830078125 415.2995300292969 C 650.516845703125 425.309326171875 648.8599243164062 436.5715026855469 647.4194946289062 447.8022766113281 C 647.083251953125 450.4572448730469 648.6350708007812 451.3634948730469 650.613037109375 451.7182006835938 C 657.1871337890625 452.9196472167969 663.76123046875 454.5245056152344 670.400146484375 454.9473571777344 C 691.9186401367188 456.307861328125 713.4588012695312 457.2075805664062 734.9892578125 458.286865234375 M 737.8792114257812 461.43310546875 L 734.8390502929688 461.2831115722656 C 728.8038330078125 460.9805603027344 722.6650390625 460.6872253417969 716.7283935546875 460.403564453125 C 701.4822387695312 459.675048828125 685.717041015625 458.9217529296875 670.2108764648438 457.9413757324219 C 665.0481567382812 457.612548828125 659.9443969726562 456.6007690429688 655.0086059570312 455.6222839355469 C 653.3887939453125 455.3011474609375 651.7138671875 454.9691467285156 650.0779418945312 454.6701049804688 C 648.3155517578125 454.3532104492188 646.9849243164062 453.7176208496094 646.0101318359375 452.72705078125 C 645.10546875 451.8077392578125 644.0992431640625 450.1416931152344 644.4432983398438 447.4253540039062 C 645.1512451171875 441.905517578125 645.9531860351562 436.0486755371094 647.2841796875 430.4044799804688 C 648.787109375 424.0312805175781 650.8075561523438 418.6134948730469 653.4611206054688 413.8415832519531 C 658.471435546875 404.8287963867188 664.5762939453125 396.8719177246094 671.60595703125 390.1922607421875 C 675.1802978515625 386.7959594726562 679.0643310546875 383.6634826660156 683.1503295898438 380.8818359375 C 687.2759399414062 378.0732116699219 691.7199096679688 375.5456848144531 696.35888671875 373.3694458007812 L 696.36181640625 373.3680419921875 L 696.36474609375 373.36669921875 C 697.4249267578125 372.8721618652344 698.3429565429688 372.6418151855469 699.25390625 372.6418151855469 C 701.2559204101562 372.6418151855469 702.6282348632812 373.7698669433594 703.486328125 374.6183471679688 C 707.8129272460938 378.8834838867188 712.551025390625 382.1742248535156 717.5657958984375 384.3959655761719 C 722.7220458984375 386.6803283691406 728.3084716796875 387.8936462402344 734.1699829101562 388.0022583007812 C 734.4700317382812 388.0077514648438 734.7734375 388.0105590820312 735.0712280273438 388.0105590820312 C 741.0694580078125 388.0105590820312 746.7737426757812 386.8799438476562 752.025634765625 384.6500854492188 C 757.1908569335938 382.4570617675781 762.0506591796875 379.1461486816406 766.4700317382812 374.8092956542969 C 767.4658813476562 373.8323669433594 768.868408203125 372.7113952636719 770.89501953125 372.7113952636719 C 771.86279296875 372.7113952636719 772.8502807617188 372.975341796875 773.9138793945312 373.518310546875 C 780.8428955078125 377.0480346679688 787.14453125 381.0044860839844 792.6414794921875 385.2765502929688 C 798.4020385742188 389.7535095214844 803.4697875976562 394.7247314453125 807.703857421875 400.0521240234375 C 812.1082153320312 405.59375 815.7479248046875 411.6927185058594 818.5219116210938 418.1796569824219 C 821.3812866210938 424.8662109375 823.406982421875 432.1666870117188 824.5428466796875 439.8782958984375 C 824.7035522460938 440.9783935546875 824.8777465820312 442.0965881347656 825.0462036132812 443.1779479980469 C 825.1686401367188 443.9638671875 825.2952270507812 444.7765502929688 825.416259765625 445.5794067382812 L 825.416748046875 445.5826416015625 L 825.417236328125 445.5858764648438 C 825.7753295898438 447.9974060058594 825.9763793945312 450.1412048339844 824.803955078125 451.9554443359375 C 823.5536499023438 453.8902587890625 821.3594970703125 454.52099609375 819.0303344726562 455.0451049804688 C 814.023681640625 456.1787414550781 809.4889526367188 456.966552734375 805.1708984375 457.4526977539062 C 795.4154663085938 458.5486755371094 785.29443359375 459.321044921875 774.2286376953125 459.81396484375 C 764.8391723632812 460.2322082519531 754.7144775390625 460.4469299316406 743.2760009765625 460.4703674316406 C 741.4942626953125 460.4731750488281 739.6943969726562 460.4741516113281 737.9132690429688 460.4745178222656 L 737.8792114257812 461.43310546875 Z"/></g><g class="a" transform="translate(-644.311 -285.762)"><path class="b" d="M 731.9578247070312 381.2469177246094 C 725.3948974609375 381.2469177246094 719.026611328125 379.9544677734375 713.0297241210938 377.4055480957031 C 707.2437133789062 374.9462280273438 702.0501098632812 371.4287109375 697.5932006835938 366.9507446289062 C 693.14208984375 362.4786376953125 689.6539306640625 357.2778015136719 687.2254638671875 351.4927062988281 C 684.7107543945312 345.5020751953125 683.4512939453125 339.1513671875 683.4820556640625 332.6169738769531 C 683.5112915039062 326.3064880371094 684.7384033203125 320.1455688476562 687.1292724609375 314.305419921875 C 689.4874267578125 308.5453186035156 692.8643188476562 303.3676147460938 697.1661987304688 298.9161682128906 C 701.56298828125 294.3665161132812 706.7246704101562 290.7894897460938 712.5077514648438 288.2844543457031 C 718.5880737304688 285.650634765625 725.1552734375 284.2976379394531 732.0269165039062 284.2630004882812 C 732.107421875 284.2626342773438 732.1890869140625 284.2624206542969 732.269287109375 284.2624206542969 C 738.806884765625 284.2624206542969 745.1328125 285.5459899902344 751.0712280273438 288.0774536132812 C 756.8008422851562 290.5198974609375 761.9387817382812 294.01904296875 766.34228515625 298.4777221679688 C 770.7366333007812 302.9270935058594 774.1846923828125 308.1138916015625 776.5906982421875 313.89404296875 C 779.075927734375 319.864501953125 780.3360595703125 326.2113342285156 780.3360595703125 332.7581481933594 C 780.3360595703125 339.3414001464844 779.0693359375 345.7085876464844 776.571044921875 351.6827392578125 C 774.1547241210938 357.4610900878906 770.688720703125 362.6412048339844 766.2694091796875 367.0791931152344 C 761.8499145507812 371.5173950195312 756.6878051757812 375.0016479492188 750.9265747070312 377.4351501464844 C 744.9696655273438 379.9512939453125 738.6181030273438 381.2337341308594 732.0482788085938 381.246826171875 L 731.9578247070312 381.2469177246094 Z"/><path class="c" d="M 731.957763671875 379.7468872070312 C 731.9863891601562 379.7468872070312 732.0166625976562 379.7468872070312 732.0452880859375 379.746826171875 C 758.0875854492188 379.6949157714844 778.8360595703125 358.8587951660156 778.8360595703125 332.7581481933594 C 778.8360595703125 306.8153991699219 758.1956176757812 285.7624206542969 732.269287109375 285.7624206542969 C 732.1915283203125 285.7624206542969 732.1123657226562 285.7626342773438 732.0344848632812 285.7630004882812 C 704.5507202148438 285.9014282226562 685.0966796875 307.8590393066406 684.9820556640625 332.6240539550781 C 684.8599243164062 358.5361328125 705.9367065429688 379.7468872070312 731.957763671875 379.7468872070312 M 731.957763671875 382.7469177246094 C 725.192138671875 382.7469177246094 718.6264038085938 381.4142761230469 712.4429321289062 378.7860107421875 C 706.4779663085938 376.2506103515625 701.1240844726562 372.6246643066406 696.530029296875 368.0089111328125 C 691.94189453125 363.3990783691406 688.3460083007812 358.0375366210938 685.8423461914062 352.0733032226562 C 683.2490844726562 345.8955993652344 681.9503173828125 339.34716796875 681.9820556640625 332.6098937988281 C 682.01220703125 326.1060791015625 683.2769165039062 319.7562866210938 685.7410888671875 313.7371215820312 C 688.1717529296875 307.7999877929688 691.6527709960938 302.4627685546875 696.0875854492188 297.873779296875 C 700.622314453125 293.181396484375 705.9462280273438 289.4919738769531 711.9114990234375 286.9080505371094 C 718.1787719726562 284.1932373046875 724.9440307617188 282.7986755371094 732.0193481445312 282.7630615234375 C 732.1024169921875 282.7626342773438 732.1865844726562 282.7624206542969 732.269287109375 282.7624206542969 C 739.0101928710938 282.7624206542969 745.5339965820312 284.08642578125 751.659423828125 286.6976013183594 C 757.5692749023438 289.2168579101562 762.8683471679688 292.8256225585938 767.4095458984375 297.4236755371094 C 771.9401245117188 302.010986328125 775.4950561523438 307.3584594726562 777.9755249023438 313.3175964355469 C 780.5371704101562 319.4716796875 781.8360595703125 326.0124206542969 781.8360595703125 332.7581481933594 C 781.8360595703125 339.5411376953125 780.5302734375 346.1029968261719 777.9549560546875 352.2614440917969 C 775.4632568359375 358.2198486328125 771.8893432617188 363.5613403320312 767.3323364257812 368.1376037597656 C 762.7748413085938 372.7143249511719 757.4515380859375 376.307373046875 751.51025390625 378.8169250488281 C 745.3685913085938 381.4111328125 738.8216552734375 382.7333068847656 732.05126953125 382.746826171875 L 731.957763671875 382.7469177246094 Z"/></g></g><g transform="translate(1537.151 3017.27)"><g class="a" transform="translate(-647.373 -278.443)"><path class="b" d="M 736.4342041015625 459.8611755371094 L 734.9141845703125 459.7849731445312 C 728.8764038085938 459.4823303222656 722.7359008789062 459.1889038085938 716.797607421875 458.9051513671875 C 701.5579223632812 458.1769714355469 685.7993774414062 457.4239807128906 670.3054809570312 456.4443664550781 C 665.2426147460938 456.1218872070312 660.1884155273438 455.1199340820312 655.3005981445312 454.1509704589844 C 653.6738891601562 453.8284912109375 651.9917602539062 453.4949951171875 650.3433837890625 453.1937866210938 C 648.899169921875 452.9347839355469 647.8298950195312 452.4376831054688 647.0792846679688 451.6749572753906 C 646.10205078125 450.6819152832031 645.7158813476562 449.3155517578125 645.931396484375 447.6138000488281 C 646.634033203125 442.1354675292969 647.4296875 436.3227844238281 648.744140625 430.7487487792969 C 650.2149047851562 424.5119323730469 652.1866455078125 419.2200012207031 654.7720336914062 414.570556640625 C 659.70849609375 405.690673828125 665.7199096679688 397.8544311523438 672.6392211914062 391.2796325683594 C 676.1549072265625 387.9390563964844 679.975341796875 384.8578796386719 683.9944458007812 382.1217651367188 C 688.0545043945312 379.3577880859375 692.4288330078125 376.8699645996094 696.9959106445312 374.7274169921875 C 697.8533935546875 374.3274230957031 698.5698852539062 374.1417846679688 699.25390625 374.1417846679688 C 700.687255859375 374.1417846679688 701.705078125 374.9664916992188 702.431640625 375.6849670410156 C 706.8892822265625 380.0792846679688 711.7772827148438 383.4720458984375 716.958251953125 385.7673950195312 C 722.2982177734375 388.1331787109375 728.0797119140625 389.3896789550781 734.1421508789062 389.5019836425781 C 734.4512329101562 389.5076599121094 734.763916015625 389.5105590820312 735.0713500976562 389.5105590820312 C 741.2720336914062 389.5105590820312 747.1735229492188 388.3398132324219 752.6118774414062 386.0307922363281 C 757.9506225585938 383.7640686035156 762.9666748046875 380.3488159179688 767.5206298828125 375.8799133300781 C 768.3617553710938 375.0547790527344 769.4202880859375 374.21142578125 770.89501953125 374.21142578125 C 771.6200561523438 374.21142578125 772.3844604492188 374.4216918945312 773.2318725585938 374.8542785644531 C 780.0777587890625 378.3416748046875 786.298828125 382.2469177246094 791.7210083007812 386.4609069824219 C 797.3873901367188 390.8646545410156 802.3696899414062 395.7514038085938 806.529541015625 400.9854125976562 C 810.8506469726562 406.4222412109375 814.42138671875 412.4056396484375 817.1427001953125 418.7694396972656 C 819.9513549804688 425.3373413085938 821.9418334960938 432.5129089355469 823.0588989257812 440.0968322753906 C 823.2203369140625 441.2020874023438 823.39501953125 442.3236999511719 823.5640258789062 443.4083557128906 C 823.6862182617188 444.192626953125 823.8125 445.0036315917969 823.9330444335938 445.802978515625 C 824.25732421875 447.9866027832031 824.4342041015625 449.7639465332031 823.544189453125 451.1412963867188 C 822.6010131835938 452.6007690429688 820.715087890625 453.1284790039062 818.7010498046875 453.5817260742188 C 813.7470092773438 454.7033996582031 809.2657470703125 455.482177734375 805.0031127929688 455.9621276855469 C 795.2817993164062 457.0542602539062 785.1936645507812 457.8240051269531 774.161865234375 458.3153991699219 C 764.7938842773438 458.7326965332031 754.6900024414062 458.9469604492188 743.2728881835938 458.9703674316406 C 741.0084838867188 458.9739379882812 738.7141723632812 458.9745788574219 736.4656982421875 458.9746704101562 L 736.4342041015625 459.8611755371094 Z"/><path class="c" d="M 734.9892578125 458.286865234375 C 734.9990234375 458.0121765136719 735.0087280273438 457.7396850585938 735.017333984375 457.4747009277344 C 737.7685546875 457.4747009277344 740.5186767578125 457.4747009277344 743.2698364257812 457.4703674316406 C 763.8388061523438 457.4281921386719 784.3798217773438 456.7695922851562 804.8352661132812 454.4715270996094 C 809.37841796875 453.9600219726562 813.9107666015625 453.1283569335938 818.3717041015625 452.1183166503906 C 822.7255249023438 451.1385192871094 823.0921630859375 450.352294921875 822.4497680664062 446.0265502929688 C 822.1632080078125 444.1253967285156 821.8538818359375 442.2252807617188 821.5748901367188 440.3154296875 C 817.0912475585938 409.8750305175781 799.1478881835938 389.7396545410156 772.5498657226562 376.1902770996094 C 771.9154052734375 375.8663940429688 771.3823852539062 375.7113952636719 770.89501953125 375.7113952636719 C 770.0789184570312 375.7113952636719 769.3911743164062 376.1461486816406 768.5712280273438 376.9505310058594 C 759.2479248046875 386.0997619628906 748.066162109375 391.0105590820312 735.0712280273438 391.0105590820312 C 734.7535400390625 391.0105590820312 734.4342651367188 391.0076293945312 734.1143798828125 391.0017395019531 C 721.32958984375 390.764892578125 710.441650390625 385.6875305175781 701.376953125 376.7515563964844 C 700.6138916015625 375.9970397949219 699.9830322265625 375.6418151855469 699.25390625 375.6418151855469 C 698.777099609375 375.6418151855469 698.2581787109375 375.7938232421875 697.6329956054688 376.0854187011719 C 679.4723510742188 384.6050109863281 665.7489013671875 397.912109375 656.0830078125 415.2995300292969 C 650.516845703125 425.309326171875 648.8599243164062 436.5715026855469 647.4194946289062 447.8022766113281 C 647.083251953125 450.4572448730469 648.6350708007812 451.3634948730469 650.613037109375 451.7182006835938 C 657.1871337890625 452.9196472167969 663.76123046875 454.5245056152344 670.400146484375 454.9473571777344 C 691.9186401367188 456.307861328125 713.4588012695312 457.2075805664062 734.9892578125 458.286865234375 M 737.8792114257812 461.43310546875 L 734.8390502929688 461.2831115722656 C 728.8038330078125 460.9805603027344 722.6650390625 460.6872253417969 716.7283935546875 460.403564453125 C 701.4822387695312 459.675048828125 685.717041015625 458.9217529296875 670.2108764648438 457.9413757324219 C 665.0481567382812 457.612548828125 659.9443969726562 456.6007690429688 655.0086059570312 455.6222839355469 C 653.3887939453125 455.3011474609375 651.7138671875 454.9691467285156 650.0779418945312 454.6701049804688 C 648.3155517578125 454.3532104492188 646.9849243164062 453.7176208496094 646.0101318359375 452.72705078125 C 645.10546875 451.8077392578125 644.0992431640625 450.1416931152344 644.4432983398438 447.4253540039062 C 645.1512451171875 441.905517578125 645.9531860351562 436.0486755371094 647.2841796875 430.4044799804688 C 648.787109375 424.0312805175781 650.8075561523438 418.6134948730469 653.4611206054688 413.8415832519531 C 658.471435546875 404.8287963867188 664.5762939453125 396.8719177246094 671.60595703125 390.1922607421875 C 675.1802978515625 386.7959594726562 679.0643310546875 383.6634826660156 683.1503295898438 380.8818359375 C 687.2759399414062 378.0732116699219 691.7199096679688 375.5456848144531 696.35888671875 373.3694458007812 L 696.36181640625 373.3680419921875 L 696.36474609375 373.36669921875 C 697.4249267578125 372.8721618652344 698.3429565429688 372.6418151855469 699.25390625 372.6418151855469 C 701.2559204101562 372.6418151855469 702.6282348632812 373.7698669433594 703.486328125 374.6183471679688 C 707.8129272460938 378.8834838867188 712.551025390625 382.1742248535156 717.5657958984375 384.3959655761719 C 722.7220458984375 386.6803283691406 728.3084716796875 387.8936462402344 734.1699829101562 388.0022583007812 C 734.4700317382812 388.0077514648438 734.7734375 388.0105590820312 735.0712280273438 388.0105590820312 C 741.0694580078125 388.0105590820312 746.7737426757812 386.8799438476562 752.025634765625 384.6500854492188 C 757.1908569335938 382.4570617675781 762.0506591796875 379.1461486816406 766.4700317382812 374.8092956542969 C 767.4658813476562 373.8323669433594 768.868408203125 372.7113952636719 770.89501953125 372.7113952636719 C 771.86279296875 372.7113952636719 772.8502807617188 372.975341796875 773.9138793945312 373.518310546875 C 780.8428955078125 377.0480346679688 787.14453125 381.0044860839844 792.6414794921875 385.2765502929688 C 798.4020385742188 389.7535095214844 803.4697875976562 394.7247314453125 807.703857421875 400.0521240234375 C 812.1082153320312 405.59375 815.7479248046875 411.6927185058594 818.5219116210938 418.1796569824219 C 821.3812866210938 424.8662109375 823.406982421875 432.1666870117188 824.5428466796875 439.8782958984375 C 824.7035522460938 440.9783935546875 824.8777465820312 442.0965881347656 825.0462036132812 443.1779479980469 C 825.1686401367188 443.9638671875 825.2952270507812 444.7765502929688 825.416259765625 445.5794067382812 L 825.416748046875 445.5826416015625 L 825.417236328125 445.5858764648438 C 825.7753295898438 447.9974060058594 825.9763793945312 450.1412048339844 824.803955078125 451.9554443359375 C 823.5536499023438 453.8902587890625 821.3594970703125 454.52099609375 819.0303344726562 455.0451049804688 C 814.023681640625 456.1787414550781 809.4889526367188 456.966552734375 805.1708984375 457.4526977539062 C 795.4154663085938 458.5486755371094 785.29443359375 459.321044921875 774.2286376953125 459.81396484375 C 764.8391723632812 460.2322082519531 754.7144775390625 460.4469299316406 743.2760009765625 460.4703674316406 C 741.4942626953125 460.4731750488281 739.6943969726562 460.4741516113281 737.9132690429688 460.4745178222656 L 737.8792114257812 461.43310546875 Z"/></g><g class="a" transform="translate(-644.311 -285.762)"><path class="b" d="M 731.9578247070312 381.2469177246094 C 725.3948974609375 381.2469177246094 719.026611328125 379.9544677734375 713.0297241210938 377.4055480957031 C 707.2437133789062 374.9462280273438 702.0501098632812 371.4287109375 697.5932006835938 366.9507446289062 C 693.14208984375 362.4786376953125 689.6539306640625 357.2778015136719 687.2254638671875 351.4927062988281 C 684.7107543945312 345.5020751953125 683.4512939453125 339.1513671875 683.4820556640625 332.6169738769531 C 683.5112915039062 326.3064880371094 684.7384033203125 320.1455688476562 687.1292724609375 314.305419921875 C 689.4874267578125 308.5453186035156 692.8643188476562 303.3676147460938 697.1661987304688 298.9161682128906 C 701.56298828125 294.3665161132812 706.7246704101562 290.7894897460938 712.5077514648438 288.2844543457031 C 718.5880737304688 285.650634765625 725.1552734375 284.2976379394531 732.0269165039062 284.2630004882812 C 732.107421875 284.2626342773438 732.1890869140625 284.2624206542969 732.269287109375 284.2624206542969 C 738.806884765625 284.2624206542969 745.1328125 285.5459899902344 751.0712280273438 288.0774536132812 C 756.8008422851562 290.5198974609375 761.9387817382812 294.01904296875 766.34228515625 298.4777221679688 C 770.7366333007812 302.9270935058594 774.1846923828125 308.1138916015625 776.5906982421875 313.89404296875 C 779.075927734375 319.864501953125 780.3360595703125 326.2113342285156 780.3360595703125 332.7581481933594 C 780.3360595703125 339.3414001464844 779.0693359375 345.7085876464844 776.571044921875 351.6827392578125 C 774.1547241210938 357.4610900878906 770.688720703125 362.6412048339844 766.2694091796875 367.0791931152344 C 761.8499145507812 371.5173950195312 756.6878051757812 375.0016479492188 750.9265747070312 377.4351501464844 C 744.9696655273438 379.9512939453125 738.6181030273438 381.2337341308594 732.0482788085938 381.246826171875 L 731.9578247070312 381.2469177246094 Z"/><path class="c" d="M 731.957763671875 379.7468872070312 C 731.9863891601562 379.7468872070312 732.0166625976562 379.7468872070312 732.0452880859375 379.746826171875 C 758.0875854492188 379.6949157714844 778.8360595703125 358.8587951660156 778.8360595703125 332.7581481933594 C 778.8360595703125 306.8153991699219 758.1956176757812 285.7624206542969 732.269287109375 285.7624206542969 C 732.1915283203125 285.7624206542969 732.1123657226562 285.7626342773438 732.0344848632812 285.7630004882812 C 704.5507202148438 285.9014282226562 685.0966796875 307.8590393066406 684.9820556640625 332.6240539550781 C 684.8599243164062 358.5361328125 705.9367065429688 379.7468872070312 731.957763671875 379.7468872070312 M 731.957763671875 382.7469177246094 C 725.192138671875 382.7469177246094 718.6264038085938 381.4142761230469 712.4429321289062 378.7860107421875 C 706.4779663085938 376.2506103515625 701.1240844726562 372.6246643066406 696.530029296875 368.0089111328125 C 691.94189453125 363.3990783691406 688.3460083007812 358.0375366210938 685.8423461914062 352.0733032226562 C 683.2490844726562 345.8955993652344 681.9503173828125 339.34716796875 681.9820556640625 332.6098937988281 C 682.01220703125 326.1060791015625 683.2769165039062 319.7562866210938 685.7410888671875 313.7371215820312 C 688.1717529296875 307.7999877929688 691.6527709960938 302.4627685546875 696.0875854492188 297.873779296875 C 700.622314453125 293.181396484375 705.9462280273438 289.4919738769531 711.9114990234375 286.9080505371094 C 718.1787719726562 284.1932373046875 724.9440307617188 282.7986755371094 732.0193481445312 282.7630615234375 C 732.1024169921875 282.7626342773438 732.1865844726562 282.7624206542969 732.269287109375 282.7624206542969 C 739.0101928710938 282.7624206542969 745.5339965820312 284.08642578125 751.659423828125 286.6976013183594 C 757.5692749023438 289.2168579101562 762.8683471679688 292.8256225585938 767.4095458984375 297.4236755371094 C 771.9401245117188 302.010986328125 775.4950561523438 307.3584594726562 777.9755249023438 313.3175964355469 C 780.5371704101562 319.4716796875 781.8360595703125 326.0124206542969 781.8360595703125 332.7581481933594 C 781.8360595703125 339.5411376953125 780.5302734375 346.1029968261719 777.9549560546875 352.2614440917969 C 775.4632568359375 358.2198486328125 771.8893432617188 363.5613403320312 767.3323364257812 368.1376037597656 C 762.7748413085938 372.7143249511719 757.4515380859375 376.307373046875 751.51025390625 378.8169250488281 C 745.3685913085938 381.4111328125 738.8216552734375 382.7333068847656 732.05126953125 382.746826171875 L 731.957763671875 382.7469177246094 Z"/></g></g></g></svg>