<svg xmlns="http://www.w3.org/2000/svg" width="528" height="471" viewBox="0 0 528 471"><defs><style>.a,.b,.d,.e{fill:#fff;}.a{stroke:#20783c;stroke-width:3px;}.c,.j{fill:#20783c;}.d{font-size:30px;}.d,.e{font-family:SegoeUI, Segoe UI;}.e{font-size:31px;}.f{fill:#d9d9d9;}.g{fill:#b1b1b1;}.h,.j{stroke:none;}.i{fill:none;}</style></defs><g transform="translate(-289 -3785)"><g class="a" transform="translate(550 3785)"><path class="h" d="M41,0H226a41,41,0,0,1,41,41v82a0,0,0,0,1,0,0H0a0,0,0,0,1,0,0V41A41,41,0,0,1,41,0Z"/><path class="i" d="M41,1.5H226A39.5,39.5,0,0,1,265.5,41v79a1.5,1.5,0,0,1-1.5,1.5H3A1.5,1.5,0,0,1,1.5,120V41A39.5,39.5,0,0,1,41,1.5Z"/></g><g class="b" transform="translate(289 3785)"><path class="h" d="M 478.9998168945312 469.4997253417969 L 48.99962997436523 469.4997253417969 C 42.58669662475586 469.4997253417969 36.36629486083984 468.2440490722656 30.51129531860352 465.7676696777344 C 24.85529518127441 463.3753967285156 19.77529525756836 459.9502563476562 15.41256141662598 455.5875244140625 C 11.04969501495361 451.2247924804688 7.624561309814453 446.1448669433594 5.23222827911377 440.4888000488281 C 2.75569486618042 434.6337890625 1.500028133392334 428.4132690429688 1.500028133392334 422.0001220703125 L 1.500028133392334 109.3059310913086 L 1.500028133392334 40.99953079223633 C 1.500028133392334 35.66653060913086 2.544228076934814 30.49386215209961 4.603561401367188 25.62512969970703 C 6.592961311340332 20.92173004150391 9.44129467010498 16.69732856750488 13.06936168670654 13.06926250457764 C 16.69749450683594 9.441196441650391 20.92202758789062 6.592862606048584 25.6254940032959 4.603462696075439 C 30.49436187744141 2.544195890426636 35.66722869873047 1.499995946884155 41.00042724609375 1.499995946884155 L 223.0002288818359 1.499995946884155 C 228.3332214355469 1.499995946884155 233.5058898925781 2.544129371643066 238.3746337890625 4.603462696075439 C 243.0779571533203 6.592862606048584 247.3023681640625 9.441196441650391 250.9304351806641 13.06926250457764 C 254.5585021972656 16.69732856750488 257.4068298339844 20.92173004150391 259.396240234375 25.62512969970703 C 261.45556640625 30.49386215209961 262.4996948242188 35.66653060913086 262.4996948242188 40.99953079223633 L 262.4996948242188 109.3059310913086 L 262.4996948242188 110.8059310913086 L 263.9996948242188 110.8059310913086 L 526.4994506835938 110.8059310913086 L 526.4994506835938 422.0001220703125 C 526.4994506835938 428.413330078125 525.2437744140625 434.6337890625 522.767333984375 440.4888610839844 C 520.3751220703125 446.1448669433594 516.9500122070312 451.224853515625 512.5872802734375 455.5875854492188 C 508.2245483398438 459.9503173828125 503.1445617675781 463.3753967285156 497.4885559082031 465.7676696777344 C 491.6334838867188 468.2440490722656 485.4130249023438 469.4997253417969 478.9998168945312 469.4997253417969 Z"/><path class="j" d="M 478.9998168945312 467.9997253417969 C 485.2111511230469 467.9997253417969 491.235107421875 466.783935546875 496.9042358398438 464.3861389160156 C 502.3815002441406 462.0694580078125 507.3011474609375 458.7524108886719 511.5266418457031 454.5269165039062 C 515.7520751953125 450.3014526367188 519.0691528320312 445.3818054199219 521.3858032226562 439.904541015625 C 523.7836303710938 434.2353820800781 524.9994506835938 428.2114562988281 524.9994506835938 422.0001220703125 L 524.9994506835938 112.3059310913086 L 263.9996948242188 112.3059310913086 L 260.9996948242188 112.3059310913086 L 260.9996948242188 109.3059310913086 L 260.9996948242188 40.99953079223633 C 260.9996948242188 35.8683967590332 259.9954223632812 30.89226341247559 258.0147094726562 26.20946311950684 C 256.1009521484375 21.68486213684082 253.3605651855469 17.62072944641113 249.8697662353516 14.1299295425415 C 246.3789672851562 10.63912963867188 242.3148345947266 7.89872932434082 237.7902984619141 5.98499584197998 C 233.107421875 4.004262447357178 228.1313629150391 2.999995946884155 223.0002288818359 2.999995946884155 L 41.00042724609375 2.999995946884155 C 35.86909484863281 2.999995946884155 30.89276123046875 4.004329204559326 26.2098274230957 5.98499584197998 C 21.68509483337402 7.898796081542969 17.62089538574219 10.63912963867188 14.13002777099609 14.1299295425415 C 10.63916110992432 17.62072944641113 7.898828029632568 21.68486213684082 5.985028266906738 26.20946311950684 C 4.004361629486084 30.89226341247559 3.000028133392334 35.8683967590332 3.000028133392334 40.99953079223633 L 3.000028133392334 109.3059310913086 L 3.000028133392334 422.0001220703125 C 3.000028133392334 428.2114562988281 4.215827941894531 434.2353210449219 6.613761425018311 439.9044494628906 C 8.930428504943848 445.3817443847656 12.2476282119751 450.3013916015625 16.4731616973877 454.52685546875 C 20.69869422912598 458.7523193359375 25.61842727661133 462.0694580078125 31.09562873840332 464.3861389160156 C 36.76476287841797 466.783935546875 42.78849411010742 467.9997253417969 48.99962997436523 467.9997253417969 L 478.9998168945312 467.9997253417969 M 478.9998168945312 470.9997253417969 L 48.99962997436523 470.9997253417969 C 21.93842887878418 470.9997253417969 2.815755215124227e-05 449.062255859375 2.815755215124227e-05 422.0001220703125 L 2.815755215124227e-05 109.3059310913086 L 2.815755215124227e-05 40.99953079223633 C 2.815755215124227e-05 18.35639572143555 18.3564281463623 -3.995768111053621e-06 41.00042724609375 -3.995768111053621e-06 L 223.0002288818359 -3.995768111053621e-06 C 245.6432952880859 -3.995768111053621e-06 263.9996948242188 18.35639572143555 263.9996948242188 40.99953079223633 L 263.9996948242188 109.3059310913086 L 527.9994506835938 109.3059310913086 L 527.9994506835938 422.0001220703125 C 527.9994506835938 449.062255859375 506.0619506835938 470.9997253417969 478.9998168945312 470.9997253417969 Z"/></g><rect class="c" width="200" height="49" rx="20" transform="translate(323 3828)"/><path class="c" d="M20,0H181a20,20,0,0,1,20,20v9a20,20,0,0,1-20,20H20A20,20,0,0,1,0,29V20A20,20,0,0,1,20,0Z" transform="translate(583 3828)"/><text class="d" transform="translate(379 3858)"><tspan x="0" y="0">Profile</tspan></text><text class="e" transform="translate(628 3859)"><tspan x="0" y="0">Projects</tspan></text><rect class="f" width="227" height="48" rx="24" transform="translate(323 3934)"/><rect class="c" width="470" height="17" rx="8.5" transform="translate(323 4028)"/><g transform="translate(5 13)"><circle class="g" cx="17" cy="17" r="17" transform="translate(423 4078)"/><circle class="g" cx="17" cy="17" r="17" transform="translate(639 4078)"/><circle class="g" cx="17" cy="17" r="17" transform="translate(423 4132)"/><circle class="g" cx="17" cy="17" r="17" transform="translate(639 4132)"/></g></g></svg>