<svg xmlns="http://www.w3.org/2000/svg" width="684" height="275" viewBox="0 0 684 275"><defs><style>.a,.d{fill:#20783c;}.a{stroke:#707070;}.b{fill:#fff;}.c,.e,.g{fill:none;}.c,.e{stroke:#20783c;stroke-linecap:round;}.c{stroke-width:5px;}.e{stroke-width:3px;}.f{stroke:none;}</style></defs><g transform="translate(-1242 -6896)"><g transform="translate(-25 -11)"><g class="a" transform="translate(1267 7011)"><rect class="f" width="326" height="67" rx="33.5"/><rect class="g" x="0.5" y="0.5" width="325" height="66" rx="33"/></g><g transform="translate(-44 67)"><circle class="b" cx="26.5" cy="26.5" r="26.5" transform="translate(1577 6951)"/><path class="c" d="M8551.739,6918.97l10.6,12.363,20.755-30.91" transform="translate(-6964 61.169)"/></g></g><g transform="translate(55 79)"><g transform="translate(1643 6817)"><g class="a"><rect class="f" width="228" height="47" rx="23.5"/><rect class="g" x="0.5" y="0.5" width="227" height="46" rx="23"/></g><g transform="translate(185.871 4.891)"><circle class="b" cx="18.5" cy="18.5" r="18.5" transform="translate(0.129 0.109)"/></g></g><g transform="translate(1643 6893.165)"><g class="a" transform="translate(0 -0.165)"><rect class="f" width="228" height="47" rx="23.5"/><rect class="g" x="0.5" y="0.5" width="227" height="46" rx="23"/></g><g transform="translate(185.871 4.891)"><circle class="b" cx="18.5" cy="18.5" r="18.5" transform="translate(0.129 -0.056)"/><path class="c" d="M8551.74,6913.383l7.4,8.639,14.5-21.6" transform="translate(-8544.236 -6893.022)"/></g></g><g transform="translate(1643 6969.33)"><g class="a" transform="translate(0 -0.33)"><rect class="f" width="228" height="47" rx="23.5"/><rect class="g" x="0.5" y="0.5" width="227" height="46" rx="23"/></g><g transform="translate(185.871 4.891)"><circle class="b" cx="18.5" cy="18.5" r="18.5" transform="translate(0.129 -0.221)"/></g></g><g transform="translate(1643 7045.496)"><g class="a" transform="translate(0 -0.496)"><rect class="f" width="228" height="47" rx="23.5"/><rect class="g" x="0.5" y="0.5" width="227" height="46" rx="23"/></g><g transform="translate(185.871 4.891)"><circle class="b" cx="18.5" cy="18.5" r="18.5" transform="translate(0.129 -0.387)"/></g></g></g><g transform="translate(0.94)"><path class="d" d="M10.5,0,21,18H0Z" transform="translate(1692.463 6927.171) rotate(49)"/><line class="e" y1="90.346" x2="114.06" transform="translate(1577.5 6941.5)"/></g><g transform="translate(1578.04 7032.126)"><path class="d" d="M10.5,0,21,18H0Z" transform="translate(129.141 89.525) rotate(131)"/><line class="e" x2="114.46" y2="91.044" transform="translate(0 0)"/></g><g transform="translate(1578.306 7032.332) rotate(-22)"><path class="d" d="M10.5,0,21,18H0Z" transform="translate(104.471 66.909) rotate(131)"/><line class="e" x2="89.79" y2="68.429" transform="translate(0 0)"/></g><g transform="translate(1609.307 6955.196) rotate(22)"><path class="d" d="M10.5,0,21,18H0Z" transform="translate(90.693 0) rotate(49)"/><line class="e" y1="68.429" x2="89.79" transform="translate(0 14.329)"/></g></g></svg>