<svg width="257" height="68" viewBox="0 0 257 68" fill="#1e783c" xmlns="http://www.w3.org/2000/svg">
<path d="M49.204 30.44C49.204 25.48 47.198 23.001 43.184 23.001C41.456 23.006 39.824 23.789 38.736 25.132C37.452 26.629 36.655 28.48 36.455 30.441H49.204V30.44ZM24.049 50.87C22.469 51.706 20.09 52.122 16.913 52.122C9.381 52.122 5.614 48.21 5.614 40.384V24.522H0V16.642H5.613V9.168L16.271 6.123V16.642H24.05V24.522H16.267V38.523C16.267 42.132 17.7 43.935 20.563 43.935C21.79 43.908 22.986 43.572 24.045 42.956L24.049 50.87ZM59.113 37.002H36.519C36.881 42.029 40.049 44.543 46.024 44.543C49.56 44.619 53.046 43.678 56.067 41.84V49.551C52.867 51.266 48.708 52.119 43.588 52.119C37.996 52.119 33.653 50.568 30.566 47.471C27.477 44.367 25.933 40.047 25.933 34.498C25.933 28.749 27.602 24.193 30.939 20.834C34.166 17.519 38.627 15.692 43.253 15.794C48.303 15.794 52.211 17.295 54.973 20.294C57.737 23.295 59.118 27.363 59.118 32.503L59.113 37.002ZM97.629 47.319C97.629 53.743 95.768 58.721 92.048 62.251C88.327 65.778 82.939 67.544 75.88 67.544C71.213 67.544 67.515 66.88 64.788 65.548V56.554C68.039 58.54 71.767 59.613 75.579 59.665C79.185 59.665 81.981 58.71 83.967 56.804C85.95 54.902 86.943 52.314 86.943 49.046V46.304H86.808C84.372 50.183 80.776 52.12 76.019 52.12C71.597 52.12 68.092 50.563 65.5 47.45C62.907 44.341 61.609 40.169 61.606 34.938C61.606 29.076 63.049 24.419 65.936 20.969C68.822 17.52 72.624 15.795 77.333 15.794C81.549 15.794 84.707 17.418 86.806 20.664H86.94V16.639H97.63L97.629 47.319ZM87.076 34.633V31.895C87.127 29.854 86.435 27.866 85.131 26.296C83.898 24.78 82.029 23.927 80.077 23.981C77.87 23.903 75.769 24.946 74.498 26.755C73.144 28.604 72.471 31.21 72.471 34.568C72.471 37.455 73.112 39.738 74.398 41.418C75.636 43.07 77.607 44.012 79.671 43.934C81.764 43.989 83.757 43.038 85.03 41.379C86.392 39.678 87.076 37.432 87.076 34.633ZM174.583 37.206V34.87L168.292 35.683C164.819 36.136 163.085 37.703 163.085 40.384C163.046 41.521 163.513 42.614 164.353 43.38C165.304 44.193 166.534 44.612 167.787 44.544C169.648 44.605 171.442 43.847 172.692 42.466C173.974 41.018 174.653 39.135 174.583 37.206ZM150.022 51.276H139.333V0H150.022V51.276ZM184.629 51.276H174.516V46.303H174.379C172.058 50.182 168.617 52.119 164.064 52.119C160.704 52.119 158.063 51.164 156.131 49.262C154.199 47.354 153.237 44.813 153.237 41.633C153.237 34.914 157.216 31.033 165.175 29.998L174.579 28.747C174.579 24.957 172.524 23.062 168.421 23.062C164.216 23.086 160.116 24.372 156.651 26.751V18.699C158.595 17.776 160.647 17.095 162.756 16.67C165.067 16.116 167.432 15.821 169.806 15.791C179.683 15.791 184.621 20.718 184.621 30.57L184.629 51.276ZM195.35 52.122C193.729 52.173 192.15 51.591 190.952 50.499C189.813 49.487 189.171 48.028 189.195 46.507C189.154 44.97 189.818 43.499 191.001 42.515C192.264 41.456 193.874 40.904 195.518 40.958C197.157 40.892 198.763 41.452 200.001 42.528C201.14 43.53 201.778 44.987 201.741 46.503C201.785 48.05 201.134 49.532 199.964 50.548C198.676 51.629 197.03 52.192 195.35 52.122ZM216.837 51.276H206.147V0H216.835V51.275H216.837V51.276ZM256.276 51.276H243.458L232.395 34.091H232.26V51.276H221.571V0H232.26V32.637H232.395L242.711 16.64H255.392L242.982 32.908L256.276 51.276Z" />
<path d="M118.305 15.757C108.25 15.757 100.1 23.905 100.1 33.962C100.1 44.016 108.25 52.166 118.305 52.166C128.359 52.166 136.508 44.016 136.508 33.962C136.508 23.906 128.359 15.757 118.305 15.757ZM119.574 50.788C110.898 50.788 103.869 43.755 103.869 35.081C103.532 27.341 110.08 20.012 119.538 22.865C127.986 26.277 127.764 34.167 126.943 37.071C126.701 37.928 127.582 38.118 127.916 37.688C129.738 35.362 130.125 34.354 130.812 31.342C131.317 29.132 130.613 25.852 130.434 25.304C130.267 24.787 130.983 24.27 131.43 24.782C133.845 27.523 135.279 31.14 135.279 35.081C135.277 43.754 128.249 50.788 119.574 50.788Z" />
</svg>